<?xml version="1.0" encoding="utf-8"?>
<!-- Generator: Adobe Illustrator 19.0.0, SVG Export Plug-In . SVG Version: 6.00 Build 0)  -->
<svg version="1.1" xmlns="http://www.w3.org/2000/svg" xmlns:xlink="http://www.w3.org/1999/xlink" x="0px" y="0px"
	 viewBox="0 0 1600 1200" style="enable-background:new 0 0 1600 1200;" xml:space="preserve">
<style type="text/css">
	.st0{fill:#161616;}
	.st1{fill:#E8E8E8;}
	.st2{opacity:7.000000e-002;fill:#353535;}
	.st3{fill:#FFFFFF;}
	.st4{opacity:6.000000e-002;fill:#353535;}
	.st5{opacity:0.1;fill:#353535;}
	.st6{opacity:0.39;fill:#EC615B;}
	.st7{opacity:0.39;}
	.st8{fill:#EC615B;}
	.st9{opacity:9.000000e-002;fill:#353535;}
	.st10{opacity:8.000000e-002;fill:#353535;}
	.st11{opacity:5.000000e-002;fill:#353535;}
	.st12{fill:#5222D0;}
	.st13{opacity:0.13;fill:#353535;}
</style>
<g id="background">
	<g>
		<g>
			<path class="st0" d="M494.2,982.2c-85.3,0-170.6,0-255.9,0c-1.9,0-1.9,3,0,3c85.3,0,170.6,0,255.9,0
				C496.1,985.2,496.1,982.2,494.2,982.2L494.2,982.2z"/>
		</g>
	</g>
	<g>
		<g>
			<path class="st0" d="M799.8,967.2c71.2,0,142.3,0,213.5,0c20.2,0,40.4,0,60.6,0c1.9,0,1.9-3,0-3c-71.2,0-142.3,0-213.5,0
				c-20.2,0-40.4,0-60.6,0C797.9,964.2,797.9,967.2,799.8,967.2L799.8,967.2z"/>
		</g>
	</g>
	<g>
		<g>
			<path class="st0" d="M1090.4,967.2c54.7,0,109.4,0,164.1,0c1.9,0,1.9-3,0-3c-54.7,0-109.4,0-164.1,0
				C1088.5,964.2,1088.5,967.2,1090.4,967.2L1090.4,967.2z"/>
		</g>
	</g>
	<g>
		<g>
			<path class="st0" d="M1278.6,967.2c9.5,0,19.1,0,28.6,0c1.9,0,1.9-3,0-3c-9.5,0-19.1,0-28.6,0
				C1276.7,964.2,1276.6,967.2,1278.6,967.2L1278.6,967.2z"/>
		</g>
	</g>
	<g>
		<g>
			<path class="st1" d="M1143.9,963.8c0-33.6,0-67.3,0-100.9c0-1.9-3-1.9-3,0c0,33.6,0,67.3,0,100.9
				C1140.9,965.7,1143.9,965.7,1143.9,963.8L1143.9,963.8z"/>
		</g>
	</g>
	<g>
		<g>
			<path class="st1" d="M1143,864.4c60.3,0,120.7,0,181,0c1.9,0,1.9-3,0-3c-60.3,0-120.7,0-181,0
				C1141.1,861.4,1141.1,864.4,1143,864.4L1143,864.4z"/>
		</g>
	</g>
	<g>
		<g>
			<path class="st1" d="M1323.1,865.4c0,32,0,64,0,96c0,1.9,3,1.9,3,0c0-32,0-64,0-96C1326.1,863.4,1323.1,863.4,1323.1,865.4
				L1323.1,865.4z"/>
		</g>
	</g>
	<g>
		<g>
			<path class="st1" d="M1159.8,874.5c0,24,0,48.1,0,72.1c0,1.9,3,1.9,3,0c0-24,0-48.1,0-72.1
				C1162.8,872.6,1159.8,872.6,1159.8,874.5L1159.8,874.5z"/>
		</g>
	</g>
	<g>
		<g>
			<path class="st1" d="M1183.1,875.1c0,21.8,0,43.6,0,65.4c0,1.9,3,1.9,3,0c0-21.8,0-43.6,0-65.4
				C1186.1,873.2,1183.1,873.2,1183.1,875.1L1183.1,875.1z"/>
		</g>
	</g>
	<g>
		<g>
			<path class="st1" d="M1208.8,873.3c0,21.6,0,43.2,0,64.8c0,1.9,3,1.9,3,0c0-21.6,0-43.2,0-64.8
				C1211.8,871.4,1208.8,871.4,1208.8,873.3L1208.8,873.3z"/>
		</g>
	</g>
	<g>
		<g>
			<path class="st1" d="M1235.1,877.6c0,22,0,44,0,66c0,1.9,3,1.9,3,0c0-22,0-44,0-66C1238.1,875.7,1235.1,875.6,1235.1,877.6
				L1235.1,877.6z"/>
		</g>
	</g>
	<g>
		<g>
			<path class="st1" d="M1260.7,878.8c0,22.6,0,45.2,0,67.9c0,1.9,3,1.9,3,0c0-22.6,0-45.2,0-67.9
				C1263.7,876.9,1260.7,876.9,1260.7,878.8L1260.7,878.8z"/>
		</g>
	</g>
	<g>
		<g>
			<path class="st1" d="M1292.5,879.4c0,21.4,0,42.8,0,64.2c0,1.9,3,1.9,3,0c0-21.4,0-42.8,0-64.2
				C1295.5,877.5,1292.5,877.5,1292.5,879.4L1292.5,879.4z"/>
		</g>
	</g>
	<g>
		<g>
			<path class="st1" d="M1313.9,882.5c0,19.2,0,38.3,0,57.5c0,1.9,3,1.9,3,0c0-19.2,0-38.3,0-57.5
				C1316.9,880.5,1313.9,880.5,1313.9,882.5L1313.9,882.5z"/>
		</g>
	</g>
	<g>
		<g>
			<path class="st1" d="M1075.5,379.2c77.1,0,154.3,0,231.4,0c21.9,0,43.9,0,65.8,0c1.9,0,1.9-3,0-3c-77.1,0-154.3,0-231.4,0
				c-21.9,0-43.9,0-65.8,0C1073.5,376.2,1073.5,379.2,1075.5,379.2L1075.5,379.2z"/>
		</g>
	</g>
	<g>
		<g>
			<path class="st1" d="M1077,376.8c0-6.6,0-13.1,0-19.7c0-1.9-3-1.9-3,0c0,6.6,0,13.1,0,19.7C1074,378.8,1077,378.8,1077,376.8
				L1077,376.8z"/>
		</g>
	</g>
	<g>
		<g>
			<path class="st1" d="M1075.5,359.5c76.3,0,152.6,0,228.8,0c21.9,0,43.8,0,65.7,0c1.9,0,1.9-3,0-3c-76.3,0-152.6,0-228.8,0
				c-21.9,0-43.8,0-65.7,0C1073.5,356.5,1073.5,359.5,1075.5,359.5L1075.5,359.5z"/>
		</g>
	</g>
	<g>
		<g>
			<path class="st1" d="M1369.4,358.9c0,6.6,0,13.1,0,19.7c0,1.9,3,1.9,3,0c0-6.6,0-13.1,0-19.7C1372.4,357,1369.4,357,1369.4,358.9
				L1369.4,358.9z"/>
		</g>
	</g>
	<g>
		<g>
			<path class="st1" d="M1106.8,280.8c0.9,6.8,1.9,13.8,0.9,20.7c-0.9,6.6-3.8,12.5-6.3,18.6c-4.8,11.5-7.3,23.5-7.2,35.9
				c0,1.9,3,1.9,3,0c0-14.2,3.6-26.8,9.1-39.7c2-4.7,3.8-9.5,4.5-14.6c0.9-7,0-13.9-0.9-20.9
				C1109.5,278.9,1106.5,278.9,1106.8,280.8L1106.8,280.8z"/>
		</g>
	</g>
	<g>
		<g>
			<path class="st1" d="M1109.2,282.1c3.3-1.6,7-2.2,10.7-1.4c2.1,0.5,2.5,1.7,3.1,3.5c0.3,0.9,0.4,1.3,1,2.1
				c1.2,1.5,3.3-0.6,2.1-2.1c-0.8-1,0-3-1.1-4.2c-1.1-1.4-3.3-1.9-4.9-2.2c-4.3-0.8-8.6-0.1-12.5,1.8
				C1105.9,280.3,1107.4,282.9,1109.2,282.1L1109.2,282.1z"/>
		</g>
	</g>
	<g>
		<g>
			<path class="st1" d="M1123.1,283c-0.9,12.1,2.2,22.8,7.8,33.4c6.7,12.7,7.8,25.9,8.2,40.1c0.1,1.9,3.1,1.9,3,0
				c-0.4-12.1-0.8-24.6-5.8-35.8c-2.6-5.9-6.1-11.2-8-17.4c-2.1-6.6-2.7-13.4-2.2-20.3C1126.3,281.1,1123.2,281.1,1123.1,283
				L1123.1,283z"/>
		</g>
	</g>
	<g>
		<g>
			<path class="st1" d="M1170.5,355.6c1.4-2.7,0.1-5.6,1.9-7.9c2.8-3.4,11.7-3.3,15.7-3.7c8.9-0.9,17.7-0.8,26.6-0.1
				c8.9,0.7,17.8,1.9,26.8,2.3c4.4,0.2,8.8,0.1,13.2,0c4.4-0.1,16.5,1.3,11.9,8.8c-1,1.6,1.6,3.2,2.6,1.5c4.1-6.6-2.7-12.5-9-13.3
				c-5.5-0.7-11.2,0.2-16.8,0c-6.7-0.2-13.4-0.9-20.1-1.6c-12.7-1.2-25.3-1.9-38-0.4c-4.4,0.5-11,0.5-14.8,3
				c-3.8,2.5-0.9,6.3-2.6,9.7C1167,355.8,1169.6,357.4,1170.5,355.6L1170.5,355.6z"/>
		</g>
	</g>
	<g>
		<g>
			<path class="st1" d="M1207.1,340.9c0.9-2.2,0.4-4.4,1.1-6.6c1.8-5.6,8.9-3.9,13.2-3.9c8,0,15.9,0,23.9,0.1
				c15.9,0,31.8,0.1,47.8,0.1c-0.5-0.4-1-0.7-1.4-1.1c1.1,5.1,2,10.2,2.7,15.4c0.2,1.9,3.2,1.9,3,0c-0.7-5.5-1.6-10.9-2.8-16.2
				c-0.1-0.6-0.8-1.1-1.4-1.1c-19.2-0.1-38.5-0.1-57.7-0.2c-4.6,0-9.3,0-13.9,0c-3.5,0-7.5-0.6-11,0.2c-6.5,1.5-4.2,7.8-6.1,12.5
				C1203.5,341.9,1206.4,342.7,1207.1,340.9L1207.1,340.9z"/>
		</g>
	</g>
	<g>
		<g>
			<path class="st1" d="M1268.2,348.6c8.7,0.5,17.4,0.3,26-0.7c1.9-0.2,1.9-3.2,0-3c-8.7,1-17.3,1.2-26,0.7
				C1266.3,345.4,1266.3,348.4,1268.2,348.6L1268.2,348.6z"/>
		</g>
	</g>
	<g>
		<g>
			<path class="st1" d="M1267.9,329.3c2,5.2,2.9,10.6,2.7,16.2c-0.1,1.9,2.9,1.9,3,0c0.2-5.9-0.8-11.5-2.8-17
				C1270.1,326.7,1267.2,327.5,1267.9,329.3L1267.9,329.3z"/>
		</g>
	</g>
	<g>
		<g>
			<path class="st1" d="M1332.3,265.4c0,8.3,0,16.7,0,25c0,7.9,0.6,16.2-0.9,24c-1.4,7.5-5.4,13.6-9.4,19.9
				c-4.3,7-8.2,14.2-11.8,21.6c-0.8,1.7,1.8,3.3,2.6,1.5c3.8-7.9,8-15.6,12.7-23.1c3.8-6,7.4-12,8.7-19.1c1.3-7.2,1-14.6,1-21.8
				c0-9.3,0-18.7,0-28C1335.3,263.5,1332.3,263.5,1332.3,265.4L1332.3,265.4z"/>
		</g>
	</g>
	<g>
		<g>
			<path class="st1" d="M1334.8,267.3c4.9-2.7,10.4-2.6,15.2,0.2c1.7,1,3.2-1.6,1.5-2.6c-5.7-3.4-12.5-3.5-18.2-0.2
				C1331.6,265.6,1333.1,268.2,1334.8,267.3L1334.8,267.3z"/>
		</g>
	</g>
	<g>
		<g>
			<path class="st1" d="M1347.6,266.4c0,9.2-0.1,18.5-0.1,27.7c0,7.4-0.7,15.2,0.3,22.6c1,7,4.8,12.2,8.9,17.7
				c5.1,6.7,8.7,13.7,10.5,22c0.4,1.9,3.3,1.1,2.9-0.8c-1.4-6.7-4-13-7.8-18.7c-4.2-6.3-9.9-11.6-11.3-19.4
				c-1.5-8.2-0.5-17.2-0.5-25.4c0-8.6,0.1-17.2,0.1-25.8C1350.6,264.5,1347.6,264.5,1347.6,266.4L1347.6,266.4z"/>
		</g>
	</g>
	<g>
		<g>
			<path class="st1" d="M1189.3,411.2c0,37.6,0,75.3,0,112.9c0,1.9,3,1.9,3,0c0-37.6,0-75.3,0-112.9
				C1192.3,409.2,1189.3,409.2,1189.3,411.2L1189.3,411.2z"/>
		</g>
	</g>
	<g>
		<g>
			<path class="st1" d="M1193,411.5c52.1,0,104.2,0,156.3,0c1.9,0,1.9-3,0-3c-52.1,0-104.2,0-156.3,0
				C1191.1,408.5,1191.1,411.5,1193,411.5L1193,411.5z"/>
		</g>
	</g>
	<g>
		<g>
			<path class="st1" d="M1191.2,525.4c49.8,0,99.6,0,149.5,0c1.9,0,1.9-3,0-3c-49.8,0-99.6,0-149.5,0
				C1189.2,522.4,1189.2,525.4,1191.2,525.4L1191.2,525.4z"/>
		</g>
	</g>
	<g>
		<g>
			<path class="st1" d="M1346,412.1c0,37.3,0,74.5,0,111.8c0,1.9,3,1.9,3,0c0-37.3,0-74.5,0-111.8C1349,410.2,1346,410.2,1346,412.1
				L1346,412.1z"/>
		</g>
	</g>
	<g>
		<g>
			<path class="st1" d="M1339.8,525.9c2,0,4.1,0,6.1,0c1.9,0,1.9-3,0-3c-2,0-4.1,0-6.1,0C1337.9,522.9,1337.9,525.9,1339.8,525.9
				L1339.8,525.9z"/>
		</g>
	</g>
	<g>
		<g>
			<path class="st1" d="M1203,445.2c43.4,0.1,86.9,0.2,130.3,0.3c1.9,0,1.9-3,0-3c-43.4-0.1-86.9-0.2-130.3-0.3
				C1201.1,442.2,1201.1,445.2,1203,445.2L1203,445.2z"/>
		</g>
	</g>
	<g>
		<g>
			<path class="st1" d="M1207.1,474.5c42-0.1,83.9-0.2,125.9-0.3c1.9,0,1.9-3,0-3c-42,0.1-83.9,0.2-125.9,0.3
				C1205.2,471.5,1205.2,474.5,1207.1,474.5L1207.1,474.5z"/>
		</g>
	</g>
	<g>
		<g>
			<path class="st1" d="M1209.5,503.7c41.7,0,83.4,0,125.1,0c1.9,0,1.9-3,0-3c-41.7,0-83.4,0-125.1,0
				C1207.6,500.7,1207.6,503.7,1209.5,503.7L1209.5,503.7z"/>
		</g>
	</g>
	<g>
		<g>
			<path class="st1" d="M1229.6,444.1c0,19.5,0,39,0,58.5c0,1.9,3,1.9,3,0c0-19.5,0-39,0-58.5
				C1232.6,442.2,1229.6,442.2,1229.6,444.1L1229.6,444.1z"/>
		</g>
	</g>
	<g>
		<g>
			<path class="st1" d="M1264.9,445c0,18.5,0,37.1,0,55.6c0,1.9,3,1.9,3,0c0-18.5,0-37.1,0-55.6C1267.9,443,1264.9,443,1264.9,445
				L1264.9,445z"/>
		</g>
	</g>
	<g>
		<g>
			<path class="st1" d="M1299.8,443.7c0,18.8,0,37.6,0,56.5c0,1.9,3,1.9,3,0c0-18.8,0-37.6,0-56.5
				C1302.8,441.8,1299.8,441.8,1299.8,443.7L1299.8,443.7z"/>
		</g>
	</g>
	<g>
		<g>
			<path class="st1" d="M1331.5,444.6c0,18.8,0,37.6,0,56.5c0,1.9,3,1.9,3,0c0-18.8,0-37.6,0-56.5
				C1334.5,442.6,1331.5,442.6,1331.5,444.6L1331.5,444.6z"/>
		</g>
	</g>
	<g>
		<g>
			<path class="st1" d="M1214.4,479c-3.9,3.2-8,8.3-5.2,13.6c1,1.9,2.7,3.4,4.9,3.7c2.8,0.4,5-1.5,6.9-3.3c1.4-1.3-0.7-3.5-2.1-2.1
				c-1.5,1.4-3.2,3.1-5.3,2.1c-1.5-0.7-2.3-2.5-2.3-4.1c0-3.2,2.9-5.8,5.2-7.7C1218,479.9,1215.9,477.8,1214.4,479L1214.4,479z"/>
		</g>
	</g>
	<g>
		<g>
			<path class="st1" d="M1248.6,490.9c-3.7-1.7-4.5-6.9-0.4-8.8c2.5-1.1,3.4,1.9,3.7,3.8c0.3,1.6-0.5,5.7-3.1,4
				c-1.6-1-3.1,1.6-1.5,2.6c2.8,1.8,6.3-0.1,7.4-3c0.8-2.3,0.1-4.7-0.7-6.9c-0.6-1.7-1.3-3.2-3.1-3.8c-3.5-1-7.2,2.1-8.2,5.3
				c-1.2,3.7,0.9,7.7,4.3,9.3C1248.8,494.3,1250.3,491.7,1248.6,490.9L1248.6,490.9z"/>
		</g>
	</g>
	<g>
		<g>
			<path class="st1" d="M1221.1,478.7c-0.2-0.3-0.2-0.7,0.2-0.8c-0.3-0.2-0.6-0.3-0.9-0.5c0.4,1.1-0.3,2.3-0.3,3.5
				c0,0.8,0.4,1.6,1.1,2.1c1.5,1.1,3.5,0.5,4.3-1.1c0.4-0.9-0.9-1.6-1.3-0.8c-0.8,1.6-2.8,0.9-2.6-0.8c0.1-1.1,0.6-2.1,0.2-3.3
				c-0.1-0.4-0.5-0.7-0.9-0.5c-1.2,0.4-1.9,1.9-1.1,3C1220.3,480.3,1221.6,479.5,1221.1,478.7L1221.1,478.7z"/>
		</g>
	</g>
	<g>
		<g>
			<path class="st1" d="M1256,478.1c1-0.2,1.9-0.5,2.9-0.7c0.9-0.2,0.5-1.7-0.4-1.4c-1,0.2-1.9,0.5-2.9,0.7
				C1254.7,476.9,1255.1,478.4,1256,478.1L1256,478.1z"/>
		</g>
	</g>
	<g>
		<g>
			<path class="st1" d="M1255.5,478.1c0.2,0.5,0.3,1.1,0.5,1.6c0.1,0.3,0.4,0.6,0.7,0.6c0.5-0.1,1.2-0.2,1.6,0
				c0.2,0.1,0.4,0.3,0.4,0.5c0,0.2-0.2,0-0.1,0.1c-0.6-0.7-1.7,0.3-1.1,1.1c0.9,1,2.7,0.2,2.7-1.1c0-1.9-2.1-2.2-3.5-2
				c0.2,0.2,0.5,0.4,0.7,0.6c-0.2-0.5-0.3-1.1-0.5-1.6C1256.7,476.7,1255.3,477.1,1255.5,478.1L1255.5,478.1z"/>
		</g>
	</g>
	<g>
		<g>
			<path class="st1" d="M1241.7,451.1c0.4,4.1,0.4,8.1-0.1,12.2c-0.1,1,1.4,1,1.5,0c0.4-4.1,0.5-8.1,0.1-12.2
				C1243.1,450.1,1241.6,450.1,1241.7,451.1L1241.7,451.1z"/>
		</g>
	</g>
	<g>
		<g>
			<path class="st1" d="M1243.2,458.1c3-0.3,5-2.9,4.4-5.9c-0.2-0.9-1.4-0.6-1.5,0.2c-0.4,3.7-0.5,7.5-0.3,11.2c0,1,1.5,1,1.5,0
				c-0.2-3.8-0.1-7.5,0.3-11.2c-0.5,0.1-1,0.1-1.5,0.2c0.4,2-1,3.8-3,4C1242.3,456.7,1242.3,458.2,1243.2,458.1L1243.2,458.1z"/>
		</g>
	</g>
	<g>
		<g>
			<path class="st1" d="M1251.7,450c0.1-0.2,0.1-0.3,0.2-0.5c-0.2,0.1-0.5,0.1-0.7,0.2c0.6,0.2,0.7,1.2,0.2,1.6
				c-0.5,0.3-0.5,1.2,0.2,1.4c0.6,0.1,1.1,0.2,1.7,0.3c-0.1-0.4-0.3-0.7-0.4-1.1c-0.4,0.7-0.9,1.3-1.6,1.6c-0.9,0.4-0.5,1.8,0.4,1.4
				c1.1-0.5,2-1.2,2.5-2.3c0.2-0.4,0.1-1-0.4-1.1c-0.6-0.1-1.1-0.2-1.7-0.3c0.1,0.5,0.1,0.9,0.2,1.4c1.7-1.1,1.3-3.7-0.6-4.3
				c-0.2-0.1-0.5,0-0.7,0.2c-0.6,0.6-0.7,1.2-0.6,1.9C1250.4,451.4,1251.8,451,1251.7,450L1251.7,450z"/>
		</g>
	</g>
	<g>
		<g>
			<path class="st1" d="M1285.3,452.7c-4.6-3.2-11.4,4.4-8.9,8.9c1.1,2,3.7,3,5.8,2c2-0.9,2.8-3.7,0.5-4.8c-0.1,0.5-0.1,0.9-0.2,1.4
				c1.1-0.2,2.2-0.4,3.3-0.6c0.9-0.2,0.5-1.6-0.4-1.4c-1.1,0.2-2.2,0.4-3.3,0.6c-0.6,0.1-0.8,1.1-0.2,1.4c0.5,1.4,0.2,2.2-0.8,2.3
				c-0.4,0.2-0.9,0.2-1.3,0.1c-0.5-0.1-1.1-0.4-1.4-0.7c-1.4-1.3-1.1-3.3-0.2-4.7c1.2-2,4-4.6,6.4-3
				C1285.3,454.5,1286.1,453.2,1285.3,452.7L1285.3,452.7z"/>
		</g>
	</g>
	<g>
		<g>
			<path class="st1" d="M1289.6,452.7c0.2,1.5,0.4,3.1,0.6,4.6c0.1,0.8,0.3,1.6,0.3,2.3c0,0.5-0.1,0.9-0.1,1.4
				c-0.3,1.4-1.2,1.5-2.4,0.5c0.1-0.9-1.3-1.4-1.4-0.4c-0.3,2.3,2.1,3.8,4,2.4c1.1-0.8,1.5-2.1,1.6-3.4c0.1-2.4-0.5-5-0.8-7.4
				C1291,451.7,1289.5,451.7,1289.6,452.7L1289.6,452.7z"/>
		</g>
	</g>
	<g>
		<g>
			<path class="st1" d="M1287.8,451.7c1.7,0.4,3.3,0.6,5.1,0.5c1-0.1,1-1.6,0-1.5c-1.6,0.1-3.1,0-4.7-0.4
				C1287.2,450,1286.8,451.5,1287.8,451.7L1287.8,451.7z"/>
		</g>
	</g>
	<g>
		<g>
			<path class="st1" d="M1272.9,481.7c0.4,3.2,0.4,6.3,0,9.5c-0.1,1,1.4,0.9,1.5,0c0.4-3.3,0.4-6.6-0.1-9.9
				C1274.2,480.4,1272.8,480.8,1272.9,481.7L1272.9,481.7z"/>
		</g>
	</g>
	<g>
		<g>
			<path class="st1" d="M1274,488.6c3.7,1.2,4.8-3.1,4.8-5.8c0-1-1.4-0.9-1.5,0c-0.3,3.3-0.5,6.7-0.6,10.1c0,1,1.5,1,1.5,0
				c0.1-3.4,0.3-6.7,0.6-10.1c-0.5,0-1,0-1.5,0c0,1.7-0.2,5.2-2.9,4.4C1273.4,486.9,1273,488.4,1274,488.6L1274,488.6z"/>
		</g>
	</g>
	<g>
		<g>
			<path class="st1" d="M1279.8,490.3c0.1,1,0.2,2,0.1,2.9c0,0.4,0.4,0.7,0.8,0.8c0.5,0,1.1,0.1,1.6,0.1c1,0,1-1.5,0-1.5
				c-0.5,0-1.1-0.1-1.6-0.1c0.3,0.3,0.5,0.5,0.8,0.8c0-1,0-2-0.1-2.9c-0.1-0.4-0.3-0.7-0.8-0.8
				C1280.1,489.6,1279.7,489.9,1279.8,490.3L1279.8,490.3z"/>
		</g>
	</g>
	<g>
		<g>
			<path class="st1" d="M1288.7,492c-1-1.4-1.5-3-1.6-4.8c0-1.1,0.1-3.8,1.1-4.6c2.1-1.8,3,3.3,3.1,4.5c0.1,0.9,0.1,1.9-0.1,2.8
				c-0.1,0.7-1.1,4-2.7,1.9c-0.6-0.8-1.6,0.3-1.1,1.1c1.6,2,4.1,0.6,4.9-1.3c1.1-2.9,0.7-7.4-1.1-9.9c-1.8-2.5-3.9-1-4.8,1.3
				c-1.3,3.2-0.8,6.9,1.1,9.7C1287.9,493.6,1289.2,492.8,1288.7,492L1288.7,492z"/>
		</g>
	</g>
	<g>
		<g>
			<path class="st1" d="M1314.9,454.2c-1.6-1.3-3.7-1.3-5.4-0.2c-2.1,1.4-2.7,4.1-2.9,6.4c-0.1,2.2,0.5,4.4,3,4.7
				c2.5,0.3,4.2-1.7,5.6-3.6c0.6-0.8-0.7-1.5-1.3-0.8c-0.9,1.2-2,2.7-3.7,2.8c-2.2,0.1-2.2-2.3-2.1-3.8c0.2-2.4,2.5-7.1,5.6-4.6
				C1314.5,455.9,1315.6,454.8,1314.9,454.2L1314.9,454.2z"/>
		</g>
	</g>
	<g>
		<g>
			<path class="st1" d="M1319.9,461.6c-0.6-0.8-1.1-1.7-1.3-2.7c-0.2-0.8-0.5-2.6,0-3.3c0.5-0.2,1-0.5,1.5-0.7
				c0.4,0.3,0.7,0.8,0.9,1.3c0.2,0.4,0.3,0.9,0.4,1.3c0.1,0.6,0.3,1.2,0.2,1.8c-0.1,0.7-0.9,2.2-1.9,1.2c-0.7-0.7-1.7,0.4-1.1,1.1
				c1.3,1.3,3.4,0.7,4.2-0.9c0.9-1.9,0-5.2-1.4-6.6c-1.6-1.5-3.6-0.7-4.2,1.3c-0.7,2.5,0,5.1,1.5,7.1
				C1319.2,463.1,1320.5,462.4,1319.9,461.6L1319.9,461.6z"/>
		</g>
	</g>
	<g>
		<g>
			<path class="st1" d="M1322.7,450.8C1322.7,450.9,1322.7,450.9,1322.7,450.8c0.1,0,0.3-0.1,0.5-0.1c-0.2,0,0,1.4,0.1,1.7
				c0.1,0.2,0.2,0.4,0.3,0.6c0.3,0.4,0.7,0.6,1.2,0.7c0.9,0.2,1.9-0.2,2.3-1.1c0.4-0.9-0.9-1.6-1.3-0.8c-0.2,0.5-0.9,0.5-1.1,0
				c-0.3-0.8-0.3-1.6-1.4-1.8c-0.8-0.1-1.4,0.6-1.2,1.3c0.2,0.7,1.1,1,1.7,0.5C1324.5,451.2,1323.4,450.2,1322.7,450.8L1322.7,450.8
				z"/>
		</g>
	</g>
	<g>
		<g>
			<path class="st1" d="M1208.4,451.8c-0.5,5.2-0.6,10.5-0.3,15.7c0,1,1.5,1,1.5,0c-0.2-5.2-0.1-10.5,0.3-15.7
				C1209.9,450.8,1208.4,450.8,1208.4,451.8L1208.4,451.8z"/>
		</g>
	</g>
	<g>
		<g>
			<path class="st1" d="M1209.7,455c2-0.2,3,0.4,2.9,1.7c0,0.6,0,1.1-0.2,1.7c-0.3,1.4-0.9,2.6-2.4,3.2c-0.6,0.2-0.8,1.3,0,1.4
				c2.9,0.6,5.3,2,7,4.4c0.6,0.8,1.9,0,1.3-0.8c-2-2.7-4.6-4.4-7.9-5.1c0,0.5,0,1,0,1.4c3.6-1.4,5.3-7.6,2.2-10.4
				c-2.6-2.3-6.6,0.8-4,3.4C1209.3,456.7,1210.4,455.7,1209.7,455L1209.7,455z"/>
		</g>
	</g>
	<g>
		<g>
			<path class="st1" d="M1220.4,464.6c-0.1,0.4,0,1.1,0.1,1.6c0.1,0.6,0.3,1.1,0.8,1.4c0.9,0.7,2.1,0.2,3.1-0.2
				c0.9-0.4,0.1-1.7-0.8-1.3c-0.3,0.2-0.7,0.4-1.1,0.4c-0.5,0-0.5-0.4-0.5-0.9c0-0.7-0.1-1.4-0.5-2c-0.7-0.8-2.3-0.6-2.5,0.5
				C1218.8,465.1,1220.2,465.5,1220.4,464.6L1220.4,464.6z"/>
		</g>
	</g>
	<g>
		<g>
			<path class="st1" d="M1306.6,481.8c0.1,4.7,0.1,9.4-0.2,14c-0.1,0.8,1.3,1,1.5,0.2c0.1-0.4,0.2-0.8,0.3-1.1
				c0.2-0.9-1.2-1.3-1.4-0.4c-0.1,0.4-0.2,0.8-0.3,1.1c0.5,0.1,1,0.1,1.5,0.2c0.3-4.7,0.4-9.4,0.2-14
				C1308,480.8,1306.5,480.8,1306.6,481.8L1306.6,481.8z"/>
		</g>
	</g>
	<g>
		<g>
			<path class="st1" d="M1306.6,482.3c0.8,4,2,7.9,3.6,11.7c0.3,0.8,1.4,0.7,1.5-0.2c0.6-4.4,1.1-8.7,1.7-13.1c0.1-1-1.4-0.9-1.5,0
				c-0.6,4.4-1.1,8.7-1.7,13.1c0.5-0.1,1-0.1,1.5-0.2c-1.6-3.8-2.8-7.7-3.6-11.7C1307.8,480.9,1306.4,481.3,1306.6,482.3
				L1306.6,482.3z"/>
		</g>
	</g>
	<g>
		<g>
			<path class="st1" d="M1316,493.5c-0.4-0.7-0.9-1.6-0.8-2.4c0.1-0.4,0.6-1.2,1.1-0.9c0.5,0.2,0.4,1.7,0.3,2.2
				c-0.1,0.5-0.7,1.5-1.3,0.8c-0.6-0.7-1.7,0.3-1.1,1.1c0.9,1,2.6,0.7,3.4-0.4c0.8-1.2,0.9-3.6-0.1-4.7c-0.9-1-2.5-0.5-3.2,0.4
				c-1.2,1.4-0.3,3.3,0.4,4.7C1315.2,495.1,1316.5,494.3,1316,493.5L1316,493.5z"/>
		</g>
	</g>
	<g>
		<g>
			<path class="st1" d="M1320,480.7c0.6,4.8,0.8,9.5,0.5,14.3c-0.1,1,1.4,1,1.5,0c0.3-4.8,0.1-9.5-0.5-14.3
				C1321.3,479.8,1319.8,479.8,1320,480.7L1320,480.7z"/>
		</g>
	</g>
	<g>
		<g>
			<path class="st1" d="M1321.7,483.7c-0.1-0.8-0.2-1.9,0.8-2.1c1-0.2,1.5,1,1.6,1.8c0.2,1.6-0.8,3.2-2.1,4.1
				c-0.8,0.5-0.1,1.8,0.8,1.3c2.5-1.6,4.1-5.4,1.8-7.9c-0.8-0.9-2.2-1.3-3.2-0.6c-1.2,0.8-1.2,2.4-1,3.7
				C1320.4,485,1321.9,484.6,1321.7,483.7L1321.7,483.7z"/>
		</g>
	</g>
	<g>
		<g>
			<path class="st1" d="M1325.1,477.3c-0.5,1.1-0.1,2.4,0.7,3.2c0.8,0.7,2.4,1,3-0.2c0.4-0.9-0.9-1.6-1.3-0.8
				c-0.1,0.2,0.1,0.1,0,0.1c-0.1,0-0.2,0-0.3,0c-0.2-0.1-0.4-0.3-0.5-0.5c-0.3-0.5-0.3-1-0.1-1.5c0.2-0.4-0.2-0.8-0.5-0.9
				C1325.6,476.7,1325.3,477,1325.1,477.3L1325.1,477.3z"/>
		</g>
	</g>
	<g>
		<g>
			<path class="st1" d="M1202,443.7c0,19.4,0,38.7,0,58.1c0,1.9,3,1.9,3,0c0-19.4,0-38.7,0-58.1C1205,441.8,1202,441.8,1202,443.7
				L1202,443.7z"/>
		</g>
	</g>
	<g>
		<g>
			<path class="st1" d="M1203.9,503.7c43.4,0,86.8,0,130.2,0c1.9,0,1.9-3,0-3c-43.4,0-86.8,0-130.2,0
				C1202,500.7,1202,503.7,1203.9,503.7L1203.9,503.7z"/>
		</g>
	</g>
	<g>
		<g>
			<path class="st1" d="M245.4,749.4c0,26.3,0,52.5,0,78.8c0,1.9,3,1.9,3,0c0-26.3,0-52.5,0-78.8
				C248.4,747.5,245.4,747.5,245.4,749.4L245.4,749.4z"/>
		</g>
	</g>
	<g>
		<g>
			<path class="st1" d="M250.2,750.9c51.1,0,102.2,0,153.2,0c1.9,0,1.9-3,0-3c-51.1,0-102.2,0-153.2,0
				C248.2,747.9,248.2,750.9,250.2,750.9L250.2,750.9z"/>
		</g>
	</g>
	<g>
		<g>
			<path class="st1" d="M250.2,830.8c48.6,0,97.1,0,145.7,0c1.9,0,1.9-3,0-3c-48.6,0-97.1,0-145.7,0
				C248.2,827.8,248.2,830.8,250.2,830.8L250.2,830.8z"/>
		</g>
	</g>
	<g>
		<g>
			<path class="st1" d="M400.8,751.6c0,24.1,0,48.2,0,72.3c0,1.9,3,1.9,3,0c0-24.1,0-48.2,0-72.3
				C403.8,749.7,400.8,749.7,400.8,751.6L400.8,751.6z"/>
		</g>
	</g>
	<g>
		<g>
			<path class="st1" d="M316.7,708.4c0,8.3,0,16.5,0,24.8c0,1.9,3,1.9,3,0c0-8.3,0-16.5,0-24.8C319.7,706.5,316.7,706.5,316.7,708.4
				L316.7,708.4z"/>
		</g>
	</g>
	<g>
		<g>
			<path class="st1" d="M319.2,709.9c33.1,0,66.2,0,99.3,0c1.9,0,1.9-3,0-3c-33.1,0-66.2,0-99.3,0
				C317.3,706.9,317.3,709.9,319.2,709.9L319.2,709.9z"/>
		</g>
	</g>
	<g>
		<g>
			<path class="st1" d="M320.3,735.8c32,0,64,0,96,0c1.9,0,1.9-3,0-3c-32,0-64,0-96,0C318.4,732.8,318.4,735.8,320.3,735.8
				L320.3,735.8z"/>
		</g>
	</g>
	<g>
		<g>
			<path class="st1" d="M415.9,712.7c0,6.8,0,13.7,0,20.5c0,1.9,3,1.9,3,0c0-6.8,0-13.7,0-20.5C418.9,710.8,415.9,710.8,415.9,712.7
				L415.9,712.7z"/>
		</g>
	</g>
	<g>
		<g>
			<path class="st1" d="M487.9,207.7c6.9-0.3,13.7-1.1,20.4-2.4c1.9-0.4,1.1-3.3-0.8-2.9c-6.5,1.2-13,2-19.6,2.3
				C485.9,204.8,485.9,207.8,487.9,207.7L487.9,207.7z"/>
		</g>
	</g>
	<g>
		<g>
			<path class="st1" d="M508.3,203.4c-2.9-10.8-2.9-22.1,0.4-32.8c2.8-9.3,11.2-25.5,23.5-19.7c10.4,4.9,11.8,19.6,13.5,29.6
				c2.1,11.9,3.1,24,3.3,36.1c0,1.9,3,1.9,3,0c-0.3-15.2-1.9-30.3-5-45.2c-2.1-9.9-6.1-23.4-18.2-24.6c-10.7-1-17.8,9.6-21.3,18.2
				c-5,12.5-5.6,26.3-2.1,39.2C505.9,206.1,508.8,205.3,508.3,203.4L508.3,203.4z"/>
		</g>
	</g>
	<g>
		<g>
			<path class="st1" d="M488.9,203.4c-3.7-16.2-2-33.5,5.3-48.5c6.5-13.2,19.2-26.1,34.8-26.4c17.2-0.3,28.7,15,33.5,29.9
				c5.4,16.7,6.7,35.1,6.6,52.6c0,1.9,3,1.9,3,0c0.1-16.2-1.2-32.8-5.3-48.5c-3.2-12.3-9.2-24.4-20.1-31.6
				c-22.9-15.2-47.6,4.7-56.7,26c-6.4,15-7.7,31.5-4.1,47.4C486.4,206.1,489.3,205.3,488.9,203.4L488.9,203.4z"/>
		</g>
	</g>
	<g>
		<g>
			<path class="st1" d="M549.4,218.9c7.9,4.9,18.6,1.1,22-7.4c0.7-1.8-2.2-2.6-2.9-0.8c-2.7,6.8-11.4,9.5-17.5,5.6
				C549.3,215.3,547.8,217.9,549.4,218.9L549.4,218.9z"/>
		</g>
	</g>
	<g>
		<g>
			<path class="st1" d="M484,245.4c0,25.4,0,50.7,0,76.1c0,1.9,3,1.9,3,0c0-25.4,0-50.7,0-76.1C487,243.5,484,243.5,484,245.4
				L484,245.4z"/>
		</g>
	</g>
	<g>
		<g>
			<path class="st1" d="M486.6,247.6c29.9-5.1,59.3-12.3,88.1-21.6c1.8-0.6,1-3.5-0.8-2.9c-28.8,9.4-58.2,16.6-88.1,21.6
				C483.9,245,484.8,247.9,486.6,247.6L486.6,247.6z"/>
		</g>
	</g>
	<g>
		<g>
			<path class="st1" d="M575.3,227.8c0,23.8,0,47.5,0,71.3c0,1.9,3,1.9,3,0c0-23.8,0-47.5,0-71.3
				C578.3,225.9,575.3,225.9,575.3,227.8L575.3,227.8z"/>
		</g>
	</g>
	<g>
		<g>
			<path class="st1" d="M487.4,324.9c29.7-4.7,59-11.8,87.6-21.2c1.8-0.6,1-3.5-0.8-2.9c-28.6,9.4-57.9,16.5-87.6,21.2
				C484.7,322.3,485.5,325.2,487.4,324.9L487.4,324.9z"/>
		</g>
	</g>
	<g>
		<g>
			<path class="st1" d="M530.2,272.1c-1-2.6-2.2-5.5-2.3-8.3c-0.1-3.4,2.2-7.9,6.2-6.9c6.1,1.5,4.4,11.3,2.2,15.1
				c-1,1.7,1.6,3.2,2.6,1.5c3.3-5.6,4.2-18.4-4.6-19.8c-3.5-0.5-6.8,1.9-8.4,5c-2.3,4.6-0.4,9.9,1.3,14.3
				C528,274.7,530.9,273.9,530.2,272.1L530.2,272.1z"/>
		</g>
	</g>
	<g>
		<g>
			<path class="st1" d="M527.8,271.8c0.4,7.2,0.8,14.5,1.2,21.7c0.2,3.2,1.8,5,5.4,4.2c3.4-0.8,5.1-3.7,5.5-6.9
				c0.4-3.3-0.5-6.7-0.8-9.9c-0.3-3.8-0.3-7.6,0-11.5c0.1-1.9-2.9-1.9-3,0c-0.2,3.8-0.3,7.6,0,11.5c0.2,2.6,2.7,12.7-1.4,13.5
				c-4.2,0.8-3.1-8.2-3.3-10.7c-0.2-3.9-0.4-7.9-0.7-11.8C530.7,269.9,527.7,269.9,527.8,271.8L527.8,271.8z"/>
		</g>
	</g>
	<g>
		<g>
			<path class="st1" d="M750,215.9c0,21.5,0,43,0,64.5c0,1.9,3,1.9,3,0c0-21.5,0-43,0-64.5C753,214,750,214,750,215.9L750,215.9z"/>
		</g>
	</g>
	<g>
		<g>
			<path class="st1" d="M690.3,286.8c37.5,0,74.9,0,112.4,0c1.9,0,1.9-3,0-3c-37.5,0-74.9,0-112.4,0
				C688.4,283.8,688.4,286.8,690.3,286.8L690.3,286.8z"/>
		</g>
	</g>
	<g>
		<g>
			<path class="st1" d="M788,290.3c0,17.1,0,34.2,0,51.2c0,1.9,3,1.9,3,0c0-17.1,0-34.2,0-51.2C791,288.4,788,288.4,788,290.3
				L788,290.3z"/>
		</g>
	</g>
	<g>
		<g>
			<path class="st1" d="M252.2,508.4c36.4,0,72.7,0,109.1,0c1.9,0,1.9-3,0-3c-36.4,0-72.7,0-109.1,0
				C250.3,505.4,250.3,508.4,252.2,508.4L252.2,508.4z"/>
		</g>
	</g>
	<g>
		<g>
			<path class="st1" d="M313.3,503.6c0-9.4,0-18.7,0-28.1c0-1.9-3-1.9-3,0c0,9.4,0,18.7,0,28.1C310.3,505.5,313.3,505.5,313.3,503.6
				L313.3,503.6z"/>
		</g>
	</g>
	<g>
		<g>
			<path class="st1" d="M346.6,511.8c0,11,0,22,0,33.1c0,1.9,3,1.9,3,0c0-11,0-22,0-33.1C349.6,509.9,346.6,509.9,346.6,511.8
				L346.6,511.8z"/>
		</g>
	</g>
	<g>
		<g>
			<path class="st1" d="M1121.8,700.1c45.2,0,90.4,0,135.6,0c1.9,0,1.9-3,0-3c-45.2,0-90.4,0-135.6,0
				C1119.9,697.1,1119.9,700.1,1121.8,700.1L1121.8,700.1z"/>
		</g>
	</g>
	<g>
		<g>
			<path class="st1" d="M1206,697c0-9.9,0-19.8,0-29.8c0-1.9-3-1.9-3,0c0,9.9,0,19.8,0,29.8C1203,698.9,1206,698.9,1206,697
				L1206,697z"/>
		</g>
	</g>
	<g>
		<g>
			<path class="st1" d="M1187.9,668.7c35.3,0,70.5,0,105.8,0c1.9,0,1.9-3,0-3c-35.3,0-70.5,0-105.8,0
				C1186,665.7,1186,668.7,1187.9,668.7L1187.9,668.7z"/>
		</g>
	</g>
	<g>
		<g>
			<path class="st1" d="M332.3,1091.7c65.7,0,131.3,0,197,0c1.9,0,1.9-3,0-3c-65.7,0-131.3,0-197,0
				C330.3,1088.7,330.3,1091.7,332.3,1091.7L332.3,1091.7z"/>
		</g>
	</g>
	<g>
		<g>
			<path class="st1" d="M416.4,1075.6c71.6,0,143.2,0,214.9,0c1.9,0,1.9-3,0-3c-71.6,0-143.2,0-214.9,0
				C414.5,1072.6,414.5,1075.6,416.4,1075.6L416.4,1075.6z"/>
		</g>
	</g>
	<g>
		<g>
			<path class="st1" d="M557.9,1127.5c44.2,0,88.3,0,132.5,0c1.9,0,1.9-3,0-3c-44.2,0-88.3,0-132.5,0
				C555.9,1124.5,555.9,1127.5,557.9,1127.5L557.9,1127.5z"/>
		</g>
	</g>
	<g>
		<g>
			<path class="st1" d="M729.8,1070.2c27.5,0,54.9,0,82.4,0c1.9,0,1.9-3,0-3c-27.5,0-54.9,0-82.4,0
				C727.8,1067.2,727.8,1070.2,729.8,1070.2L729.8,1070.2z"/>
		</g>
	</g>
	<g>
		<g>
			<path class="st1" d="M955.4,1039.8c59.1,0,118.2,0,177.3,0c1.9,0,1.9-3,0-3c-59.1,0-118.2,0-177.3,0
				C953.4,1036.8,953.4,1039.8,955.4,1039.8L955.4,1039.8z"/>
		</g>
	</g>
	<g>
		<g>
			<path class="st1" d="M1080.7,998.6c70.4,0,140.9,0,211.3,0c1.9,0,1.9-3,0-3c-70.4,0-140.9,0-211.3,0
				C1078.8,995.6,1078.8,998.6,1080.7,998.6L1080.7,998.6z"/>
		</g>
	</g>
	<g>
		<g>
			<path class="st1" d="M1204.2,1038c70.4,0,140.9,0,211.3,0c1.9,0,1.9-3,0-3c-70.4,0-140.9,0-211.3,0
				C1202.3,1035,1202.3,1038,1204.2,1038L1204.2,1038z"/>
		</g>
	</g>
	<g>
		<g>
			<path class="st1" d="M1121.9,1102.4c31.6,0,63.3,0,94.9,0c1.9,0,1.9-3,0-3c-31.6,0-63.3,0-94.9,0
				C1119.9,1099.4,1119.9,1102.4,1121.9,1102.4L1121.9,1102.4z"/>
		</g>
	</g>
</g>
<g id="machine">
	<path class="st2" d="M648.5,1064.2c-50.2,39.2-100.3,78.4-150.5,117.6c-67.5-29.4-134.9-58.8-202.4-88.2
		c71.5-39.2,143-78.4,214.5-117.6c11.1-1.4,20.9-1.1,29.4,0C605,984.8,641.4,1050.7,648.5,1064.2z"/>
	<path class="st3" d="M497.6,529.1c-1,151.3-2,302.5-3,453.8c49.2,31,98.4,62,147.6,93c52.2-36.7,104.4-73.4,156.7-110.2
		c-0.3-127.3-0.7-254.7-1-382c-43.5-37.7-86.9-75.5-130.4-113.2C610.8,490,554.2,509.5,497.6,529.1z"/>
	<g>
		<g>
			<path class="st0" d="M641.2,657.3c0,109.1,0,218.2,0,327.3c0,30.6,0,61.2,0,91.8c0,1.9,3,1.9,3,0c0-109.1,0-218.2,0-327.3
				c0-30.6,0-61.2,0-91.8C644.2,655.4,641.2,655.3,641.2,657.3L641.2,657.3z"/>
		</g>
	</g>
	<g>
		<g>
			<path class="st0" d="M796.6,584.7c0.2,99.5,0.3,199.1,0.5,298.6c0,27.9,0.1,55.7,0.1,83.6c0,1.9,3,1.9,3,0
				c-0.2-99.5-0.3-199.1-0.5-298.6c0-27.9-0.1-55.7-0.1-83.6C799.5,582.8,796.5,582.8,796.6,584.7L796.6,584.7z"/>
		</g>
	</g>
	<g>
		<g>
			<path class="st0" d="M496.8,529.7c43.2-14.5,86.5-29,129.7-43.5c10.7-3.6,21.3-7.1,32-10.7c2.3-0.8,5.1-2.4,7.6-1.6
				c1.9,0.6,4.5,3.8,6.1,5.2c4.5,3.9,9.1,7.7,13.6,11.6c17.2,14.6,34.3,29.2,51.5,43.8c19.7,16.8,39.4,33.5,59.1,50.3
				c0.1-0.8,0.2-1.6,0.3-2.4c-50.6,25.4-101.6,49.7-153.2,73.1c0.6,0.1,1.2,0.2,1.8,0.2c-16.6-14.4-33.2-28.9-49.8-43.3
				c-26.6-23.1-53.2-46.3-79.8-69.4c-6.1-5.3-12.1-10.6-18.2-15.9c-1-0.8-2.6-0.3-2.6,1.1c0,27.3,0,54.7,0,82c0,58,0,115.9,0,173.9
				c0,52.5,0,105,0,157.5c0,13,0,25.9,0,38.9c0,2-0.4,3.7,1,5.1c1.2,1.3,3.3,2.1,4.8,3.1c3.4,2.2,6.8,4.3,10.1,6.5
				c42.6,27.1,85.1,54.1,127.7,81.2c1.1,0.7,2.2,1.4,3.2,2.1c0.4,0.3,1.1,0.3,1.5,0c51.9-36.9,103.8-73.7,155.6-110.6
				c1.6-1.1,0.1-3.7-1.5-2.6c-27.3,19.4-54.6,38.8-81.9,58.2c-13.8,9.8-27.6,19.6-41.3,29.4c-6.8,4.8-13.5,9.6-20.3,14.4
				c-2.9,2.1-7.4,4.2-9.7,6.9c-0.7,0.8-0.6,1.6-1.2,1.6c-1.4,0-4.5-2.9-5.6-3.6c-4-2.6-8-5.1-12.1-7.7
				c-12.1-7.7-24.2-15.4-36.3-23.1c-25.7-16.4-51.4-32.7-77.2-49.1c-3.6-2.3-7.1-4.5-10.7-6.8c-0.9-0.6-1.9-1.4-2.9-1.8
				c-0.7-0.3-1.3-1.3-0.7,0c0.7,1.5,0.3-0.7,0.4-1.3c0.1-1.8,0-3.6,0-5.4c0-16.8,0-33.7,0-50.5c0-28,0-56,0-84c0-33,0-66,0-99
				c0-32.4,0-64.8,0-97.2c0-25.7,0-51.4,0-77.1c0-8.4,0-16.9,0-25.3c0-4.4,0.6-9.3,0-13.7c-0.1-0.6,0-1.2,0-1.8
				c-0.9,0.4-1.7,0.7-2.6,1.1c16.6,14.4,33.2,28.9,49.8,43.3c26.6,23.1,53.2,46.3,79.8,69.4c6.1,5.3,12.1,10.6,18.2,15.9
				c0.6,0.5,1.2,0.5,1.8,0.2c51.5-23.4,102.6-47.7,153.2-73.1c0.8-0.4,1-1.8,0.3-2.4c-35.6-30.3-71.2-60.6-106.8-90.9
				c-4.3-3.7-8.6-7.3-12.9-11c-2-1.7-4-3.4-6.1-5.2c-1.6-1.3-4.4-4.7-6.4-5.4c-1.4-0.5-2.6,0.3-4,0.8c-2.8,0.9-5.6,1.9-8.5,2.8
				c-5.6,1.9-11.3,3.8-16.9,5.7c-21.9,7.3-43.9,14.7-65.8,22c-25.1,8.4-50.1,16.8-75.2,25.2C494.1,527.4,494.9,530.3,496.8,529.7
				L496.8,529.7z"/>
		</g>
	</g>
	<g>
		<g>
			<path class="st0" d="M517.5,994.6c0-19.7,0-39.3,0-59c0-1.9-3-1.9-3,0c0,19.7,0,39.3,0,59C514.5,996.5,517.5,996.5,517.5,994.6
				L517.5,994.6z"/>
		</g>
	</g>
	<g>
		<g>
			<path class="st0" d="M515.3,934.2c23.4,13.1,46.5,26.8,69.2,41.1c1.6,1,3.1-1.6,1.5-2.6c-22.7-14.3-45.8-28-69.2-41.1
				C515.1,930.7,513.6,933.3,515.3,934.2L515.3,934.2z"/>
		</g>
	</g>
	<g>
		<g>
			<path class="st0" d="M584,974.6c-1.3,20.5-2.6,41.1-3.9,61.6c-0.1,1.9,2.9,1.9,3,0c1.3-20.5,2.6-41.1,3.9-61.6
				C587.1,972.7,584.1,972.7,584,974.6L584,974.6z"/>
		</g>
	</g>
	<g>
		<g>
			<path class="st0" d="M527.1,956c-1.7,13.8-2.7,27.6-2.9,41.4c0,1.9,3,1.9,3,0c0.2-13.9,1.2-27.7,2.9-41.4
				C530.4,954,527.4,954.1,527.1,956L527.1,956z"/>
		</g>
	</g>
	<g>
		<g>
			<path class="st0" d="M543,963.1c-1.8,14.3-3.1,28.6-3.8,42.9c-0.1,1.9,2.9,1.9,3,0c0.8-14.3,2-28.7,3.8-42.9
				C546.3,961.2,543.3,961.2,543,963.1L543,963.1z"/>
		</g>
	</g>
	<g>
		<g>
			<path class="st0" d="M559.4,973.7c-2.2,14.5-3.8,29.1-4.7,43.7c-0.1,1.9,2.9,1.9,3,0c0.9-14.4,2.4-28.7,4.6-42.9
				C562.6,972.6,559.7,971.8,559.4,973.7L559.4,973.7z"/>
		</g>
	</g>
	<g>
		<g>
			<path class="st0" d="M571.6,980.7c-0.9,12.9-1.8,25.7-2.6,38.6c-0.1,1.9,2.9,1.9,3,0c0.9-12.9,1.8-25.7,2.6-38.6
				C574.7,978.8,571.7,978.8,571.6,980.7L571.6,980.7z"/>
		</g>
	</g>
	<g>
		<g>
			<path class="st0" d="M517.3,924.1c25.5,13.3,50.6,27.4,75.2,42.3c1.7,1,3.2-1.6,1.5-2.6c-24.6-14.9-49.7-29.1-75.2-42.3
				C517.1,920.6,515.5,923.2,517.3,924.1L517.3,924.1z"/>
		</g>
	</g>
	<g>
		<g>
			<path class="st0" d="M519.1,921.8c0-5.2,0-10.3,0-15.5c0-1.9-3-1.9-3,0c0,5.2,0,10.3,0,15.5C516.1,923.8,519.1,923.8,519.1,921.8
				L519.1,921.8z"/>
		</g>
	</g>
	<g>
		<g>
			<path class="st0" d="M517.4,905.9c26.7,12.8,52.5,27.4,77.2,43.6c1.6,1.1,3.1-1.5,1.5-2.6c-24.7-16.3-50.5-30.8-77.2-43.6
				C517.2,902.5,515.7,905,517.4,905.9L517.4,905.9z"/>
		</g>
	</g>
	<g>
		<g>
			<path class="st0" d="M593,950.4c-0.5,4.5-1,9.1-1.5,13.6c-0.2,1.9,2.8,1.9,3,0c0.5-4.5,1-9.1,1.5-13.6
				C596.2,948.5,593.2,948.5,593,950.4L593,950.4z"/>
		</g>
	</g>
	<g>
		<g>
			<path class="st0" d="M652.7,669.2c38.9-17.1,77-36.1,114-57c1.7-0.9,0.2-3.5-1.5-2.6c-37.1,20.8-75.1,39.8-114,57
				C649.4,667.4,650.9,670,652.7,669.2L652.7,669.2z"/>
		</g>
	</g>
	<g>
		<g>
			<path class="st0" d="M650.3,667.7c0,8.3,0,16.6,0,24.9c0,1.9,3,1.9,3,0c0-8.3,0-16.6,0-24.9C653.3,665.8,650.3,665.8,650.3,667.7
				L650.3,667.7z"/>
		</g>
	</g>
	<g>
		<g>
			<path class="st0" d="M653.1,692.6c27.1-12,53.6-25.3,79.5-39.8c1.7-0.9,0.2-3.5-1.5-2.6c-25.9,14.5-52.4,27.7-79.5,39.8
				C649.9,690.8,651.4,693.4,653.1,692.6L653.1,692.6z"/>
		</g>
	</g>
	<g>
		<g>
			<path class="st0" d="M651.9,803.6c0,72.6,0,145.2,0,217.7c0,1.9,3,1.9,3,0c0-72.6,0-145.2,0-217.7
				C654.9,801.7,651.9,801.7,651.9,803.6L651.9,803.6z"/>
		</g>
	</g>
	<g>
		<g>
			<path class="st0" d="M660.3,921.8c0,39.4,0,78.8,0,118.2c0,1.9,3,1.9,3,0c0-39.4,0-78.8,0-118.2
				C663.3,919.9,660.3,919.9,660.3,921.8L660.3,921.8z"/>
		</g>
	</g>
	<g>
		<g>
			<path class="st0" d="M501,551.8c0,51,0,102.1,0,153.1c0,1.9,3,1.9,3,0c0-51,0-102.1,0-153.1C504,549.9,501,549.9,501,551.8
				L501,551.8z"/>
		</g>
	</g>
	<g>
		<g>
			<path class="st0" d="M509.6,662.5c0,59,0,118.1,0,177.1c0,1.9,3,1.9,3,0c0-59,0-118.1,0-177.1
				C512.6,660.6,509.6,660.6,509.6,662.5L509.6,662.5z"/>
		</g>
	</g>
	<path class="st4" d="M495.2,529c0,151.7,0,303.4,0,455.1c49.2,31,98.3,62,147.5,93c0-140.5,0-281,0-421.6
		C593.5,613.4,544.4,571.2,495.2,529z"/>
	<path class="st5" d="M499.4,582.7c14.9,72.2,29.5,132.2,41.1,176.8c18,69.4,27.2,96.4,39.4,124c20.9,47.3,44.5,83.4,62,107.3
		c0.6-69.6,1.1-139.1,1.7-208.7c4.9,97.3,48.9,158.4,83.8,157.6c28.2-0.7,55.8-41.6,71.2-91.4c0,39.7,0,79.3,0,119
		c-51.7,36-103.4,72.1-155,108.1c-48.9-30.7-97.8-61.5-146.7-92.2C497.7,849.7,498.5,716.2,499.4,582.7z"/>
</g>
<g id="holograme">
	<path class="st6" d="M819.3,535.4c-46.2,26.1-92.3,52.2-138.5,78.3c-27.4-37.1-54.9-74.3-82.3-111.4
		c52.8-20.7,105.7-41.5,158.5-62.2C777.8,471.9,798.6,503.6,819.3,535.4z"/>
	<g class="st7">
		<g>
			<path class="st8" d="M615.8,510.7c5.1,3.4,10.2,6.8,15.4,10.2c0.8,0.5,2,0,2.2-0.9c2.2-10.2,5.7-19.8,10.7-28.9
				c0.9-1.7-1.7-3.2-2.6-1.5c-5.1,9.4-8.7,19.3-11,29.7c0.7-0.3,1.5-0.6,2.2-0.9c-5.1-3.4-10.2-6.8-15.4-10.2
				C615.7,507,614.2,509.6,615.8,510.7L615.8,510.7z"/>
		</g>
	</g>
	<g>
		<g>
			<path class="st8" d="M656.9,489.6c1.7-2.6,4-4.6,6.9-5.8c0.9-0.4,0.1-1.7-0.8-1.3c-3.1,1.4-5.6,3.6-7.4,6.4
				C655.1,489.7,656.4,490.4,656.9,489.6L656.9,489.6z"/>
		</g>
	</g>
	<g>
		<g>
			<path class="st8" d="M657,495.9c2-6.2,7.6-10.7,14.1-11.4c1-0.1,1-1.6,0-1.5c-7.2,0.7-13.3,5.5-15.5,12.5
				C655.3,496.4,656.7,496.8,657,495.9L657,495.9z"/>
		</g>
	</g>
	<g>
		<g>
			<path class="st8" d="M658.7,501c2.2-8.8,8.4-15.2,17.9-12.1c0.9,0.3,1.3-1.1,0.4-1.4c-10.2-3.4-17.3,3.5-19.7,13.1
				C657,501.5,658.4,501.9,658.7,501L658.7,501z"/>
		</g>
	</g>
	<g>
		<g>
			<path class="st8" d="M661.7,505.9c0.3-4.9,1.1-10.7,5.8-13.5c4.6-2.7,9.8-0.8,13.2,2.8c0.7,0.7,1.7-0.4,1.1-1.1
				c-3.6-3.8-8.9-5.8-13.9-3.6c-6,2.6-7.2,9.4-7.6,15.3C660.2,506.8,661.7,506.8,661.7,505.9L661.7,505.9z"/>
		</g>
	</g>
	<g>
		<g>
			<path class="st8" d="M666.2,511.6c1-5.7-3.7-10.9,1.4-15.8c3.7-3.5,8.4-1.7,11.4,1.5c2.7,3,3.8,6.9,4.3,10.8c0.1,0.9,1.6,1,1.5,0
				c-0.8-6.6-5-17-13.6-15.9c-3.1,0.4-5.8,3.1-7,5.9c-1.9,4.5,1.4,8.5,0.6,13C664.6,512.1,666.1,512.5,666.2,511.6L666.2,511.6z"/>
		</g>
	</g>
	<g>
		<g>
			<path class="st8" d="M669.5,513.9c3.1-5.1-3.4-10-0.8-14.7c2.7-5.1,8-1.7,9.8,1.9c1.9,4,1.9,8.5,0.8,12.7
				c-0.2,0.9,1.2,1.3,1.4,0.4c1.5-5.8,0.9-18.7-7.5-19.1c-2.7-0.1-5.4,1.8-6.2,4.3c-1.6,4.8,4.1,9.2,1.3,13.7
				C667.7,514,669,514.8,669.5,513.9L669.5,513.9z"/>
		</g>
	</g>
	<g>
		<g>
			<path class="st8" d="M673,515c1.6-3.8,1.2-7.4-0.7-10.9c-0.4-0.6-0.7-1.3-1-2c2.2-1.5,3.5-1.1,3.9,1c0.4,1,0.7,2,0.8,3.1
				c0.5,3.1,0,6.1-1.1,9c-0.4,0.9,1.1,1.3,1.4,0.4c1.4-3.5,1.8-7.2,0.9-10.8c-0.5-2.3-1.8-6.1-4.7-6.2c-1.9-0.1-3,1.4-2.9,3.2
				c0.1,1.6,1.3,3,1.9,4.4c1.2,2.8,1.1,5.7-0.1,8.5C671.2,515.5,672.6,515.9,673,515L673,515z"/>
		</g>
	</g>
	<g>
		<g>
			<path class="st8" d="M740.7,569c0.3-1.8,0.4-3.8-1.3-4.9c-1.7-1.1-4.6,0-6.6-0.1c-3.2-0.2-6.4-1.4-9.4-2.4
				c-6.1-2-12.3-4.8-16.7-9.8c-2-2.3-4.6-6-4.8-9.2c-0.4-7.5,3.9-1.7,6.9-0.9c1.6,0.4,2.9,0.3,3-1.5c0.1-1.2-0.9-1.8-1.7-2.7
				c-2.1-2.2-4.1-4.3-6-6.7c-3.8-5-6.8-10.6-8.6-16.6c-0.7-2.3-3-11.3,1.5-10.7c2.1,0.2,5.7,5.1,7,6.7c0.4-0.4,0.7-0.7,1.1-1.1
				c-2.9-3.7-7.7-9.2-7.4-14.2c0.5-9.6,11.6-0.4,13.6,3.1c0.4-0.3,0.8-0.6,1.2-0.9c-1.3-1.5-3.3-4.4-3.3-6.6
				c-0.2-6.1,3.2-3.8,5.6-2.2c3.2,2.2,5.5,5.6,7.8,8.7c0.6,0.8,1.7,0.1,1.3-0.8c-0.7-1.3-1.2-2.7-1.6-4.2c-0.9-1.9-0.1-2.9,2.6-3.1
				c3.7-1.9,3.4-1.4,5.8,1.2c2.7,2.9,4.8,6.3,7,9.6c3.6,5.6,7.7,10.6,11.7,15.8c2.6,3.4,4.7,7,5.8,11.2c1.1,4.1,1,8.3,1.6,12.4
				c0.7,4.8,2.7,9.1,7.3,11.3c0.9,0.4,1.6-0.9,0.8-1.3c-9.4-4.5-6.1-19.2-9.9-27.6c-1.7-3.8-4.3-7.1-7-10.3
				c-3.5-4.2-6.4-8.5-9.4-13.1c-2.9-4.5-8-14.1-14.2-14.3c-6.9-0.2-3.3,9.5-1.8,12.8c0.4-0.3,0.9-0.5,1.3-0.8
				c-2.5-3.5-9-13.3-14.7-11.4c-5,1.7,0.4,11.1,2.3,13.3c0.6,0.7,1.6-0.2,1.2-0.9c-1.8-3.1-4.3-5.6-7.5-7.1c-2-0.9-6.2-2.5-8.1-0.5
				c-1.9,2-0.9,6.4-0.1,8.7c1.4,4.4,4.3,8.2,7.2,11.8c0.6,0.8,1.6-0.3,1.1-1.1c-1.6-2-6.9-9-10.2-7.9c-2.8,1-2.1,7-1.9,8.9
				c0.8,6.1,3.8,12.2,7,17.3c1.5,2.4,3.2,4.7,5,6.8c0.9,1.1,2.8,2.3,3.4,3.6c1.9,1.3,1.5,1.7-1.3,1.2c-0.8-0.5-1.7-0.9-2.5-1.4
				c-2.5-1.3-4.1-1.3-4.6,1.9c-0.6,4.3,2.4,9.5,5,12.6c3.6,4.4,8.6,7.2,13.8,9.3c3.1,1.2,6.4,2.3,9.6,3.1c2.4,0.6,11.2,0.2,10.7,3.9
				C739.1,569.6,740.6,570,740.7,569L740.7,569z"/>
		</g>
	</g>
	<g>
		<g>
			<path class="st8" d="M702.8,508.5c4.2,5.1,7.6,10.9,11.3,16.4c0.5,0.8,1.8,0,1.3-0.8c-3.8-5.6-7.3-11.5-11.6-16.7
				C703.2,506.7,702.2,507.7,702.8,508.5L702.8,508.5z"/>
		</g>
	</g>
	<g>
		<g>
			<path class="st8" d="M709,494.8c4.1,5.6,7.9,11.3,11.5,17.2c0.5,0.8,1.8,0.1,1.3-0.8c-3.6-5.9-7.4-11.6-11.5-17.2
				C709.8,493.3,708.5,494,709,494.8L709,494.8z"/>
		</g>
	</g>
	<g>
		<g>
			<path class="st8" d="M598.1,502.5c26.9,37.3,54.4,74.2,82.6,110.5c0.6,0.8,1.6-0.3,1.1-1.1c-28.1-36.3-55.5-73-82.4-110.2
				C598.9,501,597.6,501.7,598.1,502.5L598.1,502.5z"/>
		</g>
	</g>
</g>
<g id="guy">
	<g id="leg_back">
		<path class="st0" d="M980.5,1020.8c1.6,18.9,3.2,37.7,4.8,56.6c-37.7,16.7-55.9,27.4-54.5,32c1.7,5.6,31.8,2.4,90.2-9.6
			c-1.2-32-2.5-64.1-3.7-96.1C1005.1,1009.4,992.8,1015.1,980.5,1020.8z"/>
		<path class="st3" d="M1017.2,615.4c5.7,3.8,6.7,12.3,8.7,29.2c1,8.1,1.5,18.1-1,47.1c-0.3,3.1-1.1,13-3.6,34.3
			c-3.6,31.2-4.6,34.9-5.6,48.1c-0.8,10.3-1.3,21.2-1,44.6c0.3,22.3,0.6,52.8,4.1,95.3c2.6,31.5,7,70.7,14.9,115.7
			c-7.8,4.1-15.1,6.6-21,8.2c-13.1,3.5-23.7,3.6-32.8,3.6c-8.7,0-16.3-0.7-22.5-1.5c-2.9-15.1-6.7-37.8-9.7-65.6
			c-1.6-14.4-2.6-30.3-4.6-61.5c-2.8-43.7-4.2-65.5-4.6-84c-0.2-8.2-0.2-15,1-71.2c1.8-84.3,2.5-94.6,11.3-108.1
			C968.3,622.6,1003.8,606.4,1017.2,615.4z"/>
		<g>
			<g>
				<path class="st0" d="M1024.7,618.2c1.7,27.2,1.2,54.4-1.5,81.5c-2.7,26.4-7.2,52.5-8.9,78.9c-3.5,54.2,0.1,108.7,6.1,162.6
					c3.4,30.1,7.5,60.2,11.7,90.2c0.3,1.9,3.2,1.1,2.9-0.8c-7.5-54.1-15-108.3-17.9-162.9c-1.4-26.7-1.7-53.6-0.4-80.3
					c1.4-26.6,5.3-52.7,8.5-79.1c3.6-29.9,4.4-60.1,2.5-90.2C1027.6,616.2,1024.6,616.2,1024.7,618.2L1024.7,618.2z"/>
			</g>
		</g>
		<g>
			<g>
				<path class="st0" d="M938,748.5c-2.4,76,0.5,152.1,9,227.7c2.3,21,5.1,41.9,8.3,62.8c0.3,1.9,3.2,1.1,2.9-0.8
					c-11.3-74.7-17.3-150.2-17.9-225.8c-0.2-21.3,0.1-42.6,0.8-63.9C941.1,746.5,938.1,746.5,938,748.5L938,748.5z"/>
			</g>
		</g>
		<g>
			<g>
				<path class="st0" d="M956.2,1041.2c26,5.2,52.9,1.8,76.8-9.8c1.7-0.8,0.2-3.4-1.5-2.6c-23.1,11.2-49.3,14.6-74.5,9.5
					C955.1,1037.9,954.3,1040.8,956.2,1041.2L956.2,1041.2z"/>
			</g>
		</g>
		<path class="st9" d="M948.3,674.5c-2.7,18.9-5.2,40.4-6.9,64.2c-1,13-2.4,35.3-2.6,63.3c-0.2,23.3,0.7,43,2.6,81.6
			c2.1,43.6,3.2,65.9,6.1,90.2c3.3,28,7.4,50.8,10.4,65.9c7,1.5,16.6,2.6,27.8,1.7c7.4-0.6,13.8-2,19.1-3.5
			c-8.5-31.8-16.3-65.1-23.4-99.8C961.9,843.3,952.1,754.6,948.3,674.5z"/>
		<path class="st9" d="M940.5,772.6c4.3,35.8,8.1,66.6,11.3,91.1c8.2,64.1,10.8,80.2,16.5,100.6c9.4,33.8,21.7,59.9,30.4,76.3
			c-6.1,1.5-16,3.1-27.8,0.9c-5.5-1-10.2-2.7-13.9-4.3c-4.1-24.3-7.6-49.8-10.4-76.3C939.3,892.6,938.2,829.4,940.5,772.6z"/>
	</g>
	<g id="leg_front">
		<path class="st0" d="M866.8,1031.5c-1.4,19.9-2.8,39.9-4.3,59.8c-47,11.6-70.1,20-69.4,25.1c0.8,6.1,35.5,7.5,104.1,4.3
			c2.1-28.8,4.3-57.7,6.4-86.5C891.3,1033.2,879,1032.3,866.8,1031.5z"/>
		<path class="st3" d="M908.3,619.2c-5.9,6.3-9.8,14.3-9.8,14.3c-2.4,4.9-3.9,9.1-4.5,12.5c-1.1,7.5-2.7,17.9-4.5,30.3
			c-3.9,27.1-6.6,48.3-8,59.7c-5,39.5-7.8,65.1-13.4,112.4c-8.3,69.9-10.7,85-16.9,141.8c-2.3,21.1-4.2,38.5-5.4,49.9
			c1.7,2.7,4.6,6.5,9.2,9.9c1.1,0.8,3.2,2.3,9.5,5.3c5.8,2.7,11.7,5.1,14.3,6c15.5,5,43.5-2.5,45-2.9c0-10.9,0.2-25.6,1-43.1
			c0.3-7,1.3-25.9,5.2-62.2c3.5-32.5,6.2-58.2,12.3-92.8c4.4-25.3,8.7-44.6,12.6-61.4c5.9-26.4,11.7-48.9,16.5-66.4
			c6.9-13.5,13.8-27,20.7-40.5c2-2.9,20.3-30,9.9-54.6C986.4,600,921.2,605.4,908.3,619.2z"/>
		<g>
			<g>
				<path class="st0" d="M904.9,608.2c-18.7,51.4-22.7,106.9-29,160.8c-6.8,57.8-13.6,115.6-20.3,173.5
					c-3.8,32.4-7.6,64.8-11.4,97.1c-0.2,1.9,2.8,1.9,3,0c6.7-57.5,13.5-115,20.2-172.5c6.6-56.5,12.4-113.1,20.1-169.4
					c4.1-30.1,9.8-60.1,20.3-88.7C908.4,607.2,905.5,606.4,904.9,608.2L904.9,608.2z"/>
			</g>
		</g>
		<g>
			<g>
				<path class="st0" d="M991.4,691c-15.8,24.9-28.3,51.7-37.1,79.9c-0.6,1.8,2.3,2.6,2.9,0.8c8.7-27.9,21.1-54.5,36.8-79.2
					C995,690.9,992.4,689.3,991.4,691L991.4,691z"/>
			</g>
		</g>
		<g>
			<g>
				<path class="st0" d="M971.6,727.3c-24.2,83.6-39.7,169.7-45.9,256.5c-1.8,24.9-2.8,49.8-3.1,74.7c0,1.9,3,1.9,3,0
					c1-87.1,11.2-174,30.4-258.9c5.4-24,11.6-47.8,18.5-71.4C975,726.3,972.2,725.5,971.6,727.3L971.6,727.3z"/>
			</g>
		</g>
		<g>
			<g>
				<path class="st0" d="M844.5,1041.2c19.7,23.3,52.2,30.4,80,17.9c1.8-0.8,0.2-3.4-1.5-2.6c-26.6,11.9-57.6,4.7-76.4-17.5
					C845.3,1037.6,843.2,1039.7,844.5,1041.2L844.5,1041.2z"/>
			</g>
		</g>
		<path class="st4" d="M928.3,627.7c11.9,10.9-6.9,46.8-18.2,74.6c-16.5,40.6-20,107.7-26.9,242.1c-1.5,28.4-3.1,68.2-3.5,116.3
			c-3.5-0.5-7.7-1.5-12.1-3.5c-11.7-5.1-18.5-13.6-21.7-18.2c2.8-19.9,6.8-50,11.3-86.8c10.3-84.4,12.4-119,20-179.6
			c4.3-34.3,11-83.5,21.7-143.2C898.8,629.4,898.8,629.4,928.3,627.7z"/>
		<path class="st4" d="M879.7,759.6c5.3,74.9-0.3,122.8-6.9,153.6c-5.7,26.4-4.4,53.9-7.8,80.7c-1.7,13.1-4,29.6,5.2,45.1
			c6.6,11.1,16.4,17.4,23.4,20.8c-4.1,0.8-14.8,2.3-26.9-2.6c-11.8-4.8-18.4-13-20.8-16.5c4.8-41.6,9.8-83.3,14.7-124.9
			C866.9,863.6,873.3,811.6,879.7,759.6z"/>
	</g>
	<g id="hand_back">
		<path class="st3" d="M994.3,389.5c-2.1,1.2-1.2,12.9,0.7,36c0.2,1.9,0.3,4.1,0.6,7.1c0.7,6.8,1.6,13.4,2.7,20.5
			c8.3,53.9,20.1,93.9,20.1,93.9c5.7,19.3,13.8,43.1,25.3,69.6c1.9,3.4,5.7,8.9,12.1,12.1c6.9,3.5,13.1,2.5,22.3,0.8
			c17.8-3.3,29.2-11.4,33.3-14.6c6-4.6,13.9-10.7,13.2-17.8c-0.3-2.5-1.7-6.2-4.8-7.3c-2.7-1-6.1,0.3-8.4,3.2
			c4.7-6.5,8-12.5,10.2-17c5.1-10.4,5.1-14,4-16.6c-0.2-0.4-1.4-3.2-4-4.5c-0.7-0.3-2.1-0.9-6.6,0c-5.3,1-6.1,2.3-9.5,2.4
			c-3.2,0.1-4.2-1-6.6-1.2c-3.1-0.3-7.7,0.9-13.9,8.1c-1-0.8-2.5-1.7-4.4-1.6c-3.2,0.1-5.7,3.1-12.1,14.2c-2,3.4-4.5,7.9-7.3,13.4
			c-1.4-6.2-3.5-15.8-5.9-27.5c-8.2-41.2-7-49.2-13.2-79.3c-8.7-42.8-17.9-60.7-26-72.8C1008.3,398.4,998,387.3,994.3,389.5z"/>
		<g>
			<g>
				<path class="st0" d="M994.6,391.7c4.5-2.1,9.9,5.9,12.3,8.8c3,3.7,5.8,7.5,8.3,11.5c4.7,7.3,8.6,15.1,11.9,23.2
					c7.4,17.9,11.7,36.9,15.1,55.9c3.5,19.8,6.3,39.7,9.4,59.5c2.7,17.2,4.5,35.5,14.1,50.5c1,1.6,3.6,0.1,2.6-1.5
					c-8.5-13.2-10.6-28.9-12.9-44c-2.6-17-5.2-34-7.9-51c-4.9-30.9-11.1-62.6-27.1-89.9c-3.8-6.4-8.1-12.5-12.9-18.2
					c-3.6-4.1-8.3-10.2-14.3-7.4C991.3,389.9,992.8,392.5,994.6,391.7L994.6,391.7z"/>
			</g>
		</g>
		<g>
			<g>
				<path class="st0" d="M994,433.8c3.5,30.8,9.1,61.3,16.9,91.3c7.6,29.2,16.5,59.3,29.3,86.7c5.4,11.4,15.6,24,29.8,20.3
					c1.9-0.5,1.1-3.4-0.8-2.9c-19.9,5.3-28.5-23.2-33.7-36.7c-6.4-16.8-12.1-33.8-17.1-51c-10.2-35.2-17.3-71.2-21.5-107.6
					C996.8,431.9,993.8,431.8,994,433.8L994,433.8z"/>
			</g>
		</g>
		<g>
			<g>
				<path class="st0" d="M1062.9,592.1c2.6-5.3,5.1-10.7,7.7-16c2.7-5.5,6-13.2,13.3-12.5c1.9,0.2,1.9-2.8,0-3
					c-5.7-0.5-9.8,3.2-12.6,7.7c-4.3,6.9-7.4,14.9-11,22.2C1059.5,592.3,1062,593.8,1062.9,592.1L1062.9,592.1z"/>
			</g>
		</g>
		<g>
			<g>
				<path class="st0" d="M1077.9,579.4c4.3-7.2,12.5-27.2,23.7-21.1c1.7,0.9,3.2-1.7,1.5-2.6c-13.7-7.5-22.6,13.4-27.8,22.1
					C1074.3,579.6,1076.9,581.1,1077.9,579.4L1077.9,579.4z"/>
			</g>
		</g>
		<g>
			<g>
				<path class="st0" d="M1086.6,583.1c3.6-5.1,7.3-10.2,10.9-15.3c3.9-5.5,9.1-12.2,16.7-11.1c1.9,0.3,2.7-2.6,0.8-2.9
					c-6.3-1-11.4,2-15.5,6.6c-5.8,6.4-10.5,14.2-15.5,21.2C1082.8,583.1,1085.4,584.6,1086.6,583.1L1086.6,583.1z"/>
			</g>
		</g>
		<g>
			<g>
				<path class="st0" d="M1095.1,585.3c4.3-5.1,8.5-10.3,12.8-15.4c2.5-3,12.5-18.5,16.7-9.3c1.1,2.3-0.7,7-1.5,9.3
					c-1.1,3-2.7,5.8-4.2,8.6c-3.4,6.2-6.9,12.3-11.3,17.8c-1.2,1.5,0.9,3.6,2.1,2.1c5.5-7,10.1-14.8,14.1-22.8
					c2.5-5,6.4-14.1,2.5-19.4c-3.9-5.3-10.6-0.1-13.6,3.3c-6.8,7.7-13.2,15.8-19.7,23.7C1091.8,584.6,1093.9,586.7,1095.1,585.3
					L1095.1,585.3z"/>
			</g>
		</g>
		<g>
			<g>
				<path class="st0" d="M1113.5,556.6c1.5,0.2,2.9,0.6,4.3,1.1c0.8,0.3,1.6-0.3,1.8-1c0.2-0.9-0.3-1.5-1-1.8
					c-1.6-0.6-3.3-1-5.1-1.2c-0.8-0.1-1.5,0.8-1.5,1.5C1112,556,1112.7,556.5,1113.5,556.6L1113.5,556.6z"/>
			</g>
		</g>
		<g>
			<g>
				<path class="st0" d="M1114.8,592.4c2.3-2.9,6.8-0.9,7.7,2.3c0.4,1.4,0.4,3.1,0.1,4.5c-0.7,3.3-2.8,6.2-5.1,8.6
					c-4.1,4.4-9,8.2-14.2,11.2c-10.4,6-22.2,9-34.1,9.9c-1.9,0.1-1.9,3.1,0,3c18-1.3,35.7-7.5,48.8-20.3c4.8-4.7,9.6-11.3,7.2-18.4
					c-1.8-5.4-8.6-7.9-12.5-3C1111.4,591.8,1113.6,593.9,1114.8,592.4L1114.8,592.4z"/>
			</g>
		</g>
		<path class="st10" d="M995.5,391.2c2.2,7.9,5.4,20.1,9.1,35.1c9.5,38.9,15.7,71.6,27.3,119.8c11.7,48.6,16.1,59.6,26.9,63.8
			c12,4.6,35.7,2.3,50.5-10c4.7-3.9,9.4-9.5,11.8-8.2c2.5,1.4,1.8,9.6-1.4,15.9c-6,12-20.1,16.1-33.7,20
			c-11.1,3.2-16.7,4.8-23.7,2.7c-10.3-3.1-16.2-11.7-19.1-15.9c-3.6-5.3-4.2-8.4-9.1-21.9c-5-13.9-5.4-13.5-9.1-23.7
			c-7.4-20.3-11.8-38.1-14.6-49.2c-5.7-22.8-10.9-43.9-13.7-72.4C995.5,433,994.5,413.9,995.5,391.2z"/>
		<path class="st4" d="M1041.5,603.8c2.8,2.9,16,16,37.3,16.8c24.2,0.9,39.6-14.9,41.9-17.3c-2.6,4.4-7.7,11.4-16.4,16.8
			c-5.5,3.5-10.2,4.9-15.5,6.4c-13.7,4-22.6,6.5-31,2.7C1045,623.5,1042,606.6,1041.5,603.8z"/>
	</g>
	<g id="torso">
		<path class="st8" d="M986.9,381.2c-10.7-1.3-20.8,6-26.3,10c-15.3,11.1-21.2,26.8-23.9,33.6c-16.5,41.3-21.3,91.3-23.4,110.1
			c-2.7,23.6-8,58-20,99.8c7,5.7,34.7,27,75.3,25.7c34.7-1.2,58.4-18.3,66.1-24.5c2.2-40.1,2.5-73.9,2.3-99.2
			c-0.5-46.2-2.1-67.4-9.1-91.8C1022.5,426.1,1010.4,384,986.9,381.2z"/>
		<path class="st10" d="M978.4,384.3c-10,9.8,13.9,48,17.8,56.9c18,41,26.3,107.3-16.7,218.3c5.9-1.1,12.5-2.7,19.5-5.2
			c14.6-5,26.1-11.8,34.5-17.8c0.7-7.3,1.6-17.1,2.3-28.7c1.1-18.5,1.2-33.7,1.1-46.5c-0.2-39-0.3-58.5-3.4-84.4
			c-1.6-12.9-5.1-37-16.7-64.3c-6.9-16.1-14-27.3-25.3-29.9C990.1,382.3,982.3,380.5,978.4,384.3z"/>
		<path class="st11" d="M1034.7,499.2c-2-0.2-4.6,18.1-9.2,41.9c-9.7,50.1-21.8,89.2-30.4,114.3c5.7-2.2,11.7-4.7,17.8-7.5
			c7.5-3.4,14.6-6.9,21.3-10.3C1038.5,523,1037,499.4,1034.7,499.2z"/>
	</g>
	<g id="hand_front">
		<path class="st3" d="M964,395.8c-3.2-1.3-6.2-1.1-8-0.8c-3,3.6-7.7,9.3-13.4,16.3c-25.1,31.3-27.3,38.6-44.8,58.6
			c-16.8,19.2-28.4,28.2-37,34c-9.7,6.5-16.9,9.8-19.1,10.8c-15.9,7.1-30.3,9.3-39.8,10.1c-2.9-1.4-7.1-3.7-11.3-7.5
			c-5.4-5-7.9-9.8-10.5-14.2c-9.9-16.7-12.6-21.5-16.3-21.4c-1.3,0-3.4,0.7-6,4.6c-1-0.7-2.7-2-4.6-3.7c-4.7-4.2-6-6.7-9.9-8.4
			c-1.7-0.7-3.9-1.7-5.8-0.6c-1.9,1.1-2.3,3.7-2.4,4.3c-1.7-1.8-5.8-5.5-11.6-5.8c-1.6-0.1-3.9-0.2-5,1.2c-1.7,2-0.1,6.8,4.1,11.8
			c-1-0.3-5.8-1.9-7.8,0.3c-2.2,2.3,0.1,7.4,1.6,10.7c3,6.7,6.9,10.1,15,19.1c3.3,3.7,5.9,6.7,7.6,8.6c-1.7-0.2-4.4-0.6-7.4-1.8
			c-4.5-1.8-6-3.9-8-3.3c-2.2,0.7-3.4,4.4-3,7.3c0.5,3.3,3.6,5.3,5.5,6.4c11.5,7,25.7,10.5,30.1,11.6c10.9,2.7,16.4,4,20.5,4.5
			c7.1,0.9,14.2,1.3,24.8,0.8c29.4-1.4,52.3-7.4,57.2-8.7c10.6-2.8,19.9-5.3,31.6-10.6c10.9-4.9,34.9-16,55.9-41.1
			c11.5-13.7,16.4-25,26.3-47.5c1.2-2.8,3.6-8.3,4-15.7C977,415.3,974.1,399.8,964,395.8z"/>
		<g>
			<g>
				<path class="st0" d="M963.2,393.7c-6.9-2.6-12.1,3.9-16,8.7c-5.6,6.8-10.9,13.8-16.2,20.9c-11.5,15.5-22.6,31.4-35.3,46.1
					c-24,28-55.6,52.7-94.1,53.6c-1.9,0-1.9,3,0,3c34.8-0.8,64.8-20.7,87.9-45.3c12-12.8,22.6-26.8,33-40.9c5.5-7.5,11-15,16.6-22.4
					c3.3-4.3,6.7-8.6,10.1-12.8c3.1-3.8,7.4-10,13.1-7.9C964.2,397.2,964.9,394.3,963.2,393.7L963.2,393.7z"/>
			</g>
		</g>
		<g>
			<g>
				<path class="st0" d="M974.8,423.4c-13.2,90.8-117.8,132.2-199.7,123c-13.4-1.5-27-4.6-39.3-10.3c-3.1-1.4-6.2-3-9-4.9
					c-1.2-0.8-2.4-1.5-3.3-2.6c-2.3-1.7-2.5-3.5-0.8-5.5c0.2-2.7,1.5-3.5,4-2.5c4.9,1.1,8,5.3,13.3,5.4c1.9,0,1.9-3,0-3
					c-5.4-0.1-8.9-5.2-14.2-5.6c-3.8-0.3-7,1.8-7.5,5.7c-1,9.2,12.9,14.3,19.5,17.1c24.5,10.2,51.9,11.6,78,9.4
					c48.2-4.1,97.3-21.5,129.9-58.5c16.6-18.9,28.3-41.9,31.9-66.9C978,422.3,975.1,421.5,974.8,423.4L974.8,423.4z"/>
			</g>
		</g>
		<g>
			<g>
				<path class="st0" d="M740.8,523.5c-2.4-4.4-6.2-7.2-9.7-10.6c-5-4.9-9.1-11.8-12.5-18c-0.9-1.7-1.8-3.4-2.3-5.2
					c-1.3-2.5-0.5-3.4,2.2-2.6c1.7-0.7,3-0.3,4,1c2.5,1.5,4.9,4.4,6.9,6.5c4.9,5,9.2,10.6,13,16.5c1,1.6,3.6,0.1,2.6-1.5
					c-3-4.6-26.1-36.6-31.5-25.3c-3.2,6.5,4.8,15.8,7.9,20.8c2.3,3.6,4.5,7,7.6,10c3.3,3.2,7,5.8,9.3,10
					C739.1,526.7,741.7,525.2,740.8,523.5L740.8,523.5z"/>
			</g>
		</g>
		<g>
			<g>
				<path class="st0" d="M726.5,486.7c-1.3-1.3-11-13.2-4.8-13.9c1.4-0.2,5,2.8,6.2,3.6c2,1.4,4,3,5.8,4.8
					c6.6,6.1,11.8,13.5,16.9,20.8c1.1,1.6,3.7,0.1,2.6-1.5c-7.7-10.9-16.5-24.3-29.2-29.9c-3.1-1.4-7.3-1.6-7.7,2.7
					c-0.5,5.5,4.4,12.1,8,15.6C725.8,490.2,727.9,488.1,726.5,486.7L726.5,486.7z"/>
			</g>
		</g>
		<g>
			<g>
				<path class="st0" d="M738.6,481.7c-0.3-0.6-1.7-3.5-1.5-4.2c1.1-0.9,2.2-1.9,3.3-2.8c0.7,0.4,1.5,0.7,2.2,1.1
					c2.9,1.7,5.4,4.2,7.7,6.7c4.6,5.2,8.6,11,12.8,16.5c1.2,1.5,3.8,0,2.6-1.5c-6.4-8.3-13-20.4-23-25c-2.2-1-5.3-1.8-7.3,0
					c-3,2.6-0.8,7.3,0.4,10.1C736.4,484.3,739.3,483.5,738.6,481.7L738.6,481.7z"/>
			</g>
		</g>
		<g>
			<g>
				<path class="st0" d="M760.1,488.1c-0.8-2.5-1.5-3.1,1.7-3.4c2.8-0.2,2.9,0.4,4.6,2.2c2.1,2.4,4,4.9,5.9,7.4
					c3.2,4.4,6.2,9,9.5,13.5c5.1,6.9,11.8,16.6,21,17.9c1.9,0.3,2.7-2.6,0.8-2.9c-8.3-1.2-14.6-10.2-19.2-16.5
					c-4.2-5.7-8.1-11.8-12.4-17.4c-2.5-3.1-6.3-9.5-11-9.3c-5,0.2-4.7,5.9-3.6,9.3C757.8,490.7,760.7,489.9,760.1,488.1L760.1,488.1
					z"/>
			</g>
		</g>
		<path class="st10" d="M974.4,406.8c-2.4-0.7-6.3,9.5-13.8,22.7c-12.3,21.8-24.7,36.1-37.8,49.1c-31.1,30.8-46.7,46.3-73.9,54.4
			c-9.7,2.9-54.5,14.9-95.9-11c-19.6-12.3-30.9-28.4-36.6-38.2c-1,1-2.2,2.5-2.4,4.5c-0.4,2.9,1.5,5.1,3.7,8.1
			c3,4.3,3.2,5.4,4.3,7.6c0,0,0.9,1.6,2.2,3.4c3.4,4.7,15.4,15.6,14.6,16.7c-0.3,0.4-2.6-0.7-7.3-2.8c-4.6-2.1-5.4-2.7-6.9-2.4
			c-2.7,0.5-5.4,3.5-5.3,6.5c0.1,2.7,2.4,4.5,4.5,6.1c2.4,1.9,4.7,2.6,5.3,2.8c8.8,3,11,5,18.7,7.3c22.5,6.7,47.9,7.3,47.9,7.3
			c37.3,0.9,65.9-8.5,71.9-10.6c12.4-4.2,36.7-12.7,61.3-33.7c12.2-10.4,30.8-26.6,40.6-53.6C977,430.5,977.8,407.7,974.4,406.8z"/>
		<path class="st4" d="M740.4,537.2c16,3.5,35.5,6.1,57.7,5.7c54.3-1,96.2-19.8,119.8-32.9c-12.6,10.4-33.9,25.3-63.8,33.7
			C801.2,558.6,756.5,543.5,740.4,537.2z"/>
	</g>
	<g id="head">
		<path class="st3" d="M904,258c-0.1,0.2-3.6,6.1-10.5,18c-8,13.7-11.3,19.4-14.6,27.5c-2.3,5.7-3.8,10.4-4.7,13.6
			c4.4,1.8,8.8,3.6,13.2,5.4c1.2,9.8,4.1,17.3,6.4,22c3.7,7.6,9,18.7,21,24.1c1.8,0.8,7.2,3.1,14.6,3.1c9.2,0,16-3.6,19-5.4
			c0.6,3.8,1.8,8.6,4.1,13.9c1.9,4.5,4.1,8.1,6.1,10.9c9.4-3.6,18.8-7.2,28.1-10.9c-2.6-3.9-6-10.1-8.1-18.3
			c-0.7-2.8-2.3-9.8-1.7-19.7c0.7-12.1,4.1-18.4,7.8-29.8c5.7-17.8,9.1-28.2,7.5-39.3c-2.1-14.4-12.9-31-29.5-37
			C938.9,227.4,914.2,244.3,904,258z"/>
		<path class="st12" d="M887.4,269.6c-6.2-2.4-7.6-14.6-6.4-22.7c0.4-2.7,1.9-10.7,9.2-18.7c9.9-10.9,20.4-10.8,35.6-17.3
			c8.4-3.6,20.4-10.1,33.2-22.7c-1.9,5.7-3.8,11.3-5.8,17c2.9,0.2,10.1,0.5,17.6-3.7c9.3-5.1,12.9-13.5,13.9-15.9
			c1.6,2.5,8.2,13.4,4.7,25.8c-1,3.5-2.6,6.3-4.1,8.5c5.2-1.4,12.5-4.1,18.7-10.2c6.8-6.7,7.7-12.8,10.5-12.5
			c5.4,0.5,7.4,22.5,8.5,34.6c0.7,8,1.8,13.6-0.3,20.3c-1.9,6.2-5.5,10.9-5.1,11.2c0.7,0.4,10.8-16.2,13.6-14.9
			c1.7,0.8-1.3,7.2-2.4,19.3c-1.3,14.8,1.7,17.6-1,28.1c-1.6,6.1-3.9,10.4-6.4,15.3c-3.1,5.7-6.9,12.9-13.9,19.3
			c-6.5,6-14.5,13.3-24.4,11.9c-12.9-1.9-18.9-17.2-19.3-18.3c1.1,0,11-0.5,15.9-8.1c6.2-9.7,0-24.1-7.1-26.5
			c-5.2-1.8-9.3,3.5-14.2,1c-4-2-4.5-6.9-6.1-11.5c-2.1-6.1-6.7-14.2-18-22.4c-7.1-0.3-17.6,0.3-28.5,5.4
			C896.2,266.2,892.1,271.4,887.4,269.6z"/>
		<g>
			<g>
				<path class="st0" d="M886.5,286.7c-5.2,8-9.5,16.5-12.5,25.6c-0.7,2.1-1.9,4.3-0.4,6.1c1.1,1.3,3.8,1.7,5.3,2.3
					c2.5,0.9,5,1.9,7.5,2.8c1.8,0.7,2.6-2.2,0.8-2.9c-1.7-0.6-3.3-1.2-5-1.9c-1-0.4-4.3-1.1-5-1.9c-2.1-2.1,0.9-7.3,1.8-9.5
					c2.7-6.7,6.1-13,10.1-19.1C890.2,286.6,887.6,285.1,886.5,286.7L886.5,286.7z"/>
			</g>
		</g>
		<g>
			<g>
				<path class="st0" d="M885.8,322.4c5.5,19.2,12.4,40.6,32,49.7c1.7,0.8,3.3-1.8,1.5-2.6c-18.8-8.8-25.3-29.4-30.6-47.9
					C888.1,319.7,885.2,320.5,885.8,322.4L885.8,322.4z"/>
			</g>
		</g>
		<g>
			<g>
				<path class="st0" d="M918.3,372.4c17.5,3.9,37.1-5.5,48.8-18c1.3-1.4-0.8-3.5-2.1-2.1c-11,11.7-29.5,20.9-45.9,17.2
					C917.2,369,916.4,371.9,918.3,372.4L918.3,372.4z"/>
			</g>
		</g>
		<g>
			<g>
				<path class="st0" d="M947,367c1.2,8.8,4.4,16.7,9.9,23.7c1.2,1.5,3.3-0.6,2.1-2.1c-4.9-6.3-7.9-13.7-9-21.6
					C949.8,365.1,946.8,365.1,947,367L947,367z"/>
			</g>
		</g>
		<g>
			<g>
				<path class="st0" d="M975.6,354.1c0.6,9.9,4.2,18.9,10.6,26.5c1.2,1.5,3.4-0.7,2.1-2.1c-5.9-7-9.2-15.3-9.8-24.4
					C978.4,352.2,975.4,352.2,975.6,354.1L975.6,354.1z"/>
			</g>
		</g>
		<g>
			<g>
				<path class="st0" d="M960.8,294.3c2.9-4.4,8.4-5,12.7-2.2c3.9,2.5,5.8,7.3,6.1,11.7c0.5,7.1-4.1,21.5-14.1,17.2
					c-1.8-0.8-3.3,1.8-1.5,2.6c13,5.6,19.9-11.5,18.4-21.8c-0.9-5.9-4.3-11.7-10.2-13.7c-5.3-1.9-10.8,0.1-13.9,4.7
					C957.1,294.4,959.7,295.9,960.8,294.3L960.8,294.3z"/>
			</g>
		</g>
		<g>
			<g>
				<path class="st0" d="M949.7,371c5.8-3.7,10.8-8.2,15.1-13.5c1.2-1.5-0.9-3.6-2.1-2.1c-4.1,5.1-9,9.5-14.5,13.1
					C946.6,369.5,948.1,372.1,949.7,371L949.7,371z"/>
			</g>
		</g>
		<g>
			<g>
				<path class="st0" d="M895,342.2c6.9,0.6,13.8-1.9,18.6-7c3.1-3.4,4.3-9.1-2-8.9c-1.6,0.1-2.1,2.5-0.4,2.9
					c2.3,0.6,4.2,1.5,6.1,3.1c1.5,1.2,3.6-0.9,2.1-2.1c-2.3-1.9-4.5-3.1-7.4-3.8c-0.1,1-0.3,2-0.4,2.9c3.4-0.1-1.1,4.8-1.5,5.2
					c-1.6,1.4-3.3,2.4-5.2,3.2c-3.2,1.4-6.4,1.8-9.9,1.5C893.1,339.1,893.1,342.1,895,342.2L895,342.2z"/>
			</g>
		</g>
		<g>
			<g>
				<path class="st0" d="M908.2,297c-1.7-3-2.3-6.3-1.5-9.6c-0.7,0.3-1.5,0.6-2.2,0.9c2.7,2.1,2.1,6,1.7,8.9
					c0.9-0.1,1.8-0.2,2.7-0.4c-1.2-1.7-1.8-3.5-1.8-5.6c0-1.9-3-1.9-3,0c0,2.6,0.7,5,2.2,7.1c0.7,0.9,2.5,1,2.7-0.4
					c0.7-4.5,0.9-9.2-3.1-12.3c-0.8-0.6-2,0-2.2,0.9c-1,4.1-0.4,8.3,1.8,11.9C906.6,300.2,909.2,298.7,908.2,297L908.2,297z"/>
			</g>
		</g>
		<g>
			<g>
				<path class="st0" d="M902.2,275.8c4.9-5.8,12-1.4,14.6,4.1c0.8,1.7,3.4,0.2,2.6-1.5c-3.4-7.2-13.2-11.8-19.3-4.7
					C898.8,275.2,900.9,277.3,902.2,275.8L902.2,275.8z"/>
			</g>
		</g>
		<path class="st2" d="M950.4,274.1c0.4,2.3,0.9,5.9,1.7,10.1c2.2,11.9,4.1,18.7,4.8,21.9c2.6,12.2-0.8,31-13.2,43.3
			c-13.7,13.5-32.4,13.2-37.1,13c2.1,2.5,5.4,5.7,10.2,7.8c14.6,6.4,29.4-2.9,31-4c-0.2,6.5,1.2,8.7,2.6,9.4
			c4.3,1.9,13.9-7,18.1-16.6c4.5-10.4,2.2-20.4,1-24.5c-5.6-7.7-5.9-10.4-5.1-11.3c1.2-1.3,4.5,1.1,8.2-0.2c3.9-1.5,5.5-6.2,6.5-9.1
			c1.3-3.9,4.8-14.5-1.7-20.7c-4.1-3.9-10.8-4.6-17.1-2.4c-1.3-0.2-3-0.8-4.3-2.2c-1.7-1.8-1.7-3.9-2.6-7.5
			C952.8,279.3,952,276.9,950.4,274.1z"/>
		<path class="st5" d="M964.4,341.7c-0.8,8.6-2.9,15.6-4.8,20.7c3.5-1,7.1-2.1,10.6-3.1c3,7.9,5.9,15.9,8.9,23.8
			c2.2-1.1,4.3-2.2,6.5-3.4c-2.5-5.6-5-12.5-7-20.5c-1.7-6.8-2.6-13.1-3.1-18.5c-1.7-1.7-3.7-3.8-5.5-6.5c-3.1-4.5-4.9-8.7-6-12
			C964.6,327.3,965.1,334,964.4,341.7z"/>
		<path class="st13" d="M1021,216.3c-1.4,0-0.5,13.8-6.4,30.6c-2.5,7.1-7.1,19.7-18.9,30.3c-8.4,7.5-17.1,11.2-22.6,13
			c1.5,0.9,3.9,2.6,5.7,5.5c4.4,7,1.6,14.9,0.8,17.2c-1.1,3.2-2.6,7.4-6.8,9.6c-3.9,2-7.9,1.2-9.3,0.8c0.3,0.9,6.6,17.5,19.7,18.9
			c5.5,0.6,10-1.8,13.4-3.6c8.9-4.6,13.4-11.5,18.9-20c7.3-11.3,12.4-19.3,13.1-30.6c0.5-8.9-2.2-11.2-0.3-19.7
			c0.6-2.7,2.2-8.1,1.9-15.6c-0.1-1.6-0.2-2.9-0.3-3.8c-4.1,4.7-8.2,9.5-12.3,14.2c1.4-2.7,3.2-6.9,4.4-12.3
			c1.3-5.9,1.1-10.5,0.8-18.1C1022.7,228.4,1022.3,216.3,1021,216.3z"/>
	</g>
</g>
</svg>
