<?xml version="1.0" encoding="utf-8"?>
<!-- Generator: Adobe Illustrator 19.0.0, SVG Export Plug-In . SVG Version: 6.00 Build 0)  -->
<svg version="1.1" xmlns="http://www.w3.org/2000/svg" xmlns:xlink="http://www.w3.org/1999/xlink" x="0px" y="0px"
	 viewBox="0 0 1600 1200" style="enable-background:new 0 0 1600 1200;" xml:space="preserve">
<style type="text/css">
	.st0{fill:#161616;}
	.st1{fill:none;stroke:#161616;stroke-width:2;stroke-miterlimit:10;}
	.st2{opacity:0.15;fill:#3D3D3D;}
	.st3{fill:#E8E8E8;}
	.st4{fill:none;stroke:#E8E8E8;stroke-width:3;stroke-miterlimit:10;}
	.st5{fill:#161616;stroke:#161616;stroke-width:3;stroke-miterlimit:10;}
	.st6{fill:#FFFFFF;stroke:#161616;stroke-width:3;stroke-miterlimit:10;}
	.st7{opacity:0.16;fill:#3D3D3D;}
	.st8{opacity:0.25;fill:#3D3D3D;}
	.st9{opacity:0.2;fill:#3D3D3D;}
	.st10{fill:#FFFFFF;}
	.st11{opacity:0.14;fill:#3D3D3D;}
	.st12{opacity:0.18;fill:#3D3D3D;}
	.st13{opacity:0.24;fill:#3D3D3D;}
	.st14{opacity:0.19;fill:#3D3D3D;}
	.st15{fill:#EC615B;}
	.st16{opacity:0.17;fill:#3D3D3D;}
	.st17{opacity:0.11;fill:#3D3D3D;}
	.st18{opacity:0.21;fill:#3D3D3D;}
	.st19{fill:#5222D0;}
	.st20{opacity:0.69;fill:#3A1DA3;}
</style>
<g id="coins_ground">
	<g>
		<g>
			<path class="st0" d="M570.8,1113c17.8,0,35.6,0,53.4,0c1.9,0,1.9-3,0-3c-17.8,0-35.6,0-53.4,0C568.9,1110,568.9,1113,570.8,1113
				L570.8,1113z"/>
		</g>
	</g>
	<g>
		<g>
			<path class="st0" d="M805.5,1111.2c13.2,0,26.4,0,39.6,0c1.9,0,1.9-3,0-3c-13.2,0-26.4,0-39.6,0
				C803.5,1108.2,803.5,1111.2,805.5,1111.2L805.5,1111.2z"/>
		</g>
	</g>
	<g>
		<g>
			<path class="st0" d="M864.3,1109.4c7.7,0,15.3,0,23,0c1.9,0,1.9-3,0-3c-7.7,0-15.3,0-23,0
				C862.4,1106.4,862.4,1109.4,864.3,1109.4L864.3,1109.4z"/>
		</g>
	</g>
	<path class="st1" d="M770.1,989.5H580.2c-6.6,0-12-5.4-12-12v-6.2c0-6.6,5.4-12,12-12h189.9c6.6,0,12,5.4,12,12v6.2
		C782.1,984.1,776.7,989.5,770.1,989.5z"/>
	<path class="st1" d="M788.7,1021.3H598.8c-6.6,0-12-5.4-12-12v-6.2c0-6.6,5.4-12,12-12h189.9c6.6,0,12,5.4,12,12v6.2
		C800.7,1015.9,795.3,1021.3,788.7,1021.3z"/>
	<path class="st1" d="M744.9,1052.3H555c-6.6,0-12-5.4-12-12v-6.2c0-6.6,5.4-12,12-12h189.9c6.6,0,12,5.4,12,12v6.2
		C756.9,1046.9,751.5,1052.3,744.9,1052.3z"/>
	<path class="st1" d="M768.1,1081.5H578.3c-6.6,0-12-5.4-12-12v-6.2c0-6.6,5.4-12,12-12h189.9c6.6,0,12,5.4,12,12v6.2
		C780.1,1076.1,774.7,1081.5,768.1,1081.5z"/>
	<path class="st1" d="M788.7,1111.7H598.8c-6.6,0-12-5.4-12-12v-6.2c0-6.6,5.4-12,12-12h189.9c6.6,0,12,5.4,12,12v6.2
		C800.7,1106.3,795.3,1111.7,788.7,1111.7z"/>
	<g>
		<g>
			<path class="st0" d="M714.6,972.3c0,4.1,0,8.3,0,12.4c0,1.4,2.3,1.5,2.3,0c0-4.1,0-8.3,0-12.4
				C716.8,970.8,714.6,970.8,714.6,972.3L714.6,972.3z"/>
		</g>
	</g>
	<g>
		<g>
			<path class="st0" d="M721.3,974.5c0,3.8,0,7.5,0,11.3c0,1.4,2.3,1.5,2.3,0c0-3.8,0-7.5,0-11.3
				C723.6,973.1,721.3,973.1,721.3,974.5L721.3,974.5z"/>
		</g>
	</g>
	<g>
		<g>
			<path class="st0" d="M743.9,968.3c0,5.3,0,10.5,0,15.8c0,1.4,2.3,1.5,2.3,0c0-5.3,0-10.5,0-15.8
				C746.2,966.9,743.9,966.9,743.9,968.3L743.9,968.3z"/>
		</g>
	</g>
	<g>
		<g>
			<path class="st0" d="M748.4,977.3c0,2.1,0,4.1,0,6.2c0,1.4,2.3,1.5,2.3,0c0-2.1,0-4.1,0-6.2C750.7,975.9,748.4,975.9,748.4,977.3
				L748.4,977.3z"/>
		</g>
	</g>
	<g>
		<g>
			<path class="st0" d="M593.2,967.9c0,5.8,0,11.6,0,17.5c0,1.4,2.3,1.5,2.3,0c0-5.8,0-11.6,0-17.5
				C595.4,966.4,593.2,966.4,593.2,967.9L593.2,967.9z"/>
		</g>
	</g>
	<g>
		<g>
			<path class="st0" d="M583.9,972.3c0,3.4,0,6.9,0,10.3c0,1.4,2.3,1.5,2.3,0c0-3.4,0-6.9,0-10.3
				C586.2,970.9,583.9,970.9,583.9,972.3L583.9,972.3z"/>
		</g>
	</g>
	<g>
		<g>
			<path class="st0" d="M621.3,968.6c0,4.7,0,9.4,0,14c0,1.4,2.3,1.5,2.3,0c0-4.7,0-9.4,0-14C623.5,967.1,621.3,967.1,621.3,968.6
				L621.3,968.6z"/>
		</g>
	</g>
	<g>
		<g>
			<path class="st0" d="M611,976.8c0,3.1,0,6.2,0,9.3c0,1.4,2.3,1.5,2.3,0c0-3.1,0-6.2,0-9.3C613.2,975.3,611,975.3,611,976.8
				L611,976.8z"/>
		</g>
	</g>
	<g>
		<g>
			<path class="st0" d="M663.4,968.9c0,6.1,0,12.1,0,18.2c0,1.4,2.3,1.5,2.3,0c0-6.1,0-12.1,0-18.2
				C665.7,967.5,663.4,967.5,663.4,968.9L663.4,968.9z"/>
		</g>
	</g>
	<g>
		<g>
			<path class="st0" d="M670.3,975.8c0,3.1,0,6.2,0,9.3c0,1.4,2.3,1.5,2.3,0c0-3.1,0-6.2,0-9.3C672.5,974.3,670.3,974.3,670.3,975.8
				L670.3,975.8z"/>
		</g>
	</g>
	<g>
		<g>
			<path class="st0" d="M680.5,967.5c0,6.1,0,12.1,0,18.2c0,1.4,2.3,1.5,2.3,0c0-6.1,0-12.1,0-18.2
				C682.8,966.1,680.5,966.1,680.5,967.5L680.5,967.5z"/>
		</g>
	</g>
	<g>
		<g>
			<path class="st0" d="M613.7,998c0,7.2,0,14.4,0,21.6c0,1.4,2.3,1.5,2.3,0c0-7.2,0-14.4,0-21.6C616,996.6,613.7,996.6,613.7,998
				L613.7,998z"/>
		</g>
	</g>
	<g>
		<g>
			<path class="st0" d="M626.1,1005.2c0,5.1,0,10.3,0,15.4c0,1.4,2.3,1.5,2.3,0c0-5.1,0-10.3,0-15.4
				C628.3,1003.8,626.1,1003.8,626.1,1005.2L626.1,1005.2z"/>
		</g>
	</g>
	<g>
		<g>
			<path class="st0" d="M666.2,1001.1c0,5.1,0,10.3,0,15.4c0,1.4,2.3,1.5,2.3,0c0-5.1,0-10.3,0-15.4
				C668.4,999.7,666.2,999.7,666.2,1001.1L666.2,1001.1z"/>
		</g>
	</g>
	<g>
		<g>
			<path class="st0" d="M692.2,995.6c0,8.3,0,16.7,0,25c0,1.4,2.3,1.5,2.3,0c0-8.3,0-16.7,0-25C694.4,994.2,692.2,994.2,692.2,995.6
				L692.2,995.6z"/>
		</g>
	</g>
	<g>
		<g>
			<path class="st0" d="M715.8,1005.6c0,2.7,0,5.5,0,8.2c0,1.4,2.3,1.5,2.3,0c0-2.7,0-5.5,0-8.2
				C718.1,1004.1,715.8,1004.1,715.8,1005.6L715.8,1005.6z"/>
		</g>
	</g>
	<g>
		<g>
			<path class="st0" d="M566.4,1030.6c0,6.6,0,13.2,0,19.9c0,1.4,2.3,1.5,2.3,0c0-6.6,0-13.2,0-19.9
				C568.7,1029.1,566.4,1029.1,566.4,1030.6L566.4,1030.6z"/>
		</g>
	</g>
	<g>
		<g>
			<path class="st0" d="M619.2,1031.3c0,6.9,0,13.7,0,20.6c0,1.4,2.3,1.5,2.3,0c0-6.9,0-13.7,0-20.6
				C621.5,1029.8,619.2,1029.8,619.2,1031.3L619.2,1031.3z"/>
		</g>
	</g>
	<g>
		<g>
			<path class="st0" d="M597.3,1033c0,4.6,0,9.1,0,13.7c0,1.4,2.3,1.5,2.3,0c0-4.6,0-9.1,0-13.7
				C599.5,1031.5,597.3,1031.5,597.3,1033L597.3,1033z"/>
		</g>
	</g>
	<g>
		<g>
			<path class="st0" d="M604.8,1028.5c0,3.8,0,7.5,0,11.3c0,1.4,2.3,1.5,2.3,0c0-3.8,0-7.5,0-11.3
				C607.1,1027.1,604.8,1027.1,604.8,1028.5L604.8,1028.5z"/>
		</g>
	</g>
	<g>
		<g>
			<path class="st0" d="M677.5,1028.9c0,7,0,13.9,0,20.9c0,1.4,2.3,1.5,2.3,0c0-7,0-13.9,0-20.9
				C679.7,1027.4,677.5,1027.4,677.5,1028.9L677.5,1028.9z"/>
		</g>
	</g>
	<g>
		<g>
			<path class="st0" d="M658.6,1028.5c0,1.7,0,3.4,0,5.1c0,1.4,2.3,1.5,2.3,0c0-1.7,0-3.4,0-5.1
				C660.9,1027.1,658.6,1027.1,658.6,1028.5L658.6,1028.5z"/>
		</g>
	</g>
	<g>
		<g>
			<path class="st0" d="M722.3,1022.4c0,6.6,0,13.2,0,19.9c0,1.4,2.3,1.5,2.3,0c0-6.6,0-13.2,0-19.9
				C724.6,1020.9,722.3,1020.9,722.3,1022.4L722.3,1022.4z"/>
		</g>
	</g>
	<g>
		<g>
			<path class="st0" d="M732.3,1036.7c0,4,0,8,0,12c0,1.4,2.3,1.5,2.3,0c0-4,0-8,0-12C734.5,1035.3,732.3,1035.3,732.3,1036.7
				L732.3,1036.7z"/>
		</g>
	</g>
	<g>
		<g>
			<path class="st0" d="M696.3,1028.5c0,5.8,0,11.6,0,17.5c0,1.4,2.3,1.5,2.3,0c0-5.8,0-11.6,0-17.5
				C698.6,1027.1,696.3,1027.1,696.3,1028.5L696.3,1028.5z"/>
		</g>
	</g>
	<g>
		<g>
			<path class="st0" d="M585.6,1054.6c0,7.4,0,14.8,0,22.3c0,1.4,2.3,1.5,2.3,0c0-7.4,0-14.8,0-22.3
				C587.9,1053.1,585.6,1053.1,585.6,1054.6L585.6,1054.6z"/>
		</g>
	</g>
	<g>
		<g>
			<path class="st0" d="M603,1080.9c0-7.4,0-14.8,0-22.3c0-1.4-2.3-1.5-2.3,0c0,7.4,0,14.8,0,22.3
				C600.7,1082.4,603,1082.4,603,1080.9L603,1080.9z"/>
		</g>
	</g>
	<g>
		<g>
			<path class="st0" d="M610.2,1080.3c0-2.9,0-5.7,0-8.6c0-1.4-2.3-1.5-2.3,0c0,2.9,0,5.7,0,8.6
				C607.9,1081.7,610.2,1081.7,610.2,1080.3L610.2,1080.3z"/>
		</g>
	</g>
	<g>
		<g>
			<path class="st0" d="M626.1,1052.9c0,7.8,0,15.5,0,23.3c0,1.4,2.3,1.5,2.3,0c0-7.8,0-15.5,0-23.3
				C628.3,1051.4,626.1,1051.4,626.1,1052.9L626.1,1052.9z"/>
		</g>
	</g>
	<g>
		<g>
			<path class="st0" d="M631.9,1063.8c0,3.7,0,7.3,0,11c0,1.4,2.3,1.5,2.3,0c0-3.7,0-7.3,0-11
				C634.1,1062.4,631.9,1062.4,631.9,1063.8L631.9,1063.8z"/>
		</g>
	</g>
	<g>
		<g>
			<path class="st0" d="M639.8,1059.7c0,4,0,8,0,12c0,1.4,2.3,1.5,2.3,0c0-4,0-8,0-12C642,1058.3,639.8,1058.3,639.8,1059.7
				L639.8,1059.7z"/>
		</g>
	</g>
	<g>
		<g>
			<path class="st0" d="M665.5,1052.9c0,8.1,0,16.2,0,24.3c0,1.4,2.3,1.5,2.3,0c0-8.1,0-16.2,0-24.3
				C667.7,1051.4,665.5,1051.4,665.5,1052.9L665.5,1052.9z"/>
		</g>
	</g>
	<g>
		<g>
			<path class="st0" d="M691.5,1061.8c0,4.5,0,8.9,0,13.4c0,1.4,2.3,1.5,2.3,0c0-4.5,0-8.9,0-13.4
				C693.8,1060.3,691.5,1060.3,691.5,1061.8L691.5,1061.8z"/>
		</g>
	</g>
	<g>
		<g>
			<path class="st0" d="M727.1,1052.2c0,8.6,0,17.1,0,25.7c0,1.4,2.3,1.5,2.3,0c0-8.6,0-17.1,0-25.7
				C729.4,1050.7,727.1,1050.7,727.1,1052.2L727.1,1052.2z"/>
		</g>
	</g>
	<g>
		<g>
			<path class="st0" d="M738.1,1064.8c0,4.1,0,8.2,0,12.3c0,1.4,2.3,1.5,2.3,0c0-4.1,0-8.2,0-12.3
				C740.4,1063.4,738.1,1063.4,738.1,1064.8L738.1,1064.8z"/>
		</g>
	</g>
	<g>
		<g>
			<path class="st0" d="M757,1053.5c0,6.4,0,12.8,0,19.2c0,1.4,2.3,1.5,2.3,0c0-6.4,0-12.8,0-19.2
				C759.2,1052.1,757,1052.1,757,1053.5L757,1053.5z"/>
		</g>
	</g>
	<g>
		<g>
			<path class="st0" d="M613.6,1110.8c0-7.4,0-14.8,0-22.3c0-1.4-2.3-1.5-2.3,0c0,7.4,0,14.8,0,22.3
				C611.3,1112.2,613.6,1112.2,613.6,1110.8L613.6,1110.8z"/>
		</g>
	</g>
	<g>
		<g>
			<path class="st0" d="M621.8,1110.4c0-3.8,0-7.5,0-11.3c0-1.4-2.3-1.5-2.3,0c0,3.8,0,7.5,0,11.3
				C619.6,1111.9,621.8,1111.9,621.8,1110.4L621.8,1110.4z"/>
		</g>
	</g>
	<g>
		<g>
			<path class="st0" d="M644.9,1084.4c0,8.6,0,17.1,0,25.7c0,1.4,2.3,1.5,2.3,0c0-8.6,0-17.1,0-25.7
				C647.2,1082.9,644.9,1082.9,644.9,1084.4L644.9,1084.4z"/>
		</g>
	</g>
	<g>
		<g>
			<path class="st0" d="M665.5,1088.5c0,5.3,0,10.5,0,15.8c0,1.4,2.3,1.5,2.3,0c0-5.3,0-10.5,0-15.8
				C667.7,1087,665.5,1087,665.5,1088.5L665.5,1088.5z"/>
		</g>
	</g>
	<g>
		<g>
			<path class="st0" d="M658.3,1091.6c0,2.1,0,4.1,0,6.2c0,1.4,2.3,1.5,2.3,0c0-2.1,0-4.1,0-6.2
				C660.5,1090.1,658.3,1090.1,658.3,1091.6L658.3,1091.6z"/>
		</g>
	</g>
	<g>
		<g>
			<path class="st0" d="M702.8,1082c0,8.9,0,17.8,0,26.7c0,1.4,2.3,1.5,2.3,0c0-8.9,0-17.8,0-26.7
				C705.1,1080.5,702.8,1080.5,702.8,1082L702.8,1082z"/>
		</g>
	</g>
	<g>
		<g>
			<path class="st0" d="M711.4,1093.6c0,4,0,8,0,12c0,1.4,2.3,1.5,2.3,0c0-4,0-8,0-12C713.6,1092.2,711.4,1092.2,711.4,1093.6
				L711.4,1093.6z"/>
		</g>
	</g>
	<g>
		<g>
			<path class="st0" d="M733.3,1083.3c0,8.3,0,16.7,0,25c0,1.4,2.3,1.5,2.3,0c0-8.3,0-16.7,0-25
				C735.6,1081.9,733.3,1081.9,733.3,1083.3L733.3,1083.3z"/>
		</g>
	</g>
	<g>
		<g>
			<path class="st0" d="M773.1,1085.4c0,7.2,0,14.4,0,21.6c0,1.4,2.3,1.5,2.3,0c0-7.2,0-14.4,0-21.6
				C775.3,1084,773.1,1084,773.1,1085.4L773.1,1085.4z"/>
		</g>
	</g>
	<g>
		<g>
			<path class="st0" d="M779.2,1094.7c0,3.4,0,6.9,0,10.3c0,1.4,2.3,1.5,2.3,0c0-3.4,0-6.9,0-10.3
				C781.5,1093.2,779.2,1093.2,779.2,1094.7L779.2,1094.7z"/>
		</g>
	</g>
	<g>
		<g>
			<path class="st0" d="M753.6,1019c0-5.3,0-10.7,0-16c0-1.4-2.3-1.5-2.3,0c0,5.3,0,10.7,0,16C751.4,1020.4,753.6,1020.5,753.6,1019
				L753.6,1019z"/>
		</g>
	</g>
	<g>
		<g>
			<path class="st0" d="M767.4,996.5c0,7.2,0,14.3,0,21.5c0,1.4,2.3,1.5,2.3,0c0-7.2,0-14.3,0-21.5
				C769.6,995.1,767.4,995,767.4,996.5L767.4,996.5z"/>
		</g>
	</g>
	<g>
		<g>
			<path class="st0" d="M777.8,953.7c5.5,3.2,8.5,9.2,8,15.5c-0.1,1.4,2.1,1.4,2.3,0c0.6-7.1-2.9-13.8-9.1-17.4
				C777.7,951,776.5,952.9,777.8,953.7L777.8,953.7z"/>
		</g>
	</g>
	<g>
		<g>
			<path class="st0" d="M548.8,1028c-2.7,4.4-3.2,9.6-1.4,14.4c0.5,1.3,2.7,0.8,2.2-0.6c-1.6-4.3-1.2-8.7,1.2-12.7
				C551.5,1027.9,549.6,1026.7,548.8,1028L548.8,1028z"/>
		</g>
	</g>
	<g>
		<g>
			<path class="st0" d="M537.5,1016.7c-5.8,7.3-8.7,16-8.5,25.3c0,1.4,2.3,1.5,2.3,0c-0.2-8.7,2.5-16.9,7.9-23.8
				C540,1017.2,538.4,1015.6,537.5,1016.7L537.5,1016.7z"/>
		</g>
	</g>
	<g>
		<g>
			<path class="st0" d="M776.8,1048.6c4,2.1,6.5,6.1,6.5,10.7c0,1.4,2.3,1.5,2.3,0c0-5.3-2.9-10.2-7.6-12.6
				C776.7,1046,775.5,1047.9,776.8,1048.6L776.8,1048.6z"/>
		</g>
	</g>
	<path class="st2" d="M673.1,961.7c6.1-0.8,20.4-1.8,34,6.4c3.9,2.3,6.9,4.9,9.4,7.4c-0.3,4.6-0.7,9.2-1,13.8
		c-14.7,0.6-29.3,1.2-44,1.7c2,0.1,18,1,26.7,14c3.8,5.7,4.7,11.4,4.9,14.8c-0.5,3.6-2.1,11.3-7.9,18.7c-7,8.9-15.8,12.2-19.2,13.3
		c1.6,0.8,9.2,5.1,11.8,14.3c1.5,5.4,0.6,10.1,0,12.3c-9.7,10.5-19.4,21-29.1,31.6c44.5,0.5,89.1,1,133.6,1.5c1.7-0.9,4.9-3,6.9-6.9
		c3.3-6.4,1.7-14.1-2-18.7c-7-8.9-22.9-5.8-24.7-5.4c0.5-0.3,8.6-6.4,7.9-16.3c-0.5-7.1-5.4-11.4-6.4-12.3c-7.1-0.5-14.1-1-21.2-1.5
		c0.7-0.7,6-6.5,4.9-14.8c-0.9-6.4-5.2-11.8-11.3-14.3c9.5-0.1,17.7-0.3,24.2-0.5c18.9-0.5,23.2-0.8,26.6-4.4
		c4.6-5,6.1-14.7,1.5-20.7c-2.5-3.2-5.9-4.4-7.9-4.9c-7.4-0.3-14.8-0.7-22.2-1c1.1,0,6.4,0.1,10.4-3.9c3.9-4,3.6-9.3,3.5-11.8
		c-0.1-1.6-0.7-8.2-5.4-12.3c-4.9-4.3-11.2-3.1-22.7-2.5c-9,0.5-18.1-0.4-27.1,0C708.5,960.1,689.5,961,673.1,961.7z"/>
</g>
<g id="ground">
	<g>
		<g>
			<path class="st3" d="M811.8,1085.1c68.9,0,137.9,0,206.8,0c19.6,0,39.3,0,58.9,0c1.9,0,1.9-3,0-3c-68.9,0-137.9,0-206.8,0
				c-19.6,0-39.3,0-58.9,0C809.9,1082.1,809.9,1085.1,811.8,1085.1L811.8,1085.1z"/>
		</g>
	</g>
	<g>
		<g>
			<path class="st3" d="M1105.4,1087.6c46.2-3.6,92.3-4.6,138.6-0.7c1.9,0.2,1.9-2.8,0-3c-46.3-3.9-92.3-2.9-138.6,0.7
				C1103.5,1084.7,1103.5,1087.7,1105.4,1087.6L1105.4,1087.6z"/>
		</g>
	</g>
	<g>
		<g>
			<path class="st3" d="M1230.6,1103.4c24.9,2.2,49.6-4,74.4-5.6c25.5-1.6,51.1,0,76.3,4.5c1.9,0.3,2.7-2.6,0.8-2.9
				c-24.8-4.4-50-6.1-75.2-4.7c-25.4,1.4-50.8,8-76.3,5.7C1228.7,1100.2,1228.7,1103.2,1230.6,1103.4L1230.6,1103.4z"/>
		</g>
	</g>
	<g>
		<g>
			<path class="st3" d="M1246.2,1083.2c-10.4-8-20.1-17-28.7-26.9c-1.9-2.2-3.7-4.4-5.5-6.6c-1.3-1.6-2.7-3.3-3.6-5.1
				c-1.2-2.4-0.7-4.1-0.7-6.8c0-4.7-2.7-4.5-5.8-7.7c-4.7-4.9-5.4-12-6.8-18.3c-1.3-5.9-3.7-11.1-6.4-16.4
				c-6.3-12.7-9.2-27.2-13-40.8c-0.3,0.6-0.7,1.2-1,1.8c13.2-1.8,27.5,8.1,38,15.3c5.4,3.7,10.5,7.7,15.4,12
				c4.9,4.4,12.4,10.6,9.7,18c-0.4,1,0.6,1.9,1.4,1.9c8.2,0.3,14.4,8.5,18.8,14.6c4.3,5.8,7.8,12.2,10.4,18.9
				c5.2,13.5,6.8,28.2,4.5,42.5c-0.3,1.9,2.6,2.7,2.9,0.8c2.6-16,0.6-32.4-5.9-47.4c-3.2-7.3-7.4-14.2-12.5-20.4
				c-4.7-5.7-10.4-11.8-18.3-12.1c0.5,0.6,1,1.3,1.4,1.9c2.3-6.2-1.3-11.9-5.5-16.3c-5.4-5.7-11.7-10.6-18.1-15.1
				c-11.8-8.4-27.9-19.7-43.2-17.5c-0.8,0.1-1.2,1.1-1,1.8c3.9,13.9,6.8,28.5,13.3,41.5c3.3,6.7,5.5,13,7.1,20.3
				c1.1,5.4,2.7,11,6.7,15.1c1.7,1.8,4.7,2.8,5,5.4c0.2,2.4-0.6,4.1,0.3,6.7c1.9,5.3,6.8,10.1,10.4,14.2
				c8.8,10.1,18.7,19.2,29.3,27.4C1246.2,1086.9,1247.7,1084.3,1246.2,1083.2L1246.2,1083.2z"/>
		</g>
	</g>
	<g>
		<g>
			<path class="st3" d="M1263.3,1017.3c3.5-12.9,13.9-24.1,22.1-34.3c2.2-2.7,4.3-5.3,6.5-7.9c1.8-2.2,4.1-6.3,7.2-6.8
				c1.3-0.2,1.9,0.6,3.3-0.3c1.5-0.9,2.1-2.7,2.9-4.1c6-10.9,15.6-18.8,25.7-25.9c7.9-5.6,15.7-11.2,19.6-20.4
				c-1-0.3-1.9-0.5-2.9-0.8c-4.1,15.2-4.1,30.3-1.5,45.8c2.7,16.1,3.3,31.7-1.1,47.7c-8.4,30.5-31.5,51-55,70.4
				c-1.5,1.2,0.6,3.3,2.1,2.1c23-19,45.7-39.1,54.8-68.5c4.3-14,5.5-28.8,3.5-43.3c-1.2-8.6-3.1-17-3.4-25.8
				c-0.3-9.4,0.9-18.7,3.4-27.7c0.5-1.9-2.2-2.5-2.9-0.8c-4.6,11-15.9,16.6-24.9,23.5c-4.6,3.5-8.9,7.4-12.8,11.7
				c-1.7,1.9-3.3,4-4.7,6.1c-1.1,1.7-2.8,6.3-4.6,6.9c-1.2,0.4-2.5-0.3-3.9,0.3c-2,0.8-3.3,3.2-4.6,4.7c-4.4,5.3-8.8,10.5-13,15.9
				c-7.3,9.2-15.6,19-18.8,30.5C1259.9,1018.4,1262.8,1019.2,1263.3,1017.3L1263.3,1017.3z"/>
		</g>
	</g>
	<g>
		<g>
			<path class="st3" d="M1187.1,971.8c9,6.4,15.8,15,22.5,23.7c7.1,9,14.1,18.1,20.7,27.5c12.7,18,23.8,37.3,29.7,58.7
				c0.5,1.9,3.4,1.1,2.9-0.8c-6.1-22.2-17.7-42.2-31-60.8c-6.5-9.1-13.3-17.9-20.2-26.7c-6.9-8.9-13.9-17.6-23.2-24.1
				C1187,968.1,1185.5,970.7,1187.1,971.8L1187.1,971.8z"/>
		</g>
	</g>
	<g>
		<g>
			<path class="st3" d="M1337.1,942.7c-15.9,41.8-52.6,73-63.1,117.2c-0.4,1.9,2.4,2.7,2.9,0.8c10.4-44.2,47.2-75.4,63.1-117.2
				C1340.7,941.7,1337.8,940.9,1337.1,942.7L1337.1,942.7z"/>
		</g>
	</g>
	<g>
		<g>
			<path class="st3" d="M1312.5,949.8c1.5,13.9,0.6,27.7-2.7,41.2c-0.5,1.9,2.4,2.7,2.9,0.8c3.3-13.8,4.3-27.9,2.8-42
				C1315.3,947.9,1312.3,947.9,1312.5,949.8L1312.5,949.8z"/>
		</g>
	</g>
	<g>
		<g>
			<path class="st3" d="M1321.6,978.1c9.4-5.9,18.3-12.5,26.7-19.8c1.5-1.3-0.7-3.4-2.1-2.1c-8.2,7.1-16.9,13.6-26.1,19.3
				C1318.4,976.6,1319.9,979.2,1321.6,978.1L1321.6,978.1z"/>
		</g>
	</g>
	<g>
		<g>
			<path class="st3" d="M1188.2,998.1c6.9-0.2,16.6-2.2,22.9,1.1c1.7,0.9,3.2-1.7,1.5-2.6c-7.1-3.8-16.7-1.8-24.4-1.5
				C1186.2,995.2,1186.2,998.2,1188.2,998.1L1188.2,998.1z"/>
		</g>
	</g>
	<g>
		<g>
			<path class="st3" d="M1226,982.9c-1.2,9.7-1,19.2,0.4,28.9c0.3,1.9,3.2,1.1,2.9-0.8c-1.4-9.4-1.4-18.7-0.3-28.1
				C1229.3,981,1226.3,981,1226,982.9L1226,982.9z"/>
		</g>
	</g>
	<g>
		<g>
			<path class="st3" d="M1164.5,1119.1c16.2,0.9,32.2-2.7,48.4-2.4c15.5,0.3,30.6,4.4,46.1,1.9c1.9-0.3,1.1-3.2-0.8-2.9
				c-15.8,2.6-31.4-2-47.2-2c-15.5,0-30.9,3.3-46.5,2.4C1162.6,1115.9,1162.6,1118.9,1164.5,1119.1L1164.5,1119.1z"/>
		</g>
	</g>
	<g>
		<g>
			<path class="st3" d="M1351.9,1081.5c11.6-1.6,23.3-2.1,35-1.6c11.5,0.5,22.9,1.9,34.5,0.9c11.3-0.9,22.5-2.7,33.9-2.6
				c11.5,0.1,22.9,1.4,34.3,2.9c1.9,0.2,1.9-2.8,0-3c-11.4-1.4-22.8-2.8-34.3-2.9c-12-0.1-23.8,1.9-35.8,2.7
				c-11.5,0.8-22.9-0.7-34.4-1.1c-11.4-0.4-22.7,0.3-33.9,1.8C1349.2,1078.9,1350,1081.8,1351.9,1081.5L1351.9,1081.5z"/>
		</g>
	</g>
	<g>
		<g>
			<path class="st3" d="M314.3,1100.7c31,4.3,61.7-2.6,92.6-4.7c16.4-1.1,32.5,0.1,48.9,1.6c16.4,1.5,32.8,2.2,49.3,2.3
				c18.8,0.1,37.7-0.4,56.5-1c1.9-0.1,1.9-3.1,0-3c-21.1,0.6-42.3,1.2-63.4,0.9c-20.7-0.3-41.1-2.6-61.7-3.9
				c-40.6-2.7-80.9,10.5-121.4,4.9C313.2,1097.6,312.4,1100.4,314.3,1100.7L314.3,1100.7z"/>
		</g>
	</g>
	<g>
		<g>
			<path class="st3" d="M489.4,1117.6c11.7,0,23.3-2.8,34.9-3.7c11.8-0.9,23.6-1.1,35.4-0.6c1.9,0.1,1.9-2.9,0-3
				c-11.8-0.5-23.6-0.4-35.4,0.6c-11.6,0.9-23.3,3.7-34.9,3.7C487.5,1114.6,487.5,1117.6,489.4,1117.6L489.4,1117.6z"/>
		</g>
	</g>
</g>
<g id="buildings">
	<g>
		<g>
			<path class="st3" d="M425.9,470c0,78,0,156,0,233.9s0,156,0,233.9c0,44,0,88,0,132c0,1.9,3,1.9,3,0c0-78,0-156,0-233.9
				s0-156,0-233.9c0-44,0-88,0-132C428.9,468.1,425.9,468.1,425.9,470L425.9,470z"/>
		</g>
	</g>
	<g>
		<g>
			<path class="st3" d="M677.7,433.4c0,66.9,0,133.8,0,200.7s0,133.8,0,200.7c0,37.9,0,75.9,0,113.8c0,1.9,3,1.9,3,0
				c0-66.9,0-133.8,0-200.7s0-133.8,0-200.7c0-37.9,0-75.9,0-113.8C680.7,431.5,677.7,431.5,677.7,433.4L677.7,433.4z"/>
		</g>
	</g>
	<g>
		<g>
			<path class="st3" d="M683.7,719.1c56.7,23.6,113.5,47,170.5,70c1.8,0.7,2.6-2.2,0.8-2.9c-57-23-113.8-46.4-170.5-70
				C682.7,715.5,682,718.4,683.7,719.1L683.7,719.1z"/>
		</g>
	</g>
	<g>
		<g>
			<path class="st3" d="M842.5,787.1c0,75.2,0,150.5,0,225.7c0,21.3,0,42.6,0,63.9c0,1.9,3,1.9,3,0c0-75.2,0-150.5,0-225.7
				c0-21.3,0-42.6,0-63.9C845.5,785.2,842.5,785.2,842.5,787.1L842.5,787.1z"/>
		</g>
	</g>
	<g>
		<g>
			<path class="st3" d="M1115.7,1075.6c0-63,0-125.9,0-188.9c0-1.9-3-1.9-3,0c0,63,0,125.9,0,188.9
				C1112.7,1077.5,1115.7,1077.5,1115.7,1075.6L1115.7,1075.6z"/>
		</g>
	</g>
	<g>
		<g>
			<path class="st3" d="M1087.8,893.5c61.1-26.3,122.4-52.7,180.5-85.3c16.6-9.3,33-19.2,49-29.7c1.6-1.1,0.1-3.7-1.5-2.6
				c-55.8,36.5-116,65.3-176.8,92.1c-17.5,7.7-35.1,15.3-52.6,22.8C1084.5,891.7,1086.1,894.2,1087.8,893.5L1087.8,893.5z"/>
		</g>
	</g>
	<g>
		<g>
			<path class="st3" d="M1164.9,854.7c0-80.8,0-161.7,0-242.5c0-23,0-45.9,0-68.9c0-1.9-3-1.9-3,0c0,80.8,0,161.7,0,242.5
				c0,23,0,45.9,0,68.9C1161.9,856.6,1164.9,856.6,1164.9,854.7L1164.9,854.7z"/>
		</g>
	</g>
	<g>
		<g>
			<path class="st3" d="M1147.4,549.4c74.5,0,149,0,223.5,0c21.3,0,42.6,0,63.8,0c1.9,0,1.9-3,0-3c-74.5,0-149,0-223.5,0
				c-21.3,0-42.6,0-63.8,0C1145.4,546.4,1145.4,549.4,1147.4,549.4L1147.4,549.4z"/>
		</g>
	</g>
	<g>
		<g>
			<path class="st3" d="M1406.9,559.3c0,130.5,0,261,0,391.5c0,36.6,0,73.2,0,109.9c0,1.9,3,1.9,3,0c0-130.5,0-261,0-391.5
				c0-36.6,0-73.2,0-109.9C1409.9,557.4,1406.9,557.4,1406.9,559.3L1406.9,559.3z"/>
		</g>
	</g>
	<g>
		<g>
			<path class="st3" d="M413.1,473.3c69.9-22.5,144.5-27.4,217-35.7c21.2-2.4,42.4-4.8,63.6-7.3c1.9-0.2,1.9-3.2,0-3
				c-37.8,4.3-75.7,8.7-113.5,13c-35.9,4.1-72,8-107.5,14.9c-20.4,3.9-40.6,8.9-60.4,15.2C410.5,471,411.3,473.9,413.1,473.3
				L413.1,473.3z"/>
		</g>
	</g>
	<g>
		<g>
			<path class="st3" d="M447.4,546.1c0-16.7,0-33.4,0-50c0-1.9-3-1.9-3,0c0,16.7,0,33.4,0,50C444.4,548,447.4,548,447.4,546.1
				L447.4,546.1z"/>
		</g>
	</g>
	<g>
		<g>
			<path class="st3" d="M445,495.9c9.8,0,19.6,0,29.4,0c1.9,0,1.9-3,0-3c-9.8,0-19.6,0-29.4,0C443.1,492.9,443.1,495.9,445,495.9
				L445,495.9z"/>
		</g>
	</g>
	<g>
		<g>
			<path class="st3" d="M473,495.2c0,17.4,0,34.8,0,52.1c0,1.9,3,1.9,3,0c0-17.4,0-34.8,0-52.1C476,493.3,473,493.3,473,495.2
				L473,495.2z"/>
		</g>
	</g>
	<g>
		<g>
			<path class="st3" d="M446.3,549.3c8.7,0,17.4,0,26.1,0c1.9,0,1.9-3,0-3c-8.7,0-17.4,0-26.1,0
				C444.4,546.3,444.3,549.3,446.3,549.3L446.3,549.3z"/>
		</g>
	</g>
	<g>
		<g>
			<path class="st3" d="M531.8,545.7c0-16.7,0-33.4,0-50c0-1.9-3-1.9-3,0c0,16.7,0,33.4,0,50C528.8,547.6,531.8,547.6,531.8,545.7
				L531.8,545.7z"/>
		</g>
	</g>
	<g>
		<g>
			<path class="st3" d="M529.5,495.4c9.8,0,19.6,0,29.4,0c1.9,0,1.9-3,0-3c-9.8,0-19.6,0-29.4,0
				C527.5,492.4,527.5,495.4,529.5,495.4L529.5,495.4z"/>
		</g>
	</g>
	<g>
		<g>
			<path class="st3" d="M557.4,494.8c0,17.4,0,34.8,0,52.1c0,1.9,3,1.9,3,0c0-17.4,0-34.8,0-52.1
				C560.4,492.9,557.4,492.9,557.4,494.8L557.4,494.8z"/>
		</g>
	</g>
	<g>
		<g>
			<path class="st3" d="M530.7,548.8c8.7,0,17.4,0,26.1,0c1.9,0,1.9-3,0-3c-8.7,0-17.4,0-26.1,0
				C528.8,545.8,528.8,548.8,530.7,548.8L530.7,548.8z"/>
		</g>
	</g>
	<g>
		<g>
			<path class="st3" d="M618.5,543.8c0-16.7,0-33.4,0-50c0-1.9-3-1.9-3,0c0,16.7,0,33.4,0,50C615.5,545.7,618.5,545.7,618.5,543.8
				L618.5,543.8z"/>
		</g>
	</g>
	<g>
		<g>
			<path class="st3" d="M616.1,493.5c9.8,0,19.6,0,29.4,0c1.9,0,1.9-3,0-3c-9.8,0-19.6,0-29.4,0
				C614.2,490.5,614.2,493.5,616.1,493.5L616.1,493.5z"/>
		</g>
	</g>
	<g>
		<g>
			<path class="st3" d="M644.1,492.9c0,17.4,0,34.8,0,52.1c0,1.9,3,1.9,3,0c0-17.4,0-34.8,0-52.1
				C647.1,490.9,644.1,490.9,644.1,492.9L644.1,492.9z"/>
		</g>
	</g>
	<g>
		<g>
			<path class="st3" d="M617.4,546.9c8.7,0,17.4,0,26.1,0c1.9,0,1.9-3,0-3c-8.7,0-17.4,0-26.1,0
				C615.5,543.9,615.5,546.9,617.4,546.9L617.4,546.9z"/>
		</g>
	</g>
	<g>
		<g>
			<path class="st3" d="M416.8,686.7c0,65.9,0,131.7,0,197.6c0,1.9,3,1.9,3,0c0-65.9,0-131.7,0-197.6
				C419.8,684.7,416.8,684.7,416.8,686.7L416.8,686.7z"/>
		</g>
	</g>
	<g>
		<g>
			<path class="st3" d="M437.8,896.9c0,30.6,0,61.1,0,91.7c0,1.9,3,1.9,3,0c0-30.6,0-61.1,0-91.7C440.8,895,437.8,895,437.8,896.9
				L437.8,896.9z"/>
		</g>
	</g>
	<g>
		<g>
			<path class="st3" d="M403.6,464.7c32.2-11.2,64.9-20.4,98.2-27.5c1.9-0.4,1.1-3.3-0.8-2.9c-33.3,7.1-66.1,16.3-98.2,27.5
				C401,462.4,401.8,465.3,403.6,464.7L403.6,464.7z"/>
		</g>
	</g>
	<g>
		<g>
			<path class="st3" d="M686.1,733.4c33.8,12.7,66.7,27.8,99.5,42.9c1.7,0.8,3.3-1.8,1.5-2.6c-33.1-15.2-66.2-30.4-100.2-43.2
				C685.1,729.8,684.3,732.7,686.1,733.4L686.1,733.4z"/>
		</g>
	</g>
	<g>
		<g>
			<path class="st3" d="M705.7,839.1c0-16.7,0-33.4,0-50c0-1.9-3-1.9-3,0c0,16.7,0,33.4,0,50C702.7,841.1,705.7,841.1,705.7,839.1
				L705.7,839.1z"/>
		</g>
	</g>
	<g>
		<g>
			<path class="st3" d="M703.4,788.9c9.8,0,19.6,0,29.4,0c1.9,0,1.9-3,0-3c-9.8,0-19.6,0-29.4,0
				C701.4,785.9,701.4,788.9,703.4,788.9L703.4,788.9z"/>
		</g>
	</g>
	<g>
		<g>
			<path class="st3" d="M731.3,788.3c0,17.4,0,34.8,0,52.1c0,1.9,3,1.9,3,0c0-17.4,0-34.8,0-52.1
				C734.3,786.3,731.3,786.3,731.3,788.3L731.3,788.3z"/>
		</g>
	</g>
	<g>
		<g>
			<path class="st3" d="M704.6,842.3c8.7,0,17.4,0,26.1,0c1.9,0,1.9-3,0-3c-8.7,0-17.4,0-26.1,0
				C702.7,839.3,702.7,842.3,704.6,842.3L704.6,842.3z"/>
		</g>
	</g>
	<g>
		<g>
			<path class="st3" d="M1129,890c65.3-24.5,127.9-55.7,186.8-93c1.6-1,0.1-3.6-1.5-2.6c-58.7,37.2-121.1,68.3-186.1,92.7
				C1126.4,887.8,1127.2,890.7,1129,890L1129,890z"/>
		</g>
	</g>
	<g>
		<g>
			<path class="st3" d="M1416.1,566.4c0.1,77.4,0.2,154.7,0.2,232.1c0,1.9,3,1.9,3,0c-0.1-77.4-0.2-154.7-0.2-232.1
				C1419.1,564.5,1416.1,564.5,1416.1,566.4L1416.1,566.4z"/>
		</g>
	</g>
	<g>
		<g>
			<path class="st3" d="M1199.5,539.3c78.8,0,157.5,0,236.3,0c1.9,0,1.9-3,0-3c-78.8,0-157.5,0-236.3,0
				C1197.6,536.3,1197.6,539.3,1199.5,539.3L1199.5,539.3z"/>
		</g>
	</g>
	<g>
		<g>
			<path class="st3" d="M1193.9,638.7c0-16.7,0-33.4,0-50c0-1.9-3-1.9-3,0c0,16.7,0,33.4,0,50
				C1190.9,640.7,1193.9,640.7,1193.9,638.7L1193.9,638.7z"/>
		</g>
	</g>
	<g>
		<g>
			<path class="st3" d="M1191.6,588.5c9.8,0,19.6,0,29.4,0c1.9,0,1.9-3,0-3c-9.8,0-19.6,0-29.4,0
				C1189.7,585.5,1189.7,588.5,1191.6,588.5L1191.6,588.5z"/>
		</g>
	</g>
	<g>
		<g>
			<path class="st3" d="M1219.5,587.9c0,17.4,0,34.8,0,52.1c0,1.9,3,1.9,3,0c0-17.4,0-34.8,0-52.1
				C1222.5,585.9,1219.5,585.9,1219.5,587.9L1219.5,587.9z"/>
		</g>
	</g>
	<g>
		<g>
			<path class="st3" d="M1192.9,641.9c8.7,0,17.4,0,26.1,0c1.9,0,1.9-3,0-3c-8.7,0-17.4,0-26.1,0
				C1190.9,638.9,1190.9,641.9,1192.9,641.9L1192.9,641.9z"/>
		</g>
	</g>
	<g>
		<g>
			<path class="st3" d="M1332.8,638.7c0-16.7,0-33.4,0-50c0-1.9-3-1.9-3,0c0,16.7,0,33.4,0,50
				C1329.8,640.7,1332.8,640.7,1332.8,638.7L1332.8,638.7z"/>
		</g>
	</g>
	<g>
		<g>
			<path class="st3" d="M1330.4,588.5c9.8,0,19.6,0,29.4,0c1.9,0,1.9-3,0-3c-9.8,0-19.6,0-29.4,0
				C1328.5,585.5,1328.5,588.5,1330.4,588.5L1330.4,588.5z"/>
		</g>
	</g>
	<g>
		<g>
			<path class="st3" d="M1358.4,587.9c0,17.4,0,34.8,0,52.1c0,1.9,3,1.9,3,0c0-17.4,0-34.8,0-52.1
				C1361.4,585.9,1358.4,585.9,1358.4,587.9L1358.4,587.9z"/>
		</g>
	</g>
	<g>
		<g>
			<path class="st3" d="M1331.7,641.9c8.7,0,17.4,0,26.1,0c1.9,0,1.9-3,0-3c-8.7,0-17.4,0-26.1,0
				C1329.8,638.9,1329.8,641.9,1331.7,641.9L1331.7,641.9z"/>
		</g>
	</g>
	<ellipse class="st4" cx="1271.8" cy="187.2" rx="59.9" ry="60.9"/>
	<g>
		<g>
			<path class="st3" d="M1202.7,422.5c16.6-11.3,36.8-4.2,54,1.6c8.1,2.7,16.3,5.2,24.8,6c9.2,0.9,18.4-0.1,27.4-1.9
				c35.7-7.4,74.3-32.6,111-15.5c1.7,0.8,3.3-1.8,1.5-2.6c-27-12.6-56.7-2.7-83.1,6.3c-15.4,5.3-31.3,10.6-47.8,11
				c-16.9,0.4-31.7-6.5-47.6-10.9c-13.8-3.9-29.4-5-41.8,3.4C1199.6,421,1201.1,423.6,1202.7,422.5L1202.7,422.5z"/>
		</g>
	</g>
	<g>
		<g>
			<path class="st3" d="M455.1,368c28.9,8.3,57.3-5.3,84.4-13.8c14.8-4.6,30.4-8.3,46-6.3c15.9,2.1,30.4,9.7,45,16
				c14.8,6.4,30.2,11.7,46.6,9.1c1.9-0.3,1.1-3.2-0.8-2.9c-31.3,5-57.5-19.5-87.1-24.7c-28.9-5.1-56.4,8.7-83.4,16.7
				c-16.3,4.8-33.2,7.7-49.9,2.9C454,364.5,453.2,367.4,455.1,368L455.1,368z"/>
		</g>
	</g>
	<g>
		<g>
			<path class="st3" d="M713.9,411.4c10.7-0.3,20.1-5.1,29.6-9.4c5.8-2.6,11.8-5.1,18.2-5.6c7.1-0.6,13.3,1.9,19.4,5.3
				c11.2,6.2,21.6,11.9,34.5,13.9c12.2,2,24.6,1.1,36.5-2.5c1.8-0.6,1.1-3.5-0.8-2.9c-13.2,4-27.2,4.5-40.7,1.3
				c-6.4-1.5-12.6-3.9-18.4-7c-5.5-3-10.7-6.6-16.5-8.9c-22.3-8.9-40.2,12.1-61.8,12.7C712,408.5,712,411.5,713.9,411.4L713.9,411.4
				z"/>
		</g>
	</g>
	<g>
		<g>
			<path class="st3" d="M1020.8,318.2c28.8,13.4,61.1,12.8,91.7,6.9c34.6-6.7,67.2-22,103-21.4c20.2,0.4,40.2,4.8,58.8,12.8
				c1.8,0.8,3.3-1.8,1.5-2.6c-30-13-63.4-16.5-95.4-9.8c-17.5,3.7-34.4,9.8-51.7,14.3c-16.4,4.2-33.2,7.2-50.1,7.8
				c-19.3,0.6-38.6-2.3-56.2-10.5C1020.6,314.8,1019.1,317.4,1020.8,318.2L1020.8,318.2z"/>
		</g>
	</g>
</g>
<g id="leg_r">
	<path class="st5" d="M675.8,867.9c3.1,16.3,6.1,32.7,9.2,49c-51.6,18.7-76.7,31.6-75.1,38.8c1.9,8.7,42.4,9,121.6,1
		c-3.4-34-6.8-68-10.2-102.1C706.1,859.1,690.9,863.5,675.8,867.9z"/>
	<path class="st6" d="M917.3,663.6c-21.6,8.9-30.7,6.7-58,14.2c-50.3,13.8-86.7,39.6-109.4,59.1c1.1,37.2,2.2,74.4,3.3,111.6
		c-2.3,2.7-27.5,31.3-65.7,27.4c-26.3-2.7-42.7-19.3-47.1-24.1c-0.7-34.3-0.1-70.9,2.2-109.4c1.4-22.3,3.2-43.9,5.5-64.6
		c3.4-4.8,8.6-11.7,15.3-19.7C716,595.5,779,567.7,813.3,553.1c34.2-14.6,55.6-23.7,87.5-26.3c8.5-0.7,93.5-6.7,107.2,27.4
		C1020.7,585.3,970.6,641.7,917.3,663.6z"/>
	<path class="st7" d="M1002.5,543.7c-19-13.1-60.9,42.7-144.3,95.3c-80.2,50.5-122.2,49.7-146.4,98.8c-7.4,14.9-15.1,38.5-19.8,62.5
		c-5.8,30.2-5.8,56-4.5,74.3c6.5-0.3,14.2-1.2,22.5-3.4c20.1-5.3,34.4-15.4,42.8-22.5c-1.1-37.9-2.3-75.8-3.4-113.6
		c14-11.4,36.3-27.7,66.4-41.6c56.3-26.1,77.4-14.9,123.8-41.6c10.7-6.1,71.2-41,69.8-86.6C1009,558,1008.9,548.1,1002.5,543.7z"/>
	<path class="st8" d="M1010.3,561.7c-4.2-3.4-20.5,19.4-59.6,47.3c-48.6,34.6-72,34.2-125.5,66.4c-19.3,11.6-47.2,30.2-78.1,58.5
		c6-2.6,15.7-7,27-13.5c23-13.4,28.6-21.6,46.1-30.4c6.3-3.1,18.1-6.3,41.6-12.4c41.1-10.7,47-10.2,61.9-16.9
		c19.7-8.8,32.6-19.9,39.4-25.9C995.7,606.2,1015.6,565.9,1010.3,561.7z"/>
	<path class="st9" d="M748.2,735c-12.8,46.1-25.5,92.3-38.3,138.4c5.7-1.5,12.7-3.9,20.3-7.9c10.9-5.8,18.6-12.7,23.6-18
		C751.9,810,750.1,772.5,748.2,735z"/>
</g>
<g id="leg_l">
	<path class="st5" d="M1001.1,1024.1c3.1,16.3,6.1,32.7,9.2,49c-46.7,23.5-68.9,38.1-66.9,43.8c2.5,6.9,40.2,0.9,113-17.9
		c-3.3-29.4-6.5-58.8-9.8-88.2C1031.4,1015.3,1016.3,1019.7,1001.1,1024.1z"/>
	<path class="st6" d="M1041.1,515.9c3.5,27,8,67.7,10.2,117.4c3.3,76.7-1.5,119.4-2.3,176.1c-0.7,49.7,1.6,121,15.8,208.9
		c-7.7,5.1-25.1,15.2-49.7,16.9c-23.4,1.6-41.3-5.2-49.7-9c-2.2-42.6-6.1-87.9-12.4-135.5c-11.6-87.7-29.1-166.7-48.5-235.9
		c-12-16.6-24.1-33.1-36.1-49.7c43.7-30.9,87.3-61.7,131-92.6C1013.2,513.7,1027.1,514.8,1041.1,515.9z"/>
	<g>
		<g>
			<path class="st10" d="M884.9,613.7c-3.1-4.3-6.1-8.7-9.2-13c-0.9,3.4-1.8,6.8-2.7,10.3c14.8-9.2,29.3-18.9,43.2-29.5
				c11.6-8.8,22.4-18.5,34.1-27.1c7.4-5.5,15-10.7,22.6-15.9c7.3-4.9,14.7-11.1,22.7-15c4.3-2.1,9.4-1.8,14-1.8
				c8.8,0,17.5,0.3,26.2,0.8c9.6,0.5,9.6-14.5,0-15c-8.7-0.4-17.5-0.8-26.2-0.8c-5.6,0-11.4,0-16.7,1.7c-8.3,2.7-15.8,9.2-22.9,14.1
				c-8.2,5.5-16.3,11-24.3,16.8c-12.4,9-23.8,19.1-35.9,28.4c-14.2,10.9-29.1,20.9-44.3,30.3c-3.2,2-5.1,6.9-2.7,10.3
				c3.1,4.3,6.1,8.7,9.2,13C877.5,629.1,890.5,621.6,884.9,613.7L884.9,613.7z"/>
		</g>
	</g>
	<path class="st11" d="M941.7,527.9c15.2,44.9,29.3,94.9,40.5,149.6c27.9,136.9,28.4,258.7,20.3,354.4c4.8,1.7,10.9,3.2,18,3.4
		c22.5,0.6,38.7-12.4,43.9-16.9c-4.4-22.1-10.1-55.2-13.5-95.6c-7.4-87.5,1.9-137.1,3.4-211.5c0.9-45.2-0.8-109.4-13.5-187.9
		C1007.7,524.9,974.7,526.4,941.7,527.9z"/>
	<path class="st9" d="M1044.1,569.6c-2.8,98.5-7.6,199.8-14.6,303.8c-3.6,53.7-7.8,106.6-12.4,158.6c4.6,0.8,12.8,1.6,22.5-1.1
		c12.6-3.6,20.4-11.1,23.6-14.6c-11.2-65-14-117.7-14.6-153c-1.1-66.8,5.2-100.9,3.4-178.9C1050.8,634.8,1047,594.6,1044.1,569.6z"
		/>
</g>
<g id="hand_r">
	<path class="st6" d="M635.1,163.3c1.3-3-11.5-9.2-10.2-12.7c1.3-3.6,17.2-4.5,27.9,3.4c11.2,8.2,10.5,20.2,16.9,35.6
		c7.3,17.3,18.8,26.7,36.3,41.1c10.5,8.7,51.5,41.3,110.6,39.5c26.8-0.8,49.2-8.5,65.8-16.6c-2.3,28.7-4.7,57.5-7,86.2
		c-13.6,3.1-32.3,5.8-54.2,3.9c-79.6-6.9-130.7-68.3-146.5-87.2c-9.6-11.5-22.7-29.2-34.7-53.3c-9.4,2.8-24,6-41.5,4.2
		c-12.4-1.2-27.2-5-27.1-8.5c0.1-4.6,25.6-7.7,25.4-9.3c-0.2-1.4-20.3,4.1-25.4-3.4c-4-5.9,1.6-19.2,11-24.6
		c2.9-1.6,6.2-2.6,14.4-2.5C619,159.1,633.9,166,635.1,163.3z"/>
	<g>
		<g>
			<path class="st0" d="M571.1,180.5c5.1-1.2,11,1.3,16.2,1.5c4.6,0.2,9.2-0.2,13.7-1.1c1.9-0.4,1.1-3.3-0.8-2.9
				c-5.7,1.1-11.4,1.4-17.2,0.6c-4.4-0.6-8.3-2-12.7-1C568.4,178,569.2,180.9,571.1,180.5L571.1,180.5z"/>
		</g>
	</g>
	<g>
		<g>
			<path class="st0" d="M575.3,170.6c6-1.2,11.3,1.3,17.1,1.6c5.1,0.3,10.2-0.7,15.2-2c1.9-0.5,1.1-3.4-0.8-2.9
				c-6.5,1.7-12.8,2.5-19.5,1.1c-4.5-0.9-8.3-1.7-12.9-0.8C572.6,168.1,573.4,171,575.3,170.6L575.3,170.6z"/>
		</g>
	</g>
	<g>
		<g>
			<path class="st0" d="M630.6,173.6c5.1,5.4,12,8.2,19.4,8c1.9-0.1,1.9-3.1,0-3c-6.7,0.3-12.7-2.2-17.2-7.1
				C631.4,170.1,629.3,172.2,630.6,173.6L630.6,173.6z"/>
		</g>
	</g>
	<path class="st12" d="M571.4,185.4c0.3-2.7,22.1-3.4,42.1-0.5c10.8,1.5,21.3,3,31.2,7.7c21.6,10.1,28.7,29.4,39.9,47.1
		c0,0,25.1,39.3,70,61.3c44.6,21.8,95.5,7.2,124.2-4.4c-1.1,14.4-2.2,28.8-3.3,43.2c-26.5,5.4-47.7,4.1-61.3,2.2
		C738.5,331.3,691,273.1,672.1,250c-15.3-18.7-25.5-35.9-31.7-47.6c-9.9,3.6-24.6,7.3-42.1,5.5c-12.1-1.3-26.4-5.3-26.3-8.8
		c0.2-4.5,24.3-7.2,24.1-8.2c-0.1-0.5-6.9,1-15.3-1.1C577.5,189,571.3,186.9,571.4,185.4z"/>
	<path class="st13" d="M798.5,324.9c35.7,0.5,63.3-13.5,77.7-22.4c-0.5,12.8-1.1,25.5-1.6,38.3c-19.8,3.3-54.5,6.1-94.1-6.6
		c-71.7-22.9-106.9-79.9-116-95.8C667.4,243.6,714.5,323.8,798.5,324.9z"/>
	<path class="st14" d="M605.4,201.8c21.4,0.1,35.8-3.1,36.1-1.6c0.2,1.2-8.7,4.8-18.1,6.6c-27.3,5.2-52.3-6.1-52-7.7
		C571.7,198,582.9,201.7,605.4,201.8z"/>
</g>
<g id="coin">
	<ellipse class="st15" cx="628.8" cy="91.6" rx="28.2" ry="28.2"/>
	<ellipse class="st1" cx="623.1" cy="89.5" rx="32" ry="32.1"/>
	<g>
		<g>
			<path class="st0" d="M627.5,71.9c-6.3-0.4-22.5,5.7-16.5,14.8c3.5,5.3,10.3,1.8,15.2,3.1c6.3,1.7,5.6,9.3,1.7,13
				c-4.1,3.8-9.9,3.2-13.8-0.3c-1.4-1.3-3.6,0.8-2.1,2.1c7.9,7.2,22,3.1,22-8.6c0-5.3-3.6-8.7-8.6-9.3c-3.7-0.5-14.1,2.3-11.7-5.3
				c1.6-5.2,9.3-6.8,13.9-6.5C629.5,75,629.5,72,627.5,71.9L627.5,71.9z"/>
		</g>
	</g>
	<g>
		<g>
			<path class="st0" d="M624.1,73.3c0.3-3.3,0.6-6.5,0.9-9.8c0.2-1.9-2.8-1.9-3,0c-0.3,3.3-0.6,6.5-0.9,9.8
				C620.9,75.2,623.9,75.2,624.1,73.3L624.1,73.3z"/>
		</g>
	</g>
	<g>
		<g>
			<path class="st0" d="M622.1,109.1c0.3,2.3,0.6,4.7,0.8,7c0.2,1.9,3.2,1.9,3,0c-0.3-2.3-0.6-4.7-0.8-7
				C624.9,107.2,621.9,107.2,622.1,109.1L622.1,109.1z"/>
		</g>
	</g>
</g>
<g id="torso">
	<path class="st15" d="M912.6,246.5c-3.3,0.2-14.4,0.7-28.6,4.2c-8.1,2-14.5,4.3-18.2,5.8c-6.7,13.6-15.3,34.6-18.5,61.2
		c-4.6,37.9,4.6,62.3,10.9,100c4.3,25.9,7.8,63.4,3,110.8c10.2,9.3,36.8,31,77.2,36.6c57.2,8,99.2-22.2,107.9-28.7
		c5.3-32.8,10.3-66.5,14.8-101c7.7-58.4,13.5-114.9,17.8-169.2c-27.7-26.1-51.7-33.1-68.6-34.5C977.8,228.9,948.4,244.5,912.6,246.5
		z"/>
	<path class="st16" d="M957.5,271.7c6.2,6.4,14.7,16.1,22.3,29.3c36.5,63.4,13.9,137.4,3.8,170.2c-7,23-20.3,56.7-46.5,93.1
		c10,1.7,22.6,2.7,37,1.3c34.2-3.4,59-18.9,71.4-28.1c9.4-53.4,17.4-110.2,23.6-170.2c3.6-35.2,6.3-69.5,8.3-102.6
		c-3.9-3.8-9.9-8.9-17.9-14c-12.9-8.3-33.2-21.2-56.1-17.2C974.2,238.5,959.4,267.7,957.5,271.7z"/>
	<path class="st17" d="M1072.9,287.6c-5.1,14.3-13,37.1-21,65.7c-23.8,83.9-22.1,119.9-51,163.2c-8.8,13.2-23.6,31.9-48.5,50.4
		c12.3-0.1,30.1-1.6,50.4-8.3c18.4-6.1,32.5-14.3,42.1-21c7.8-41.8,14.7-86.9,19.8-135.2C1068.8,362.2,1071.5,323.8,1072.9,287.6z"
		/>
</g>
<g id="hand_l">
	<path class="st6" d="M1026.5,480.1c-2.1-3.9,0.1-9.7,3.4-12.8c6.1-5.8,17.2-3.6,22.2,2.7c0.7,0.9,4.1,5.1,2.7,8.7
		C1051.8,486,1030.8,487.9,1026.5,480.1z"/>
	<path class="st6" d="M1054.7,249.2c14.9,10.3,33.3,25.3,51,46.3c19.3,22.8,31.9,45.8,40.3,65.1c7.1,16.5,11.4,31.2,14.1,42.3
		c-8.9,20.5-25.6,50.7-56.4,77.2c-11.1,9.6-22.1,17-32.2,22.8c-5.3,5.9-12.7,13.4-22.5,21.1c-6.4,5.1-15.1,11.9-17.1,10.2
		c-1.6-1.4,1.2-8.3,5.5-13.1c5.1-5.6,11.4-7.3,11.3-7.6c-0.1-0.3-5.7,0.7-10.9,4.7c-6,4.7-5.7,9.1-8.7,9.8
		c-6.3,1.5-20.8-13.7-18.6-29.1c1.8-12.9,14.5-19.8,18.8-22.2c11.8-6.5,23.3-5.3,27.5-4.7c15-23.3,30-46.5,45-69.8
		c-4.1-3.3-9.5-8-15.4-14.1c-6.9-7.1-26.3-27.3-35.6-55C1038.3,295.9,1049.8,261.6,1054.7,249.2z"/>
	<g>
		<g>
			<path class="st0" d="M1012.9,511.6c3.7-8.2,10-14.6,18.2-18.2c1.8-0.8,0.2-3.4-1.5-2.6c-8.6,3.8-15.5,10.7-19.3,19.3
				C1009.5,511.8,1012.1,513.3,1012.9,511.6L1012.9,511.6z"/>
		</g>
	</g>
	<g>
		<g>
			<path class="st0" d="M1023.9,525.5c-3.1-9.4,6-19.1,13.5-23.4c1.7-1,0.2-3.6-1.5-2.6c-8.7,5-18.5,16-14.9,26.8
				C1021.6,528.1,1024.5,527.3,1023.9,525.5L1023.9,525.5z"/>
		</g>
	</g>
	<path class="st12" d="M1050.1,265.7c12,12.4,28.9,30.9,47,55.2c25.4,33.9,38,50.9,38.9,68.8c1.6,33.2-23.3,74.7-56.1,90.5
		c-9.5,4.6-34.2,13.9-48.4,32.1c-4.1,5.2-8.3,12.4-6.8,14c1.3,1.3,6.1-2.1,7.7-0.5c1.9,1.9-2.7,7.7-1.4,9
		c1.6,1.6,10.5-4.1,19.5-11.3c5.8-4.7,12.9-11.1,20.4-19.5c9.5-5.4,19.6-12.2,29.9-20.8c32.7-27.3,50.3-59.2,59.7-81
		c-2.3-8.8-5.8-20.7-11.3-34.4c-16.6-41.3-38.8-68-46.1-76.4c-10.5-12.2-26.3-28.1-48.4-43.4
		C1053.1,253.9,1051.6,259.8,1050.1,265.7z"/>
	<path class="st18" d="M1146,416.8c-9.6,12.4-14.5,20.3-18.5,26.2c-7.6,11-18.9,21.5-41.6,42.5c-8.1,7.5-19.1,17.5-32.6,29
		c-14.2,12.3-21.1,18.6-20.8,19c0.4,0.5,14.1-9.9,41.2-31.2c5.1-3,12.3-7.4,20.4-13.6c46.6-35.7,67.5-87,65.6-88.2
		C1158.9,400.1,1154.6,405.6,1146,416.8z"/>
</g>
<g id="head">
	<path class="st6" d="M891.7,82.5c-29.4,24.1-28.2,73-16.7,104.6c7.3,20,19,33.7,26.7,41.3c-1.6,11.6-3.2,23.2-4.8,34.8
		c8.5,3.9,20.7,8,35.6,8.7c39,1.9,66.9-20.9,74.5-27.5c-6.9-23.1-13.8-46.2-20.7-69.4c-0.9-6.5-2.4-16.5-4-28.7
		c-4.3-31.8-4.1-33.5-6-38.7c-0.8-2.1-12.8-32.6-40.7-38C913.1,65.4,894.5,80.2,891.7,82.5z"/>
	<path class="st5" d="M867.5,163.9c-1.7,6.7-3.5,17.2-2.3,29.8c0.8,8.4,2.2,23,12.7,37.1c11.3,15.2,26.5,21,33,23.1
		c-0.5-1.7-1.1-3.8-1.4-6.3c-0.3-2.6-0.2-5,0-6.8c6.9,3.8,13.9,7.5,20.8,11.3c17.5-16.1,23.3-30.9,25.3-41.6
		c1.6-8.4,2.6-23.8,6.3-52c0.7-5,2-14,7.7-16.3c2.7-1.1,6.3-0.6,8.6,1.4c6.9,5.8-0.1,22.6,1.4,23.1c1.5,0.5,13.6-16.4,9.5-35.7
		c-2.1-10-7.9-16.9-11.3-20.3c-7.6,12-16,24.4-25.3,37.1c-5.9,8.1-11.8,15.7-17.6,23.1c-2.2,1.2-5.5,2.5-9.3,2.2
		c-3-0.3-4-1.3-6.2-1.9c-8.2-2.3-12.6,7.4-20.7,6.1c-6.6-1.1-7.2-8.2-14.5-8.4c-3.5-0.1-4.9,1.5-8.5,0.8
		C871.9,168.6,869.2,166,867.5,163.9z"/>
	<g>
		<g>
			<path class="st0" d="M901.5,135.5c-2.5,11.6-4.1,23.3-4.8,35.1c-0.1,1.2,1.3,1.8,2.3,1.3c4.1-2.1,8.3-4.3,12.4-6.4
				c1.7-0.9,0.2-3.5-1.5-2.6c-4.1,2.1-8.3,4.3-12.4,6.4c0.8,0.4,1.5,0.9,2.3,1.3c0.7-11.6,2.2-23,4.7-34.3
				C904.8,134.4,901.9,133.6,901.5,135.5L901.5,135.5z"/>
		</g>
	</g>
	<ellipse class="st5" cx="885.5" cy="141.7" rx="2.3" ry="5.8"/>
	<ellipse class="st5" cx="924.3" cy="141.7" rx="3.1" ry="5.8"/>
	<g>
		<g>
			<path class="st0" d="M879.9,130.4c1.9-3.5,6.1-2.7,9.2-1.6c1.8,0.6,2.6-2.3,0.8-2.9c-4.4-1.6-10-1.7-12.6,3
				C876.4,130.5,879,132.1,879.9,130.4L879.9,130.4z"/>
		</g>
	</g>
	<g>
		<g>
			<path class="st0" d="M917.7,126.3c4.7-4.5,11.9-4.1,15.9,1.3c1.1,1.5,3.7,0,2.6-1.5c-5.1-6.9-14.3-7.8-20.6-1.9
				C914.2,125.5,916.3,127.6,917.7,126.3L917.7,126.3z"/>
		</g>
	</g>
	<g>
		<g>
			<path class="st0" d="M844.3,112c42.1,2.5,84.1,6,125.9,10.6c5.7,0.6,5.7-8.4,0-9c-41.9-4.6-83.9-8.1-125.9-10.6
				C838.5,102.7,838.5,111.7,844.3,112L844.3,112z"/>
		</g>
	</g>
	<path class="st19" d="M871.5,105.8c0.7-6.5,3.3-23.2,16.1-36.8c16.7-17.7,47.6-25.1,71.6-10.1c18.8,11.8,28.9,34.6,25.5,57.8
		C947,113.1,909.3,109.5,871.5,105.8z"/>
	<path class="st20" d="M924.7,54.3c-4.9,4.1-4.9,12.8-3.2,22c1.9,10.1,6.8,22.4,14.1,35.1c16.4,1.9,32.8,3.9,49.2,5.8
		c0.7-3.6,1.4-8.8,0.8-15c0,0-1.1-11.4-7.1-21.7C966.5,59.9,935.1,45.5,924.7,54.3z"/>
	<path class="st13" d="M976.1,171.7c-3.7,2-7.4,1.5-8.7,1.2c3.2,6.1,13.1,26.7,8.3,53.3c-4.6,25.3-19.6,40.6-24.8,45.5
		c6.5-1.3,13.9-3.4,21.9-6.6c15.2-6.2,26.6-14.4,34.3-21.1c-8-28.1-16-56.2-24-84.3C983.1,160.2,982.7,168.2,976.1,171.7z"/>
	<path class="st14" d="M939.1,119.3c1.2,5.1,2.2,12.8,1,21.8c-2.1,15.2-9.4,25.7-13.2,30.6c2.3-0.7,4.6-1.5,6.9-2.2
		c4.6-5.6,9.3-11.6,13.9-17.7c7.6-10.1,14.6-20.1,21-29.7C958.8,121.2,949,120.2,939.1,119.3z"/>
</g>
</svg>
