<?xml version="1.0" encoding="utf-8"?>
<!-- Generator: Adobe Illustrator 19.0.0, SVG Export Plug-In . SVG Version: 6.00 Build 0)  -->
<svg version="1.1" xmlns="http://www.w3.org/2000/svg" xmlns:xlink="http://www.w3.org/1999/xlink" x="0px" y="0px"
	 viewBox="0 0 1600 1200" style="enable-background:new 0 0 1600 1200;" xml:space="preserve">
<style type="text/css">
	.st0{fill:#E8E8E8;}
	.st1{fill:#161616;}
	.st2{fill:#5222D0;}
	.st3{fill:#EC615B;}
	.st4{opacity:0.14;fill:#3F3F3F;}
	.st5{opacity:0.15;fill:#3F3F3F;}
	.st6{opacity:0.13;fill:#3F3F3F;}
	.st7{opacity:0.19;fill:#3F3F3F;}
	.st8{opacity:0.17;fill:#3F3F3F;}
	.st9{fill:#FFFFFF;stroke:#000000;stroke-width:2;stroke-miterlimit:10;}
	.st10{fill:#FFFFFF;}
	.st11{opacity:0.12;fill:#3F3F3F;}
	.st12{opacity:0.11;fill:#3F3F3F;}
	.st13{opacity:0.25;fill:#3F3F3F;}
</style>
<g id="background">
	<g>
		<g>
			<path class="st0" d="M372.9,1005.4c96.3,0,192.7,0,289,0c27.2,0,54.5,0,81.7,0c1.9,0,1.9-3,0-3c-96.3,0-192.7,0-289,0
				c-27.2,0-54.5,0-81.7,0C371,1002.4,371,1005.4,372.9,1005.4L372.9,1005.4z"/>
		</g>
	</g>
	<g>
		<g>
			<path class="st0" d="M763,1005.4c98.4,0,196.7,0,295.1,0c27.9,0,55.8,0,83.7,0c1.9,0,1.9-3,0-3c-98.4,0-196.7,0-295.1,0
				c-27.9,0-55.8,0-83.7,0C761.1,1002.4,761.1,1005.4,763,1005.4L763,1005.4z"/>
		</g>
	</g>
	<g>
		<g>
			<path class="st0" d="M834.3,1032.9c77.2,0,154.3,0,231.5,0c1.9,0,1.9-3,0-3c-77.2,0-154.3,0-231.5,0
				C832.3,1029.9,832.3,1032.9,834.3,1032.9L834.3,1032.9z"/>
		</g>
	</g>
	<g>
		<g>
			<path class="st0" d="M596.3,1039.4c44.8,0,89.6,0,134.4,0c1.9,0,1.9-3,0-3c-44.8,0-89.6,0-134.4,0
				C594.4,1036.4,594.4,1039.4,596.3,1039.4L596.3,1039.4z"/>
		</g>
	</g>
	<g>
		<g>
			<path class="st0" d="M1193.6,1003.8c35.6,0,71.2,0,106.8,0c1.9,0,1.9-3,0-3c-35.6,0-71.2,0-106.8,0
				C1191.7,1000.8,1191.7,1003.8,1193.6,1003.8L1193.6,1003.8z"/>
		</g>
	</g>
	<g>
		<g>
			<path class="st0" d="M415,814.7c12.8,22.3,15.5,49.2,7.5,73.6c-0.3,0.8,0.3,1.6,1,1.8c3,1,6.1,2.3,8.2,4.6c2.7,3,3.3,9-1.3,10.8
				c-0.9,0.4-1.7,1.7-0.7,2.5c7.8,6.1,8.7,16.3,9.3,25.5c0.6,9.1,1.5,18.1,3.7,26.9c4.3,17,12.7,32.8,26.8,43.5
				c1.5,1.2,3-1.4,1.5-2.6c-15.6-11.8-23.6-30.3-27-49.1c-2.7-14.6,0.9-36-12.3-46.3c-0.2,0.8-0.4,1.7-0.7,2.5
				c4.2-1.7,6.3-6,5.4-10.5c-1.2-5.9-7.1-9-12.4-10.7c0.3,0.6,0.7,1.2,1,1.8c8.3-25.2,5.4-53-7.8-75.9
				C416.6,811.5,414,813,415,814.7L415,814.7z"/>
		</g>
	</g>
	<g>
		<g>
			<path class="st0" d="M415.9,812.3c20.4,12.5,36.7,30.1,50.1,49.7c6.5,9.4,12.4,19.3,17.9,29.3c4.6,8.4,15.1,23.4,6.4,32.3
				c-0.8,0.8-0.4,2.2,0.7,2.5c6.8,1.8,9.6,9.5,12.1,15.4c2.6,6.2,4.7,12.6,6.3,19.1c3.4,13.5,4.8,27.4,4.2,41.3
				c-0.1,1.9,2.9,1.9,3,0c0.6-16-1.2-32-5.8-47.4c-2.1-7-4.6-13.9-7.8-20.4c-2.4-4.9-5.7-9.4-11.2-10.9c0.2,0.8,0.4,1.7,0.7,2.5
				c7.4-7.5,3.3-18.5-0.9-26.6c-6.1-11.9-12.8-23.5-20.2-34.6c-14.3-21.6-31.7-41.2-54-54.8C415.8,808.7,414.3,811.3,415.9,812.3
				L415.9,812.3z"/>
		</g>
	</g>
	<g>
		<g>
			<path class="st0" d="M417.3,813.2c45.6,52.9,74.6,119.2,82.4,188.6c0.2,1.9,3.2,1.9,3,0c-6.2-54.7-25.3-107.8-55.5-153.8
				c-8.5-12.9-17.8-25.2-27.9-36.9C418.1,809.6,416,811.8,417.3,813.2L417.3,813.2z"/>
		</g>
	</g>
	<g>
		<g>
			<path class="st0" d="M425.9,884.2c25.1,10.9,46.2,29.2,60.5,52.5c1,1.6,3.6,0.1,2.6-1.5c-14.5-23.7-36-42.5-61.6-53.6
				C425.7,880.9,424.2,883.4,425.9,884.2L425.9,884.2z"/>
		</g>
	</g>
	<g>
		<g>
			<path class="st0" d="M465.4,859.7c0.8,10.6,2,21,3.9,31.5c0.3,1.9,3.2,1.1,2.9-0.8c-1.8-10.2-3-20.4-3.8-30.7
				C468.2,857.8,465.2,857.8,465.4,859.7L465.4,859.7z"/>
		</g>
	</g>
	<g>
		<g>
			<path class="st0" d="M439.4,939.2c23.1,10.4,43.3,26.5,58.5,46.8c1.1,1.5,3.7,0,2.6-1.5c-15.5-20.7-35.9-37.2-59.6-47.9
				C439.2,935.9,437.7,938.4,439.4,939.2L439.4,939.2z"/>
		</g>
	</g>
	<g>
		<g>
			<path class="st0" d="M479.3,876.7c-0.3-24.6,3.6-49,11.4-72.3c-0.7,0.3-1.5,0.6-2.2,0.9c1.8,0.9,3.5,1.8,5.3,2.6
				c1,0.5,2.2-0.1,2.3-1.3c0.4-15.2,4.8-29.7,13-42.5c-0.9-0.1-1.8-0.2-2.7-0.4c6.8,19.4,13.6,38.7,20.4,58.1
				c3.3,9.4,6.6,18.7,9.9,28.1c2.5,7.1,12.8,27.4-0.3,29.6c-1.2,0.2-1.4,1.8-0.7,2.5c6.9,7.4,9.5,17.3,10.8,27.1
				c1.3,10.1,1.5,20.3,1.1,30.4c-0.9,21.2-5.3,42-12.9,61.8c-0.7,1.8,2.2,2.6,2.9,0.8c8.1-21.1,12.6-43.6,13.1-66.2
				c0.4-18.3,0.5-41.7-12.9-55.9c-0.2,0.8-0.4,1.7-0.7,2.5c7.7-1.3,9.6-9.5,8.2-16.2c-2.5-11.5-7.8-22.9-11.7-34
				c-8.1-23.1-16.3-46.2-24.4-69.4c-0.4-1.2-2-1.5-2.7-0.4c-8.5,13.2-13.1,28.3-13.4,44c0.8-0.4,1.5-0.9,2.3-1.3
				c-1.8-0.9-3.5-1.8-5.3-2.6c-0.9-0.5-1.9-0.1-2.2,0.9c-7.9,23.6-11.8,48.2-11.5,73.1C476.3,878.6,479.3,878.6,479.3,876.7
				L479.3,876.7z"/>
		</g>
	</g>
	<g>
		<g>
			<path class="st0" d="M503.5,766.8c15.7,77.9,5,158,17.9,236.2c0.3,1.9,3.2,1.1,2.9-0.8c-12.8-78.2-2.1-158.4-17.9-236.2
				C506,764.1,503.1,764.9,503.5,766.8L503.5,766.8z"/>
		</g>
	</g>
	<g>
		<g>
			<path class="st0" d="M480.9,830.5c5.9,28.6,19,54.8,32,80.8c0.9,1.7,3.5,0.2,2.6-1.5c-12.9-25.7-25.8-51.7-31.7-80
				C483.4,827.8,480.5,828.6,480.9,830.5L480.9,830.5z"/>
		</g>
	</g>
	<g>
		<g>
			<path class="st0" d="M531.1,830.9c-7.3,13.8-13.2,28.3-17.8,43.2c-0.6,1.8,2.3,2.6,2.9,0.8c4.5-14.7,10.4-28.9,17.5-42.5
				C534.6,830.7,532,829.2,531.1,830.9L531.1,830.9z"/>
		</g>
	</g>
	<g>
		<g>
			<path class="st0" d="M973.7,1001.3c2.9-25.1,5.8-50.2,8.7-75.3c-0.5,0.5-1,1-1.5,1.5c3-0.2,5.3,0.4,7.8,2.3
				c1,0.8,2.5,0.3,2.6-1.1c0.3-5.5,0.5-10.9,0.8-16.4c-0.6,0.5-1.3,1-1.9,1.4c7.3,1.3,11.2-5.5,13.9-11.1
				c4.1-8.6,9.3-16.1,15.3-23.4c10.9-13.2,23.3-26.1,27.4-43.3c-1,0-1.9,0-2.9,0c5.6,17.7,11.4,35.7,12.3,54.4
				c0.7,14.4-0.9,35.3-16.7,41.5c-0.9,0.4-1.4,1.3-0.9,2.2c8.7,16.2-14,27.2-23.9,35.2c-11.1,9-20.2,20.2-27,32.7
				c-0.9,1.7,1.7,3.2,2.6,1.5c8.7-15.9,20.8-28.4,35.6-38.7c10.2-7.1,22.5-18.7,15.3-32.2c-0.3,0.7-0.6,1.5-0.9,2.2
				c14.6-5.8,18.6-22.7,19-36.9c0.5-21.5-6.1-42.4-12.5-62.7c-0.4-1.4-2.5-1.5-2.9,0c-3.7,15.7-14.7,27.7-24.8,39.7
				c-4.7,5.6-9.3,11.3-13.1,17.5c-3.1,5.2-7.2,19.9-15.1,18.5c-1-0.2-1.8,0.4-1.9,1.4c-0.3,5.5-0.5,10.9-0.8,16.4
				c0.9-0.4,1.7-0.7,2.6-1.1c-3-2.4-6.1-3.4-10-3.2c-0.9,0.1-1.4,0.6-1.5,1.5c-2.9,25.1-5.8,50.2-8.7,75.3
				C970.5,1003.2,973.5,1003.2,973.7,1001.3L973.7,1001.3z"/>
		</g>
	</g>
	<g>
		<g>
			<path class="st0" d="M1043.8,839.9c-1.7,28.4-7,57.3-22.2,81.8c-7.4,12-17.2,22.5-25.1,34.2c-7.6,11.2-13.3,23.5-17.3,36.4
				c-0.6,1.8,2.3,2.6,2.9,0.8c4.4-14.1,10.9-27.3,19.5-39.3c8.4-11.7,18.1-22.4,25.2-35c13.4-24,18.3-51.7,19.9-78.9
				C1046.9,838,1043.9,838,1043.8,839.9L1043.8,839.9z"/>
		</g>
	</g>
	<g>
		<g>
			<path class="st0" d="M1010.7,887.8c0.2,14,2.3,27.8,6.4,41.2c0.6,1.8,3.5,1.1,2.9-0.8c-4-13.1-6.1-26.6-6.3-40.4
				C1013.6,885.9,1010.6,885.8,1010.7,887.8L1010.7,887.8z"/>
		</g>
	</g>
	<g>
		<g>
			<path class="st0" d="M1036.2,897.6c7.9-3.7,14.9-8.8,20.9-15.1c1.3-1.4-0.8-3.5-2.1-2.1c-5.9,6.1-12.6,11-20.3,14.6
				C1032.9,895.8,1034.5,898.4,1036.2,897.6L1036.2,897.6z"/>
		</g>
	</g>
	<g>
		<g>
			<path class="st0" d="M1025.3,1002.1c-0.9-11-2.1-22-3.5-32.9c-0.2-1.9-3.3-1.9-3,0c1.4,10.9,2.6,21.9,3.5,32.9
				C1022.4,1004,1025.4,1004,1025.3,1002.1L1025.3,1002.1z"/>
		</g>
	</g>
	<g>
		<g>
			<path class="st0" d="M1059.9,878.9c10.9-20.6,20.2-42.1,27.8-64.2c-1,0-1.9,0-2.9,0c5.7,23.3,11.3,46.6,17,69.9
				c0.3-0.6,0.7-1.2,1-1.8c-4,1.2-8,2.4-12,3.6c-0.7,0.2-1.1,0.8-1.1,1.4c-0.2,2.4,1.1,3.8,2.9,5.2c4.2,3.5,5.3,6.3,5,11.8
				c-0.3,5-0.8,9.9-1.2,14.8c-0.3,3.8-0.1,13.6-6,13.3c-0.9,0-1.8,1-1.4,1.9c4.5,12.5-0.5,25.4-6.4,36.5
				c-5.8,10.9-12.9,21-21.1,30.3c-1.3,1.4,0.8,3.6,2.1,2.1c9.1-10.3,17-21.7,23.2-34c5.5-11,9.5-23.6,5.2-35.7
				c-0.5,0.6-1,1.3-1.4,1.9c9.4,0.5,8.8-14,9.3-20c0.4-5.5,1.6-11.5,0.7-17c-0.3-1.8-0.9-3.5-2-4.9c-1.5-1.9-5.8-3.6-5.6-6.2
				c-0.4,0.5-0.7,1-1.1,1.4c4-1.2,8-2.4,12-3.6c0.8-0.2,1.2-1,1-1.8c-5.7-23.3-11.3-46.6-17-69.9c-0.4-1.5-2.4-1.3-2.9,0
				c-7.5,21.9-16.6,43-27.5,63.5C1056.4,879.1,1059,880.6,1059.9,878.9L1059.9,878.9z"/>
		</g>
	</g>
	<g>
		<g>
			<path class="st0" d="M1083.8,821.2c9.4,59.9-32.6,111.4-43.4,168c-0.4,1.9,2.5,2.7,2.9,0.8c10.9-57.3,52.9-108.9,43.4-169.6
				C1086.4,818.5,1083.5,819.3,1083.8,821.2L1083.8,821.2z"/>
		</g>
	</g>
	<g>
		<g>
			<path class="st0" d="M1063.4,864.3c2.3,11.9,4.5,23.8,6.8,35.8c0.4,1.9,3.3,1.1,2.9-0.8c-2.3-11.9-4.5-23.8-6.8-35.8
				C1065.9,861.6,1063.1,862.4,1063.4,864.3L1063.4,864.3z"/>
		</g>
	</g>
	<g>
		<g>
			<path class="st0" d="M1081.6,879.6c4.6-6.7,9.8-12.9,15.5-18.7c1.4-1.4-0.8-3.5-2.1-2.1c-5.9,5.9-11.2,12.4-16,19.3
				C1077.9,879.7,1080.5,881.2,1081.6,879.6L1081.6,879.6z"/>
		</g>
	</g>
	<g>
		<g>
			<path class="st0" d="M274.5,722c73.6-16.2,150.8-14.3,223.5,5.7c37.1,10.2,72.1,26.1,107.9,40.1c35.3,13.8,71.4,25.3,108.2,34.5
				c41.1,10.3,82.9,17.7,125.1,22.2c1.9,0.2,1.9-2.8,0-3c-76.4-8.2-151.8-26.1-223.7-53.3C579.2,754.5,544,738,506.8,727
				c-35.3-10.4-71.9-16.5-108.7-18.3c-41.7-2.1-83.6,1.5-124.3,10.4C271.9,719.5,272.7,722.4,274.5,722L274.5,722z"/>
		</g>
	</g>
	<g>
		<g>
			<path class="st0" d="M674.5,766.5c78.8,19.4,160.7,11.3,239.4-4.5c81.1-16.3,160.4-41.2,242.2-54c46.4-7.3,93.6-10.4,140.5-5.7
				c1.9,0.2,1.9-2.8,0-3c-82-8.2-163.6,7.7-243,26.7c-80,19.2-159.6,41.8-242,47.7c-45.7,3.2-91.7,1-136.3-10
				C673.4,763.1,672.6,766,674.5,766.5L674.5,766.5z"/>
		</g>
	</g>
	<g>
		<g>
			<path class="st0" d="M436.4,637.5c47.4-9.5,94.4,5.9,139.9,17.5c46.1,11.8,93,17.2,140.5,12.5c47.2-4.7,92.8-18.1,139-28.3
				c47.7-10.6,96.2-17.9,144.9-21.7c54-4.3,108.3-4.3,162.4-0.2c1.9,0.1,1.9-2.9,0-3c-96-7.2-192.9-1.3-287.3,17.7
				c-47.5,9.6-94.1,23.8-142.2,30.6c-49.1,6.9-98.4,3.9-146.5-7.8c-49.5-12.1-100.1-30.4-151.6-20.1
				C433.7,634.9,434.5,637.8,436.4,637.5L436.4,637.5z"/>
		</g>
	</g>
	<g>
		<g>
			<path class="st0" d="M934.9,575.9c53.4,5.5,106.2-6.3,157.9-18.2c26.4-6.1,52.9-12.2,79.7-16.2c27.7-4.1,55.8-5.6,83.8-4.3
				c31.6,1.5,62.9,6.4,93.5,14.7c1.9,0.5,2.7-2.4,0.8-2.9c-53.5-14.5-109.6-18.8-164.6-12.3c-53.7,6.3-105.5,22.6-158.7,31.6
				c-30.5,5.2-61.4,7.7-92.3,4.5C933,572.7,933,575.7,934.9,575.9L934.9,575.9z"/>
		</g>
	</g>
	<g>
		<g>
			<path class="st0" d="M290.2,579.6c40.3,7,80-7.1,120.1-9.3c42.3-2.4,84.4,4.5,125.9,11.4c1.9,0.3,2.7-2.6,0.8-2.9
				c-40.6-6.7-81.6-13.4-122.9-11.7c-41,1.7-82,16.8-123.2,9.6C289.1,576.4,288.3,579.3,290.2,579.6L290.2,579.6z"/>
		</g>
	</g>
	<g>
		<g>
			<path class="st1" d="M477,1146c47.8,0,95.6,0,143.5,0c1.9,0,1.9-3,0-3c-47.8,0-95.6,0-143.5,0C475.1,1143,475.1,1146,477,1146
				L477,1146z"/>
		</g>
	</g>
	<g>
		<g>
			<path class="st1" d="M588.3,1165c44.4,0,88.8,0,133.2,0c1.9,0,1.9-3,0-3c-44.4,0-88.8,0-133.2,0
				C586.4,1162,586.4,1165,588.3,1165L588.3,1165z"/>
		</g>
	</g>
	<g>
		<g>
			<path class="st1" d="M361.4,1141.6c-24.9,0-49.8,0-74.7,0c-1.9,0-1.9,3,0,3c24.9,0,49.8,0,74.7,0
				C363.3,1144.6,363.3,1141.6,361.4,1141.6L361.4,1141.6z"/>
		</g>
	</g>
	<g>
		<g>
			<path class="st1" d="M690.8,1090.4c78.1,0,156.2,0,234.2,0c1.9,0,1.9-3,0-3c-78.1,0-156.2,0-234.2,0
				C688.9,1087.4,688.8,1090.4,690.8,1090.4L690.8,1090.4z"/>
		</g>
	</g>
	<g>
		<g>
			<path class="st1" d="M1065.6,1068.4c29.3,0,58.6,0,87.8,0c1.9,0,1.9-3,0-3c-29.3,0-58.6,0-87.8,0
				C1063.6,1065.4,1063.6,1068.4,1065.6,1068.4L1065.6,1068.4z"/>
		</g>
	</g>
	<g>
		<g>
			<path class="st1" d="M1217.8,1078.7c44.9,0,89.8,0,134.7,0c1.9,0,1.9-3,0-3c-44.9,0-89.8,0-134.7,0
				C1215.9,1075.7,1215.9,1078.7,1217.8,1078.7L1217.8,1078.7z"/>
		</g>
	</g>
</g>
<g id="coins">
	<path class="st2" d="M338.3,1052.2c-0.4,5.7-0.7,11.3-1.1,17c-2.5,0.7-4.9,1.5-7.4,2.2c-0.1,4.2-0.2,8.4-0.4,12.6
		c-3.8,0-7.6,0-11.5,0c0.7,5.8,1.5,11.6,2.2,17.4c6.5,0.1,13.1,0.2,19.6,0.4c0.7,4.7,1.5,9.4,2.2,14.1c-4.6,0-9.4-0.1-14.4-0.4
		c-5.9-0.3-11.4-0.8-16.6-1.5c-0.2,6.2-0.5,12.3-0.7,18.5c16.4-0.2,32.8-0.5,49.2-0.7c0.5,4.3,1,8.6,1.5,12.9
		c30.5,3.4,65.4,4.6,103.6,1.1c10.5-1,20.6-2.2,30.3-3.7c0-4.9,0-9.9,0-14.8c-3.5,1.4-7.7,2.7-12.6,3.7c-8.2,1.6-15.3,1.6-20.7,1.1
		c0.6-3.9,1.2-7.9,1.8-11.8c0.8-2.6,1.6-5.8,1.8-9.6c0.2-2.5,0.1-4.7,0-6.7c-9.5,0.1-19,0.2-28.5,0.4c-0.2-6.5-0.5-13.1-0.7-19.6
		c8.8-0.7,17.5-1.5,26.3-2.2c0.2-3.5,0.5-6.9,0.7-10.4c-4.4-0.6-8.9-1.2-13.3-1.8c-0.2-6.7-0.5-13.3-0.7-20
		C412.1,1051,375.2,1051.6,338.3,1052.2z"/>
	<path class="st3" d="M1140.6,925.9c-0.1,4.1-0.2,8.2-0.3,12.2c9.1,0.6,18.2,1.2,27.3,1.7c0,3.8,0,7.7,0,11.5
		c-3.4,0.8-6.8,1.6-10.1,2.4c-0.2,4.4-0.5,8.9-0.7,13.3c-10.6,0.1-21.2,0.2-31.8,0.3c-0.3,4.4-0.7,8.9-1,13.3
		c12.5,0.2,25,0.5,37.4,0.7c0,5.4,0,10.7,0,16.1c-12.7,0.3-25.4,0.7-38.1,1c-0.2,5.1-0.5,10.3-0.7,15.4c4.1,0.3,8.2,0.7,12.2,1
		c0.1,4.5,0.2,9.1,0.3,13.6c-5.5,0.5-11,0.9-16.4,1.4c0.2,5.9,0.5,11.9,0.7,17.8c6.6-0.1,13.3-0.2,19.9-0.3c0,6.3,0,12.6,0,18.9
		c14.9,0.8,30.4,1.3,46.5,1.4c25.2,0.1,49.1-0.8,71.4-2.4c1.1-4.8,2.1-10.1,2.8-15.7c0.9-7.1,1.3-13.7,1.4-19.6
		c2.8-0.5,5.6-0.9,8.4-1.4c0.1-4.3,0.2-8.6,0.3-12.9c-7-0.1-14-0.2-21-0.3c0.3-5.7,0.7-11.4,1-17.1c10.6-0.3,21.2-0.7,31.8-1
		c0.1-5,0.2-10,0.3-15c-8.9,0-17.7,0-26.6,0c0.3-4.1,0.7-8.2,1-12.2c9.7-0.6,19.4-1.2,29-1.7c0.1-5,0.2-10,0.3-15
		c4.3,0,8.6,0,12.9,0c-0.2-4.5-0.5-9.1-0.7-13.6c-10.6,0.2-21.2,0.5-31.8,0.7c0.3-5.5,0.7-11,1-16.4c-12.9-3-27.9-5.4-44.8-6.3
		C1189.5,915.7,1161.2,920.5,1140.6,925.9z"/>
	<g>
		<g>
			<path class="st1" d="M359.1,1131.9c0.1,4.2,0.3,8.5,0.4,12.7c0,0.9,0.7,1.4,1.5,1.5c44.1,3,88.3,2.7,132.3-1
				c0.6-0.1,1.3-0.4,1.4-1.1c1.3-5.5,1.6-10.8,1-16.4c-0.2-1.9-3.2-1.9-3,0c0.6,5.3,0.3,10.4-0.9,15.6c0.5-0.4,1-0.7,1.4-1.1
				c-44,3.6-88.3,4-132.3,1c0.5,0.5,1,1,1.5,1.5c-0.1-4.2-0.3-8.5-0.4-12.7C362,1130,359,1130,359.1,1131.9L359.1,1131.9z"/>
		</g>
	</g>
	<g>
		<g>
			<path class="st1" d="M309.2,1113.6c0,5.9,0,11.8,0,17.7c0,1.9,3,1.9,3,0c0-5.9,0-11.8,0-17.7
				C312.2,1111.6,309.2,1111.6,309.2,1113.6L309.2,1113.6z"/>
		</g>
	</g>
	<g>
		<g>
			<path class="st1" d="M312.5,1134c49.5,0,99,0,148.5,0c1.9,0,1.9-3,0-3c-49.5,0-99,0-148.5,0C310.6,1131,310.6,1134,312.5,1134
				L312.5,1134z"/>
		</g>
	</g>
	<g>
		<g>
			<path class="st1" d="M369.4,1134.3c0.4,3.3,0.5,6.5,0.3,9.8c-0.1,1.9,2.9,1.9,3,0c0.2-3.3,0.2-6.5-0.3-9.8
				C372.2,1132.4,369.2,1132.4,369.4,1134.3L369.4,1134.3z"/>
		</g>
	</g>
	<g>
		<g>
			<path class="st1" d="M378.9,1134.7c0.6,2.5,0.7,5,0.6,7.5c-0.1,1.9,2.9,1.9,3,0c0.2-2.8,0-5.6-0.7-8.3
				C381.4,1132.1,378.5,1132.9,378.9,1134.7L378.9,1134.7z"/>
		</g>
	</g>
	<g>
		<g>
			<path class="st1" d="M463,1132.3c1-3.9,1.5-7.9,1.4-12c0-1.9-3-1.9-3,0c0.1,3.8-0.3,7.5-1.3,11.2
				C459.6,1133.3,462.5,1134.1,463,1132.3L463,1132.3z"/>
		</g>
	</g>
	<g>
		<g>
			<path class="st1" d="M312.7,1115.5c49.4,6.9,99.3,8.2,149,3.9c1.9-0.2,1.9-3.2,0-3c-49.4,4.3-99.1,3.1-148.2-3.8
				C311.6,1112.3,310.8,1115.2,312.7,1115.5L312.7,1115.5z"/>
		</g>
	</g>
	<g>
		<g>
			<path class="st1" d="M464.1,1133c9.9,0.9,19.7-0.3,29.2-3.3c1.8-0.6,1-3.5-0.8-2.9c-9.3,3-18.7,4.1-28.4,3.2
				C462.2,1129.9,462.2,1132.9,464.1,1133L464.1,1133z"/>
		</g>
	</g>
	<g>
		<g>
			<path class="st1" d="M445.5,1134.3c0,3.5,0,6.9,0,10.4c0,1.9,3,1.9,3,0c0-3.5,0-6.9,0-10.4
				C448.5,1132.4,445.5,1132.4,445.5,1134.3L445.5,1134.3z"/>
		</g>
	</g>
	<g>
		<g>
			<path class="st1" d="M468.1,1132.3c0.6,3.7,1.1,7.4,1.7,11c0.3,1.9,3.2,1.1,2.9-0.8c-0.6-3.7-1.1-7.4-1.7-11
				C470.7,1129.6,467.9,1130.4,468.1,1132.3L468.1,1132.3z"/>
		</g>
	</g>
	<g>
		<g>
			<path class="st1" d="M481.9,1131.7c0.3,2,0.1,4-0.4,5.9c-0.5,1.9,2.4,2.7,2.9,0.8c0.7-2.5,0.8-5,0.4-7.5
				C484.5,1129,481.6,1129.8,481.9,1131.7L481.9,1131.7z"/>
		</g>
	</g>
	<g>
		<g>
			<path class="st1" d="M323.7,1116c0.2,5.3,0.4,10.6,0.6,15.9c0.1,1.9,3.1,1.9,3,0c-0.2-5.3-0.4-10.6-0.6-15.9
				C326.6,1114.1,323.6,1114.1,323.7,1116L323.7,1116z"/>
		</g>
	</g>
	<g>
		<g>
			<path class="st1" d="M343.6,1117.8c0.4,4.1,0.8,8.2,1.2,12.2c0.2,1.9,3.2,1.9,3,0c-0.4-4.1-0.8-8.2-1.2-12.2
				C346.4,1115.9,343.4,1115.9,343.6,1117.8L343.6,1117.8z"/>
		</g>
	</g>
	<g>
		<g>
			<path class="st1" d="M355.1,1120.3c-0.3,2.4-0.1,4.8,0.6,7.1c0.5,1.9,3.4,1.1,2.9-0.8c-0.6-2.1-0.7-4.2-0.5-6.3
				C358.3,1118.4,355.3,1118.4,355.1,1120.3L355.1,1120.3z"/>
		</g>
	</g>
	<g>
		<g>
			<path class="st1" d="M339.1,1102.6c0.1,4.7,0.5,9.3,1.3,13.8c0.3,1.9,3.2,1.1,2.9-0.8c-0.8-4.3-1.2-8.7-1.2-13
				C342.1,1100.6,339.1,1100.6,339.1,1102.6L339.1,1102.6z"/>
		</g>
	</g>
	<g>
		<g>
			<path class="st1" d="M342.5,1102.8c40.8,0.8,81.6,1.7,122.4,2.5c-0.5-0.4-1-0.7-1.4-1.1c0.7,4.2,0.7,8.3,0.2,12.6
				c-0.2,1.9,2.8,1.9,3,0c0.5-4.5,0.4-8.9-0.3-13.4c-0.1-0.7-0.8-1.1-1.4-1.1c-40.8-0.8-81.6-1.7-122.4-2.5
				C340.6,1099.8,340.6,1102.8,342.5,1102.8L342.5,1102.8z"/>
		</g>
	</g>
	<g>
		<g>
			<path class="st1" d="M315.9,1085.2c1,5.3,1.7,10.7,2.3,16.1c0.2,1.9,3.2,1.9,3,0c-0.6-5.7-1.4-11.3-2.4-16.9
				C318.5,1082.5,315.6,1083.3,315.9,1085.2L315.9,1085.2z"/>
		</g>
	</g>
	<g>
		<g>
			<path class="st1" d="M319.2,1085.2c19.4,1.2,38.9,0.4,58.3,0.2c19.6-0.1,39.2-0.3,58.8-0.4c-0.5-0.5-1-1-1.5-1.5
				c0.2,5.1,0.4,10.2,0.5,15.3c0.1,1.9,3.1,1.9,3,0c-0.2-5.1-0.4-10.2-0.5-15.3c0-0.8-0.7-1.5-1.5-1.5c-19.6,0.1-39.2,0.3-58.8,0.4
				c-19.4,0.1-38.9,0.9-58.3-0.2C317.3,1082.1,317.3,1085.1,319.2,1085.2L319.2,1085.2z"/>
		</g>
	</g>
	<g>
		<g>
			<path class="st1" d="M320.5,1103.3c7.1-0.2,14.3-0.4,21.4-0.6c1.9-0.1,1.9-3.1,0-3c-7.1,0.2-14.3,0.4-21.4,0.6
				C318.6,1100.3,318.5,1103.3,320.5,1103.3L320.5,1103.3z"/>
		</g>
	</g>
	<g>
		<g>
			<path class="st1" d="M325.6,1071.8c0.6,4.1,1.2,8.1,1.9,12.2c0.3,1.9,3.2,1.1,2.9-0.8c-0.6-4.1-1.2-8.1-1.9-12.2
				C328.2,1069.1,325.3,1069.9,325.6,1071.8L325.6,1071.8z"/>
		</g>
	</g>
	<g>
		<g>
			<path class="st1" d="M328.3,1072.6c44.7-6.8,90.2-6.5,134.8,1.1c1.9,0.3,2.7-2.6,0.8-2.9c-45.1-7.6-91.2-8-136.4-1.1
				C325.6,1070,326.4,1072.9,328.3,1072.6L328.3,1072.6z"/>
		</g>
	</g>
	<g>
		<g>
			<path class="st1" d="M435.5,1086.1c6.2-0.3,12.3-0.6,18.5-0.8c3-0.1,6.6,0.5,8.6-2.1c1.2-1.5-1.4-3-2.6-1.5
				c-1.2,1.6-10.1,0.8-11.8,0.9c-4.2,0.2-8.4,0.4-12.6,0.6C433.5,1083.2,433.5,1086.2,435.5,1086.1L435.5,1086.1z"/>
		</g>
	</g>
	<g>
		<g>
			<path class="st1" d="M461.2,1070.3c-0.6,3-1,6-1.1,9c-0.1,1.9,2.9,1.9,3,0c0.1-2.8,0.4-5.5,1-8.2
				C464.5,1069.2,461.6,1068.4,461.2,1070.3L461.2,1070.3z"/>
		</g>
	</g>
	<g>
		<g>
			<path class="st1" d="M338.9,1068.9c0-5.7,0-11.3,0-17c0-1.9-3-1.9-3,0c0,5.7,0,11.3,0,17C335.9,1070.9,338.9,1070.9,338.9,1068.9
				L338.9,1068.9z"/>
		</g>
	</g>
	<g>
		<g>
			<path class="st1" d="M339.8,1053.3c36.5-1.8,73.1-2.5,109.6-2.2c1.9,0,1.9-3,0-3c-36.5-0.3-73.1,0.4-109.6,2.2
				C337.9,1050.4,337.9,1053.4,339.8,1053.3L339.8,1053.3z"/>
		</g>
	</g>
	<g>
		<g>
			<path class="st1" d="M447.9,1050.8c0.4,5.7,0.8,11.3,1.2,17c0.1,1.9,3.1,1.9,3,0c-0.4-5.7-0.8-11.3-1.2-17
				C450.8,1048.8,447.8,1048.8,447.9,1050.8L447.9,1050.8z"/>
		</g>
	</g>
	<g>
		<g>
			<path class="st1" d="M342.3,1071.3c0.4,3.7,0.7,7.4,1.1,11.2c0.2,1.9,3.2,1.9,3,0c-0.4-3.7-0.7-7.4-1.1-11.2
				C345.2,1069.4,342.1,1069.4,342.3,1071.3L342.3,1071.3z"/>
		</g>
	</g>
	<g>
		<g>
			<path class="st1" d="M354.7,1069.5c-0.1,3.1,0.2,6.1,0.8,9.2c0.3,1.9,3.2,1.1,2.9-0.8c-0.5-2.8-0.7-5.6-0.7-8.4
				C357.7,1067.6,354.7,1067.6,354.7,1069.5L354.7,1069.5z"/>
		</g>
	</g>
	<g>
		<g>
			<path class="st1" d="M375.6,1087.1c0.4,4.1,0.7,8.2,1.1,12.3c0.2,1.9,3.2,1.9,3,0c-0.4-4.1-0.7-8.2-1.1-12.3
				C378.5,1085.2,375.5,1085.2,375.6,1087.1L375.6,1087.1z"/>
		</g>
	</g>
	<g>
		<g>
			<path class="st1" d="M388.3,1085.9c0.4,4.1,0.7,8.2,1.1,12.3c0.2,1.9,3.2,1.9,3,0c-0.4-4.1-0.7-8.2-1.1-12.3
				C391.1,1084,388.1,1084,388.3,1085.9L388.3,1085.9z"/>
		</g>
	</g>
	<g>
		<g>
			<path class="st1" d="M409.2,1085.4c0.4,4.7,0.8,9.4,1.2,14.1c0.2,1.9,3.2,1.9,3,0c-0.4-4.7-0.8-9.4-1.2-14.1
				C412.1,1083.4,409.1,1083.4,409.2,1085.4L409.2,1085.4z"/>
		</g>
	</g>
	<g>
		<g>
			<path class="st1" d="M415,1104.1c0.5,4.7,0.9,9.4,1.4,14.1c0.2,1.9,3.2,1.9,3,0c-0.5-4.7-0.9-9.4-1.4-14.1
				C417.8,1102.2,414.8,1102.2,415,1104.1L415,1104.1z"/>
		</g>
	</g>
	<g>
		<g>
			<path class="st1" d="M428,1104.5c0.7,4.3,0.8,8.7,0.6,13.1c-0.1,1.9,2.9,1.9,3,0c0.3-4.7,0.1-9.3-0.7-13.9
				C430.6,1101.8,427.7,1102.6,428,1104.5L428,1104.5z"/>
		</g>
	</g>
	<g>
		<g>
			<path class="st1" d="M443.8,1103.5c0.4,4.5,0.4,9-0.2,13.5c-0.2,1.9,2.8,1.9,3,0c0.5-4.5,0.6-9,0.2-13.5
				C446.7,1101.6,443.7,1101.6,443.8,1103.5L443.8,1103.5z"/>
		</g>
	</g>
	<g>
		<g>
			<path class="st1" d="M397.6,1121.1c-0.3,2.9-0.5,5.9-0.8,8.8c-0.2,1.9,2.8,1.9,3,0c0.3-2.9,0.5-5.9,0.8-8.8
				C400.8,1119.2,397.8,1119.2,397.6,1121.1L397.6,1121.1z"/>
		</g>
	</g>
	<g>
		<g>
			<path class="st1" d="M405.2,1122.7c1,2.4,1.3,4.7,1,7.2c-0.2,1.9,2.8,1.9,3,0c0.3-2.8-0.1-5.5-1.1-8
				C407.4,1120.1,404.5,1120.9,405.2,1122.7L405.2,1122.7z"/>
		</g>
	</g>
	<g>
		<g>
			<path class="st1" d="M399.1,1066.6c0.4,4.7,0.5,9.4,0.6,14.1c0,1.9,3,1.9,3,0c0-4.7-0.2-9.4-0.6-14.1
				C402,1064.7,399,1064.7,399.1,1066.6L399.1,1066.6z"/>
		</g>
	</g>
	<g>
		<g>
			<path class="st1" d="M411,1068.2c0.6,3.2,0.8,6.3,0.6,9.6c-0.1,1.9,2.9,1.9,3,0c0.3-3.5,0-6.9-0.7-10.4
				C413.5,1065.5,410.6,1066.3,411,1068.2L411,1068.2z"/>
		</g>
	</g>
	<g>
		<g>
			<path class="st1" d="M366.4,1050.6c1.2,4.7,1.5,9.4,1.2,14.2c-0.2,1.9,2.8,1.9,3,0c0.4-5.1,0-10.1-1.3-15
				C368.8,1047.9,365.9,1048.7,366.4,1050.6L366.4,1050.6z"/>
		</g>
	</g>
	<g>
		<g>
			<path class="st1" d="M378.7,1050.6c0.7,3.9,1.3,7.8,2,11.7c0.3,1.9,3.2,1.1,2.9-0.8c-0.7-3.9-1.3-7.8-2-11.7
				C381.3,1047.9,378.4,1048.7,378.7,1050.6L378.7,1050.6z"/>
		</g>
	</g>
	<g>
		<g>
			<path class="st1" d="M422.1,1051.2c0.6,3.9,0.8,7.9,0.6,11.9c-0.1,1.9,2.9,1.9,3,0c0.3-4.3,0-8.5-0.7-12.7
				C424.7,1048.5,421.8,1049.3,422.1,1051.2L422.1,1051.2z"/>
		</g>
	</g>
	<g>
		<g>
			<path class="st1" d="M1137.6,1050.2c0.1,5.8,0.2,11.6,0.3,17.3c0,0.8,0.7,1.5,1.5,1.5c25,0.2,49.9,0,74.9-0.7
				c12.1-0.3,24.3-0.8,36.4-1.3c2.9-0.1,7.7,0.6,9.4-2.6c0.7-1.3,0.6-3.3,0.6-4.6c0.2-3,0.3-6.1,0.4-9.2c0.1-1.9-2.9-1.9-3,0
				c-0.1,2.4-0.2,4.9-0.3,7.3c-0.2,3.5-0.5,5.2-4.2,5.9c-5.3,1-11.3,0.5-16.7,0.7c-10.8,0.4-21.7,0.7-32.5,1
				c-21.7,0.5-43.4,0.6-65,0.4c0.5,0.5,1,1,1.5,1.5c-0.1-5.8-0.2-11.6-0.3-17.3C1140.5,1048.3,1137.5,1048.3,1137.6,1050.2
				L1137.6,1050.2z"/>
		</g>
	</g>
	<g>
		<g>
			<path class="st1" d="M1116.8,1031.1c0.2,5.4,0.4,10.8,0.6,16.3c0.1,1.9,3.1,1.9,3,0c-0.2-5.4-0.4-10.8-0.6-16.3
				C1119.8,1029.2,1116.8,1029.2,1116.8,1031.1L1116.8,1031.1z"/>
		</g>
	</g>
	<g>
		<g>
			<path class="st1" d="M1119.6,1049.5c47.1,0,94.2,0,141.3,0c1.9,0,1.9-3,0-3c-47.1,0-94.2,0-141.3,0
				C1117.7,1046.5,1117.7,1049.5,1119.6,1049.5L1119.6,1049.5z"/>
		</g>
	</g>
	<g>
		<g>
			<path class="st1" d="M1120.7,1031c47.3,0,94.6,0,141.8,0c1.9,0,1.9-3,0-3c-47.3,0-94.6,0-141.8,0
				C1118.8,1028,1118.8,1031,1120.7,1031L1120.7,1031z"/>
		</g>
	</g>
	<g>
		<g>
			<path class="st1" d="M1259.9,1030c0,6,0,12,0,17.9c0,1.9,3,1.9,3,0c0-6,0-12,0-17.9C1262.9,1028.1,1259.9,1028.1,1259.9,1030
				L1259.9,1030z"/>
		</g>
	</g>
	<g>
		<g>
			<path class="st1" d="M1136.2,1028.9c0-4.5,0-9,0-13.5c0-1.9-3-1.9-3,0c0,4.5,0,9,0,13.5
				C1133.2,1030.8,1136.2,1030.8,1136.2,1028.9L1136.2,1028.9z"/>
		</g>
	</g>
	<g>
		<g>
			<path class="st1" d="M1135.8,1016.9c45.4,0,90.8,0,136.2,0c1.9,0,1.9-3,0-3c-45.4,0-90.8,0-136.2,0
				C1133.9,1013.9,1133.9,1016.9,1135.8,1016.9L1135.8,1016.9z"/>
		</g>
	</g>
	<g>
		<g>
			<path class="st1" d="M1268.3,1015.4c0,4.3,0,8.6,0,12.9c0,1.9,3,1.9,3,0c0-4.3,0-8.6,0-12.9
				C1271.3,1013.5,1268.3,1013.5,1268.3,1015.4L1268.3,1015.4z"/>
		</g>
	</g>
	<g>
		<g>
			<path class="st1" d="M1260.9,1030.4c2.8,0,5.6,0,8.4,0c1.9,0,1.9-3,0-3c-2.8,0-5.6,0-8.4,0
				C1258.9,1027.4,1258.9,1030.4,1260.9,1030.4L1260.9,1030.4z"/>
		</g>
	</g>
	<g>
		<g>
			<path class="st1" d="M1120.9,999.7c0,4.1,0,8.2,0,12.3c0,1.9,3,1.9,3,0c0-4.1,0-8.2,0-12.3
				C1123.9,997.8,1120.9,997.8,1120.9,999.7L1120.9,999.7z"/>
		</g>
	</g>
	<g>
		<g>
			<path class="st1" d="M1123,1000.1c42.4,0,84.8,0,127.3,0c1.9,0,1.9-3,0-3c-42.4,0-84.8,0-127.3,0
				C1121,997.1,1121,1000.1,1123,1000.1L1123,1000.1z"/>
		</g>
	</g>
	<g>
		<g>
			<path class="st1" d="M1248.1,999.2c0,4.5,0,9,0,13.5c0,1.9,3,1.9,3,0c0-4.5,0-9,0-13.5C1251.1,997.3,1248.1,997.2,1248.1,999.2
				L1248.1,999.2z"/>
		</g>
	</g>
	<g>
		<g>
			<path class="st1" d="M1123,1015.3c41.7,0,83.3,0,125,0c1.9,0,1.9-3,0-3c-41.7,0-83.3,0-125,0
				C1121,1012.3,1121,1015.3,1123,1015.3L1123,1015.3z"/>
		</g>
	</g>
	<g>
		<g>
			<path class="st1" d="M1162.6,996.9c0-4.3,0-8.6,0-12.9c0-1.9-3-1.9-3,0c0,4.3,0,8.6,0,12.9
				C1159.6,998.9,1162.6,998.9,1162.6,996.9L1162.6,996.9z"/>
		</g>
	</g>
	<g>
		<g>
			<path class="st1" d="M1161.6,984.4c40.2,0,80.4,0,120.5,0c1.9,0,1.9-3,0-3c-40.2,0-80.4,0-120.5,0
				C1159.7,981.4,1159.7,984.4,1161.6,984.4L1161.6,984.4z"/>
		</g>
	</g>
	<g>
		<g>
			<path class="st1" d="M1249.1,999c9.9,0,19.8,0,29.7,0c1.9,0,1.9-3,0-3c-9.9,0-19.8,0-29.7,0C1247.2,996,1247.2,999,1249.1,999
				L1249.1,999z"/>
		</g>
	</g>
	<g>
		<g>
			<path class="st1" d="M1280.7,983.5c0,4.3,0,8.6,0,12.9c0,1.9,3,1.9,3,0c0-4.3,0-8.6,0-12.9
				C1283.7,981.6,1280.7,981.6,1280.7,983.5L1280.7,983.5z"/>
		</g>
	</g>
	<g>
		<g>
			<path class="st1" d="M1125.8,982.7c43.4,0,86.7,0,130.1,0c1.9,0,1.9-3,0-3c-43.4,0-86.7,0-130.1,0
				C1123.8,979.7,1123.8,982.7,1125.8,982.7L1125.8,982.7z"/>
		</g>
	</g>
	<g>
		<g>
			<path class="st1" d="M1126.1,980.7c0-3.9,0-7.8,0-11.8c0-1.9-3-1.9-3,0c0,3.9,0,7.8,0,11.8
				C1123.1,982.6,1126.1,982.6,1126.1,980.7L1126.1,980.7z"/>
		</g>
	</g>
	<g>
		<g>
			<path class="st1" d="M1125.2,969.9c43.7,0,87.5,0,131.2,0c1.9,0,1.9-3,0-3c-43.7,0-87.5,0-131.2,0
				C1123.3,966.9,1123.3,969.9,1125.2,969.9L1125.2,969.9z"/>
		</g>
	</g>
	<g>
		<g>
			<path class="st1" d="M1255.4,968.4c0,3.6,0,7.1,0,10.7c0,1.9,3,1.9,3,0c0-3.6,0-7.1,0-10.7
				C1258.4,966.4,1255.4,966.4,1255.4,968.4L1255.4,968.4z"/>
		</g>
	</g>
	<g>
		<g>
			<path class="st1" d="M1158.7,967.2c0-4.3,0-8.6,0-12.9c0-1.9-3-1.9-3,0c0,4.3,0,8.6,0,12.9
				C1155.7,969.2,1158.7,969.2,1158.7,967.2L1158.7,967.2z"/>
		</g>
	</g>
	<g>
		<g>
			<path class="st1" d="M1158.3,954.7c42.4,0,84.8,0,127.3,0c1.9,0,1.9-3,0-3c-42.4,0-84.8,0-127.3,0
				C1156.3,951.7,1156.3,954.7,1158.3,954.7L1158.3,954.7z"/>
		</g>
	</g>
	<g>
		<g>
			<path class="st1" d="M1284,953.8c0,2.1,0,4.1,0,6.2c0,1.9,3,1.9,3,0c0-2.1,0-4.1,0-6.2C1287,951.8,1284,951.8,1284,953.8
				L1284,953.8z"/>
		</g>
	</g>
	<g>
		<g>
			<path class="st1" d="M1255.8,969.9c9.9,0,19.8,0,29.7,0c1.9,0,1.9-3,0-3c-9.9,0-19.8,0-29.7,0
				C1253.9,966.9,1253.9,969.9,1255.8,969.9L1255.8,969.9z"/>
		</g>
	</g>
	<g>
		<g>
			<path class="st1" d="M1284,955.5c0,3.7,0,7.5,0,11.2c0,1.9,3,1.9,3,0c0-3.7,0-7.5,0-11.2C1287,953.5,1284,953.5,1284,955.5
				L1284,955.5z"/>
		</g>
	</g>
	<g>
		<g>
			<path class="st1" d="M1168.7,951c0-3.6,0-7.1,0-10.7c0-1.9-3-1.9-3,0c0,3.6,0,7.1,0,10.7C1165.7,952.9,1168.7,952.9,1168.7,951
				L1168.7,951z"/>
		</g>
	</g>
	<g>
		<g>
			<path class="st1" d="M1166.7,941.3c43.5,0,87.1,0,130.6,0c1.9,0,1.9-3,0-3c-43.5,0-87.1,0-130.6,0
				C1164.8,938.3,1164.7,941.3,1166.7,941.3L1166.7,941.3z"/>
		</g>
	</g>
	<g>
		<g>
			<path class="st1" d="M1297.3,941.3c1.9,0,1.9-3,0-3C1295.4,938.3,1295.4,941.3,1297.3,941.3L1297.3,941.3z"/>
		</g>
	</g>
	<g>
		<g>
			<path class="st1" d="M1296.9,939.8c0,3.6,0,7.1,0,10.7c0,1.9,3,1.9,3,0c0-3.6,0-7.1,0-10.7
				C1299.9,937.8,1296.9,937.8,1296.9,939.8L1296.9,939.8z"/>
		</g>
	</g>
	<g>
		<g>
			<path class="st1" d="M1285,954.2c4.5,0,9,0,13.5,0c1.9,0,1.9-3,0-3c-4.5,0-9,0-13.5,0C1283,951.2,1283,954.2,1285,954.2
				L1285,954.2z"/>
		</g>
	</g>
	<g>
		<g>
			<path class="st1" d="M1138.8,926.9c0,3.9,0,7.8,0,11.8c0,1.9,3,1.9,3,0c0-3.9,0-7.8,0-11.8
				C1141.8,924.9,1138.8,924.9,1138.8,926.9L1138.8,926.9z"/>
		</g>
	</g>
	<g>
		<g>
			<path class="st1" d="M1140.3,940.1c10.7,0,21.3,0,32,0c1.9,0,1.9-3,0-3c-10.7,0-21.3,0-32,0
				C1138.4,937.1,1138.4,940.1,1140.3,940.1L1140.3,940.1z"/>
		</g>
	</g>
	<g>
		<g>
			<path class="st1" d="M1140.6,926.6c41.5-8.8,84.4-9.5,126.2-2c1.9,0.3,2.7-2.6,0.8-2.9c-42.3-7.6-85.7-6.9-127.8,2
				C1137.9,924.1,1138.7,927,1140.6,926.6L1140.6,926.6z"/>
		</g>
	</g>
	<g>
		<g>
			<path class="st1" d="M1266.1,924.1c0,3.9,0,7.8,0,11.8c0,1.9,3,1.9,3,0c0-3.9,0-7.8,0-11.8
				C1269.1,922.1,1266.1,922.1,1266.1,924.1L1266.1,924.1z"/>
		</g>
	</g>
	<g>
		<g>
			<path class="st1" d="M1148.8,927.4c7.1,2.2,14.9,1.3,22.2,1.2c8.2-0.1,16.4-0.3,24.6-0.4c16.7-0.3,33.4-0.6,50.1-0.8
				c1.9,0,1.9-3,0-3c-16.1,0.3-32.1,0.5-48.2,0.8c-7.9,0.1-15.7,0.3-23.6,0.4c-7.9,0.1-16.7,1.4-24.4-1
				C1147.7,924,1146.9,926.9,1148.8,927.4L1148.8,927.4z"/>
		</g>
	</g>
	<g>
		<g>
			<path class="st1" d="M1162.9,928.5c0,3.4,0,6.7,0,10.1c0,1.9,3,1.9,3,0c0-3.4,0-6.7,0-10.1
				C1165.9,926.6,1162.9,926.6,1162.9,928.5L1162.9,928.5z"/>
		</g>
	</g>
	<g>
		<g>
			<path class="st1" d="M1173.1,929.1c0.3,2.4,0.6,4.9,0.9,7.3c0.2,1.9,3.2,1.9,3,0c-0.3-2.4-0.6-4.9-0.9-7.3
				C1175.9,927.2,1172.9,927.2,1173.1,929.1L1173.1,929.1z"/>
		</g>
	</g>
	<g>
		<g>
			<path class="st1" d="M1211.6,928.6c0.3,3,0.6,6,1,9c0.2,1.9,3.2,1.9,3,0c-0.3-3-0.6-6-1-9
				C1214.4,926.7,1211.4,926.6,1211.6,928.6L1211.6,928.6z"/>
		</g>
	</g>
	<g>
		<g>
			<path class="st1" d="M1223.5,929.7c0,2.2,0,4.5,0,6.7c0,1.9,3,1.9,3,0c0-2.2,0-4.5,0-6.7C1226.5,927.7,1223.5,927.7,1223.5,929.7
				L1223.5,929.7z"/>
		</g>
	</g>
	<g>
		<g>
			<path class="st1" d="M1215.7,941.4c-0.3,3.3-0.1,6.6,0.4,10c0.3,1.9,3.2,1.1,2.9-0.8c-0.5-3-0.5-6.1-0.3-9.2
				C1218.8,939.5,1215.8,939.5,1215.7,941.4L1215.7,941.4z"/>
		</g>
	</g>
	<g>
		<g>
			<path class="st1" d="M1226.8,941.4c0.3,2.7,0.2,5.4-0.3,8c-0.3,1.9,2.5,2.7,2.9,0.8c0.5-2.9,0.7-5.9,0.4-8.8
				C1229.6,939.5,1226.6,939.5,1226.8,941.4L1226.8,941.4z"/>
		</g>
	</g>
	<g>
		<g>
			<path class="st1" d="M1165.2,954.9c0,4.1,0,8.2,0,12.3c0,1.9,3,1.9,3,0c0-4.1,0-8.2,0-12.3C1168.2,953,1165.2,953,1165.2,954.9
				L1165.2,954.9z"/>
		</g>
	</g>
	<g>
		<g>
			<path class="st1" d="M1175.8,955.5c0,3.1,0.3,6.2,0.8,9.4c0.3,1.9,3.2,1.1,2.9-0.8c-0.4-2.8-0.6-5.7-0.6-8.6
				C1178.8,953.5,1175.8,953.5,1175.8,955.5L1175.8,955.5z"/>
		</g>
	</g>
	<g>
		<g>
			<path class="st1" d="M1189.7,941.5c0.2,3.5,0.5,7.1,0.7,10.6c0.1,1.9,3.1,1.9,3,0c-0.2-3.5-0.5-7.1-0.7-10.6
				C1192.6,939.5,1189.6,939.5,1189.7,941.5L1189.7,941.5z"/>
		</g>
	</g>
	<g>
		<g>
			<path class="st1" d="M1246.7,940.3c0.4,3.4,0.7,6.7,1.1,10.1c0.2,1.9,3.2,1.9,3,0c-0.4-3.4-0.7-6.7-1.1-10.1
				C1249.5,938.4,1246.5,938.4,1246.7,940.3L1246.7,940.3z"/>
		</g>
	</g>
	<g>
		<g>
			<path class="st1" d="M1272.6,940.9c0.1,2.6,0.2,5.2,0.3,7.9c0.1,1.9,3.1,1.9,3,0c-0.1-2.6-0.2-5.2-0.3-7.9
				C1275.5,938.9,1272.5,938.9,1272.6,940.9L1272.6,940.9z"/>
		</g>
	</g>
	<g>
		<g>
			<path class="st1" d="M1226.8,954.3c0,3.9,0,7.8,0,11.8c0,1.9,3,1.9,3,0c0-3.9,0-7.8,0-11.8
				C1229.8,952.4,1226.8,952.4,1226.8,954.3L1226.8,954.3z"/>
		</g>
	</g>
	<g>
		<g>
			<path class="st1" d="M1198.3,952.7c0,3.2,0,6.4,0,9.5c0,1.9,3,1.9,3,0c0-3.2,0-6.4,0-9.5C1201.3,950.7,1198.3,950.7,1198.3,952.7
				L1198.3,952.7z"/>
		</g>
	</g>
	<g>
		<g>
			<path class="st1" d="M1140,969.5c-0.2,3.9,0,7.7,0.7,11.6c0.3,1.9,3.2,1.1,2.9-0.8c-0.6-3.6-0.8-7.2-0.6-10.8
				C1143.1,967.5,1140.1,967.5,1140,969.5L1140,969.5z"/>
		</g>
	</g>
	<g>
		<g>
			<path class="st1" d="M1160.7,970c0,3.4,0,6.7,0,10.1c0,1.9,3,1.9,3,0c0-3.4,0-6.7,0-10.1C1163.7,968.1,1160.7,968.1,1160.7,970
				L1160.7,970z"/>
		</g>
	</g>
	<g>
		<g>
			<path class="st1" d="M1185.5,971.5c0.5,2.7,0.6,5.3,0.4,8c-0.2,1.9,2.8,1.9,3,0c0.3-3,0.1-5.9-0.5-8.8
				C1188,968.8,1185.1,969.6,1185.5,971.5L1185.5,971.5z"/>
		</g>
	</g>
	<g>
		<g>
			<path class="st1" d="M1212.3,970c-0.3,2.8-0.1,5.5,0.4,8.3c0.4,1.9,3.3,1.1,2.9-0.8c-0.5-2.5-0.6-5-0.3-7.5
				C1215.5,968.1,1212.5,968.1,1212.3,970L1212.3,970z"/>
		</g>
	</g>
	<g>
		<g>
			<path class="st1" d="M1238.1,969.5c0,2.4,0,4.9,0,7.3c0,1.9,3,1.9,3,0c0-2.4,0-4.9,0-7.3C1241.1,967.5,1238.1,967.5,1238.1,969.5
				L1238.1,969.5z"/>
		</g>
	</g>
	<g>
		<g>
			<path class="st1" d="M1172.4,984.6c0.2,4.1,0.2,8.2-0.2,12.4c-0.2,1.9,2.8,1.9,3,0c0.4-4.1,0.5-8.2,0.2-12.4
				C1175.3,982.7,1172.3,982.7,1172.4,984.6L1172.4,984.6z"/>
		</g>
	</g>
	<g>
		<g>
			<path class="st1" d="M1179,984.6c0.3,4.3,0.4,8.6,0.2,12.9c-0.1,1.9,2.9,1.9,3,0c0.2-4.3,0.1-8.6-0.2-12.9
				C1181.8,982.7,1178.8,982.7,1179,984.6L1179,984.6z"/>
		</g>
	</g>
	<g>
		<g>
			<path class="st1" d="M1198.9,982.9c-0.2,5-0.5,10.1-0.7,15.1c-0.1,1.9,2.9,1.9,3,0c0.2-5,0.5-10.1,0.7-15.1
				C1202,981,1199,981,1198.9,982.9L1198.9,982.9z"/>
		</g>
	</g>
	<g>
		<g>
			<path class="st1" d="M1204,984c0.5,4.3,0.7,8.6,0.4,12.9c-0.1,1.9,2.9,1.9,3,0c0.3-4.3,0.1-8.6-0.4-12.9
				C1206.8,982.1,1203.8,982.1,1204,984L1204,984z"/>
		</g>
	</g>
	<g>
		<g>
			<path class="st1" d="M1226.9,983.5c-0.3,4.7-0.1,9.2,0.6,13.8c0.3,1.9,3.2,1.1,2.9-0.8c-0.6-4.3-0.7-8.7-0.5-13.1
				C1230,981.6,1227,981.6,1226.9,983.5L1226.9,983.5z"/>
		</g>
	</g>
	<g>
		<g>
			<path class="st1" d="M1252.5,983.5c0.4,3.9,0.8,7.8,1.2,11.8c0.2,1.9,3.2,1.9,3,0c-0.4-3.9-0.8-7.8-1.2-11.8
				C1255.3,981.6,1252.3,981.6,1252.5,983.5L1252.5,983.5z"/>
		</g>
	</g>
	<g>
		<g>
			<path class="st1" d="M1262.1,985.2c0.2,2.7,0.2,5.4-0.2,8c-0.3,1.9,2.6,2.7,2.9,0.8c0.5-2.9,0.6-5.9,0.3-8.8
				C1264.9,983.3,1261.9,983.2,1262.1,985.2L1262.1,985.2z"/>
		</g>
	</g>
	<g>
		<g>
			<path class="st1" d="M1127.6,1000.9c0,3.9,0,7.8,0,11.8c0,1.9,3,1.9,3,0c0-3.9,0-7.8,0-11.8
				C1130.6,998.9,1127.6,998.9,1127.6,1000.9L1127.6,1000.9z"/>
		</g>
	</g>
	<g>
		<g>
			<path class="st1" d="M1134.3,1000.3c0.4,4.1,0.7,8.2,1.1,12.3c0.2,1.9,3.2,1.9,3,0c-0.4-4.1-0.7-8.2-1.1-12.3
				C1137.2,998.4,1134.2,998.4,1134.3,1000.3L1134.3,1000.3z"/>
		</g>
	</g>
	<g>
		<g>
			<path class="st1" d="M1149.7,999.2c0.3,3.6,0.6,7.1,0.9,10.7c0.2,1.9,3.2,1.9,3,0c-0.3-3.6-0.6-7.1-0.9-10.7
				C1152.5,997.3,1149.5,997.2,1149.7,999.2L1149.7,999.2z"/>
		</g>
	</g>
	<g>
		<g>
			<path class="st1" d="M1164.2,999.8c0.5,4.1,1.1,8.2,1.6,12.3c0.3,1.9,3.3,1.9,3,0c-0.5-4.1-1.1-8.2-1.6-12.3
				C1167,997.9,1164,997.9,1164.2,999.8L1164.2,999.8z"/>
		</g>
	</g>
	<g>
		<g>
			<path class="st1" d="M1212.3,1000.3c0,4.9,0,9.7,0,14.6c0,1.9,3,1.9,3,0c0-4.9,0-9.7,0-14.6
				C1215.3,998.4,1212.3,998.4,1212.3,1000.3L1212.3,1000.3z"/>
		</g>
	</g>
	<g>
		<g>
			<path class="st1" d="M1235.8,999.2c0,4.1,0,8.2,0,12.3c0,1.9,3,1.9,3,0c0-4.1,0-8.2,0-12.3
				C1238.8,997.3,1235.8,997.2,1235.8,999.2L1235.8,999.2z"/>
		</g>
	</g>
	<g>
		<g>
			<path class="st1" d="M1145.6,1017c0.6,3.6,0.6,7.3-0.1,10.9c-0.3,1.9,2.5,2.7,2.9,0.8c0.8-4.2,0.8-8.3,0.1-12.5
				C1148.1,1014.3,1145.3,1015.1,1145.6,1017L1145.6,1017z"/>
		</g>
	</g>
	<g>
		<g>
			<path class="st1" d="M1152.9,1018.2c0.2,3.4,0.5,6.7,0.7,10.1c0.1,1.9,3.1,1.9,3,0c-0.2-3.4-0.5-6.7-0.7-10.1
				C1155.7,1016.3,1152.7,1016.3,1152.9,1018.2L1152.9,1018.2z"/>
		</g>
	</g>
	<g>
		<g>
			<path class="st1" d="M1181.5,1017.1c-0.2,4.1,0,8.1,0.7,12.2c0.3,1.9,3.2,1.1,2.9-0.8c-0.6-3.8-0.8-7.5-0.6-11.4
				C1184.6,1015.2,1181.6,1015.2,1181.5,1017.1L1181.5,1017.1z"/>
		</g>
	</g>
	<g>
		<g>
			<path class="st1" d="M1189.7,1017.7c0.2,3.4,0.4,6.7,0.7,10.1c0.1,1.9,3.1,1.9,3,0c-0.2-3.4-0.4-6.7-0.7-10.1
				C1192.6,1015.8,1189.6,1015.8,1189.7,1017.7L1189.7,1017.7z"/>
		</g>
	</g>
	<g>
		<g>
			<path class="st1" d="M1196.2,1018.2c0.2,2.4,0.4,4.9,0.7,7.3c0.2,1.9,3.2,1.9,3,0c-0.2-2.4-0.4-4.9-0.7-7.3
				C1199.1,1016.3,1196.1,1016.3,1196.2,1018.2L1196.2,1018.2z"/>
		</g>
	</g>
	<g>
		<g>
			<path class="st1" d="M1223,1016c0.3,4.1,0.6,8.2,0.9,12.4c0.1,1.9,3.1,1.9,3,0c-0.3-4.1-0.6-8.2-0.9-12.4
				C1225.8,1014.1,1222.8,1014.1,1223,1016L1223,1016z"/>
		</g>
	</g>
	<g>
		<g>
			<path class="st1" d="M1241.8,1016.6c0.2,3.4,0.4,6.7,0.7,10.1c0.1,1.9,3.1,1.9,3,0c-0.2-3.4-0.4-6.7-0.7-10.1
				C1244.7,1014.7,1241.7,1014.6,1241.8,1016.6L1241.8,1016.6z"/>
		</g>
	</g>
	<g>
		<g>
			<path class="st1" d="M1257,1016.7c-0.5,3.5-0.7,7-0.4,10.5c0.2,1.9,3.2,1.9,3,0c-0.3-3.3-0.2-6.5,0.3-9.7
				C1260.2,1015.6,1257.3,1014.8,1257,1016.7L1257,1016.7z"/>
		</g>
	</g>
	<g>
		<g>
			<path class="st1" d="M1126.5,1031c0.8,5.6,1.3,11.3,1.5,17c0.1,1.9,3.1,1.9,3,0c-0.2-6-0.7-11.9-1.6-17.8
				C1129.2,1028.3,1126.3,1029.1,1126.5,1031L1126.5,1031z"/>
		</g>
	</g>
	<g>
		<g>
			<path class="st1" d="M1135.6,1031.1c-0.5,5.1-0.2,10,0.9,15c0.4,1.9,3.3,1.1,2.9-0.8c-1-4.7-1.3-9.4-0.8-14.2
				C1138.8,1029.2,1135.8,1029.2,1135.6,1031.1L1135.6,1031.1z"/>
		</g>
	</g>
	<g>
		<g>
			<path class="st1" d="M1158.9,1030.6c0.5,4.8,0.7,9.7,0.7,14.6c0,1.9,3,1.9,3,0c0-4.9-0.2-9.7-0.7-14.6
				C1161.7,1028.7,1158.7,1028.7,1158.9,1030.6L1158.9,1030.6z"/>
		</g>
	</g>
	<g>
		<g>
			<path class="st1" d="M1200.4,1029.5c0.6,5.6,0.8,11.2,0.7,16.8c0,1.9,3,1.9,3,0c0.1-5.6-0.1-11.2-0.7-16.8
				C1203.2,1027.6,1200.2,1027.5,1200.4,1029.5L1200.4,1029.5z"/>
		</g>
	</g>
	<g>
		<g>
			<path class="st1" d="M1208.4,1032.3c-0.3,4.5,0.1,8.9,1.1,13.3c0.4,1.9,3.3,1.1,2.9-0.8c-0.9-4.1-1.3-8.3-1-12.5
				C1211.5,1030.3,1208.5,1030.3,1208.4,1032.3L1208.4,1032.3z"/>
		</g>
	</g>
	<g>
		<g>
			<path class="st1" d="M1217.4,1031.1c-0.3,5.1-0.1,10.1,0.5,15.1c0.2,1.9,3.2,1.9,3,0c-0.7-5-0.8-10.1-0.5-15.1
				C1220.5,1029.2,1217.5,1029.2,1217.4,1031.1L1217.4,1031.1z"/>
		</g>
	</g>
	<g>
		<g>
			<path class="st1" d="M1245.2,1031.7c0.2,4.3,0.5,8.6,0.7,12.9c0.1,1.9,3.1,1.9,3,0c-0.2-4.3-0.5-8.6-0.7-12.9
				C1248.1,1029.8,1245.1,1029.8,1245.2,1031.7L1245.2,1031.7z"/>
		</g>
	</g>
	<g>
		<g>
			<path class="st1" d="M1148.9,1050.2c0,5,0,10.1,0,15.1c0,1.9,3,1.9,3,0c0-5,0-10.1,0-15.1
				C1151.9,1048.3,1148.9,1048.3,1148.9,1050.2L1148.9,1050.2z"/>
		</g>
	</g>
	<g>
		<g>
			<path class="st1" d="M1171.5,1049.6c0.5,5.2,0.6,10.5,0.3,15.7c-0.1,1.9,2.9,1.9,3,0c0.3-5.2,0.2-10.5-0.3-15.7
				C1174.3,1047.7,1171.3,1047.7,1171.5,1049.6L1171.5,1049.6z"/>
		</g>
	</g>
	<g>
		<g>
			<path class="st1" d="M1185.4,1050.2c-0.3,4.7-0.1,9.4,0.4,14c0.2,1.9,3.2,1.9,3,0c-0.5-4.7-0.7-9.3-0.4-14
				C1188.5,1048.3,1185.5,1048.3,1185.4,1050.2L1185.4,1050.2z"/>
		</g>
	</g>
	<g>
		<g>
			<path class="st1" d="M1226.7,1050.2c0.2,4.9,0.5,9.7,0.7,14.6c0.1,1.9,3.1,1.9,3,0c-0.2-4.9-0.5-9.7-0.7-14.6
				C1229.6,1048.3,1226.6,1048.3,1226.7,1050.2L1226.7,1050.2z"/>
		</g>
	</g>
	<g>
		<g>
			<path class="st1" d="M1236.6,1052.3c0.7,4,0.6,8.1-0.1,12.1c-0.4,1.9,2.5,2.7,2.9,0.8c0.9-4.6,0.9-9.1,0.1-13.7
				C1239.1,1049.6,1236.2,1050.4,1236.6,1052.3L1236.6,1052.3z"/>
		</g>
	</g>
</g>
<g id="flying_coins">
	<g>
		<g>
			<path class="st1" d="M439.8,161.6c-1.9,11.7,3.3,22.7,10.2,31.8c7,9.2,16.5,16.7,28.2,18.4c1.9,0.3,2.7-2.6,0.8-2.9
				c-10.1-1.4-18.5-7.4-24.9-15.1c-7.1-8.6-13.3-19.8-11.4-31.3C443,160.5,440.1,159.7,439.8,161.6L439.8,161.6z"/>
		</g>
	</g>
	<g>
		<g>
			<path class="st1" d="M442.4,161.6c2.9-2.2,6.2-3.7,9.8-4.4c1.9-0.4,1.1-3.3-0.8-2.9c-4.1,0.8-7.8,2.6-11.1,5.1
				C438.8,160.7,440.9,162.8,442.4,161.6L442.4,161.6z"/>
		</g>
	</g>
	<g>
		<g>
			<path class="st1" d="M452.7,157.4c8.9,2.4,17,12.8,22.1,20c5.3,7.5,9.3,15.8,12,24.5c0.6,1.8,3.5,1.1,2.9-0.8
				c-3.1-10-7.8-19.5-14.2-27.8c-5.4-7.1-13.1-16.4-22-18.8C451.6,154,450.8,156.9,452.7,157.4L452.7,157.4z"/>
		</g>
	</g>
	<g>
		<g>
			<path class="st1" d="M478.8,212c3.8-1.9,7.2-4.6,9.9-8c1.2-1.5-0.9-3.6-2.1-2.1c-2.5,3.2-5.6,5.7-9.2,7.5
				C475.5,210.3,477.1,212.8,478.8,212L478.8,212z"/>
		</g>
	</g>
	<g>
		<g>
			<path class="st1" d="M447.1,157.6c-0.3,11.5,6.1,23,12.9,31.9c6.4,8.4,15.4,14.8,26.4,14.6c1.9,0,1.9-3,0-3
				c-11.1,0.2-19.7-7-25.7-15.7c-5.5-8.1-10.8-17.7-10.6-27.8C450.1,155.7,447.1,155.7,447.1,157.6L447.1,157.6z"/>
		</g>
	</g>
	<g>
		<g>
			<path class="st1" d="M443.9,175.3c1.5-1.8,3.3-3.2,5.4-4.3c1.7-0.8,0.2-3.4-1.5-2.6c-2.3,1.1-4.4,2.7-6,4.7
				C440.6,174.6,442.7,176.8,443.9,175.3L443.9,175.3z"/>
		</g>
	</g>
	<g>
		<g>
			<path class="st1" d="M442.3,168.5c1.9-1.4,3.8-2.4,6.1-3c1.9-0.5,1.1-3.4-0.8-2.9c-2.4,0.7-4.7,1.8-6.8,3.3
				C439.3,167,440.7,169.6,442.3,168.5L442.3,168.5z"/>
		</g>
	</g>
	<g>
		<g>
			<path class="st1" d="M452.9,193.8c2.1-1.7,4.3-3.4,6.4-5.1c1.5-1.2-0.6-3.3-2.1-2.1c-2.1,1.7-4.3,3.4-6.4,5.1
				C449.2,192.9,451.4,195,452.9,193.8L452.9,193.8z"/>
		</g>
	</g>
	<g>
		<g>
			<path class="st1" d="M458.9,200.4c1.7-1.3,3.4-2.6,5.1-3.9c0.6-0.5,1-1.3,0.5-2.1c-0.4-0.6-1.4-1-2.1-0.5
				c-1.7,1.3-3.4,2.6-5.1,3.9c-0.6,0.5-1,1.3-0.5,2.1C457.2,200.5,458.2,200.9,458.9,200.4L458.9,200.4z"/>
		</g>
	</g>
	<g>
		<g>
			<path class="st1" d="M469.5,207.9c1.7-1.7,3.5-3.3,5.2-5c1.4-1.3-0.7-3.5-2.1-2.1c-1.7,1.7-3.5,3.3-5.2,5
				C466,207.1,468.1,209.3,469.5,207.9L469.5,207.9z"/>
		</g>
	</g>
	<g>
		<g>
			<path class="st1" d="M453.2,163.8c1.9,1.7,3.7,3.5,5.6,5.2c-0.1-0.6-0.2-1.2-0.2-1.8c-2,3.2-3.1,7.3-0.4,10.5
				c0.9,1.1,2.3,2,3.8,2.3c0.7,0.1,1.3,0,2,0c0.5-0.1,0.9-0.3,1.4-0.4c5.5-0.9,6.5,1.2,2.9,6.2c-1.8,0.7-1,3.6,0.8,2.9
				c3.7-1.4,6.3-5.5,4.1-9.3c-1-1.8-3.1-3.1-5.1-3.2c-0.7-0.1-1.4,0.1-2.1,0.1c-2.4,1.3-4.5,0.3-6.3-2.8c0.1-1.7,0.6-3.2,1.6-4.5
				c0.3-0.5,0.2-1.4-0.2-1.8c-1.9-1.7-3.7-3.5-5.6-5.2C453.9,160.4,451.8,162.5,453.2,163.8L453.2,163.8z"/>
		</g>
	</g>
	<g>
		<g>
			<path class="st1" d="M470.7,187.9c1.7,2,3.3,3.9,5,5.9c1.2,1.5,3.4-0.7,2.1-2.1c-1.7-2-3.3-3.9-5-5.9
				C471.6,184.3,469.5,186.5,470.7,187.9L470.7,187.9z"/>
		</g>
	</g>
	<g>
		<g>
			<path class="st1" d="M537.5,141.3c-8.8-6.9-14.2-26.5-6.8-35.8c8.7-10.7,26-15.3,35.7-3.9c8.1,9.5,8.6,24.4,2.5,35.1
				c-3.7,6.5-9.1,9.6-16.6,9.7c-6.5,0.1-12.7-2.4-17.2-7.2c-1.3-1.4-3.4,0.7-2.1,2.1c7.3,7.8,20.4,10.7,30.1,5.7
				c10.1-5.3,13.9-19.7,12.7-30.2c-1.2-10.6-7.7-22-18.7-24.8c-10.6-2.7-26.3,4.9-31,14.8c-2.9,6.1-1.8,13.4-0.3,19.8
				c1.5,6.4,4.1,12.5,9.4,16.6C536.8,144.6,539,142.5,537.5,141.3L537.5,141.3z"/>
		</g>
	</g>
	<g>
		<g>
			<path class="st1" d="M545.9,103.7c0-0.1-0.1-0.3-0.1-0.4c-0.2,0.6-0.5,1.1-0.7,1.7c-0.9-0.3-1-0.2-0.4,0.6c0.6,1,1,2,1.4,3.1
				c0.3-0.6,0.7-1.2,1-1.8c-3.9,1.2-8.8,3.9-7.4,8.8c0.4,1.5,1.4,2.8,2.9,3.3c1.2,0.5,1.9,0,3.1-0.1c1.8-0.9,3.7-0.6,5.5,1
				c1.5,4.4,0.3,6.6-3.7,6.9c-1.2,0-1.8,1.3-1.3,2.3c0.9,1.7,1.6,3.4,2.2,5.2c0.6,1.8,3.5,1.1,2.9-0.8c-0.6-2.1-1.4-4-2.5-5.9
				c-0.4,0.8-0.9,1.5-1.3,2.3c4.8-0.1,9.4-4.6,7.4-9.6c-0.9-2.3-3-4.1-5.4-4.6c-1.4-0.3-2.6,0.3-3.9,0.3c-2.5,0-3.2-0.5-1.9-2.9
				c1.2-2.2,1.9-2.5,4.2-3.2c0.7-0.2,1.3-1.1,1-1.8c-0.7-2-1.4-4.8-3.4-5.8c-0.5-0.2-1.1-0.3-1.5,0c-0.1,0.1-0.3,0.2-0.4,0.3
				c-0.6,0.4-0.8,1-0.7,1.7c0,0.1,0.1,0.3,0.1,0.4C543.4,106.3,546.3,105.5,545.9,103.7L545.9,103.7z"/>
		</g>
	</g>
	<g>
		<g>
			<path class="st1" d="M555.3,95.2c15.2-3.9,23.1,12.5,23.4,25c0.1,5.7-0.4,12.1-3.8,16.9c-3.7,5.2-10.3,6.8-15.8,9.2
				c-1.8,0.8-0.2,3.4,1.5,2.6c6.6-2.9,13.8-4.8,17.7-11.5c3.7-6.4,4-14.9,3.1-22.1c-1.6-13.2-12.1-26.8-26.8-23
				C552.7,92.8,553.5,95.7,555.3,95.2L555.3,95.2z"/>
		</g>
	</g>
	<g>
		<g>
			<path class="st1" d="M572,135.7c1.4-0.3,2.8-0.6,4.2-0.9c1.9-0.4,1.1-3.3-0.8-2.9c-1.4,0.3-2.8,0.6-4.2,0.9
				C569.3,133.2,570.1,136.1,572,135.7L572,135.7z"/>
		</g>
	</g>
	<g>
		<g>
			<path class="st1" d="M575.6,124.2c1.6-0.5,3.2-1,4.7-1.6c1.8-0.6,1-3.5-0.8-2.9c-1.6,0.5-3.2,1-4.7,1.6
				C573,121.9,573.8,124.8,575.6,124.2L575.6,124.2z"/>
		</g>
	</g>
	<g>
		<g>
			<path class="st1" d="M574.6,115.3c1-0.2,2.1-0.4,3.1-0.6c0.8-0.1,1.2-1.1,1-1.8c-0.2-0.8-1-1.2-1.8-1c-1,0.2-2.1,0.4-3.1,0.6
				c-0.8,0.1-1.2,1.1-1,1.8C573,115.1,573.8,115.4,574.6,115.3L574.6,115.3z"/>
		</g>
	</g>
	<g>
		<g>
			<path class="st1" d="M568.6,102.7c1.9,0.3,3.7,0.2,5.5-0.4c1.8-0.6,1-3.5-0.8-2.9c-1.3,0.4-2.6,0.6-3.9,0.4
				c-0.8-0.1-1.6,0.2-1.8,1C567.3,101.5,567.8,102.6,568.6,102.7L568.6,102.7z"/>
		</g>
	</g>
	<g>
		<g>
			<path class="st1" d="M552,291.9c-13.1-3.8-21.6-16.6-21.8-30c-0.3-15.3,13-28.4,28.2-21.6c12.8,5.7,17.7,20.7,18.1,33.8
				c0.2,6.3-0.9,13.9-6.6,17.6c-5.9,3.9-13.6,2.4-19.9,0.4c-1.8-0.6-2.6,2.3-0.8,2.9c10.2,3.3,23.1,3.5,28.2-7.9
				c4.9-10.9,1.8-26.5-3.8-36.5c-5.6-10.1-17.6-17.9-29.5-14.4c-12.4,3.7-18,17.2-16.6,29.2c1.5,13.5,10.6,25.7,23.8,29.5
				C553.1,295.4,553.9,292.5,552,291.9L552,291.9z"/>
		</g>
	</g>
	<g>
		<g>
			<path class="st1" d="M545.4,247.6c2.5,2.7,4.3,5.5,5.6,8.9c0.6-0.6,1.2-1.2,1.8-1.8c-4.8-1-7.3,3.1-7,7.5
				c0.1,1.5,0.4,3.3,1.9,4.1c1.1,0.6,2.7,0.2,3.8,0.2c1.2-0.1,2.3-0.2,3.5-0.1c5.3,0.4,6,2.7,2.2,6.9c-1,0.1-2,1.2-1.3,2.3
				c1.8,2.8,3.5,5.7,4.9,8.7c0.8,1.7,3.4,0.2,2.6-1.5c-1.5-3-3.1-5.9-4.9-8.7c-0.4,0.8-0.9,1.5-1.3,2.3c4.2-0.5,7.7-4.4,5.5-8.7
				c-1-1.9-2.9-3.1-4.8-3.7c-1.5-0.5-3-0.5-4.5-0.5c-1.2,0.1-2.3,0.2-3.5,0.3c-1.9-2.3-1.2-4.3,2.2-6c1,0.2,2.3-0.7,1.8-1.8
				c-1.5-3.9-3.5-7.2-6.4-10.2C546.2,244.1,544.1,246.2,545.4,247.6L545.4,247.6z"/>
		</g>
	</g>
	<g>
		<g>
			<path class="st1" d="M535,240.9c-12.9,11.1-16.9,30.2-7.2,44.7c9.4,14.1,28.3,18.2,42.6,9c1.6-1,0.1-3.6-1.5-2.6
				c-13.4,8.6-31.1,4.5-39.3-9.2c-8-13.4-3.9-29.9,7.6-39.8C538.6,241.8,536.5,239.7,535,240.9L535,240.9z"/>
		</g>
	</g>
	<path class="st4" d="M543,239.6c-1.8,4-4.1,10.8-3.8,19.4c0.1,2.6,0.8,17.1,11.3,26.9c7.2,6.7,14.8,7.1,14.5,9.4
		c-0.4,2.5-9.8,4.5-18.3,2.4c-9.3-2.3-17.6-9.7-21.2-19.4c-0.9-2.5-4.5-12.5,0.5-23.4C531.1,244,541.1,240.2,543,239.6z"/>
	<path class="st5" d="M448.7,157.3c0.4,3.8,1.4,9.7,4,16.4c2.6,6.4,7.1,17.9,18.8,24.5c2.9,1.6,8.4,4.2,16.4,4.6
		c-0.7,1.4-2.4,4.1-5.6,6.2c-2.1,1.3-4,1.9-5.4,2.2c-4.1-1.2-10.3-3.6-16.7-8.3c-4.1-3.1-13.6-10.4-17.7-23.7
		c-2.3-7.5-2.1-14.3-1.3-19.4C443.6,158.9,446.1,158.1,448.7,157.3z"/>
	<path class="st4" d="M557,93c3,1.6,8.2,5,11.8,11.3c5.1,8.7,4,17.3,3.5,21.5c-0.5,3.8-1.2,9.4-5.4,14.8c-2.2,2.9-4.7,4.8-6.5,5.9
		c2.2-0.1,7.8-0.8,12.4-5.1c3.6-3.4,4.7-7.3,5.9-11.6c1.9-6.8,1.3-12.3,1.1-14.2c-0.8-5.8-2.9-9.9-3.5-11c-1.9-3.6-4.4-8.2-9.7-10.5
		C562.7,92.4,559,92.7,557,93z"/>
</g>
<g id="girl_and_the_piggie">
	<g id="leg_right">
		<path class="st1" d="M641.7,909.9c-2.9,22.2-5.8,44.4-8.7,66.7c-55.7,12.2-83.3,20.6-82.7,25.3c0.8,5.7,42.5,5.9,125.3,0.7
			c3.6-29.8,7.1-59.6,10.7-89.3C671.4,912.2,656.6,911,641.7,909.9z"/>
		<path class="st3" d="M762.7,524.6c1,9.7,2,25.8,0.2,45.6c-2.7,29.6-10.3,51.1-12.9,58.8c-21.3,62.4-31.6,144.3-36.4,183.1
			c-3.4,27.5-7.2,68.6-6.3,119.8c-5.6,3.1-24.2,12.6-48.6,8.7c-22.6-3.6-36.7-16.3-41.5-21c-2.5-76.9,4-138.5,10.8-181.6
			c7.2-46.2,17.5-93,29.3-140.2c7-28.2,14-56.3,21.1-84.5C706.4,517,734.6,520.8,762.7,524.6z"/>
		<path class="st6" d="M761.7,554.7c-3.3,13.1-8.6,32.7-15.8,56.1c-23.8,76.6-45.2,116.4-61.3,159c-14.4,38-30.4,93.8-35,168.2
			c5.3,1.7,12.8,3.4,21.8,3.3c16.5-0.2,28.9-6.3,35-9.9c0.7-49.2,3.9-90.5,7.3-122c2.7-25.4,5.4-50.2,11.9-83.1
			c7.8-39.6,11.7-59.4,19.8-82.5c5.5-15.4,12.1-31.1,15.2-55.4C762.1,574.4,762,562.7,761.7,554.7z"/>
		<path class="st7" d="M722.8,740.1c-7.3,17.9-14.3,36.6-21.1,56.1c-17.8,51.1-31.1,99.8-40.9,145.1c5.3,0.5,12,0.6,19.8-0.7
			c11.6-1.9,20.6-6,26.4-9.2c-0.5-19.9-0.3-40.8,0.7-62.7C709.7,821.4,715.4,778.3,722.8,740.1z"/>
	</g>
	<g id="leg_left">
		<path class="st1" d="M825,905.3c5.1,16.7,10.2,33.3,15.3,50c-39.9,28.2-58.6,44.7-56,49.3c3.3,5.9,40.4-7,111.3-38.7
			c-10.2-28.4-20.4-56.9-30.7-85.3C851.7,888.8,838.3,897,825,905.3z"/>
		<path class="st3" d="M802.9,503.6c4.2,8.8,10.7,23.6,15.8,42.8c7.6,28.7,7.7,51.5,7.9,59.6c1.2,66,19.5,146.5,28.1,184.5
			c6.1,27.1,16.6,66.9,34.9,114.8c-4.2,4.8-18.5,20-42.8,24.8c-22.5,4.4-40.1-2.8-46.1-5.6c-28.5-71.5-43.4-131.6-51.8-174.4
			c-9-45.9-15.2-93.4-20.3-141.8c-3-28.9-6-57.8-9-86.6C747.4,515.6,775.2,509.6,802.9,503.6z"/>
		<path class="st8" d="M752.4,515.1c13.5,56.5,26.9,113,40.2,169.5c19.2,81.5,38.1,163.1,56.7,244.7c4.5-0.9,10-2.5,15.8-5.3
			c11.7-5.6,19.4-13.3,23.7-18.5c-6.9-18.3-15.3-42.5-23.7-71.2c-16.3-55.5-24-99.5-27-118.1c-5.5-33.8-8.8-54.1-9.9-83.1
			c-0.7-19.6,0.2-29.3-2.6-49.5c-1.2-8.6-4.7-30.1-13.9-56.7c-3.4-9.8-6.7-17.9-9.2-23.7C785.9,507.2,769.2,511.2,752.4,515.1z"/>
		<path class="st5" d="M824.3,612.8c-0.3,74.7,5.6,158,22.4,247.4c4.2,22.3,8.8,43.8,13.9,64.6c3-0.9,6.4-2.1,9.9-4
			c8.9-4.6,14.9-10.7,18.5-15.2c-10.3-28.9-20.2-59.9-29-93C840.5,739.8,829.8,672.3,824.3,612.8z"/>
	</g>
	<g id="torso">
		<path class="st9" d="M690.1,294.7c-13.9,11.2-20,25.1-23.6,33.4c-11.3,25.9-8.9,49.6-7.5,62.2c3.6,32.3,14.7,37.6,20.2,68
			c2.9,16.3,4,37.8-2.3,64.6c4.3,3.8,37.4,32.1,81.3,23.6c25.9-5,42.5-20.3,49-27.1c2.3-64.5-1.4-117.7-5.8-156.8
			c-5.1-45.5-10.4-65-27.1-76.3C750.9,270.5,713.1,276.2,690.1,294.7z"/>
		<path class="st4" d="M737.3,275.7c6.3,12.6,14,30.2,20.4,52.1c16.2,55.5,12.9,101.4,11.2,117.4c-4.6,45-18.5,80.2-29.7,102.9
			c7,0.2,16.1-0.4,26.4-3.3c20.9-5.9,34.5-18.3,40.9-25.1c0.9-34.5,0.6-63.5,0-85.1c0,0-0.8-31.7-6.6-83.8c-4-36.2-6.8-48-16.5-58.1
			C769.2,278.1,748.6,275.9,737.3,275.7z"/>
		<path class="st8" d="M794.7,323.2c-1.7,0.1,0.4,25.6-2,73.2c-3.1,61.6-10.2,86.9-12.5,95c-6.8,23.2-15.5,41.2-21.8,52.8
			c5.4-0.4,12.6-1.5,20.4-4.6c14.8-5.9,24-15.7,28.4-21.1c0.6-19.9,0.9-49.1-0.7-84.4C803.9,376.9,797.1,323,794.7,323.2z"/>
	</g>
	<g id="piggie">
		<path class="st10" d="M669.6,365.2c-7.5,7.3-11.4,15.1-13.3,19.7c-4.5,10.8-4.6,20-4.6,24.9c0,13.2,3.6,22.7,7.5,33.3
			c2.8,7.4,7.3,17.6,14.8,28.9c1.6,0.5,4,1.1,6.9,1.2c2.8,0,5-0.4,6.7-0.9c-1-6.3-1.9-12.5-2.9-18.8c1.7,0.4,4.3,0.9,7.5,1.4
			c15.1,2.3,27.4,0.7,34.7-0.3c3.4-0.5,8.2-1.2,13.9-2.6c-0.5,3.8-1,7.5-1.4,11.3c5.5,3.1,7.9,1.9,8.7,1.4c1.6-1,1.8-2.8,3.8-9
			c0.9-2.9,1.8-5.2,2.3-6.7c2.2-0.9,4.4-1.7,6.7-2.6c-0.6,2.1-1.2,4.2-1.7,6.4c1.7,0.4,4.5,0.9,7.8,0.3c1.9-0.3,3.4-0.9,4.6-1.4
			c1.3-4.7,2.7-9.4,4-14.2c3.8-4.1,7.4-6,10.1-6.9c3-1.1,4-0.7,6.4-2c4.9-2.8,6.6-8.1,6.9-9.3c0.4-1.3,1.7-6.2-0.6-11
			c-1.3-2.7-2.2-2.3-4.9-6.4c-2.3-3.4-2.2-4.6-4.3-8.4c-1.1-1.8-2.8-4.5-5.5-7.5c1.9-5.6,3.6-8.2,4.9-9.5c0.3-0.3,1.2-1.2,1.2-2.3
			c0-1-0.9-1.9-2.3-2.9c-3.4-2.4-5.5-3.8-8.4-3.5c-3.7,0.5-5.9,3.4-6.4,4c-1.5-2.5-3.7-6-6.9-9.5c-10.1-11.1-22.2-15.3-27.5-16.8
			c-20.1-5.6-37.3,1.8-47.7,6.4C684.9,354.3,677.2,357.7,669.6,365.2z"/>
		<g>
			<g>
				<path d="M659.8,441.5c-6-16.2-8.4-34.1-3.4-50.9c4.8-15.9,15.5-28.5,30.6-35.4c15.2-7,33.6-12.1,50.1-7.9
					c14.4,3.7,26.8,13.1,34.1,26.1c0.9,1.7,3.5,0.2,2.6-1.5c-12.3-22-37.6-32.8-62-27.8c-13.8,2.8-28.8,7.7-39.7,16.8
					c-9.9,8.3-16.6,20.2-19.6,32.7c-3.8,16.3-1.4,33.2,4.4,48.7C657.6,444,660.5,443.3,659.8,441.5L659.8,441.5z"/>
			</g>
		</g>
		<g>
			<g>
				<path d="M745.8,402.9c-0.4-4.1-0.2-14.4,5.3-15.2c3.4-0.5,5.6,3.9,9.4,3.6c1.9-0.2,1.9-3.2,0-3c-2.6,0.3-4.4-2.4-6.7-3.4
					c-2.2-0.9-4.3-0.5-6.1,1c-4.6,3.8-5.3,11.5-4.8,17C743,404.8,746,404.8,745.8,402.9L745.8,402.9z"/>
			</g>
		</g>
		<g>
			<g>
				<path d="M758.3,388.8c5.7-2.4,9.4,3.8,4,6.8c-1.8,1-4,1.6-6,2.3c-4,1.4-8.1,2.8-12.1,4.2c-1.8,0.6-1,3.5,0.8,2.9
					c5.2-1.8,10.5-3.5,15.7-5.5c2.7-1,5.9-2.4,7.1-5.3c2.9-7.1-5.6-10.3-10.9-8C755.1,386.9,756.6,389.5,758.3,388.8L758.3,388.8z"
					/>
			</g>
		</g>
		<g>
			<g>
				<path d="M775.3,368.4c-2.7,1.6-5.8,4.1-5,7.7c0.3,1.5,1.3,2.6,2.7,3.3c2.1,1.1,4.2,1.7,6.2,3.2c1.5,1.2,3.6-0.9,2.1-2.1
					c-1.8-1.4-3.7-2.4-5.7-3.3c-1.5-0.7-2.8-1.4-2-3.3c0.6-1.4,2.1-2.2,3.3-2.9C778.5,370,777,367.4,775.3,368.4L775.3,368.4z"/>
			</g>
		</g>
		<g>
			<g>
				<path d="M773.2,378.5c-0.8,5.1,2.6,11,8.5,9.8c2.4-0.5,3.9-2.3,4.9-4.4c1.1-2.5,1.3-6,3.8-7.5c1.6-1,0.1-3.6-1.5-2.6
					c-2.6,1.6-3.4,4.2-4.3,6.9c-0.6,1.8-1.3,4-3.3,4.6c-3.6,1.1-5.7-3-5.2-6C776.3,377.4,773.4,376.5,773.2,378.5L773.2,378.5z"/>
			</g>
		</g>
		<g>
			<g>
				<path d="M775.4,372c4.3-4.7,10.1,0.1,13.2,3.5c1.3,1.4,3.4-0.7,2.1-2.1c-4.3-4.7-12-9.5-17.4-3.5
					C772,371.3,774.1,373.4,775.4,372L775.4,372z"/>
			</g>
		</g>
		<g>
			<g>
				<path d="M770.6,404.4C770.4,404.4,770.4,404.4,770.6,404.4C770.4,404.3,770.4,404.3,770.6,404.4c-0.1,0-0.2-0.1-0.2-0.2
					c0.1,0.1,0.1,0.1,0,0c-0.1-0.1-0.1-0.2,0-0.1c0,0.1,0,0.1,0-0.1c0-0.2,0-0.2,0,0c0-0.1,0-0.2,0-0.3c0,0.2,0,0.2,0,0
					c-0.1,0.2-0.1,0.2,0,0c-0.2,0.1,0.2,0-0.1,0.1c0.2-0.1,0.2-0.1,0,0c0.2,0,0.2,0,0,0c0.1,0,0.2,0,0.3,0c-0.1,0-0.2,0-0.1,0
					c0.1,0,0.1,0,0.2,0.1c-0.1-0.1-0.1,0,0,0c0.1,0.1,0.2,0.1,0,0c0.1,0.1,0.1,0.2,0,0.1c0-0.1,0-0.1,0,0.1c0-0.1,0-0.2,0-0.2
					c-0.1,0.2,0,0.2,0,0c-0.1,0.1-0.1,0.2,0,0c-0.1,0.1-0.1,0.1-0.2,0.2c0.2-0.2-0.2,0.1,0,0c-0.1,0-0.2,0.1-0.3,0.1
					c0.2,0,0.2,0,0,0c0.1,0.1,0.1,0,0,0c-1.6-1-3.2,1.6-1.5,2.6c1.6,1,3.7,0.3,4.6-1.3c1-1.8-0.1-3.9-2-4.4
					c-1.7-0.5-3.6,0.4-4.1,2.2c-0.4,1.7,0.6,3.6,2.4,4.1C771.7,407.8,772.5,404.9,770.6,404.4L770.6,404.4z"/>
			</g>
		</g>
		<g>
			<g>
				<path d="M784.5,395.8c0.2,0.1,0.4,0.2,0.5,0.4c-0.1-0.2,0.1,0.3,0,0.1c0-0.2,0,0.4,0,0.1c0-0.3-0.1,0.4,0,0c0.1-0.3-0.2,0.3,0,0
					c0.1-0.2-0.2,0.2-0.1,0.1c-0.2,0.2-0.4,0.3-0.7,0.2c-0.2-0.1-0.3-0.2-0.4-0.3c-0.1-0.1-0.1-0.1,0,0c0-0.1-0.1-0.1-0.1-0.2
					c0.1,0.3,0-0.4,0-0.1c0,0.3,0.1-0.3,0,0c-0.1,0.3,0.1-0.2,0-0.1c-0.1,0.2,0,0,0.1-0.1c-0.1,0.1-0.1,0.1,0,0
					c0.1-0.1,0.2-0.1,0.3-0.1C783.9,395.9,784.4,395.8,784.5,395.8c-0.8-0.2-1.7,0.2-1.8,1c-0.2,0.8,0.2,1.7,1,1.8
					c1.3,0.3,2.5-0.5,2.9-1.8c0.3-1.3-0.2-2.7-1.6-3.1c-1.3-0.4-2.6,0.6-2.9,1.8c-0.4,1.3,0.3,2.6,1.6,3.1c0.7,0.2,1.7-0.3,1.8-1
					C785.7,396.8,785.3,396.1,784.5,395.8L784.5,395.8z"/>
			</g>
		</g>
		<g>
			<g>
				<path d="M782.9,386.7c3.3,3.8,5.4,8.3,6.3,13.3c0.4,1.9,3.3,1.1,2.9-0.8c-1-5.5-3.5-10.4-7.1-14.6
					C783.7,383.1,781.6,385.3,782.9,386.7L782.9,386.7z"/>
			</g>
		</g>
		<g>
			<g>
				<path d="M790.2,401.9c1.3,1.2,2.9,2.1,4.7,2.5c1.9,0.4,2.7-2.5,0.8-2.9c-1.3-0.3-2.4-0.8-3.4-1.7
					C790.9,398.4,788.8,400.5,790.2,401.9L790.2,401.9z"/>
			</g>
		</g>
		<g>
			<g>
				<path d="M795.2,402.4c-7.1,0.7-13.2,4.8-15.7,11.7c-2.1,5.9-1.3,14.6,5.7,16.7c6.1,1.8,11.7-2.6,13.9-8.1
					c2.2-5.5,2.9-16.4-3.1-19.9c-1.7-1-3.2,1.6-1.5,2.6c4.1,2.4,3.3,11.5,2.1,15.3c-1.4,4.5-5.5,8.8-10.6,7.1
					c-5.9-2-5.2-10-2.9-14.5c2.4-4.6,7-7.2,12-7.8C797.1,405.2,797.2,402.2,795.2,402.4L795.2,402.4z"/>
			</g>
		</g>
		<g>
			<g>
				<path d="M787.8,418.6c0-0.2,0-0.4,0-0.6c0-0.8-0.7-1.5-1.5-1.5c-0.8,0-1.5,0.7-1.5,1.5c0,0.2,0,0.4,0,0.6c0,0.8,0.7,1.5,1.5,1.5
					C787.1,420.1,787.8,419.5,787.8,418.6L787.8,418.6z"/>
			</g>
		</g>
		<g>
			<g>
				<path d="M795.8,413.1c-0.2-0.2-0.4-0.4-0.5-0.6c-0.5-0.6-1.6-0.6-2.1,0c-0.6,0.6-0.6,1.5,0,2.1c0.2,0.2,0.4,0.4,0.5,0.6
					c0.5,0.6,1.6,0.6,2.1,0C796.4,414.6,796.3,413.7,795.8,413.1L795.8,413.1z"/>
			</g>
		</g>
		<g>
			<g>
				<path d="M762,416.5c1.9,2.1,5.3,1.6,6.9-0.6c0.5-0.7,0.1-1.7-0.5-2.1c-0.8-0.4-1.6-0.1-2.1,0.5c-0.5,0.7-1.7,0.5-2.2-0.1
					C762.9,412.9,760.7,415.1,762,416.5L762,416.5z"/>
			</g>
		</g>
		<g>
			<g>
				<path d="M765.3,416.8c2.2,6.4,9.6,9.5,15.7,6.6c1.7-0.8,0.2-3.4-1.5-2.6c-4.3,2-9.7-0.4-11.3-4.8
					C767.5,414.2,764.6,414.9,765.3,416.8L765.3,416.8z"/>
			</g>
		</g>
		<g>
			<g>
				<path d="M784.8,428.4c-3.4,2.7-6.9,5.4-10.3,8.1c-1.5,1.2,0.6,3.3,2.1,2.1c3.4-2.7,6.9-5.4,10.3-8.1
					C788.5,429.4,786.3,427.3,784.8,428.4L784.8,428.4z"/>
			</g>
		</g>
		<g>
			<g>
				<path d="M774,437.8c-1.8,4.6-3.2,9.3-4.2,14.1c-0.4,1.9,2.5,2.7,2.9,0.8c1-4.8,2.4-9.5,4.2-14.1
					C777.6,436.8,774.7,436,774,437.8L774,437.8z"/>
			</g>
		</g>
		<g>
			<g>
				<path d="M656.1,438.8c2.4,10,6.4,19.6,12.3,28.1c1.7,2.5,3.7,6,6.6,7.2c3.7,1.6,8.8,0.3,12.6-0.3c0.6-0.1,1.2-0.9,1.1-1.4
					c-0.6-6.3-1.6-12.5-2.9-18.7c-0.4-1.9-3.3-1.1-2.9,0.8c1.3,5.9,2.2,11.9,2.8,17.9c0.4-0.5,0.7-1,1.1-1.4
					c-4.3,0.7-9.2,1.8-12.7-1.4c-2.7-2.5-5-6.8-6.8-10c-3.9-6.8-6.6-14-8.4-21.6C658.5,436.1,655.6,436.9,656.1,438.8L656.1,438.8z"
					/>
			</g>
		</g>
		<g>
			<g>
				<path d="M685.5,454.9c9.5,2.1,19.2,3.1,28.9,2.9c8.2-0.2,19-0.4,26.2-4.6c1.7-1,0.2-3.6-1.5-2.6c-7.3,4.2-18.4,4.1-26.6,4.2
					c-8.8,0.1-17.6-0.9-26.3-2.8C684.4,451.6,683.6,454.5,685.5,454.9L685.5,454.9z"/>
			</g>
		</g>
		<g>
			<g>
				<path d="M739.6,447.3c-0.8,4.6-1.8,9.4-1.9,14.1c-0.1,3,1.5,4.6,4.5,4.7c2.5,0.1,7.5-0.1,9-2.3c1.2-1.9,1.5-5.2,2.1-7.3
					c0.7-2.4,1.5-4.9,2.2-7.3c0.6-1.9-2.3-2.6-2.9-0.8c-1.5,4.9-2.9,9.7-4.3,14.6c0.3-0.3,0.7-0.7,1-1c-1.7,0.5-3.7,1.2-5.5,1.1
					c-3-0.1-3.2-1.7-2.9-4.2c0.4-3.6,0.9-7.2,1.6-10.8C742.8,446.2,739.9,445.4,739.6,447.3L739.6,447.3z"/>
			</g>
		</g>
		<g>
			<g>
				<path d="M753.6,450.4c5-1.3,9.4-3.9,13-7.7c1.3-1.4-0.8-3.5-2.1-2.1c-3.2,3.4-7.1,5.7-11.7,6.9C751,448,751.7,450.9,753.6,450.4
					L753.6,450.4z"/>
			</g>
		</g>
		<g>
			<g>
				<path d="M758.5,446.3c-0.9,2.5-1.3,5-1.2,7.6c0,0.8,0.7,1.5,1.5,1.5c3.3,0,6.6-0.4,9.9-1c1.9-0.4,1.1-3.2-0.8-2.9
					c-3,0.6-6,0.8-9.1,0.9c0.5,0.5,1,1,1.5,1.5c-0.1-2.4,0.2-4.6,1-6.8C762.1,445.3,759.2,444.5,758.5,446.3L758.5,446.3z"/>
			</g>
		</g>
		<g>
			<g>
				<path d="M684.1,366.9c13-5.1,26.6-7.9,40.5-8.5c1.9-0.1,1.9-3.1,0-3c-14.2,0.5-28.1,3.4-41.3,8.6
					C681.5,364.7,682.3,367.6,684.1,366.9L684.1,366.9z"/>
			</g>
		</g>
		<g>
			<g>
				<path d="M684.8,363.3c-0.1-0.1-0.1-0.1-0.2-0.2c0.1,0.6,0.2,1.2,0.2,1.8c1.2-2.8,7.4-3.4,10-3.9c3.4-0.7,6.8-1.3,10.2-1.8
					c7.6-1.2,15.3-2,22.9-2.5c1.9-0.1,1.9-3.1,0-3c-8.9,0.6-17.7,1.6-26.5,3.1c-4.6,0.8-17,1.5-19.2,6.6c-0.3,0.6-0.3,1.3,0.2,1.8
					c0.1,0.1,0.1,0.1,0.2,0.2C684,366.7,686.2,364.6,684.8,363.3L684.8,363.3z"/>
			</g>
		</g>
		<path class="st11" d="M770.4,368.8c-0.4,10.9-3.8,16.6-7,19.7c-1.7,1.7-2.4,1.7-8.9,7c-9.2,7.4-9.8,9-10.1,10.1
			c-1.1,5.3,4.6,7.7,5,13.9c0.5,7.1-6.4,13.1-10.1,16.2c-18.5,15.9-56.1,12.6-62.3,12c1.4,8.4,2.8,16.8,4.3,25.1
			c1.8,0.5,4.3,0.9,5.4-0.4c1.1-1.2,0.4-3.2-0.4-7.3c-1.1-5.8-1.6-8.8-0.8-10.1c2.2-3.4,11.6-0.2,19.7,1.2c7.7,1.3,19,1.6,33.7-3.1
			c0.3,3.4,0.5,6.7,0.8,10.1c3.4,0,6.7,0,10.1,0c1.2-4.4,2.3-8.8,3.5-13.2c2.3-1.3,4.6-2.6,7-3.9c-0.5,2.6-1,5.2-1.5,7.7
			c3.6-0.1,7.2-0.3,10.8-0.4c0.1-2.9,0.9-8.9,5-14.7c1.5-2.1,4.2-5.8,8.9-7.7c3-1.2,3.9-0.5,7-1.9c1.4-0.6,5.2-2.7,7.7-7
			c2.4-4.1,3.8-10.7,0.8-15.1c-1.6-2.3-2.6-1.4-5.4-4.3c-3.1-3.2-2.4-4.9-6.2-12c-2.6-4.9-3.5-5.1-3.5-7c0.2-4.8,6.3-6.3,5.8-9.7
			c-0.5-4.1-9.9-5.7-10.4-5.8C775.6,367.8,772.5,368.3,770.4,368.8z"/>
		<path class="st4" d="M767.7,392c-0.4,2.2-1.4,5.9-4.3,9.3c-1.6,1.9-3.6,4.2-7,4.6c-3.7,0.5-6.6-1.7-7.3-2.3
			C755.4,399.7,761.5,395.9,767.7,392z"/>
	</g>
	<g id="hand_left">
		<path class="st10" d="M750.7,445.9c-2.1,1.2-3.7,3.8-3.5,6c0.5,4.7,9.6,6.9,9.3,7.9c-0.3,0.9-6.8-1.9-13.7,0.6
			c-1.1,0.4-4.7,1.7-5,4c-0.2,1.8,1.8,2.3,2.3,5.2c0.4,2-0.5,2.2-0.6,5.8c-0.1,2.4-0.1,3.9,0.8,5.4c1.2,1.9,2.6,1.5,3.7,3.3
			c1.3,2.1-0.4,3.4,0.6,6c1,2.7,3.9,4.4,6.2,5c2.6,0.7,4-0.2,4.8,0.8c1.2,1.5-1.6,4.1-0.6,6.6c0.9,2.2,4.2,2.8,5.4,2.9
			c8.3,0.6,15.6-18.4,16-19.5c3.1,0,6.8-0.3,10.8-1.3c9.3-2.4,15.2-7.7,22.4-14.1c3.7-3.3,8.3-7.5,13.1-14.1c6.5-9,9.4-17,12-24.1
			c2.2-6.2,5.4-15.6,6.4-28.2c0.9-13-1.1-22.7-2.9-31.2c-4.5-21-12.6-35.2-14.5-38.4c-0.3-0.5-6.3-8.3-18.3-23.9
			c-6.1-7.9-11.6-14.8-18.1-14.5c-0.7,0-2,0.1-3.5,1c-4.7,2.7-5.1,10.5-4.8,17.7c1.1,24.8,9.8,42.8,9.8,42.8
			c7.1,14.6,12.8,18.4,15.4,32c1.4,7.1,1.4,13.7,1.3,15c0,5.1-0.2,11.9-2.9,20.1c-1.5,4.3-4.8,14-14.1,21.8
			c-5.6,4.7-9.6,8.1-14.7,7.5c-7.1-0.8-13-8.8-19.9-8.9C753.1,445.1,751.9,445.2,750.7,445.9z"/>
		<g>
			<g>
				<path d="M783.5,296.2c25.2,15.6,44,40.7,51.7,69.4c8.6,32.1,2.8,65.3-16.4,92.4c-9.5,13.4-23.4,26.4-40.9,25.7
					c-1.9-0.1-1.9,2.9,0,3c14.9,0.6,27.4-8.1,36.9-18.8c10.8-12.2,19.2-27.3,23.6-43c9-32.3,2-68.2-16.6-95.9
					c-9.6-14.2-22.1-26.3-36.7-35.3C783.3,292.6,781.8,295.2,783.5,296.2L783.5,296.2z"/>
			</g>
		</g>
		<g>
			<g>
				<path d="M801.7,423.4c-5.4,12.9-13.9,26.4-28.8,28.9c-1.9,0.3-1.1,3.2,0.8,2.9c15.9-2.7,25-17.2,30.8-31
					C805.3,422.5,802.4,421.7,801.7,423.4L801.7,423.4z"/>
			</g>
		</g>
		<g>
			<g>
				<path d="M773.5,452.1c-6.8-1.2-18.6-13.5-25.5-6.7c-2.5,2.5-2.2,6.7-0.7,9.6c2.2,4.3,7,5.8,11.3,6.9c1.9,0.5,2.7-2.4,0.8-2.9
					c-3.8-0.9-8.4-2.1-9.8-6.3c-0.8-1.5-0.5-2.9,0.8-4c0.6-2.1,2-2.8,4.2-1.9c1.6,0.3,3.1,1,4.5,1.7c4.6,2.3,8.4,5.6,13.6,6.5
					C774.6,455.4,775.4,452.5,773.5,452.1L773.5,452.1z"/>
			</g>
		</g>
		<g>
			<g>
				<path d="M776.3,484.3c-3.3,4.8-6.5,9.7-9.8,14.5c-0.8,1.1-1.5,2.2-2.5,3.2c-0.9,1.1-2.1,1.9-3.5,2.4c-1.4-2.1-2.7-4.2-4.1-6.3
					c0.6-1.8,4.8-4.2,6.2-5.5c1.5-1.3-0.7-3.4-2.1-2.1c-2.9,2.6-8.2,5.5-8.4,9.9c-0.1,3.4,2.5,6.6,5.8,7.1c4.1,0.6,7.4-2.2,9.7-5.2
					c4.1-5.2,7.5-11,11.3-16.5C780,484.2,777.4,482.7,776.3,484.3L776.3,484.3z"/>
			</g>
		</g>
		<g>
			<g>
				<path d="M758.7,458.9c-5.8,1.7-11.7,0.3-17.5,1.3c-3,0.5-5.6,2.1-5.3,5.5c1,9.6,14.2,8.1,20.5,6.7c1.9-0.4,1.1-3.3-0.8-2.9
					c-2.9,0.7-5.9,1.3-8.9,1.1c-3.8-0.3-12-5.1-4.1-7.6c2.7-0.8,6.3-0.1,9-0.2c2.7,0,5.3-0.3,7.9-1.1
					C761.4,461.2,760.6,458.3,758.7,458.9L758.7,458.9z"/>
			</g>
		</g>
		<g>
			<g>
				<path d="M741,470c-4.4,3.1-4.8,10-0.6,13.5c5,4.1,12.6,1.5,17.7-1c1.7-0.9,0.2-3.5-1.5-2.6c-3.3,1.7-7.7,3.4-11.5,2.5
					c-4.3-0.9-6.6-7-2.5-9.8C744.1,471.5,742.6,468.9,741,470L741,470z"/>
			</g>
		</g>
		<g>
			<g>
				<path d="M742.8,484.3c-1.3,3.9,0.4,8.5,3.8,10.9c4.3,3,9.7,1.5,13.6-1.5c1.5-1.2,0-3.8-1.5-2.6c-2.8,2.1-6.6,3.9-9.9,1.9
					c-2.7-1.6-4-5-3-7.9C746.3,483.3,743.4,482.5,742.8,484.3L742.8,484.3z"/>
			</g>
		</g>
		<g>
			<g>
				<path d="M785.1,292.1c-12.8,18.2-8.4,41.5-0.2,60.5c10.3,23.9,27.7,47.9,22.4,75.3c-0.4,1.9,2.5,2.7,2.9,0.8
					c4.6-23.9-7.3-45.7-17.5-66.4c-10.3-20.9-20-47.4-5-68.7C788.8,292,786.2,290.5,785.1,292.1L785.1,292.1z"/>
			</g>
		</g>
		<g>
			<g>
				<path d="M804.5,395c-0.5,10.7-1.8,21.3-3.9,31.8c-0.4,1.9,2.5,2.7,2.9,0.8c2.1-10.8,3.5-21.6,4-32.6
					C807.6,393.1,804.6,393.1,804.5,395L804.5,395z"/>
			</g>
		</g>
		<path class="st11" d="M802.6,309.1c5,9.7,11,23.8,14.8,41.6c5,23.6,3.6,42.5,2.7,51c-2.1,19.6-3.9,36.5-16.6,53.2
			c-5.3,7.1-16.1,21.3-34,26c-12.2,3.1-24.5,1-26,5.8c-0.7,2.5,1.6,5.7,4,7.2c3.2,1.9,7.5,1.6,11.2-0.9c-3.6,2.5-5.3,6-4.5,8.5
			c0.7,2.2,3.2,3.4,4.9,3.6c8.2,1.1,16.4-17.8,17-19.2c3.2,0.1,8-0.1,13.4-1.8c11.2-3.4,18-10.9,25.5-19.2
			c3.1-3.4,8.7-9.8,13.9-19.2c13.3-24.3,12.2-48.7,11.6-57.7c-1.7-29.6-14.2-50-17.5-55C816.2,321.8,808.4,314.1,802.6,309.1z"/>
		<path class="st12" d="M841.1,394.5c-3.6,11.2-9.2,24.7-17.9,38.9c-15.1,24.7-33.2,40.9-46.1,50.6c3.3,0.2,8.3,0.1,13.9-1.3
			c19-5,29.1-21.6,33.1-28.2c5.2-8.6,7.2-15.8,10.7-28.2C838.5,413.3,840.2,402.2,841.1,394.5z"/>
	</g>
	<g id="hand_right">
		<path class="st10" d="M682.6,300c-1.6-1.9-14.7,6.6-23.6,13.3c-10.8,8.1-20.1,15.1-29,27.8c-11.8,16.8-15.4,33.1-16.6,39.8
			c-0.9,5.2-3.7,23.4,2.5,45.6c5.2,18.7,14,30,24.9,44c7,9.1,12.4,14.1,19.9,17.4c6.9,3.1,13.2,3.7,17.4,3.7
			c2.2,3.2,4.7,6.8,7.5,10.8c2.4,3.4,3.8,5.3,6.2,7.5c2.3,2.1,5.9,5.2,8.7,4.1c1.5-0.5,2.3-2.1,3.7-4.6c1.4-2.6,1.1-3.1,2.1-4.1
			c2.1-2.2,4.3-0.8,7.1-2.5c2.8-1.8,1.5-4.2,5-9.1c2.7-3.8,4.2-3.5,5-6.2c0.8-3-1-4-0.4-7.9c0.6-3.9,2.8-5.2,2.1-6.6
			c-0.8-1.5-3.9-0.9-8.3-0.8c-8,0.1-14.9-1.9-14.9-2.9c0-1.1,7.1-0.1,10.8-4.6c2.1-2.6,3-7,1.2-9.1c-2.1-2.6-7.6-1.3-14.5,0.4
			c-9.3,2.3-9.8,4.2-13.7,4.6c-12,1.1-22.8-16.1-26.5-22c-2-3.1-8.2-13.6-10.4-28.6c-2.2-15.1,0.7-27.6,2.9-36.9
			c0.6-2.7,0.4-1.4,4.6-15.8c7.4-25.6,6.9-25.5,8.7-29.9C672.4,309.6,684.2,301.8,682.6,300z"/>
		<g>
			<g>
				<path d="M679.9,299c-30.2,13.3-55.1,38.6-64.9,70.5c-10.7,34.5-2,70.4,20.4,98.3c10.8,13.4,25.3,24.5,43,25.5
					c1.9,0.1,1.9-2.9,0-3c-15.8-0.9-28.9-10.6-38.9-22.3c-10.8-12.7-19.5-28.3-23.4-44.5c-8-32.5,1.9-67.3,24-92.1
					c11.5-12.9,25.7-22.9,41.5-29.9C683.2,300.8,681.7,298.3,679.9,299L679.9,299z"/>
			</g>
		</g>
		<g>
			<g>
				<path d="M651.4,428c6.2,15.4,16.2,30.1,33.2,34.3c1.9,0.5,2.7-2.4,0.8-2.9c-15.9-3.9-25.3-17.8-31.1-32.2
					C653.6,425.5,650.7,426.2,651.4,428L651.4,428z"/>
			</g>
		</g>
		<g>
			<g>
				<path d="M685.2,462.1c6-0.4,10.8-3.4,16.4-5.2c3.7-1.2,10-2.5,10.7,2.6c0.9,6.2-7,7.5-11.5,8c-1.9,0.2-1.9,3.2,0,3
					c4.5-0.5,9.5-1.2,12.6-4.8c2.4-2.9,3.2-7.4,0.6-10.4c-6.9-8-21.1,3.3-28.8,3.8C683.3,459.3,683.3,462.3,685.2,462.1L685.2,462.1
					z"/>
			</g>
		</g>
		<g>
			<g>
				<path d="M677.3,492.5c3.9,5.8,7.5,12,11.8,17.5c2.6,3.4,6.1,6.6,10.7,6.3c3.4-0.3,6.6-2.9,6.6-6.5c0.1-4.7-5.9-8.3-8.9-11
					c-1.4-1.3-3.6,0.8-2.1,2.1c1.7,1.5,5.9,4.2,6.7,6.2c0.1,1.7,0.1,3.3,0.2,5c-3.1,1.5-5.7,1.3-7.7-0.6c-1.6-1.2-2.7-2.6-3.9-4.3
					c-3.8-5.3-7.2-10.8-10.8-16.2C678.8,489.3,676.2,490.8,677.3,492.5L677.3,492.5z"/>
			</g>
		</g>
		<g>
			<g>
				<path d="M700.3,470.3c5.7,2.1,11.7,1.8,17.6,2.8c1,0.1,2,0.3,3,0.6c0.5,1.5,1,3,1.4,4.5c-0.4,1.8-6,2.3-7.2,2.3
					c-3.8,0.1-7.5-1.1-11.1-2.1c-1.9-0.5-2.6,2.3-0.8,2.9c5.8,1.7,22.7,5.5,23.3-5.1c0.2-3.7-3.4-5.1-6.4-5.7
					c-6.3-1.3-12.9-0.8-19-3C699.3,466.8,698.5,469.7,700.3,470.3L700.3,470.3z"/>
			</g>
		</g>
		<g>
			<g>
				<path d="M719,483.1c2.1,1.6,2.8,4.5,1.5,6.7c-1.3,2.2-3.8,2.8-6.2,2.8c-4.1-0.1-8.2-2-11.8-3.9c-1.7-0.9-3.2,1.7-1.5,2.6
					c5.5,3,14.2,6.8,20.1,2.5c4.6-3.4,3.8-10.1-0.5-13.3C718.9,479.3,717.4,481.9,719,483.1L719,483.1z"/>
			</g>
		</g>
		<g>
			<g>
				<path d="M714.8,495.4c1,3.4-1.3,6.9-4.7,7.8c-3.7,1-7.4-0.9-10.2-3.1c-1.5-1.2-3.6,0.9-2.1,2.1c4,3.2,9.3,5.5,14.4,3.4
					c4.3-1.8,7-6.5,5.6-11C717.2,492.7,714.3,493.5,714.8,495.4L714.8,495.4z"/>
			</g>
		</g>
		<path class="st12" d="M663,310.4c-5.8,8.3-13.1,20.3-19.2,35.8c-9.9,25.2-11.3,46.4-11.6,54.1c-0.9,22.1-1.4,35,6.3,48.8
			c9.8,17.6,27.3,26.3,49.2,37.1c11.2,5.5,20.8,9.1,27.3,11.2c0,0.6,0,4.9-3.1,7.2c-3.4,2.4-9.3,1.5-13-3.1c4.8,3.1,7,7.3,5.8,9.8
			c-1,2.3-4.9,3.5-8.1,2.7c-6.2-1.7-5.6-10.4-14.8-18.8c-2.1-1.9-4-3.2-5.4-4c-5.9-0.6-16-2.6-26-9.4c-1.8-1.2-8.6-6.1-17.9-20.1
			c-5.9-8.9-13.2-20-17.5-36.7c-1.4-5.4-8.2-34.2,4.9-65.3c1.3-3.2,4.7-10.6,10.7-19.2C641.8,324.7,654.7,315.4,663,310.4z"/>
	</g>
	<g id="head">
		<path class="st10" d="M669.4,148.9c-11,7.8-14.5,18.9-21.3,40.8c-8.6,27.6-14.8,47.5-4.2,63c10.5,15.2,33.6,20.6,57.5,16.7
			c1.5,0.6,3.6,1.7,5.1,3.7c2,2.7,1.7,5.4,2.3,9.7c0.8,5.7,1.4,10.5,4.2,12.5c4.6,3.4,14.3-1.3,19.9-5.6c8.7-6.6,12.4-15.4,13.9-19
			c15.5-38.3,23.2-57.4,19-75.5c-1.2-5.1-5.1-21-19-34.3C726.5,141.7,691,133.6,669.4,148.9z"/>
		<g>
			<g>
				<path class="st1" d="M654.2,171.8c-12.2,25.6-7.8,63.4,13.2,83.6c18,17.2,48.4,15.6,65-2.6c1.3-1.4-0.8-3.6-2.1-2.1
					c-16,17.5-45.2,18.6-61.9,1.5c-19-19.4-23.1-54.8-11.7-78.8C657.6,171.6,655,170.1,654.2,171.8L654.2,171.8z"/>
			</g>
		</g>
		<g>
			<g>
				<path class="st1" d="M704.9,265.7c-0.1,10.4,2.1,20.4,6.4,29.9c0.8,1.8,3.4,0.2,2.6-1.5c-4.1-9-6.1-18.5-6-28.4
					C707.9,263.8,704.9,263.8,704.9,265.7L704.9,265.7z"/>
			</g>
		</g>
		<g>
			<g>
				<path class="st1" d="M711.2,296.3c10,5.8,22.7-3.1,29.9-9.8c1.4-1.3-0.7-3.4-2.1-2.1c-6,5.6-17.8,14.3-26.2,9.4
					C711,292.8,709.5,295.4,711.2,296.3L711.2,296.3z"/>
			</g>
		</g>
		<g>
			<g>
				<path class="st1" d="M670.6,223.6c15.4,9.8,36.2-3.6,43.8-17.4c0.9-1.7-1.7-3.2-2.6-1.5c-6.8,12.4-25.7,25.2-39.7,16.3
					C670.5,220,669,222.6,670.6,223.6L670.6,223.6z"/>
			</g>
		</g>
		<g>
			<g>
				<path class="st1" d="M708.2,203.6c2.6,1.3,4.6,3.4,5.4,6.2c0.6,1.8,3.5,1.1,2.9-0.8c-1.1-3.5-3.5-6.4-6.8-8
					C708,200.2,706.5,202.8,708.2,203.6L708.2,203.6z"/>
			</g>
		</g>
		<g>
			<g>
				<path class="st1" d="M680.3,167.9c-3.7,10.4-8.2,20.5-13.6,30.1c-0.9,1.7,1.6,3.2,2.6,1.5c5.5-9.9,10.1-20.2,13.9-30.9
					C683.8,166.9,680.9,166.1,680.3,167.9L680.3,167.9z"/>
			</g>
		</g>
		<g>
			<g>
				<path class="st1" d="M667.1,200.7c3.1,4.3,8,6.8,13.3,6.4c1.9-0.1,1.9-3.1,0-3c-4.2,0.3-8.2-1.5-10.7-4.9
					C668.6,197.6,666,199.1,667.1,200.7L667.1,200.7z"/>
			</g>
		</g>
		<g>
			<g>
				<path class="st1" d="M666.8,185c-0.3-2.3,0-4.6,0.9-6.7c-1,0-1.9,0-2.9,0c0.8,2.7,0.4,5.4-1.1,7.8c0.9,0.1,1.8,0.2,2.7,0.4
					c-0.4-1.9-0.3-3.8,0.3-5.7c0.6-1.8-2.3-2.6-2.9-0.8c-0.8,2.4-0.9,4.8-0.3,7.3c0.3,1.3,2.1,1.4,2.7,0.4c1.9-3,2.4-6.7,1.4-10.1
					c-0.4-1.5-2.4-1.3-2.9,0c-1.1,2.7-1.3,5.5-0.9,8.3C664.2,187.7,667,186.9,666.8,185L666.8,185z"/>
			</g>
		</g>
		<g>
			<g>
				<path class="st1" d="M705.1,178.7c-1-2.5-0.6-5.1,1.3-6.9c-0.8-0.2-1.7-0.4-2.5-0.7c0.7,2.9,0.3,5.7-1.2,8.3
					c0.9,0.1,1.8,0.2,2.7,0.4c-0.4-1.9-0.2-3.6,0.4-5.4c0.6-1.8-2.3-2.6-2.9-0.8c-0.8,2.3-0.9,4.6-0.4,7c0.3,1.3,2.1,1.4,2.7,0.4
					c1.9-3.3,2.4-7,1.5-10.6c-0.3-1.1-1.7-1.4-2.5-0.7c-2.6,2.6-3.5,6.5-2.1,9.9C703,181.3,705.9,180.5,705.1,178.7L705.1,178.7z"/>
			</g>
		</g>
		<g>
			<g>
				<path class="st1" d="M661.7,169.1c1.7-3.7,6.4-5,9.6-2.6c1.6,1.1,3.1-1.5,1.5-2.6c-4.5-3.3-11.5-1.4-13.7,3.7
					C658.3,169.4,660.9,170.9,661.7,169.1L661.7,169.1z"/>
			</g>
		</g>
		<g>
			<g>
				<path class="st1" d="M654.7,193.2c-0.2,0.2-0.4,0.4-0.6,0.6c-0.6,0.6-0.6,1.5,0,2.1c0.6,0.6,1.5,0.6,2.1,0
					c0.2-0.2,0.4-0.4,0.6-0.6c0.6-0.6,0.6-1.5,0-2.1C656.2,192.6,655.3,192.6,654.7,193.2L654.7,193.2z"/>
			</g>
		</g>
		<g>
			<g>
				<path class="st1" d="M663.5,192.8C663.5,192.8,663.5,192.7,663.5,192.8c0,0.2,0.1,0.4,0.2,0.7c0,0,0,0,0-0.1
					c-0.1,0.3-0.1,0.5-0.2,0.8c-0.7,0.8-1.4,0.8-2.1,0c-0.1-0.3-0.1-0.5-0.2-0.8c0,0,0,0,0,0.1c0.1-0.3,0.1-0.5,0.2-0.8
					c0,0,0,0,0,0.1c-0.3,0.7-0.2,1.6,0.5,2.1c0.6,0.4,1.7,0.2,2.1-0.5c0.3-0.7,0.3-1.4-0.2-2c-0.3-0.3-0.8-0.5-1.3-0.5
					c-0.5,0-1,0.2-1.3,0.5c-0.6,0.6-0.5,1.3-0.2,2c0.3,0.7,1.4,0.9,2.1,0.5C663.7,194.4,663.8,193.5,663.5,192.8L663.5,192.8z"/>
			</g>
		</g>
		<g>
			<g>
				<path class="st1" d="M658.3,203.3c0.1,0,0.3,0,0.4,0c1.9,0,1.9-3,0-3c-0.1,0-0.3,0-0.4,0C656.4,200.3,656.4,203.3,658.3,203.3
					c0.1,0,0.3,0,0.4,0c1.9,0,1.9-3,0-3c-0.1,0-0.3,0-0.4,0C656.4,200.3,656.4,203.3,658.3,203.3L658.3,203.3z"/>
			</g>
		</g>
		<g>
			<g>
				<path class="st1" d="M701.5,188.5c0-0.2,0-0.4-0.1-0.6c-0.1-0.8-0.6-1.5-1.5-1.5c-0.7,0-1.6,0.7-1.5,1.5c0,0.2,0,0.4,0.1,0.6
					c0.1,0.8,0.6,1.5,1.5,1.5C700.7,190,701.6,189.4,701.5,188.5L701.5,188.5z"/>
			</g>
		</g>
		<g>
			<g>
				<path class="st1" d="M708.3,186.9c0.2,0,0.4,0,0.6,0c0.8,0,1.5-0.7,1.5-1.5c0-0.8-0.7-1.5-1.5-1.5c-0.2,0-0.4,0-0.6,0
					c-0.8,0-1.5,0.7-1.5,1.5C706.8,186.2,707.4,186.9,708.3,186.9L708.3,186.9z"/>
			</g>
		</g>
		<g>
			<g>
				<path class="st1" d="M704.9,192.3c0,0.2,0,0.4,0,0.6c0,0.8,0.7,1.5,1.5,1.5c0.8,0,1.5-0.7,1.5-1.5c0-0.2,0-0.4,0-0.6
					c0-0.8-0.7-1.5-1.5-1.5C705.6,190.9,704.9,191.5,704.9,192.3L704.9,192.3z"/>
			</g>
		</g>
		<g>
			<g>
				<path class="st1" d="M698.7,162.8c4.6-2.2,10.1-1.6,14.1,1.7c1.5,1.2,3.6-0.9,2.1-2.1c-5.1-4.2-11.8-5-17.7-2.1
					C695.4,161.1,697,163.7,698.7,162.8L698.7,162.8z"/>
			</g>
		</g>
		<g>
			<g>
				<path class="st1" d="M743.1,178.5c1.2-1.2,2.4-2.3,3.7-3.5c0.8,0.1,1.6,0.2,2.4,0.3c1.8,0.4,3.2,1.3,4.5,2.4
					c2.9,2.5,4.4,6.1,4.7,9.9c0.6,6.3-1.9,14.7-9.5,14.5c-1.9,0-1.9,3,0,3c12.6,0.3,15.1-16.4,10.3-25.2c-2.4-4.5-7.2-8-12.5-7.9
					c-4.1,0.1-8.3,2.8-6.6,7.3C740.9,181,743.8,180.3,743.1,178.5L743.1,178.5z"/>
			</g>
		</g>
		<path class="st2" d="M673.4,133.7c-2,0.5-9.1,2.3-17.5,9c-18.1,14.6-23.4,37.6-25.1,45.2c-3.3,15,0.2,15.5-3.6,27.7
			c-5.2,16.8-12.6,18.4-18.3,33.1c-1.9,4.8-10.2,26.2-0.4,43.9c10,18,33.7,23.2,50.1,21.5c18.9-1.9,40.5-14.3,45.6-33.6
			c1.4-5.2,1.3-10,0.9-13.5c-4.7,0.3-13.2,0.3-22.8-3.5c-2.5-1-11.9-5-20.1-14.8c-7-8.3-9.5-16.4-11.3-22.3
			c-1.7-5.8-5.5-19-1.7-35.5c3.5-15,11.3-24.5,12.9-26.4c9.7-11.4,21.1-16.1,26.5-17.9c4.8,6.2,9.5,10.8,13,13.9
			c7.6,6.7,15.7,13.8,27.7,16.1c4.5,0.9,8.2,0.9,10.6,0.7c0.6-0.9,2.4-3.2,5.6-4.1c5.3-1.5,9.8,2.5,10.6,3.2
			c3.1,2.7,3.9,6.1,4.5,8.2c0.4,1.5,1.6,6.6-0.8,12c-0.6,1.3-1.5,3.2-3.4,4.8c-3.6,3.1-8.1,2.9-9.4,2.8c-3.7,4-8.8,10.6-12.7,19.7
			c-6.4,15-5.6,28.2-5.4,31.8c0.7,9,1.9,25.6,15.2,36.7c16.7,14,39,7.9,41.6,7.2c25.8-7.4,34.2-33.7,34.9-36.2
			c7.1-23.7-5.2-44.5-11.2-54.6c-8.3-14.1-12.4-12.5-30.9-33.1c-27.1-30.2-27.3-43.6-43.4-49.7c-8.6-3.2-23-4.9-46.1,7.2
			C685.6,132.7,679.9,132.2,673.4,133.7z"/>
		<g>
			<g>
				<path class="st1" d="M706.9,268.8c5.9-0.7,12.1-4.8,16.8-8.3c1.5-1.1,0-3.7-1.5-2.6c-2.2,1.7-4.6,3.1-7.1,4.4
					c-2.6,1.4-5.3,3.1-8.3,3.5C705,266,705,269,706.9,268.8L706.9,268.8z"/>
			</g>
		</g>
		<g>
			<g>
				<path class="st1" d="M707.8,270.1c3.8-0.6,7.2-2.8,10.5-4.7c3.2-1.9,6.1-4,8.7-6.7c1.3-1.4-0.8-3.5-2.1-2.1
					c-4.3,4.6-11.6,9.6-17.9,10.7C705.1,267.6,705.9,270.5,707.8,270.1L707.8,270.1z"/>
			</g>
		</g>
		<path class="st13" d="M769.8,167.6c5.9,9.9,13.8,24.9,20.1,44.5c7.7,23.9,12.3,37.8,4.7,48.7c-7.5,10.8-24.6,15.1-38.9,10.3
			c-14.3-4.8-24.4-18.1-25.3-33.7c-1.3,5.7-2.7,15.4-0.5,27.1c1.5,7.7,3.4,17.5,11.7,25.7c9.9,9.8,22.5,10.8,27.1,11.2
			c4.7,0.4,17.1,0.7,29.5-7c12.3-7.6,17.2-18.5,19.2-22.9c5.5-12.4,4.7-23.4,4.2-29c-1.3-15.8-8.1-26.8-11.2-31.8
			c-1.3-2.1-4.3-6.7-18.7-21.5C782.8,179.9,775.2,172.5,769.8,167.6z"/>
		<path class="st5" d="M610.7,245.7c-1.2,4.1-3,12.9,0.5,22.5c5.7,15.7,23.5,27,41.7,24.3c14.9-2.2,27.4-13.4,31.8-28.6
			c7,0.9,14,1.9,21.1,2.8c0.2,3.4,0,8.6-1.9,14.5c-3.4,10.8-10.2,17.1-13.1,19.7c-13.3,11.9-29.3,12.8-35.6,13.1
			c-8.3,0.4-21.8,1.2-34.2-8c-10.4-7.6-14.3-17.9-15.4-21.5C599.2,265.1,609.1,248.4,610.7,245.7z"/>
		<path class="st5" d="M735.2,204.1c-3.8,13.6-8.9,31.9-20.6,42.6c-5,4.6-16.9,12.9-41.7,11.2c3,2.1,9.7,6.1,19.2,7
			c9.5,0.9,16.8-1.8,20.1-3.3c3.7,11.1,7.5,22.2,11.2,33.2c5.3-3,10.6-5.9,15.9-8.9c-3.6-5.6-10.4-17.9-10.8-34.6
			c-0.6-27.4,16.5-45.5,20.1-49.1c1.4-0.2,6.3-1.3,9.4-5.6c4.1-5.8,2.4-14.2-2.3-18.7c-0.9-0.9-4.9-4.7-8.9-3.7
			C740.4,175.6,739.6,188.1,735.2,204.1z"/>
	</g>
</g>
</svg>
