<?xml version="1.0" encoding="utf-8"?>
<!-- Generator: Adobe Illustrator 19.0.0, SVG Export Plug-In . SVG Version: 6.00 Build 0)  -->
<svg version="1.1" xmlns="http://www.w3.org/2000/svg" xmlns:xlink="http://www.w3.org/1999/xlink" x="0px" y="0px"
	 viewBox="0 0 1600 1200" style="enable-background:new 0 0 1600 1200;" xml:space="preserve">
<style type="text/css">
	.st0{fill:#161616;}
	.st1{fill:#E8E8E8;}
	.st2{fill:#191919;}
	.st3{fill:#FFFFFF;stroke:#191919;stroke-width:2;stroke-miterlimit:10;}
	.st4{opacity:9.000000e-002;fill:#6C6D6D;}
	.st5{opacity:0.22;fill:#6C6D6D;}
	.st6{opacity:0.17;fill:#6C6D6D;}
	.st7{opacity:0.25;fill:#6C6D6D;}
	.st8{opacity:0.29;fill:#6C6D6D;}
	.st9{fill:#EC615B;}
	.st10{opacity:0.19;fill:#6C6D6D;}
	.st11{opacity:0.18;fill:#6C6D6D;}
	.st12{fill:#161616;stroke:#161616;stroke-width:2;stroke-miterlimit:10;}
	.st13{fill:#FFFFFF;stroke:#161616;stroke-width:2;stroke-miterlimit:10;}
	.st14{fill:#4F4F4F;}
	.st15{fill:#5222D0;}
	.st16{fill:#321693;}
</style>
<g id="ground">
	<g>
		<g>
			<path class="st0" d="M303.7,885.1c5.8,0.5,11.6,1.1,17.4,1.6c1.9,0.2,1.9-2.8,0-3c-5.8-0.5-11.6-1.1-17.4-1.6
				C301.8,881.9,301.8,884.9,303.7,885.1L303.7,885.1z"/>
		</g>
	</g>
	<g>
		<g>
			<path class="st0" d="M226.2,889.9c14.4,0,28.8,0,43.2,0c3.9,0,3.9-6,0-6c-14.4,0-28.8,0-43.2,0
				C222.4,883.9,222.4,889.9,226.2,889.9L226.2,889.9z"/>
		</g>
	</g>
	<g>
		<g>
			<path class="st0" d="M301.3,887.6c34.9,0,69.7,0,104.6,0c3.9,0,3.9-6,0-6c-34.9,0-69.7,0-104.6,0
				C297.4,881.6,297.4,887.6,301.3,887.6L301.3,887.6z"/>
		</g>
	</g>
	<g>
		<g>
			<path class="st0" d="M398.1,888.6c17.6-1.9,31.9,10.9,41.7,24.1c9.3,12.4,17,26.4,29.2,36.3c12.7,10.3,28.8,13.4,44.7,14.7
				c19.7,1.6,39.5,2.1,59.3,2.1c22.8,0,45.5-1,68.2-2.8c3.8-0.3,3.9-6.3,0-6c-40.1,3.2-80.5,3.7-120.7,1.2
				c-17.6-1.1-36-3.2-49.7-15.4c-12-10.6-19.3-25.2-29.3-37.4c-10.6-13-25.9-24.7-43.6-22.7C394.4,883,394.3,889,398.1,888.6
				L398.1,888.6z"/>
		</g>
	</g>
	<g>
		<g>
			<path class="st0" d="M678.7,957.1c18.5-0.1,33.5,12.5,43.5,27.1c10.5,15.3,18,32.8,26.3,49.3c7.2,14.3,13.8,29.7,30.1,35.2
				c7.5,2.6,15.7,2.9,23.6,3c10,0.2,20,0,30-0.4c3.8-0.1,3.9-6.1,0-6c-10,0.4-20,0.5-30,0.4c-8.6-0.1-17.8-0.4-25.7-4.3
				c-7.9-3.9-12.5-11.2-16.5-18.8c-4.6-8.7-8.9-17.5-13.3-26.3c-14-27.8-31.2-65.4-67.8-65.3C674.8,951.1,674.8,957.1,678.7,957.1
				L678.7,957.1z"/>
		</g>
	</g>
	<g>
		<g>
			<path class="st0" d="M864,1069.5c35.2,0,70.5,0,105.7,0c3.9,0,3.9-6,0-6c-35.2,0-70.5,0-105.7,0
				C860.2,1063.5,860.2,1069.5,864,1069.5L864,1069.5z"/>
		</g>
	</g>
	<g>
		<g>
			<path class="st0" d="M1002.7,1067.2c22.7,0,45.5,0,68.2,0c3.9,0,3.9-6,0-6c-22.7,0-45.5,0-68.2,0
				C998.9,1061.2,998.9,1067.2,1002.7,1067.2L1002.7,1067.2z"/>
		</g>
	</g>
	<g>
		<g>
			<path class="st0" d="M1048.7,1091.2c68.3,0,136.7,0,205,0c3.9,0,3.9-6,0-6c-68.3,0-136.7,0-205,0
				C1044.9,1085.2,1044.9,1091.2,1048.7,1091.2L1048.7,1091.2z"/>
		</g>
	</g>
</g>
<g id="background">
	<g>
		<g>
			<path class="st1" d="M1320.5,1053.3c-11.3-27.4-12-58.1-1.9-86c0.7-1.8-2.2-2.6-2.9-0.8c-10.3,28.3-9.6,59.7,1.9,87.6
				C1318.3,1055.9,1321.2,1055.1,1320.5,1053.3L1320.5,1053.3z"/>
		</g>
	</g>
	<g>
		<g>
			<path class="st1" d="M1315.3,965.7c0.3,5.6,2.8,10.7,7,14.4c1.5,1.3,3.6-0.9,2.1-2.1c-3.7-3.2-5.9-7.4-6.1-12.3
				C1318.2,963.8,1315.2,963.8,1315.3,965.7L1315.3,965.7z"/>
		</g>
	</g>
	<g>
		<g>
			<path class="st1" d="M1326.1,977.7c-8.2-36.5,16.6-70.4,33.9-100.2c-0.9-0.1-1.8-0.2-2.7-0.4c10.9,30.1,20.9,61.5,15,93.8
				c-5.3,29.6-20.6,56.2-35.5,81.9c-1,1.7,1.6,3.2,2.6,1.5c15.3-26.4,31.1-53.8,36.1-84.3c5.3-32.3-4.4-63.6-15.3-93.7
				c-0.4-1.2-2.1-1.5-2.7-0.4c-17.8,30.6-42.7,65.1-34.2,102.5C1323.7,980.4,1326.6,979.6,1326.1,977.7L1326.1,977.7z"/>
		</g>
	</g>
	<g>
		<g>
			<path class="st1" d="M1375.3,926.5c3.5-8.4,7.3-16.6,11.6-24.6c2-3.8,4.1-7.5,6.4-11.2c0.9-1.5,1.4-3.4,3.4-3.5
				c1.3-0.1,4.5,2.3,5.7,2.9c1.7,0.9,3.2-1.7,1.5-2.6c-2.4-1.2-6.5-4.6-9.3-3.4c-3.3,1.4-5.4,7.7-7.1,10.6
				c-5.7,10-10.6,20.3-15.1,30.9C1371.7,927.5,1374.6,928.2,1375.3,926.5L1375.3,926.5z"/>
		</g>
	</g>
	<g>
		<g>
			<path class="st1" d="M1403.5,889.6c2.3-3,3.4-6.5,2.2-10.2c-0.3-0.9-1.1-1.8-1.3-2.8c-0.8-3.2,1.1-4.6,2.8-6.9
				c2.2-2.8,4.4-5.6,6.6-8.4c8.9-11.5,17.9-23,26.8-34.5c-0.9-0.4-1.7-0.7-2.6-1.1c2.5,22.5,12.1,43.5,14.7,66
				c1.4,11.9,0,23.5-3.3,34.9c-1.6,5.6-3.4,11.1-5.5,16.5c-2,5.2-5.1,11.4-11.2,12.2c-1.1,0.1-2,1.2-1.3,2.3c2,3.1,4.1,6.1,4.3,9.9
				c0.2,3.5-0.9,7-2.3,10.2c-2.3,5.2-5.5,10.1-8.7,14.8c-6.8,9.9-14.9,18.7-24,26.4c-16.1,13.6-34.6,24.4-47.3,41.5
				c-1.2,1.6,1.5,3,2.6,1.5c14.6-19.6,37-30.8,54.3-47.7c8.8-8.6,16.5-18.4,22.6-29.1c2.5-4.4,5-9.2,5.7-14.3
				c0.8-5.8-1.4-10-4.5-14.7c-0.4,0.8-0.9,1.5-1.3,2.3c8.9-1.1,12.5-9.9,15.2-17.4c4.4-12.5,8.3-25.3,8.4-38.7
				c0.2-26.4-12.5-50.6-15.3-76.6c-0.1-1.1-1.7-2.2-2.6-1.1c-8.7,11.2-17.5,22.5-26.2,33.7c-2,2.6-4,5.1-6,7.7
				c-1.6,2.1-4.2,4.4-5.1,7c-0.5,1.3-0.5,2.3-0.1,3.6c1.2,4.1,3.7,6.5,0.3,10.9C1400.2,889,1402.4,891.1,1403.5,889.6L1403.5,889.6z
				"/>
		</g>
	</g>
	<g>
		<g>
			<path class="st1" d="M1432.5,867.3c-12.6,64.8-52.9,118.9-79.4,178.1c-0.8,1.7,1.8,3.3,2.6,1.5c26.6-59.5,67-113.8,79.7-178.9
				C1435.8,866.2,1432.9,865.4,1432.5,867.3L1432.5,867.3z"/>
		</g>
	</g>
	<g>
		<g>
			<path class="st1" d="M1351.3,914c-2.1,45.5-14.9,89.3-27.6,132.7c-0.5,1.9,2.4,2.6,2.9,0.8c12.8-43.7,25.5-87.8,27.7-133.5
				C1354.4,912.1,1351.4,912.1,1351.3,914L1351.3,914z"/>
		</g>
	</g>
	<g>
		<g>
			<path class="st1" d="M1330.7,928.6c7.3,15.3,11.1,31.8,11.1,48.8c0,1.9,3,1.9,3,0c-0.1-17.5-4-34.5-11.5-50.3
				C1332.5,925.4,1329.9,926.9,1330.7,928.6L1330.7,928.6z"/>
		</g>
	</g>
	<g>
		<g>
			<path class="st1" d="M1368.4,913.8c-4.7,8.2-9.4,16.5-14.2,24.7c-3.9,6.8-7.8,13.3-8.6,21.2c-0.2,1.9,2.8,1.9,3,0
				c0.9-8.5,6-15.9,10.1-23.1c4.1-7.1,8.1-14.2,12.2-21.3C1372,913.6,1369.4,912.1,1368.4,913.8L1368.4,913.8z"/>
		</g>
	</g>
	<g>
		<g>
			<path class="st1" d="M1412.9,861c1.8,23.6,3.5,47.5-0.9,70.9c-0.4,1.9,2.5,2.7,2.9,0.8c4.5-23.7,2.9-47.8,1-71.7
				C1415.7,859.1,1412.7,859.1,1412.9,861L1412.9,861z"/>
		</g>
	</g>
	<g>
		<g>
			<path class="st1" d="M1389.3,978.4c21.1-24.7,52.6-40.6,66.7-71.1c0.8-1.7-1.8-3.3-2.6-1.5c-14,30.2-45.3,45.9-66.3,70.5
				C1385.9,977.7,1388,979.9,1389.3,978.4L1389.3,978.4z"/>
		</g>
	</g>
	<g>
		<g>
			<path class="st1" d="M526.8,884.7c51.6-3.5,103.2-7,154.8-10.4c25.8-1.7,51.6-3.5,77.4-5.2c25.4-1.7,51.2-4.7,76.7-3.7
				c48.3,1.9,91.5,25.2,134.4,45.1c42.8,19.8,87.4,35.7,133.2,47.1c51.8,13,105,20.3,158.4,22c1.9,0.1,1.9-2.9,0-3
				c-97-3.1-193.4-25.1-281.9-65c-41.2-18.6-81.8-41.7-127.3-47.8c-24.8-3.3-49.8-0.7-74.6,0.9c-25.8,1.7-51.6,3.5-77.4,5.2
				c-57.9,3.9-115.8,7.8-173.7,11.7C524.9,881.8,524.9,884.8,526.8,884.7L526.8,884.7z"/>
		</g>
	</g>
	<g>
		<g>
			<path class="st1" d="M1025.7,901.2c82,3.2,161.6-19.5,242.5-28.3c22.8-2.5,45.8-3.8,68.8-3.2c1.9,0.1,1.9-2.9,0-3
				c-82-2.2-161.5,20.7-242.5,29c-22.8,2.3-45.8,3.4-68.7,2.5C1023.8,898.1,1023.8,901.1,1025.7,901.2L1025.7,901.2z"/>
		</g>
	</g>
	<g>
		<g>
			<path class="st1" d="M999.3,953.3c46.4,14.6,94.5,23.5,143,26.5c1.9,0.1,1.9-2.9,0-3c-48.3-3-96.1-11.8-142.2-26.4
				C998.2,949.8,997.4,952.7,999.3,953.3L999.3,953.3z"/>
		</g>
	</g>
	<g>
		<g>
			<path class="st1" d="M551,694.6c45.4-0.6,89.7-11.6,134.7-15.4c46.5-4,91.7,4.2,137.2,13.1c90.3,17.5,179.8,38.5,268.5,62.8
				c24.8,6.8,49.5,14.3,74.4,21c23.9,6.4,48.1,11.5,72.9,11.9c1.9,0,1.9-3,0-3c-45.7-0.7-89.8-17-133.3-29.1
				c-44.6-12.4-89.4-24-134.5-34.7c-44.7-10.6-89.7-20.4-134.8-29.3c-43.9-8.7-88.4-18.4-133.3-16.7c-51,1.9-100.8,15.8-151.8,16.5
				C549.1,691.7,549.1,694.7,551,694.6L551,694.6z"/>
		</g>
	</g>
	<g>
		<g>
			<path class="st1" d="M1039.3,713.5c80.5,31.8,168.8,29.2,253.3,19.3c24.1-2.8,48.2-6.2,72.2-9.7c1.9-0.3,1.1-3.2-0.8-2.9
				c-84.1,12.2-170.9,24.6-255.5,9.6c-23.4-4.1-46.3-10.4-68.4-19.2C1038.3,709.9,1037.5,712.8,1039.3,713.5L1039.3,713.5z"/>
		</g>
	</g>
	<g>
		<g>
			<path class="st1" d="M1222.8,357.7c-25.6-8.9-36.3-40.8-30.2-65.4c6-24.2,28.2-42.4,52.9-44.8c24.2-2.3,48.7,11.3,60.2,32.6
				c11.6,21.7,8.8,51-8.7,68.7c-22.7,23-58.3,21.7-84.6,6.1c-1.7-1-3.2,1.6-1.5,2.6c25.2,15,58,17.3,82.1-1.2
				c21.1-16.1,27.8-45.5,18.7-70.1c-9-24.4-33.6-41.5-59.6-42c-26-0.5-51.3,16.3-60.4,40.7c-10.2,27.4,0.8,65.4,30.3,75.6
				C1223.9,361.3,1224.6,358.4,1222.8,357.7L1222.8,357.7z"/>
		</g>
	</g>
	<g>
		<g>
			<path class="st1" d="M661.4,370.7c101.6-11.4,189.9,51.9,281.3,84.7c25.1,9,50.8,15.8,77.3,18.8c1.9,0.2,1.9-2.8,0-3
				c-99.5-11-181.6-76.5-278.2-98.1c-26.4-5.9-53.6-8.4-80.5-5.3C659.5,367.9,659.5,370.9,661.4,370.7L661.4,370.7z"/>
		</g>
	</g>
	<g>
		<g>
			<path class="st1" d="M981.5,435.5c60.4,12.6,122.7,15,183.9,7c1.9-0.2,1.9-3.3,0-3c-60.9,8-122.9,5.7-183.1-6.9
				C980.4,432.2,979.6,435.1,981.5,435.5L981.5,435.5z"/>
		</g>
	</g>
	<g>
		<g>
			<path class="st1" d="M332.8,550.1c120.5,33.5,242.8,67.3,368.4,72.3c35.3,1.4,70.6,0.4,105.7-3.4c1.9-0.2,1.9-3.2,0-3
				c-124.8,13.6-249.6-9.9-370.2-40.9c-34.5-8.9-68.8-18.4-103.2-27.9C331.8,546.7,331,549.6,332.8,550.1L332.8,550.1z"/>
		</g>
	</g>
</g>
<g id="viruses">
	<g>
		<g>
			<path class="st0" d="M263.3,415.3c3.9,0,3.9-6,0-6C259.4,409.3,259.4,415.3,263.3,415.3L263.3,415.3z"/>
		</g>
	</g>
	<g>
		<g>
			<path class="st0" d="M275.7,479.1c-5.1-2.6-8.6-8.1-7.2-14c1.6-6.3,8.1-10.4,14.4-8.5c6.9,2.1,9.8,10.1,6.4,16.3
				c-3.3,6.2-10.4,8.2-16.7,5.4c-1.8-0.8-3.3,1.8-1.5,2.6c7.6,3.3,16,1.4,20.5-5.9c4.3-7.2,1.9-16.9-5.8-20.5
				c-7.4-3.5-16.1,0-19.3,7.5c-3.3,7.6,0.6,16,7.8,19.7C275.9,482.6,277.4,480,275.7,479.1L275.7,479.1z"/>
		</g>
	</g>
	<g>
		<g>
			<path class="st0" d="M271.9,464.2c2.3,1.5,4.7,3,7,4.5c1.6,1.1,3.1-1.5,1.5-2.6c-2.3-1.5-4.7-3-7-4.5
				C271.8,460.6,270.3,463.2,271.9,464.2L271.9,464.2z"/>
		</g>
	</g>
	<g>
		<g>
			<path class="st0" d="M285.3,465.7c1.2-1.2,2.3-2.3,3.5-3.5c1.4-1.4-0.8-3.5-2.1-2.1c-1.2,1.2-2.3,2.3-3.5,3.5
				C281.8,465,284,467.1,285.3,465.7L285.3,465.7z"/>
		</g>
	</g>
	<g>
		<g>
			<path class="st0" d="M267.5,474c-1.1,1-2.2,2-3.3,3.1c-1.4,1.3,0.7,3.4,2.1,2.1c1.1-1,2.2-2,3.3-3.1
				C271.1,474.8,268.9,472.6,267.5,474L267.5,474z"/>
		</g>
	</g>
	<g>
		<g>
			<path class="st0" d="M272.4,478.9c-0.8,1.4-1.5,2.7-2.3,4.1c-0.9,1.7,1.7,3.2,2.6,1.5c0.8-1.4,1.5-2.7,2.3-4.1
				C276,478.7,273.4,477.2,272.4,478.9L272.4,478.9z"/>
		</g>
	</g>
	<g>
		<g>
			<path class="st0" d="M258.1,467.7c1.5,0.8,3,1,4.6,0.7c0.8-0.1,1.2-1.1,1-1.8c-0.2-0.9-1-1.2-1.8-1c-0.8,0.1-1.6,0-2.3-0.4
				c-0.7-0.4-1.6-0.2-2.1,0.5C257.1,466.3,257.3,467.4,258.1,467.7L258.1,467.7z"/>
		</g>
	</g>
	<g>
		<g>
			<path class="st0" d="M267.6,449.5c1,1.2,1.9,2.3,2.9,3.5c0.5,0.6,1.6,0.5,2.1,0c0.6-0.6,0.5-1.5,0-2.1c-1-1.2-1.9-2.3-2.9-3.5
				c-0.5-0.6-1.6-0.5-2.1,0C267,448,267.1,448.9,267.6,449.5L267.6,449.5z"/>
		</g>
	</g>
	<g>
		<g>
			<path class="st0" d="M282.1,454.5c0.8-1.3,1.5-2.7,2.3-4c1-1.7-1.6-3.2-2.6-1.5c-0.8,1.3-1.5,2.7-2.3,4
				C278.6,454.6,281.1,456.1,282.1,454.5L282.1,454.5z"/>
		</g>
	</g>
	<g>
		<g>
			<path class="st0" d="M292.6,459c1.5-1.2,3.1-2.3,4.6-3.5c0.6-0.5,1-1.3,0.5-2.1c-0.4-0.6-1.4-1-2.1-0.5c-1.5,1.2-3.1,2.3-4.6,3.5
				c-0.6,0.5-1,1.3-0.5,2.1C290.9,459.1,291.9,459.5,292.6,459L292.6,459z"/>
		</g>
	</g>
	<g>
		<g>
			<path class="st0" d="M293.9,470.6c1.5,0.8,3.1,1.6,4.6,2.4c1.7,0.9,3.2-1.7,1.5-2.6c-1.5-0.8-3.1-1.6-4.6-2.4
				C293.7,467.1,292.2,469.7,293.9,470.6L293.9,470.6z"/>
		</g>
	</g>
	<g>
		<g>
			<path class="st0" d="M291.3,481.9c0.9,1.2,1.9,2.3,2.8,3.5c0.5,0.6,1.6,0.5,2.1,0c0.6-0.6,0.5-1.5,0-2.1
				c-0.9-1.2-1.9-2.3-2.8-3.5c-0.5-0.6-1.6-0.5-2.1,0C290.7,480.4,290.8,481.3,291.3,481.9L291.3,481.9z"/>
		</g>
	</g>
	<g>
		<g>
			<path class="st0" d="M321.7,647.6c-10-6.4,2.7-22.3,11.7-13.8c3.3,3.1,2.9,8.3,0.1,11.6c-3.6,4.4-9.9,4-14.4,1.2
				c-1.6-1-3.1,1.5-1.5,2.6c5.8,3.7,13.9,3.6,18.4-2.1c3.9-4.9,3.6-12.4-1.6-16.3c-12.5-9.5-27.2,11-14.2,19.4
				C321.9,651.3,323.4,648.7,321.7,647.6L321.7,647.6z"/>
		</g>
	</g>
	<g>
		<g>
			<path class="st0" d="M319.7,636.7c2.1,1.1,4.2,2.3,6.2,3.4c1.7,0.9,3.2-1.7,1.5-2.6c-2.1-1.1-4.2-2.3-6.2-3.4
				C319.5,633.2,318,635.8,319.7,636.7L319.7,636.7z"/>
		</g>
	</g>
	<g>
		<g>
			<path class="st0" d="M332.8,638.5c0.7-1.7,2.1-3,3.7-3.8c1.7-0.9,0.2-3.5-1.5-2.6c-2.4,1.2-4.1,3.2-5.1,5.6
				c-0.3,0.7,0.3,1.6,1,1.8C331.8,639.8,332.4,639.3,332.8,638.5L332.8,638.5z"/>
		</g>
	</g>
	<g>
		<g>
			<path class="st0" d="M316.8,649.3c0-0.3-0.1,0.2-0.1,0.3c0.1-0.2-0.1,0.1-0.1,0.2c0.1-0.2-0.1,0.1-0.1,0.1c-0.1,0.1-0.1,0.1,0,0
				c-0.1,0.1-0.2,0.1-0.3,0.1c-0.7,0.4-0.9,1.4-0.5,2.1c0.4,0.7,1.3,0.9,2.1,0.5c1.3-0.7,2-2,2.1-3.4c0.1-0.8-0.7-1.5-1.5-1.5
				C317.5,647.8,316.9,648.4,316.8,649.3L316.8,649.3z"/>
		</g>
	</g>
	<g>
		<g>
			<path class="st0" d="M324.5,650c0,1.2,0,2.3,0,3.5c0,1.9,3,1.9,3,0c0-1.2,0-2.3,0-3.5C327.5,648.1,324.5,648,324.5,650L324.5,650
				z"/>
		</g>
	</g>
	<g>
		<g>
			<path class="st0" d="M316.3,642.2c-0.9,0-1.8,0-2.8,0c-1.9,0-1.9,3,0,3c0.9,0,1.8,0,2.8,0C318.2,645.2,318.2,642.2,316.3,642.2
				L316.3,642.2z"/>
		</g>
	</g>
	<g>
		<g>
			<path class="st0" d="M322.5,630.2c-0.2-1.2-0.5-2.3-0.7-3.5c-0.2-0.8-1.1-1.3-1.8-1c-0.8,0.2-1.2,1-1,1.8
				c0.2,1.2,0.5,2.3,0.7,3.5c0.2,0.8,1.1,1.3,1.8,1C322.2,631.8,322.6,631,322.5,630.2L322.5,630.2z"/>
		</g>
	</g>
	<g>
		<g>
			<path class="st0" d="M332.7,631.3c0.7-1.2,1.4-2.3,2.1-3.5c1-1.7-1.6-3.2-2.6-1.5c-0.7,1.2-1.4,2.3-2.1,3.5
				C329.1,631.4,331.7,632.9,332.7,631.3L332.7,631.3z"/>
		</g>
	</g>
	<g>
		<g>
			<path class="st0" d="M337,639c0.9,0,1.8,0,2.8,0c1.9,0,1.9-3,0-3c-0.9,0-1.8,0-2.8,0C335.1,636,335.1,639,337,639L337,639z"/>
		</g>
	</g>
	<g>
		<g>
			<path class="st0" d="M170.2,603c-14.9-9.3-3-35.2,13.8-28.7c8.2,3.1,10.2,13.4,7.6,21c-3.6,10.5-15.6,10-24.3,7.2
				c-1.8-0.6-2.6,2.3-0.8,2.9c9.8,3.2,22.7,3.2,27.4-7.8c4-9.2,1.3-22.2-8.7-26.1c-20.2-7.8-34.5,22.9-16.5,34.1
				C170.3,606.7,171.8,604.1,170.2,603L170.2,603z"/>
		</g>
	</g>
	<g>
		<g>
			<path class="st0" d="M168.4,579.6c3.6,3.1,7.2,6.2,10.9,9.3c1.5,1.2,3.6-0.9,2.1-2.1c-3.6-3.1-7.2-6.2-10.9-9.3
				C169.1,576.3,166.9,578.4,168.4,579.6L168.4,579.6z"/>
		</g>
	</g>
	<g>
		<g>
			<path class="st0" d="M186.4,587.3c2.1-2.3,4.2-4.6,6.2-6.9c1.3-1.4-0.8-3.6-2.1-2.1c-2.1,2.3-4.2,4.6-6.2,6.9
				C183,586.6,185.1,588.8,186.4,587.3L186.4,587.3z"/>
		</g>
	</g>
	<g>
		<g>
			<path class="st0" d="M159.3,588.9c-2.1,0.6-4,1.7-5.5,3.2c-1.3,1.4,0.8,3.5,2.1,2.1c1.2-1.2,2.5-2,4.1-2.5
				C162,591.3,161.2,588.4,159.3,588.9L159.3,588.9z"/>
		</g>
	</g>
	<g>
		<g>
			<path class="st0" d="M164.2,601.1c-1.2,1.1-2.3,2.3-3.5,3.4c-1.4,1.3,0.7,3.5,2.1,2.1c1.2-1.1,2.3-2.3,3.5-3.4
				C167.7,601.9,165.5,599.7,164.2,601.1L164.2,601.1z"/>
		</g>
	</g>
	<g>
		<g>
			<path class="st0" d="M174.8,606.1c0.3,1.8,0.6,3.7,0.8,5.5c0.1,0.8,1.1,1.2,1.8,1c0.9-0.2,1.2-1,1-1.8c-0.3-1.8-0.6-3.7-0.8-5.5
				c-0.1-0.8-1.1-1.2-1.8-1C175,604.5,174.6,605.3,174.8,606.1L174.8,606.1z"/>
		</g>
	</g>
	<g>
		<g>
			<path class="st0" d="M162.6,580.1c-1.4-0.7-2.8-1.4-4.1-2.1c-1.7-0.9-3.2,1.7-1.5,2.6c1.4,0.7,2.8,1.4,4.1,2.1
				C162.8,583.6,164.3,581,162.6,580.1L162.6,580.1z"/>
		</g>
	</g>
	<g>
		<g>
			<path class="st0" d="M174.4,573.4c-0.6-1.7-0.8-3.4-0.7-5.1c0.1-1.9-2.9-1.9-3,0c-0.2,2,0.1,4,0.8,5.9
				C172.1,576,175,575.2,174.4,573.4L174.4,573.4z"/>
		</g>
	</g>
	<g>
		<g>
			<path class="st0" d="M185.3,572.5c0.9-1.6,1.8-3.2,2.8-4.9c1-1.7-1.6-3.2-2.6-1.5c-0.9,1.6-1.8,3.2-2.8,4.9
				C181.7,572.6,184.3,574.1,185.3,572.5L185.3,572.5z"/>
		</g>
	</g>
	<g>
		<g>
			<path class="st0" d="M191.6,582.2c2,0.1,4-0.4,5.6-1.6c0.7-0.5,1-1.3,0.5-2.1c-0.4-0.6-1.4-1-2.1-0.5c-1.2,0.9-2.5,1.3-4.1,1.2
				C189.7,579.1,189.7,582.1,191.6,582.2L191.6,582.2z"/>
		</g>
	</g>
	<g>
		<g>
			<path class="st0" d="M194.7,592.9c1.2,0.9,2.3,1.8,3.5,2.8c0.6,0.5,1.5,0.6,2.1,0c0.5-0.5,0.6-1.6,0-2.1
				c-1.2-0.9-2.3-1.8-3.5-2.8c-0.6-0.5-1.5-0.6-2.1,0C194.2,591.3,194.1,592.4,194.7,592.9L194.7,592.9z"/>
		</g>
	</g>
	<g>
		<g>
			<path class="st0" d="M189.5,604.4c0.9,2.1,2.7,3.8,4.7,4.7c0.7,0.3,1.6,0.2,2.1-0.5c0.4-0.6,0.2-1.7-0.5-2.1
				c-1.7-0.7-2.9-1.9-3.7-3.6c-0.3-0.7-1.4-0.9-2.1-0.5C189.3,602.7,189.2,603.6,189.5,604.4L189.5,604.4z"/>
		</g>
	</g>
	<g>
		<g>
			<path class="st0" d="M207,311c-14.3-8,1.3-32.1,15.1-22c5.3,3.9,6.5,11.2,3.3,16.8c-3.7,6.5-12.1,7.8-18.3,4.2
				c-1.7-1-3.2,1.6-1.5,2.6c7.4,4.3,17.4,2.8,22.1-4.7c4.5-7.2,2.8-17.2-4.4-21.9c-17.2-11.2-35.3,17.8-17.8,27.5
				C207.2,314.6,208.7,312,207,311L207,311z"/>
		</g>
	</g>
	<g>
		<g>
			<path class="st0" d="M206.3,294.8c3.5,1.7,6.9,3.5,10.4,5.2c1.7,0.9,3.2-1.7,1.5-2.6c-3.5-1.7-6.9-3.5-10.4-5.2
				C206.1,291.4,204.6,294,206.3,294.8L206.3,294.8z"/>
		</g>
	</g>
	<g>
		<g>
			<path class="st0" d="M221.9,297.9c1.9-1.6,3.8-3.2,5.7-4.8c1.5-1.3-0.7-3.4-2.1-2.1c-1.9,1.6-3.8,3.2-5.7,4.8
				C218.3,297,220.4,299.1,221.9,297.9L221.9,297.9z"/>
		</g>
	</g>
	<g>
		<g>
			<path class="st0" d="M197.3,306.1c-1.9,1.4-3.8,2.7-5.7,4.1c-1.6,1.1-0.1,3.7,1.5,2.6c1.9-1.4,3.8-2.7,5.7-4.1
				C200.4,307.5,198.9,304.9,197.3,306.1L197.3,306.1z"/>
		</g>
	</g>
	<g>
		<g>
			<path class="st0" d="M206.5,310.7c-1.1,1.9-2.1,3.8-3.2,5.7c-1,1.7,1.6,3.2,2.6,1.5c1.1-1.9,2.1-3.8,3.2-5.7
				C210,310.5,207.4,309,206.5,310.7L206.5,310.7z"/>
		</g>
	</g>
	<g>
		<g>
			<path class="st0" d="M197.3,297.1c-2.1-0.1-4.1-0.4-6.1-0.9c-1.9-0.5-2.7,2.4-0.8,2.9c2.2,0.6,4.5,1,6.9,1
				C199.2,300.1,199.2,297.1,197.3,297.1L197.3,297.1z"/>
		</g>
	</g>
	<g>
		<g>
			<path class="st0" d="M204.5,287.5c-0.8-2-2.3-3.5-4.4-4.2c-1.8-0.6-2.6,2.3-0.8,2.9c1,0.3,1.9,1.1,2.3,2.1c0.3,0.8,1,1.3,1.8,1
				C204.2,289.2,204.8,288.3,204.5,287.5L204.5,287.5z"/>
		</g>
	</g>
	<g>
		<g>
			<path class="st0" d="M215.7,285.9c0.5-1.9,1-3.8,1.5-5.7c0.5-1.9-2.4-2.7-2.9-0.8c-0.5,1.9-1,3.8-1.5,5.7
				C212.3,287,215.2,287.8,215.7,285.9L215.7,285.9z"/>
		</g>
	</g>
	<g>
		<g>
			<path class="st0" d="M214.7,314.7c1.1,1.6,2.2,3.3,3.2,4.9c1.1,1.6,3.7,0.1,2.6-1.5c-1.1-1.6-2.2-3.3-3.2-4.9
				C216.3,311.5,213.7,313,214.7,314.7L214.7,314.7z"/>
		</g>
	</g>
	<g>
		<g>
			<path class="st0" d="M224.2,309.4c1.4,0.8,2.7,1.6,4.1,2.4c1.7,1,3.2-1.6,1.5-2.6c-1.4-0.8-2.7-1.6-4.1-2.4
				C224.1,305.8,222.6,308.4,224.2,309.4L224.2,309.4z"/>
		</g>
	</g>
	<g>
		<g>
			<path class="st0" d="M230.2,300.1c1.4-0.3,2.7-0.6,4.1-0.9c1.9-0.4,1.1-3.3-0.8-2.9c-1.4,0.3-2.7,0.6-4.1,0.9
				C227.5,297.6,228.3,300.5,230.2,300.1L230.2,300.1z"/>
		</g>
	</g>
	<g>
		<g>
			<path class="st0" d="M228,288.8c0.1-1.1,0.5-2.1,1.3-3c1.3-1.4-0.8-3.6-2.1-2.1c-1.3,1.4-2,3.2-2.1,5.1c-0.1,0.8,0.7,1.5,1.5,1.5
				C227.3,290.3,227.9,289.6,228,288.8L228,288.8z"/>
		</g>
	</g>
	<g>
		<g>
			<path class="st0" d="M116.4,422c-2.5-4.3-1.6-10.3,3.1-12.6c4.2-2.1,9.9-0.7,11.9,3.8c1.6,3.8,0.5,8.9-3.3,10.9
				c-4,2.2-9.1,0.5-11.4-3.2c-1-1.7-3.6-0.1-2.6,1.5c3,5,9.8,7.2,15.1,4.5c5.4-2.8,7.3-10.1,4.7-15.4c-2.8-5.6-10-7.5-15.5-4.8
				c-6.3,3-8,11.1-4.6,16.9C114.8,425.2,117.4,423.7,116.4,422L116.4,422z"/>
		</g>
	</g>
	<g>
		<g>
			<path class="st0" d="M114.4,413.8c2.5,1.5,5.1,3,7.6,4.6c1.7,1,3.2-1.6,1.5-2.6c-2.5-1.5-5.1-3-7.6-4.6
				C114.3,410.2,112.8,412.8,114.4,413.8L114.4,413.8z"/>
		</g>
	</g>
	<g>
		<g>
			<path class="st0" d="M126.7,415.1c1.3-1.2,2.5-2.5,3.8-3.7c1.4-1.4-0.7-3.5-2.1-2.1c-1.3,1.2-2.5,2.5-3.8,3.7
				C123.2,414.3,125.3,416.4,126.7,415.1L126.7,415.1z"/>
		</g>
	</g>
	<g>
		<g>
			<path class="st0" d="M116.8,426c-0.3,1.2-0.7,2.5-1,3.7c-0.5,1.9,2.4,2.7,2.9,0.8c0.3-1.2,0.7-2.5,1-3.7
				C120.2,424.9,117.3,424.1,116.8,426L116.8,426z"/>
		</g>
	</g>
	<g>
		<g>
			<path class="st0" d="M114.3,421.5c-1.3,1.1-2.9,1.6-4.5,1.5c-1.9-0.1-1.9,2.9,0,3c2.5,0.1,4.8-0.7,6.7-2.4
				C117.8,422.3,115.7,420.2,114.3,421.5L114.3,421.5z"/>
		</g>
	</g>
	<g>
		<g>
			<path class="st0" d="M111.1,414.5c-0.9-0.3-1.9-0.6-2.8-0.9c-0.8-0.3-1.6,0.3-1.8,1c-0.2,0.8,0.3,1.6,1,1.8
				c0.9,0.3,1.9,0.6,2.8,0.9c0.8,0.3,1.6-0.3,1.8-1C112.3,415.6,111.8,414.8,111.1,414.5L111.1,414.5z"/>
		</g>
	</g>
	<g>
		<g>
			<path class="st0" d="M121.6,408.5c0-1.6,0-3.1,0-4.7c0-1.9-3-1.9-3,0c0,1.6,0,3.1,0,4.7C118.6,410.4,121.6,410.4,121.6,408.5
				L121.6,408.5z"/>
		</g>
	</g>
	<g>
		<g>
			<path class="st0" d="M129,408.9c0.3-0.8,0.9-1.5,1.8-1.8c0.8-0.2,1.3-1,1-1.8c-0.2-0.8-1.1-1.3-1.8-1c-1.9,0.6-3.3,2-3.9,3.9
				c-0.2,0.8,0.3,1.6,1,1.8C128,410.1,128.8,409.7,129,408.9L129,408.9z"/>
		</g>
	</g>
	<g>
		<g>
			<path class="st0" d="M132.7,418.4c1.1-0.3,2.3,0.2,3,1.2c1.1,1.6,3.7,0.1,2.6-1.5c-1.4-2.1-3.9-3.1-6.4-2.5
				C130,416,130.8,418.9,132.7,418.4L132.7,418.4z"/>
		</g>
	</g>
	<g>
		<g>
			<path class="st0" d="M129.9,424.1c-0.8,2.3,0.6,4.8,2.9,5.5c0.8,0.3,1.6-0.3,1.8-1c0.2-0.8-0.3-1.6-1-1.8c-0.8-0.3-1-1.2-0.8-1.8
				C133.5,423,130.6,422.2,129.9,424.1L129.9,424.1z"/>
		</g>
	</g>
	<g>
		<g>
			<path class="st0" d="M353.8,336.4c-1.2-5.1,0.4-10.6,5.4-12.9c5.2-2.4,10.9,0.7,12,6.3c2,10.4-15.1,16.2-17.7,5.2
				c-0.4-1.9-3.3-1.1-2.9,0.8c3.5,14.9,27,7.2,23.5-7.2c-1.6-6.6-8.2-10.5-14.7-8.4c-7.3,2.3-10,10.1-8.4,17
				C351.4,339.1,354.3,338.3,353.8,336.4L353.8,336.4z"/>
		</g>
	</g>
	<g>
		<g>
			<path class="st0" d="M352.8,327.5c2.3,1.4,4.5,2.9,6.8,4.3c1.6,1,3.1-1.6,1.5-2.6c-2.3-1.4-4.5-2.9-6.8-4.3
				C352.6,323.9,351.1,326.5,352.8,327.5L352.8,327.5z"/>
		</g>
	</g>
	<g>
		<g>
			<path class="st0" d="M366.4,329.8c1.1-1.7,2.1-3.4,3.2-5.1c1-1.6-1.6-3.2-2.6-1.5c-1.1,1.7-2.1,3.4-3.2,5.1
				C362.8,329.9,365.4,331.5,366.4,329.8L366.4,329.8z"/>
		</g>
	</g>
	<g>
		<g>
			<path class="st0" d="M354.3,341.3c-0.6,0.8-1.2,1.5-1.8,2.3c-0.5,0.6-0.6,1.5,0,2.1c0.5,0.5,1.6,0.6,2.1,0
				c0.6-0.8,1.2-1.5,1.8-2.3c0.5-0.6,0.6-1.5,0-2.1C355.9,340.7,354.8,340.6,354.3,341.3L354.3,341.3z"/>
		</g>
	</g>
	<g>
		<g>
			<path class="st0" d="M351,338c-0.9,1-2.1,1.7-3.4,2c-1.9,0.5-1.1,3.4,0.8,2.9c1.8-0.4,3.5-1.4,4.7-2.8
				C354.5,338.7,352.3,336.6,351,338L351,338z"/>
		</g>
	</g>
	<g>
		<g>
			<path class="st0" d="M350.8,331.2c-1,0.1-1.9-0.1-2.8-0.4c-0.8-0.3-1.6,0.3-1.8,1c-0.2,0.8,0.3,1.6,1,1.8
				c1.1,0.4,2.4,0.6,3.6,0.5c0.8-0.1,1.5-0.7,1.5-1.5C352.3,331.9,351.6,331.1,350.8,331.2L350.8,331.2z"/>
		</g>
	</g>
	<g>
		<g>
			<path class="st0" d="M357.7,322.9c-0.7-0.9-1.3-2-1.7-3.1c-0.3-0.8-1-1.3-1.8-1c-0.7,0.2-1.3,1.1-1,1.8c0.6,1.6,1.4,3.1,2.5,4.5
				c0.5,0.6,1.6,0.5,2.1,0C358.3,324.4,358.2,323.6,357.7,322.9L357.7,322.9z"/>
		</g>
	</g>
	<g>
		<g>
			<path class="st0" d="M366.8,320.6c0.2-1.2,0.3-2.4,0.5-3.7c0.1-0.8-0.2-1.6-1-1.8c-0.7-0.2-1.7,0.2-1.8,1
				c-0.2,1.2-0.3,2.4-0.5,3.7c-0.1,0.8,0.2,1.6,1,1.8C365.6,321.8,366.6,321.4,366.8,320.6L366.8,320.6z"/>
		</g>
	</g>
	<g>
		<g>
			<path class="st0" d="M371,330c1.5,0.2,3.1,0.4,4.6,0.6c0.8,0.1,1.5-0.8,1.5-1.5c0-0.9-0.7-1.4-1.5-1.5c-1.5-0.2-3.1-0.4-4.6-0.6
				c-0.8-0.1-1.5,0.8-1.5,1.5C369.5,329.4,370.2,329.9,371,330L371,330z"/>
		</g>
	</g>
	<g>
		<g>
			<path class="st0" d="M369.6,339.2c1,1.2,2.1,2.5,3.1,3.7c0.5,0.6,1.6,0.5,2.1,0c0.6-0.6,0.5-1.5,0-2.1c-1-1.2-2.1-2.5-3.1-3.7
				c-0.5-0.6-1.6-0.5-2.1,0C369,337.6,369.1,338.5,369.6,339.2L369.6,339.2z"/>
		</g>
	</g>
	<g>
		<g>
			<path class="st0" d="M364,343.2c0.4,2.3,0.8,4.6,1.2,6.9c0.3,1.9,3.2,1.1,2.9-0.8c-0.4-2.3-0.8-4.6-1.2-6.9
				C366.6,340.5,363.7,341.3,364,343.2L364,343.2z"/>
		</g>
	</g>
	<g>
		<g>
			<path class="st0" d="M403.5,532.5c-3.4-2.8-5.7-6.9-5.4-11.4c0.4-5.3,5.5-9.8,10.9-9c6.1,0.9,8.8,8.3,8.3,13.8
				c-0.7,7.4-8.8,10.8-14.6,5.9c-1.5-1.2-3.6,0.9-2.1,2.1c5.4,4.5,13.5,4.4,17.7-1.7c4.4-6.3,1.9-17.3-4.4-21.5
				c-5.6-3.7-13.4-1.3-16.9,4.2c-4.2,6.5-1.3,15,4.3,19.6C402.8,535.9,404.9,533.8,403.5,532.5L403.5,532.5z"/>
		</g>
	</g>
	<g>
		<g>
			<path class="st0" d="M398.3,517.3c3,1.9,6,3.9,9,5.8c1.6,1.1,3.1-1.5,1.5-2.6c-3-1.9-6-3.9-9-5.8
				C398.2,513.6,396.7,516.2,398.3,517.3L398.3,517.3z"/>
		</g>
	</g>
	<g>
		<g>
			<path class="st0" d="M413,521.3c1.4-2.2,2.9-4.4,4.3-6.6c1.1-1.6-1.5-3.1-2.6-1.5c-1.4,2.2-2.9,4.4-4.3,6.6
				C409.4,521.4,412,522.9,413,521.3L413,521.3z"/>
		</g>
	</g>
	<g>
		<g>
			<path class="st0" d="M397.3,532.4c-1.4,1.4-2.7,2.7-4.1,4.1c-1.4,1.4,0.8,3.5,2.1,2.1c1.4-1.4,2.7-2.7,4.1-4.1
				C400.8,533.1,398.7,531,397.3,532.4L397.3,532.4z"/>
		</g>
	</g>
	<g>
		<g>
			<path class="st0" d="M403,536.5c-0.4,2-0.8,4.1-1.3,6.1c-0.4,1.9,2.5,2.7,2.9,0.8c0.4-2,0.8-4.1,1.3-6.1
				C406.3,535.4,403.4,534.6,403,536.5L403,536.5z"/>
		</g>
	</g>
	<g>
		<g>
			<path class="st0" d="M395,523.2c-1.8,0-3.6,0-5.4,0c-1.9,0-1.9,3,0,3c1.8,0,3.6,0,5.4,0C397,526.2,397,523.2,395,523.2L395,523.2
				z"/>
		</g>
	</g>
	<g>
		<g>
			<path class="st0" d="M400.5,508.6c-1-0.6-1.4-1.7-1.3-2.8c0.1-0.8-0.7-1.5-1.5-1.5c-0.9,0-1.4,0.7-1.5,1.5
				c-0.2,2.2,0.9,4.2,2.7,5.4C400.6,512.3,402.1,509.7,400.5,508.6L400.5,508.6z"/>
		</g>
	</g>
	<g>
		<g>
			<path class="st0" d="M412.1,508.9c0.4-1.8,1-3.5,1.8-5.1c0.9-1.7-1.7-3.2-2.6-1.5c-1,1.8-1.7,3.8-2.1,5.8
				C408.8,510,411.7,510.8,412.1,508.9L412.1,508.9z"/>
		</g>
	</g>
	<g>
		<g>
			<path class="st0" d="M417.8,516.8c1.6-0.3,3.1-0.1,4.6,0.5c1.8,0.7,2.6-2.2,0.8-2.9c-2-0.8-4.1-0.9-6.2-0.5
				C415.1,514.2,415.9,517.1,417.8,516.8L417.8,516.8z"/>
		</g>
	</g>
	<g>
		<g>
			<path class="st0" d="M419,527.6c1.5,0.6,2.6,1.8,3.2,3.3c0.3,0.7,1.4,0.9,2.1,0.5c0.8-0.5,0.9-1.3,0.5-2.1
				c-0.9-2.2-2.8-3.8-5-4.7c-0.8-0.3-1.6,0.3-1.8,1C417.7,526.6,418.2,527.3,419,527.6L419,527.6z"/>
		</g>
	</g>
	<g>
		<g>
			<path class="st0" d="M417.2,534.9c-0.3,2.9,0.5,5.8,2.1,8.3c1,1.6,3.6,0.1,2.6-1.5c-1.3-2.1-1.9-4.3-1.6-6.8
				C420.4,532.9,417.4,533,417.2,534.9L417.2,534.9z"/>
		</g>
	</g>
	<g>
		<g>
			<path class="st0" d="M205.9,694.3c-1.9-1.9,0.4-5.6,2.9-3.8c2.7,1.9-0.1,5.5-2.7,4c-1.7-1-3.2,1.6-1.5,2.6
				c2.4,1.4,5.6,0.7,7.3-1.5c1.9-2.4,1.1-5.7-1.3-7.4c-2.3-1.7-5.6-1.4-7.3,1c-1.6,2.2-1.5,5.4,0.4,7.4
				C205.1,697.8,207.2,695.6,205.9,694.3L205.9,694.3z"/>
		</g>
	</g>
	<g>
		<g>
			<path class="st0" d="M203.7,688.4c-1-0.3-2-0.7-3-1c-0.8-0.3-1.6,0.3-1.8,1c-0.2,0.8,0.3,1.6,1,1.8c1,0.3,2,0.7,3,1
				c0.8,0.3,1.6-0.3,1.8-1C205,689.4,204.5,688.6,203.7,688.4L203.7,688.4z"/>
		</g>
	</g>
	<g>
		<g>
			<path class="st0" d="M203.7,691.2c3.3-0.7,5.8-3.9,5.6-7.3c-0.1-1.9-3.1-1.9-3,0c0.1,2.2-1.3,4-3.4,4.4
				C201.1,688.7,201.8,691.6,203.7,691.2L203.7,691.2z"/>
		</g>
	</g>
	<g>
		<g>
			<path class="st0" d="M212.7,692.4c1.3-0.3,2.6-0.7,3.9-1c1.9-0.5,1.1-3.4-0.8-2.9c-1.3,0.3-2.6,0.7-3.9,1
				C210,690,210.8,692.9,212.7,692.4L212.7,692.4z"/>
		</g>
	</g>
	<g>
		<g>
			<path class="st0" d="M210,697.5c0.7,1,1.3,2,2,3c0.4,0.7,1.3,1,2.1,0.5c0.7-0.4,1-1.4,0.5-2.1c-0.7-1-1.3-2-2-3
				c-0.4-0.7-1.3-1-2.1-0.5C209.8,695.8,209.5,696.8,210,697.5L210,697.5z"/>
		</g>
	</g>
	<g>
		<g>
			<path class="st0" d="M206.5,692.4c-2.1,1.5-3.6,3.5-4.6,5.9c-0.3,0.8,0.3,1.6,1,1.8c0.9,0.2,1.5-0.3,1.8-1
				c0.7-1.6,1.8-3.1,3.2-4.1c0.7-0.5,1-1.3,0.5-2.1C208.2,692.3,207.2,692,206.5,692.4L206.5,692.4z"/>
		</g>
	</g>
	<g>
		<g>
			<path class="st0" d="M345.8,272.1c9.7,10.2,20.2,19.4,31.5,27.7c1.6,1.1,3.1-1.5,1.5-2.6c-11.1-8.2-21.4-17.3-30.9-27.3
				C346.6,268.6,344.5,270.7,345.8,272.1L345.8,272.1z"/>
		</g>
	</g>
	<g>
		<g>
			<path class="st0" d="M249.7,509.9c29.9-1.6,59.8,3.5,87.4,15.2c1.8,0.7,3.3-1.8,1.5-2.6c-28.1-11.9-58.4-17.3-88.9-15.6
				C247.8,507.1,247.8,510.1,249.7,509.9L249.7,509.9z"/>
		</g>
	</g>
	<g>
		<g>
			<path class="st0" d="M391.7,663.1c11.6-6.8,23.1-13.6,34.7-20.5c1.7-1,0.2-3.6-1.5-2.6c-11.6,6.8-23.1,13.6-34.7,20.5
				C388.5,661.5,390,664.1,391.7,663.1L391.7,663.1z"/>
		</g>
	</g>
	<g>
		<g>
			<path class="st0" d="M261.5,699.2c16.9-16.2,36.7-28.8,58.6-37.1c1.8-0.7,1-3.6-0.8-2.9c-22.3,8.5-42.6,21.3-59.9,37.9
				C258,698.4,260.1,700.6,261.5,699.2L261.5,699.2z"/>
		</g>
	</g>
	<g>
		<g>
			<path class="st0" d="M299.6,611.9c11.6-1.8,23.2-3.6,34.9-5.5c1.9-0.3,1.1-3.2-0.8-2.9c-11.6,1.8-23.2,3.6-34.9,5.5
				C296.9,609.3,297.7,612.2,299.6,611.9L299.6,611.9z"/>
		</g>
	</g>
	<g>
		<g>
			<path class="st0" d="M102.5,562.4c14.7,6.1,30.4,8.5,46.3,7.2c1.9-0.2,1.9-3.2,0-3c-15.6,1.3-31-1.1-45.5-7.1
				C101.5,558.8,100.7,561.7,102.5,562.4L102.5,562.4z"/>
		</g>
	</g>
	<g>
		<g>
			<path class="st0" d="M102.3,363.6c25.4,4.3,49.2,15.1,69,31.6c1.5,1.2,3.6-0.9,2.1-2.1c-20.2-16.9-44.4-28.1-70.4-32.4
				C101.2,360.4,100.4,363.3,102.3,363.6L102.3,363.6z"/>
		</g>
	</g>
	<g>
		<g>
			<path class="st0" d="M160.8,411.8c10,5.6,20.5,9.9,31.6,12.9c1.9,0.5,2.7-2.4,0.8-2.9c-10.8-2.9-21.1-7.1-30.9-12.6
				C160.7,408.2,159.2,410.8,160.8,411.8L160.8,411.8z"/>
		</g>
	</g>
	<g>
		<g>
			<path class="st0" d="M212.3,252c19.2,9.4,35.8,23.1,48.6,40.2c1.1,1.5,3.7,0,2.6-1.5c-13.1-17.5-30-31.7-49.6-41.3
				C212.1,248.6,210.6,251.2,212.3,252L212.3,252z"/>
		</g>
	</g>
	<g>
		<g>
			<path class="st0" d="M294.7,340.4c8.6,4.2,17.2,8.5,25.7,12.7c1.7,0.9,3.2-1.7,1.5-2.6c-8.6-4.2-17.2-8.5-25.7-12.7
				C294.5,336.9,292.9,339.5,294.7,340.4L294.7,340.4z"/>
		</g>
	</g>
</g>
<g id="guy">
	<g id="leg_back">
		<path class="st2" d="M845.7,996.7c6.4,12.3,12.8,24.7,19.2,37c-8.1,4.2-19.8,10.2-34.3,17.1c-19.3,9.2-28.6,13-28.1,16.5
			c0.6,3.9,13.3,4.8,23.3,5.5c7.7,0.5,22.6,1.2,69.9-8.2c10.2-2,15.1-3.2,17.8-7.5c4.7-7.5-0.9-18.2-7.5-32.9
			c-5.3-11.8-12.5-28.8-19.9-50.7C872.7,981.1,859.2,988.9,845.7,996.7z"/>
		<path class="st3" d="M628.1,598.9c15,54.6,31.2,98.8,44.5,131.5c11,26.9,20.5,47.4,24.5,55.8c19.4,40.9,36.3,69.7,43.3,82
			c18,31.3,43.8,78.9,76.1,148.5c7.7,1,26.7,2.4,47.3-7.6c25.7-12.4,36.7-34.2,39.7-40.7c-22.7-41.9-37.8-77.5-47.3-102.1
			c-25.9-66.8-29.2-104.2-55.8-191.1c-13-42.4-25.8-78.3-36.3-106C718.9,579.2,673.5,589,628.1,598.9z"/>
		<path class="st4" d="M694.8,586.6c40.8,97.2,80.8,197.7,119.7,301.4c15.6,41.7,30.8,83,45.4,124c7-3.8,16.1-9.6,25.3-18.3
			c8.9-8.5,15.1-16.9,19.2-23.6c-9.1-15.2-23-39.8-36.7-71.6c-10.5-24.3-18.9-48.4-60.3-203.5c-4.4-16.5-13.8-51.9-33.2-96.1
			c-5.3-12.1-10-21.8-13.1-28C739.1,576.1,717,581.3,694.8,586.6z"/>
		<path class="st5" d="M742.9,575.2c17.1,43.9,33.8,90,49.8,138c33.8,102,59.7,199.2,79.5,290c4.7-2.9,10.2-6.8,15.7-12.2
			c8-7.8,13.3-15.8,16.6-21.8c-18-32.5-30.4-60.2-38.4-79.5c-30.2-72.6-47.7-145.5-57.7-186.9c-1.6-6.6-2.5-10.6-4.4-17.5
			c-10.2-37.1-19.7-51.5-32.3-90.9c-1.6-5.1-4.2-13.3-7-23.6C757.4,572.3,750.2,573.7,742.9,575.2z"/>
	</g>
	<g id="leg_front">
		<path class="st2" d="M621.6,895.9c8.9,11.4,17.8,22.8,26.7,34.3c-50.7,17.5-62.5,25.5-61.7,29.5c2,9.2,72.5-6.8,102.8-2.7
			c2.4,0.3,10.1,1.5,13.7-2.7c3.1-3.7,1.7-9.8,0.7-13c-15.8-24-31.5-48-47.3-72C644.9,878.1,633.2,887,621.6,895.9z"/>
		<path class="st3" d="M775.4,601.2c6.6,17.5,26.9,77.1-2.8,118.3c-2.9,4.1-11.6,15.3-49.2,36.1c-37.5,20.7-71.8,33.4-98.5,41.3
			c8.1,13.8,18.2,29.1,30.8,44.9c9.9,12.4,19.7,23.2,29,32.5c-19.3,16.7-38.7,33.4-58,50.1c-17.9-8.1-47.6-24.4-73.9-55.4
			c-17-20-37.1-43.8-36.9-74.8c0.2-28.8,18-48,51-83.5c22.4-24.1,58.9-62.5,121.4-87.9C723.1,608.6,754.2,603.3,775.4,601.2z"/>
		<path class="st6" d="M706.1,616.3c4,8.9,8.6,23,7,39.8c-2.1,22.3-14.3,39.5-34.9,60c-20.3,20.2-56.8,51.5-115.1,79.5
			c30,34.2,60,68.3,90,102.5c10.2-7.4,20.5-14.9,30.7-22.3c-9.5-10-19.4-21.3-29.3-34.2c-11.9-15.4-21.8-30.2-30-43.9
			c29.6-9.7,53.8-19.7,71.8-27.9c0,0,21.9-9.9,49.5-27.2c12.3-7.7,20.2-13.4,27.2-23c8.3-11.4,11.1-22.2,12.6-27.9
			c9.7-37.7-8-80.9-11.9-90c-11.2,0.4-24.7,1.9-39.8,5.6C723.4,609.8,714,613,706.1,616.3z"/>
		<path class="st5" d="M783.5,690.2c-17.8,14.9-38,30.3-60.7,45.3c-41.4,27.5-81,47.5-115.8,62.1c21.2,28.6,42.3,57.2,63.5,85.8
			c4.4-3,8.8-6,13.3-9.1c-10.4-11.5-21.2-24.5-32.1-39.1c-10.1-13.6-18.9-26.7-26.5-39.1c8.4-2.2,20-5.6,33.5-10.5
			c29.4-10.7,49.1-21.9,70.4-34.2c30-17.3,36.5-24.2,41.1-30.7C778.3,709.6,781.8,698.1,783.5,690.2z"/>
	</g>
	<g id="hand_back">
		<path class="st3" d="M725.3,358.1c-14.8-6.1-32.2,22-33.8,24.6c-5.9,9.8-7.3,16.9-12.8,35.9c-13.5,46.5-20.5,70-33.8,82.2
			c-11.9,10.9-24.4,11.4-27.7,11.3c-14-0.1-25.5-9.8-48-29.3c-18.9-16.4-20.9-21.4-31.8-25.5c-5.6-2.1-21.8-8.3-34.5,3.8
			c-8.1,7.7-13,21.9-10.8,25.5c2.8,4.6,17.9-6.3,18-5.9c0.1,0.2-4.3,2-8.4,6.9c-2,2.4-5.5,7.6-4.7,9.4c1.5,3.5,14.9-12.6,26.9-6.6
			c8.2,4.1,8.6,14.9,18.1,19.1c5.6,2.5,10.9,1.1,14.3-0.2c4.6,9.6,12.3,23.4,24.3,35.9c7.1,7.5,32.4,33.1,67.6,29.3
			c37.2-4.1,59.9-38.5,66.9-49.1c4-6.1,33.5-52.3,29.1-112.5C743.5,403.2,740.6,364.5,725.3,358.1z"/>
		<path class="st7" d="M723.6,358.1c-5.6,2.5,1.4,30.6-4.3,67.3c-5.4,35.3-19.6,59.1-26,69.9c-8.6,14.6-19.9,33.6-39.2,43.3
			c-25.9,13.1-54.9,3.9-74.3-13.3c-5.8-5.1-10.7-18.5-23.6-28.9c-5.6-4.5-10.2-6.9-15.5-9.6c-13-6.6-24.7-12.6-36.6-7.4
			c-5.7,2.5-10.8,7.2-10.5,8.1c0.3,0.9,6.9-2.1,12.8-4.9c-7.9,10.4-9.4,13.6-9,14.4c0.4,0.8,2.8-1.3,8.4-4.1c6-3,10.3-5,15.1-3.3
			c2.5,0.9,4.2,2.4,5.3,3.3c4,3.6,4.7,6.9,8.7,11c2.5,2.5,4.7,3.7,5.8,4.3c2.4,1.3,7.6,3.5,14.9,1.7c5,10.1,28.3,55,69.2,63.2
			c21,4.2,37.7-3,44.3-6c36.1-16.4,54.3-55.4,59.1-66.2c14.7-33.5,24.6-85.8,9.5-123.5C734.1,368.3,727.5,356.4,723.6,358.1z"/>
		<path class="st8" d="M741.8,402.5c-2.5,10.8-6.6,26.3-12.6,44.2c-11.9,35.5-22.6,67.4-43.5,90c-25.8,28-56.7,30.3-74.1,29.2
			c12.2,6.9,22.3,8.4,28.8,8.5c49,1.5,83.2-63.3,93.8-92.5c1.9-5.2,5.7-15.9,7.9-31.2C745.1,430.3,743.4,412.9,741.8,402.5z"/>
	</g>
	<g id="torso">
		<path class="st9" d="M647.1,378.1c-16,17-19.9,36-26.1,66.3c-9.4,45.6-4.8,83.2-0.5,116.8c3.6,28.1,8.9,50.9,12.9,66.2
			c5.5,4.3,37.7,28.6,82.4,22.1c40-5.9,62.9-32.4,68.1-38.8c1.7-9.5,4.1-23.5,6.9-40.5c15.9-98.6,24.9-148.1,12.9-171.5
			c-7-13.7-22.5-34-61.3-48.6C731.2,348.9,679.3,343.9,647.1,378.1z"/>
		<path class="st10" d="M650.6,374.7c31.7,11.7,47.4,29,54.8,39.2c41,56.3,15.8,139.7-13.7,186.1c-11.9,18.7-24.9,32.1-34.4,40.7
			c8.8,4.2,31.3,13.4,60,9.1c38.6-5.9,60.7-32.2,65.8-38.6c4.1-40.4,10.4-72.1,15.7-94c4.6-19.2,6.7-36.5,11-71.1
			c1.5-12.2,3.3-28-4.6-44.5c-4.5-9.4-10.4-15.5-14.8-20c-6.6-6.7-19.9-18.1-41.6-25.1c-10.2-2.5-27.7-5.3-49.1-1.7
			C676.2,358.7,659.4,368.6,650.6,374.7z"/>
		<path class="st11" d="M801.3,391c-1.8,0.1,2,27.8-3.9,66c-10.9,70.7-45.9,119.7-59.4,137.1c-11.3,14.5-29,34.5-54.9,54.2
			c9.3,1.4,21.7,2,35.9-0.7c33.7-6.3,55.1-27,63.3-35.9c2.1-12.2,5.5-31.3,9.8-54.9c10.1-55.2,12.1-61.8,13.7-79
			C810.2,430.9,803.4,391,801.3,391z"/>
		<path class="st9" d="M789.2,344.4"/>
	</g>
	<g id="hand_front">
		<path class="st3" d="M787.1,378.4c-18.6-6.1-40.3,21.9-42.3,24.5c-7.4,9.7-9.2,16.8-16.1,35.7c-16.9,46.3-25.6,69.7-42.3,81.8
			c-14.9,10.9-30.5,11.3-34.7,11.3c-17.5-0.1-31.9-9.8-60-29.2c-23.7-16.3-26.1-21.3-39.7-25.4c-7-2.1-27.2-8.2-43.1,3.8
			c-10.1,7.7-16.3,21.8-13.5,25.4c3.5,4.6,22.4-6.2,22.5-5.9c0.1,0.2-5.4,1.9-10.5,6.8c-2.5,2.4-6.9,7.5-5.9,9.4
			c1.9,3.5,18.7-12.5,33.7-6.6c10.2,4.1,10.8,14.8,22.7,19c7,2.5,13.7,1.1,17.9-0.2c5.8,9.5,15.4,23.3,30.4,35.7
			c8.9,7.4,40.6,33,84.5,29.2c46.6-4,74.9-38.3,83.7-48.9c5.1-6.1,42-52.1,36.4-111.9C809.9,423.2,806.3,384.7,787.1,378.4z"/>
		<path class="st7" d="M785.1,378.3c-7,2.5,1.8,30.4-5.3,67c-6.8,35.1-24.5,58.8-32.6,69.5c-10.8,14.5-24.9,33.4-49.1,43.1
			c-32.4,13-68.7,3.8-93-13.2c-7.2-5.1-13.3-18.4-29.5-28.8c-7-4.5-12.7-6.8-19.4-9.5c-16.3-6.6-30.9-12.5-45.8-7.3
			c-7.2,2.5-13.5,7.2-13.2,8c0.3,0.9,8.6-2.1,16-4.9c-9.9,10.4-11.8,13.6-11.3,14.4c0.6,0.8,3.5-1.3,10.5-4.1c7.5-3,12.9-5,18.9-3.3
			c3.1,0.9,5.3,2.4,6.6,3.3c5.1,3.5,5.9,6.9,10.9,10.9c3.1,2.5,5.9,3.7,7.3,4.3c3,1.3,9.6,3.5,18.7,1.7
			c6.3,10.1,35.4,54.7,86.6,62.9c26.3,4.2,47.1-3,55.4-6c45.2-16.3,68-55.1,73.9-65.9c18.3-33.4,30.8-85.4,11.9-122.9
			C798.2,388.5,789.9,376.6,785.1,378.3z"/>
		<path class="st8" d="M807.9,422.5c-3.2,10.7-8.2,26.2-15.7,44c-14.9,35.3-28.3,67.1-54.4,89.6c-32.3,27.8-70.9,30.1-92.7,29
			c15.3,6.9,27.9,8.3,36,8.5c61.3,1.4,104.1-63,117.4-92.1c2.4-5.1,7.2-15.8,9.9-31C812,450.1,809.9,432.9,807.9,422.5z"/>
	</g>
	<g id="shield">
		<path class="st12" d="M504.2,362c-19.5,58.2-20.1,106.9-18,136.6c5.3,78.1,36.3,135.7,54.8,169.2c12.9,23.4,25.7,42,35.4,55
			c3.3,0.3,6.7,0.5,10,0.8c1-12.8,2.6-30.3,5.4-50.8c2-14.9,10.4-74.1,34.1-150.4c12.1-39.1,29.5-86.7,54.6-139.1
			c-10.9-3.1-21.9-6.1-32.8-9.2c-8.1,32.5-27.8,50.8-38.9,48.2c-10.6-2.5-19.4-25.3-15.6-54.6c-6.8-1.1-13.7-2.2-20.5-3.3
			c-12.4,29.3-29.9,45.4-39.1,42.3c-8.3-2.8-11.9-21.9-9.4-44.5C517.6,362.1,510.9,362,504.2,362z"/>
		<path class="st13" d="M497.9,361.7c-10.8,29.1-24,76.5-21.2,135.2c1.2,24.6,7.3,96.2,54.8,169.2c16.1,24.8,32.9,43.3,45.5,55.8
			c1-12.8,2.6-30.3,5.4-50.8c2-14.9,10.4-74.1,34.1-150.4c12.1-39.1,29.5-86.7,54.6-139.1c-9.5-3.3-18.9-6.6-28.4-9.9
			c-9.4,34.1-31.3,52.2-43.3,49c-11.1-3-19.4-26.1-15.6-54.6c-6.6-0.7-13.2-1.4-19.9-2.1c-12.2,29.1-30.2,44.4-39.7,41.2
			c-8.4-2.9-12.2-21.2-9.9-42.6C508.8,362.2,503.3,362,497.9,361.7z"/>
		<g>
			<g>
				<path class="st14" d="M524.6,492.7c1.7-9.8,9.4-17.9,19.2-19.8c14.8-2.8,19.3,14.3,18.2,25.9c-0.2,1.9,2.8,1.9,3,0
					c1.3-12.2-3.6-30.2-18.8-29.2c-12.1,0.8-22.4,10.5-24.5,22.4C521.3,493.8,524.2,494.6,524.6,492.7L524.6,492.7z"/>
			</g>
		</g>
		<g>
			<g>
				<path class="st14" d="M521.1,494.6c14.5,0.2,28.7,2.3,42.6,6.5c1.9,0.6,2.6-2.3,0.8-2.9c-14.1-4.3-28.6-6.5-43.4-6.6
					C519.1,491.6,519.1,494.6,521.1,494.6L521.1,494.6z"/>
			</g>
		</g>
		<g>
			<g>
				<path class="st14" d="M518.3,493.5c-3.5,11.1-5,22.4-4.7,34c0.1,1.9,3.1,1.9,3,0c-0.4-11.3,1.2-22.4,4.5-33.2
					C521.8,492.5,518.9,491.7,518.3,493.5L518.3,493.5z"/>
			</g>
		</g>
		<g>
			<g>
				<path class="st14" d="M514.3,530.1c14.3,6.6,29.9,9.2,45.6,7.2c1.9-0.2,1.9-3.2,0-3c-15.1,1.9-30.2-0.3-44.1-6.7
					C514.1,526.7,512.6,529.3,514.3,530.1L514.3,530.1z"/>
			</g>
		</g>
		<g>
			<g>
				<path class="st14" d="M562.8,500.9c0,11.5-0.9,22.9-2.9,34.3c-0.3,1.9,2.6,2.7,2.9,0.8c2-11.6,3-23.3,3-35.1
					C565.8,499,562.8,499,562.8,500.9L562.8,500.9z"/>
			</g>
		</g>
		<g>
			<g>
				<path class="st14" d="M538.3,510.7c-0.7-0.7,0.7-2.8,1.6-2.4c0.9,0.4,0.5,2.6-0.5,2.1c-0.2-0.1-0.2-0.4-0.3-0.4
					c0.2,0.1,0.2,0,0.1,0c-0.2,0.1-0.2,0.4-0.5,0.5c-1.2,0.5-0.6-1.8-0.1-1.8c0.5,0,0.7,2.3,0.3,2.5c-0.5,0.1-1-1-1-1.3
					c-0.1-0.5,0-1,0.4-1.3c1-0.8,1.8,0.1,2,1.1c0.1,0.5,0,1.2-0.3,1.6c-0.1,0.1-0.6,0.2-0.7,0.1c-0.6-1.8-3.5-1-2.9,0.8
					c1.2,3.4,5.7,2.6,6.7-0.5c1-3.2-1.3-6.9-4.9-6.2c-3.3,0.7-4.2,4.7-2.2,7.2c1.1,1.3,3,2.1,4.5,1.1c1.4-0.9,1.7-2.7,1.6-4.2
					c-0.2-1.7-1.1-3.4-2.9-3.8c-1.8-0.4-3.2,1-3.8,2.6c-0.6,1.5-0.4,3.3,0.8,4.4c1.1,1,2.9,1,4.1,0.3c1.5-0.8,2.4-2.7,1.7-4.3
					c-0.6-1.4-2.3-2.1-3.8-1.6c-1.6,0.5-2.3,2.3-1.9,3.8c0.4,1.6,2,2.6,3.7,2.5c4.1-0.4,4.7-6.6,0.9-8c-3.9-1.4-7.5,4.5-4.6,7.4
					C537.6,514.1,539.7,512,538.3,510.7L538.3,510.7z"/>
			</g>
		</g>
		<g>
			<g>
				<path class="st14" d="M537.5,511.3c-0.6,3.4-1.3,6.8-1.9,10.2c-0.4,1.9,2.5,2.7,2.9,0.8c0.6-3.4,1.3-6.8,1.9-10.2
					C540.7,510.2,537.8,509.4,537.5,511.3L537.5,511.3z"/>
			</g>
		</g>
		<g>
			<g>
				<path class="st14" d="M536.4,511.1c-0.7,3.6-1.1,7.2-1.1,10.8c0,1.9,3,1.9,3,0c0-3.4,0.3-6.7,1-10
					C539.7,510,536.8,509.2,536.4,511.1L536.4,511.1z"/>
			</g>
		</g>
		<g>
			<g>
				<path class="st14" d="M539.1,511.1c-1,3.5-2.1,6.9-3.1,10.4c-0.5,1.9,2.3,2.6,2.9,0.8c1-3.5,2.1-6.9,3.1-10.4
					C542.5,510,539.6,509.2,539.1,511.1L539.1,511.1z"/>
			</g>
		</g>
		<g>
			<g>
				<path class="st14" d="M538.3,509.6c1.9,0,1.9-3,0-3C536.4,506.6,536.4,509.6,538.3,509.6L538.3,509.6z"/>
			</g>
		</g>
		<g>
			<g>
				<path class="st14" d="M578.3,370c-1.6,13.6,0.4,27,5.7,39.6c0.4,0.9,1.7,0.1,1.3-0.8c-5.2-12.3-7.1-25.6-5.5-38.9
					C579.9,369,578.4,369,578.3,370L578.3,370z"/>
			</g>
		</g>
		<g>
			<g>
				<path class="st14" d="M507.2,368.1c-0.8,11.4,0.7,22.6,4.6,33.4c0.3,0.9,1.8,0.5,1.4-0.4c-3.9-10.6-5.4-21.7-4.6-33
					C508.8,367.1,507.3,367.1,507.2,368.1L507.2,368.1z"/>
			</g>
		</g>
		<g>
			<g>
				<path class="st14" d="M648.5,379.3c3.8,2.2,7.7,4.1,11.8,5.7c0.9,0.4,1.3-1.1,0.4-1.4c-3.9-1.6-7.7-3.4-11.4-5.5
					C648.4,377.5,647.6,378.8,648.5,379.3L648.5,379.3z"/>
			</g>
		</g>
	</g>
	<g id="head">
		<path class="st13" d="M640.6,204.2c-1.8,5.6-3.6,11.2-5.2,17.1c-6.9,23.9-11.5,46.8-14.6,68.1c5,0.2,9.9,0.3,14.9,0.5
			c-1.2,4.7-5.2,21.8,3.6,40.6c8.2,17.6,22.4,25.7,26.9,28c-1.3,6.6-2.5,13.2-3.8,19.8c3.6,1.7,24.4,11.3,48.2,2
			c19.8-7.7,28.9-23.5,31.2-27.9c-9.5-16-12.1-30.1-12.9-38.2c-1.4-13.9,0.9-25.3,2.9-35.5c2.1-10.4,4.8-18.8,7-24.8
			c6.8-18.6,0-50.5-20.4-64.5C698.3,175.5,664.7,180.2,640.6,204.2z"/>
		<g>
			<g>
				<path class="st0" d="M633.5,290.4c2.6,0,5.3,0,7.9,0.1c1,0,1-1.5,0-1.5c-2.6-0.1-5.3-0.1-7.9-0.1
					C632.5,288.9,632.5,290.4,633.5,290.4L633.5,290.4z"/>
			</g>
		</g>
		<path class="st12" d="M724.4,230c-11.2,1.2-14.5,10.4-31,28.2c-16.7,18-27.2,29.3-43.9,34.3c-10.8,3.2-15.6,1.3-20.9,6.7
			c-9.2,9.3-6.4,27.2-3,36.6c3.9,10.9,11.1,18.1,17.1,24c5.7,5.7,11.1,9.6,15,12.1c-3.5-7.3-3.5-9.5-2.8-10c1.7-1.2,6.7,7.3,14,7.4
			c2.1,0,6-0.7,15.9-12.4c6.7-8,11.3-13.4,15.1-21.6c8-17.7,1-23.8,6.6-47.8c0.9-3.7,7.4-32,17.8-32.5c3.8-0.2,7.1,3.4,8.6,6
			c3,5.5,1.6,13.3-4.1,19.5c1.7-0.8,17.6-8.7,19.7-24.7c0.3-2.5,1.5-11.8-4.6-18.8C736.7,228.8,725.3,229.9,724.4,230z"/>
		
			<ellipse transform="matrix(0.9905 0.1377 -0.1377 0.9905 41.1392 -86.698)" class="st0" cx="647.3" cy="254.1" rx="3.8" ry="6.8"/>
		<g>
			<g>
				<path class="st0" d="M640.3,248c4.9-2.2,10-3.6,15.2-4.5c1.9-0.3,1.1-3.2-0.8-2.9c-5.5,0.9-10.8,2.5-16,4.8
					C637,246.2,638.5,248.8,640.3,248L640.3,248z"/>
			</g>
		</g>
		<path class="st15" d="M636,214.5c1.9-6.3,5.8-16.5,14.3-26.5c3-3.5,9.3-11,18.3-15.3c17.2-8.3,41.4-4.1,57.3,11.2
			c15.5,15,21,38.8,14.1,60.8C705.4,234.6,670.7,224.6,636,214.5z"/>
		<g>
			<g>
				<path class="st0" d="M577.4,207.5c53.5,14.5,107,29.1,160.5,43.6c5.6,1.5,8-7.2,2.4-8.7c-53.5-14.5-107-29.1-160.5-43.6
					C574.2,197.3,571.8,206,577.4,207.5L577.4,207.5z"/>
			</g>
		</g>
		<path class="st16" d="M689.4,168.8c13.5,5,22.5,17.7,22.5,31.6c0,12.1-6.9,23.4-17.8,29.4c15.3,4.3,30.5,8.5,45.8,12.8
			c1.4-4,3-10.2,3-17.7c0.1-17.5-8.3-29.9-11.1-33.7c-3-4.1-13.7-17.8-32-21.4C695.6,168.8,691.9,168.7,689.4,168.8z"/>
	</g>
</g>
</svg>
