<?xml version="1.0" encoding="utf-8"?>
<!-- Generator: Adobe Illustrator 19.0.0, SVG Export Plug-In . SVG Version: 6.00 Build 0)  -->
<svg version="1.1" xmlns="http://www.w3.org/2000/svg" xmlns:xlink="http://www.w3.org/1999/xlink" x="0px" y="0px"
	 viewBox="0 0 1600 1200" style="enable-background:new 0 0 1600 1200;" xml:space="preserve">
<style type="text/css">
	.st0{fill:#161616;}
	.st1{fill:#E8E8E8;}
	.st2{fill:#161616;stroke:#161616;stroke-width:3;stroke-miterlimit:10;}
	.st3{fill:#FFFFFF;}
	.st4{fill:#5222D0;}
	.st5{fill:#EC615B;}
	.st6{fill:#FFFFFF;stroke:#161616;stroke-width:3;stroke-miterlimit:10;}
	.st7{opacity:9.000000e-002;fill:#3D3D3D;}
	.st8{opacity:0.18;fill:#3D3D3D;}
	.st9{opacity:0.12;fill:#3D3D3D;}
	.st10{opacity:0.15;fill:#3D3D3D;}
	.st11{opacity:0.17;fill:#3D3D3D;}
	.st12{fill:#FFFFFF;stroke:#191919;stroke-width:2;stroke-miterlimit:10;}
	.st13{fill:#191919;}
	.st14{opacity:0.16;fill:#6C6D6D;}
	.st15{opacity:0.1;fill:#6C6D6D;}
	.st16{opacity:0.11;fill:#3D3D3D;}
	.st17{opacity:0.21;fill:#3D3D3D;}
	.st18{opacity:0.69;fill:#3A1DA3;}
	.st19{opacity:0.24;fill:#3D3D3D;}
	.st20{opacity:0.19;fill:#3D3D3D;}
	.st21{fill:none;stroke:#161616;stroke-width:2;stroke-miterlimit:10;}
</style>
<g id="ground">
	<g>
		<g>
			<path class="st0" d="M346.7,1006.3c35.5,0,71,0,106.5,0c1.9,0,1.9-3,0-3c-35.5,0-71,0-106.5,0
				C344.8,1003.3,344.8,1006.3,346.7,1006.3L346.7,1006.3z"/>
		</g>
	</g>
	<g>
		<g>
			<path class="st0" d="M459.6,1035.3c75.3,0,150.5,0,225.8,0c1.9,0,1.9-3,0-3c-75.3,0-150.5,0-225.8,0
				C457.7,1032.3,457.7,1035.3,459.6,1035.3L459.6,1035.3z"/>
		</g>
	</g>
	<g>
		<g>
			<path class="st0" d="M746.7,1007.9c73.5,0,146.9,0,220.4,0c73.1,0,146.3,0,219.4,0c41.6,0,83.1,0,124.7,0c1.9,0,1.9-3,0-3
				c-73.5,0-146.9,0-220.4,0c-73.1,0-146.3,0-219.4,0c-41.6,0-83.1,0-124.7,0C744.8,1004.9,744.8,1007.9,746.7,1007.9L746.7,1007.9z
				"/>
		</g>
	</g>
	<g>
		<g>
			<path class="st0" d="M1072.5,986.9c85.4,0,170.8,0,256.2,0c24.3,0,48.5,0,72.8,0c1.9,0,1.9-3,0-3c-85.4,0-170.8,0-256.2,0
				c-24.3,0-48.5,0-72.8,0C1070.6,983.9,1070.6,986.9,1072.5,986.9L1072.5,986.9z"/>
		</g>
	</g>
	<g>
		<g>
			<path class="st0" d="M1241.9,1040.1c75.6,0,151.3,0,226.9,0c21.7,0,43.3,0,65,0c1.9,0,1.9-3,0-3c-75.6,0-151.3,0-226.9,0
				c-21.7,0-43.3,0-65,0C1239.9,1037.1,1239.9,1040.1,1241.9,1040.1L1241.9,1040.1z"/>
		</g>
	</g>
</g>
<g id="background">
	<g>
		<g>
			<path class="st1" d="M1259,78.1c20.3,9.9,26.7,33.3,29,54c3.1,27.8,2.4,56.5,2.2,84.4c-0.4,61-4,122-7.3,182.9
				c-6.5,121.7-13.1,243.4-19.6,365.1c-3.7,68.5-7.4,137-11,205.5c-0.1,1.9,2.9,1.9,3,0c6.7-124.4,13.4-248.8,20-373.1
				c3.3-61.9,6.6-123.7,10-185.6c3.3-61.6,7.1-123.2,7.9-184.9c0.2-17.2,0.2-34.4-0.2-51.7c-0.3-14.7-0.4-29.5-2.1-44.1
				c-2.6-21.3-9.5-45.1-30.3-55.2C1258.8,74.7,1257.3,77.3,1259,78.1L1259,78.1z"/>
		</g>
	</g>
	<g>
		<g>
			<path class="st1" d="M1206.5,58.3c22.8,3.8,44.2,12.6,63.1,25.8c1.6,1.1,3.1-1.5,1.5-2.6c-19.1-13.3-40.9-22.2-63.8-26.1
				C1205.4,55,1204.6,57.9,1206.5,58.3L1206.5,58.3z"/>
		</g>
	</g>
	<g>
		<g>
			<path class="st1" d="M1118,29.1c31.1,3.2,64.6,7.3,88.5,29.6c1.4,1.3,3.5-0.8,2.1-2.1c-24.5-22.9-58.6-27.2-90.6-30.5
				C1116,25.9,1116.1,28.9,1118,29.1L1118,29.1z"/>
		</g>
	</g>
	<g>
		<g>
			<path class="st1" d="M1205.8,58.8c-4.3,32-22,61.5-48.3,80.2c-1.6,1.1-0.1,3.7,1.5,2.6c27.3-19.5,45.4-49.6,49.8-82.8
				C1209.1,56.9,1206.1,56.9,1205.8,58.8L1205.8,58.8z"/>
		</g>
	</g>
	<g>
		<g>
			<path class="st1" d="M1116.1,27.4c26.2,31.8,40.3,72.5,39.5,113.7c0,1.9,3,1.9,3,0c0.7-42-13.7-83.4-40.4-115.8
				C1117,23.8,1114.9,25.9,1116.1,27.4L1116.1,27.4z"/>
		</g>
	</g>
	<g>
		<g>
			<path class="st1" d="M1131.8,62.3c-12-0.8-23.1,14.3-17.3,25.5c4.3,8.3,20.6,12.7,26.3,3.7c1-1.6-1.6-3.1-2.6-1.5
				c-4.5,7.2-18.5,2.3-21.2-4.2c-4-9.4,5.2-21.2,14.9-20.5C1133.7,65.4,1133.7,62.4,1131.8,62.3L1131.8,62.3z"/>
		</g>
	</g>
	<g>
		<g>
			<path class="st1" d="M1115.3,26.8c1.1,14,3.3,27.9,6.7,41.5c0.5,1.9,3.4,1.1,2.9-0.8c-3.3-13.4-5.5-27-6.6-40.7
				C1118.1,24.9,1115.1,24.9,1115.3,26.8L1115.3,26.8z"/>
		</g>
	</g>
	<g>
		<g>
			<path class="st1" d="M1134,96.9c6.6,15,13.2,30,19.7,45c0.8,1.8,3.4,0.2,2.6-1.5c-6.6-15-13.2-30-19.7-45
				C1135.9,93.7,1133.3,95.2,1134,96.9L1134,96.9z"/>
		</g>
	</g>
	<g>
		<g>
			<path class="st1" d="M1134.8,95.6c3.9,11.2,7.9,22.4,14,32.7c1,1.7,3.5,0.2,2.6-1.5c-5.4-10.1-9.3-20.7-11.8-31.8
				c-0.8,0.5-1.7,1-2.5,1.5c0.1,0.1,0.1,0.1,0.2,0.2c-0.1-0.6-0.2-1.2-0.2-1.8c-0.1,0.1-0.1,0.2-0.2,0.3c0.8-0.1,1.6-0.2,2.4-0.3
				c-0.1-0.2,8.8-8.3,9.4-8.8c-0.8-0.2-1.7-0.4-2.5-0.7c2.1,9.1,3.5,18.3,4.4,27.6c1-0.1,2-0.3,2.9-0.4c-1.7-6.5-3.9-12.9-6.5-19.1
				c-0.7-1.7-3.3-1.1-2.9,0.8c1.7,8.1,3.3,16.2,5,24.4c1-0.3,1.9-0.5,2.9-0.8c-2.2-6.8-4.6-13.4-7.3-20c-0.7-1.8-3.4-1.1-2.9,0.8
				c2,7.5,4,15.1,6,22.6c0.9-0.4,1.8-0.8,2.7-1.2c-2.8-6.5-5.5-13-8.3-19.6c-0.7-1.5-3.3-0.4-2.7,1.2c4,10.8,8,21.6,11.8,32.5
				c0.6,1.8,3.4,1.1,2.9-0.8c-1.5-5.3-2.6-10.7-3.1-16.2c-1,0.1-2,0.3-2.9,0.4c1.8,6.2,3.6,12.4,5.4,18.6c0.5,1.9,3.3,1.1,2.9-0.8
				c-1.6-7-2.7-14.1-3.4-21.3c-1,0.1-2,0.3-2.9,0.4c1.3,7.3,2.5,14.6,4.3,21.8c0.4,1.6,3.1,1.3,2.9-0.4c-0.8-9-2.3-17.9-4.5-26.7
				c-0.5-1.9-3.3-1.1-2.9,0.8c0.7,3.1,0.7,6.1,0.3,9.3c0.9-0.3,1.9-0.5,2.8-0.8c-2.5-4.3-4.1-8.7-4.7-13.6c-0.2-1.5-1.9-2.1-2.8-0.8
				c-0.7,1-1.3,2-2,3c0.9,0,1.7,0,2.6,0c-1.3-3-1.8-5.8-1.7-9.1c-1,0-2,0-3,0c-0.2,0.7-0.4,1.4-0.6,2.1c0.8,0.2,1.7,0.4,2.5,0.7
				c-0.5-2.6-0.5-4.6-0.3-7.1c-1,0.1-2,0.3-2.9,0.4c-0.2,1.1-0.3,2.2-0.5,3.3c0.9,0,1.7,0,2.6,0c0.4-1.4,0.9-2.8,1.3-4.2
				c-0.7-0.3-1.5-0.6-2.2-0.9c-0.5,1.6-1,3.2-1.5,4.8c0.8,0.5,1.7,1,2.5,1.5c0.7-3.2,2.1-5.5,4.5-7.8c-0.8-0.2-1.7-0.4-2.5-0.7
				c0.4,2.7,0.1,4.9-0.8,7.5c1,0.1,2,0.3,2.9,0.4c0-2.2,0.3-4.1,1.1-6.2c-1-0.1-2-0.3-2.9-0.4c0,1.8,0.1,3.6,0.1,5.4
				c0,1.6,2.7,2.1,2.9,0.4c0.3-1.8,0.6-3.6,0.9-5.4c-1,0-1.9,0-2.9,0c0,1-0.1,2-0.1,3.1c-0.8,1.8,1.8,3.3,2.6,1.5
				c0.9-2,1.1-3.2,0.4-5.4c-0.4-1.3-2.6-1.5-2.9,0c-0.3,1.8-0.6,3.6-0.9,5.4c1,0.1,2,0.3,2.9,0.4c0-1.8-0.1-3.6-0.1-5.4
				c0-1.7-2.4-2-2.9-0.4c-0.9,2.4-1.2,4.5-1.2,7c0,1.7,2.4,2,2.9,0.4c1.1-3.1,1.3-5.8,0.8-9.1c-0.2-1.2-1.8-1.3-2.5-0.7
				c-2.7,2.5-4.4,5.5-5.3,9.1c-0.3,1.4,1.4,2.6,2.5,1.5c2.1-2.3,2.8-4.6,2.2-7.7c-0.2-0.9-1.5-1.4-2.2-0.9c-3,2-3.8,5-2.4,8.3
				c0.5,1.1,2,0.8,2.6,0c1.3-1.9,1.5-3.5,0.8-5.6c-0.6-1.7-2.8-1.3-2.9,0.4c-0.3,2.7-0.1,5.2,0.4,7.9c0.2,1.1,1.8,1.4,2.5,0.7
				c1.2-1.3,1.7-2.3,1.5-4.2c-0.2-1.9-3-2-3,0c-0.1,3.8,0.6,7.1,2.1,10.6c0.5,1.1,2,0.8,2.6,0c0.7-1,1.3-2,2-3
				c-0.9-0.3-1.9-0.5-2.8-0.8c0.7,5.5,2.3,10.4,5.1,15.1c0.8,1.4,2.6,0.6,2.8-0.8c0.5-3.5,0.3-6.6-0.4-10.1c-1,0.3-1.9,0.5-2.9,0.8
				c2.2,8.5,3.6,17.2,4.4,25.9c1-0.1,2-0.3,2.9-0.4c-1.7-7.2-3-14.5-4.3-21.8c-0.3-1.7-3.1-1.3-2.9,0.4c0.7,7.5,1.8,14.8,3.5,22.1
				c1-0.3,1.9-0.5,2.9-0.8c-1.8-6.2-3.6-12.4-5.4-18.6c-0.5-1.6-3.1-1.3-2.9,0.4c0.6,5.8,1.6,11.4,3.2,17c1-0.3,1.9-0.5,2.9-0.8
				c-3.9-10.9-7.8-21.7-11.8-32.5c-0.9,0.4-1.8,0.8-2.7,1.2c2.8,6.5,5.5,13,8.3,19.6c0.7,1.6,3.2,0.4,2.7-1.2c-2-7.5-4-15.1-6-22.6
				c-1,0.3-1.9,0.5-2.9,0.8c2.6,6.6,5,13.3,7.3,20c0.6,1.8,3.3,1.1,2.9-0.8c-1.7-8.1-3.3-16.2-5-24.4c-1,0.3-1.9,0.5-2.9,0.8
				c2.6,6.2,4.8,12.6,6.5,19.1c0.4,1.6,3.1,1.3,2.9-0.4c-0.9-9.6-2.4-19-4.5-28.4c-0.3-1.1-1.7-1.4-2.5-0.7
				c-2.8,2.6-7.7,5.7-9.6,9.1c-0.9,1.7-0.9,2.6,0.2,3.9c0.7,0.8,1.8,0.4,2.4-0.3c0.1-0.1,0.1-0.2,0.2-0.3c0.4-0.5,0.2-1.4-0.2-1.8
				c-0.1-0.1-0.1-0.1-0.2-0.2c-1.1-1.1-2.8,0-2.5,1.5c2.5,11.4,6.5,22.3,12.1,32.5c0.9-0.5,1.7-1,2.6-1.5c-5.9-10.1-9.9-21-13.7-32
				C1137,93,1134.1,93.8,1134.8,95.6L1134.8,95.6z"/>
		</g>
	</g>
	<g>
		<g>
			<path class="st1" d="M1116.9,31.1c2.9,10.7,5,21.5,6.4,32.4c0.1,1.1,1.2,1.9,2.3,1.3c3.3-1.8,6.6-3.1,10.3-4
				c0.9-0.2,1.4-1.4,0.9-2.2c-4.6-6.9-8.9-14-12.9-21.2c-0.9-1.7-3.4-0.2-2.6,1.5c2.7,5.9,4.8,12,6.5,18.2c0.9-0.4,1.8-0.8,2.7-1.2
				c-2.3-4.4-3.9-8.9-4.9-13.8c-0.9,0.4-1.8,0.8-2.7,1.2c3.7,5.4,5.7,11.3,6,17.8c0.9-0.4,1.7-0.7,2.6-1.1c-2.3-2.1-3.6-4.4-4.3-7.5
				c-0.7,0.6-1.5,1.1-2.2,1.7c2.1,1.6,2.8,3.4,2.3,5.5c0.9-0.3,1.9-0.5,2.8-0.8c-2.5-3.3-4.5-6.8-6.3-10.5c-0.7,0.7-1.4,1.4-2.1,2.1
				c2.8,1.8,6.5,19.7,13.6,11.6c2.6-3,1.1-6.8-0.6-9.9c-2.8-5.2-6.3-10-9.9-14.6c-1.1-1.4-3.2,0.4-2.4,1.8
				c3.9,6.7,6.8,13.7,8.7,21.2c0.9-0.4,1.8-0.8,2.7-1.2c-0.4-0.9-0.8-1.7-1.2-2.6c-0.7,0.7-1.4,1.4-2.1,2.1c0-0.1,0-0.1,0-0.2
				c-0.6,0.5-1.3,1-1.9,1.4c1.3,0.5,2.7,1,4,1.5c1.8,0.7,2.6-2.2,0.8-2.9c-1.3-0.5-2.7-1-4-1.5c-0.9-0.4-1.9,0.6-1.9,1.4
				c-0.1,7.9,11.1,1.6,4.5-2.4c-1.4-0.8-2.7,0.8-2.1,2.1c0.4,0.9,0.8,1.7,1.2,2.6c0.7,1.6,3.1,0.4,2.7-1.2c-2-7.8-4.9-15-9-21.9
				c-0.8,0.6-1.6,1.2-2.4,1.8c2.2,2.9,4.3,5.8,6.3,8.8c0.8,1.2,1.6,2.4,2.3,3.7c0.6,0.9,1.1,1.9,1.5,2.9c1.6,2.1,0.4,3.3-3.7,3.5
				c-1.4-1.1-1.6-4.8-2.2-6.4c-0.8-2-1.8-3.3-3.6-4.4c-1.4-0.8-2.6,0.8-2.1,2.1c1.8,3.8,3.8,7.2,6.3,10.5c0.9,1.2,2.6,0.8,2.8-0.8
				c0.4-3.5-0.9-6.1-3.8-8.1c-1.1-0.8-2.5,0.5-2.2,1.7c0.8,3.5,2.5,6.4,5.1,8.8c0.9,0.8,2.6,0.3,2.6-1.1c-0.3-7.1-2.5-13.5-6.4-19.3
				c-1-1.4-3.1-0.5-2.7,1.2c1.1,5.1,2.8,9.9,5.2,14.5c0.8,1.5,3.2,0.5,2.7-1.2c-1.7-6.5-4-12.8-6.8-18.9c-0.9,0.5-1.7,1-2.6,1.5
				c4,7.3,8.3,14.3,12.9,21.2c0.3-0.7,0.6-1.5,0.9-2.2c-3.9,0.9-7.5,2.3-11,4.3c0.8,0.4,1.5,0.9,2.3,1.3
				c-1.4-11.2-3.5-22.3-6.5-33.2C1119.3,28.4,1116.4,29.2,1116.9,31.1L1116.9,31.1z"/>
		</g>
	</g>
	<g>
		<g>
			<path class="st1" d="M1117,82.1c-2.3-5.7,3.2-11,7.6-13.6c4.3-2.6,9.1-3.5,14.1-3.2c1.4,0.1,1.8-1.6,1.1-2.6
				c-0.9-1.1-1.7-2.2-2.6-3.3c-0.8-1-2.7-0.2-2.6,1.1c-0.3-2-3.1-0.8-4.4-0.8c-4.8-0.1-2.9-1-3.1-3.7c-0.4-3.3-2.3-6.7-3.1-9.9
				c-1.2-4.7-1.8-9.4-2.2-14.2c-0.1-1.9-3.1-1.9-3,0c0.4,5.7,1.2,11.3,2.7,16.8c0.7,2.4,2.4,5.4,2.1,7.9c-0.1,1.1-0.9,1.9-0.9,3
				c0.1,2.3,2.4,3.7,4.5,3.7c2.3,0,4.6-0.5,7-0.4c1.3,0.1,1.5,0.4,2.7-0.4c0.4-0.3,0.8-0.8,0.7-1.3c0-0.2-0.1-0.5-0.1-0.7
				c-0.9,0.4-1.7,0.7-2.6,1.1c0.9,1.1,1.7,2.2,2.6,3.3c0.4-0.9,0.7-1.7,1.1-2.6c-9.8-0.6-29.9,7.5-24.6,20.6
				C1114.8,84.7,1117.7,83.9,1117,82.1L1117,82.1z"/>
		</g>
	</g>
	<g>
		<g>
			<path class="st1" d="M1122.7,65.3c-4.4,3.6-7.8,8.7-8.5,14.5c-0.6,5.1,2.5,9.6,6.3,12.8c10.2,8.7,21.1-1,27.5-9.2
				c1.2-1.5-0.9-3.6-2.1-2.1c-5.2,6.7-14.3,16.5-23.2,9.2c-3.9-3.2-6.3-7.6-5-12.7c1.1-4.2,3.8-7.7,7.2-10.4
				C1126.4,66.2,1124.2,64.1,1122.7,65.3L1122.7,65.3z"/>
		</g>
	</g>
	<g>
		<g>
			<path class="st1" d="M1152.6,102.3c0-0.1,0-0.2-0.1-0.3c-0.2,0.6-0.5,1.1-0.7,1.7c0.1-0.1,0.2-0.1,0.3-0.2
				c-0.7-0.2-1.4-0.4-2.1-0.5c1.4,2.2,1.4,6.2,1.8,8.7c0.5,3.3,1,6.7,1.4,10c0.6,5.7,0.9,11.4,1.1,17.2c0,1.9,3,1.9,3,0
				c-0.2-7-0.6-14-1.5-21c-0.3-2.7-0.7-5.3-1.2-8c-0.4-2.7-0.5-6.2-2-8.5c-0.4-0.7-1.3-0.9-2.1-0.5c-0.1,0.1-0.2,0.1-0.3,0.2
				c-0.6,0.3-0.9,1.1-0.7,1.7c0,0.1,0,0.2,0.1,0.3C1150.2,105,1153.1,104.2,1152.6,102.3L1152.6,102.3z"/>
		</g>
	</g>
	<g>
		<g>
			<path class="st1" d="M1117.9,31.7c3.5,4.4,6.1,9.3,7.8,14.7c0.6,1.8,3.5,1,2.9-0.8c-1.9-5.9-4.7-11.2-8.6-16
				C1118.9,28,1116.7,30.2,1117.9,31.7L1117.9,31.7z"/>
		</g>
	</g>
	<g>
		<g>
			<path class="st1" d="M1037.2,47.1c13.7,3.9,27.5,7.3,41.5,10.1c1.9,0.4,2.7-2.5,0.8-2.9c-14-2.8-27.8-6.2-41.5-10.1
				C1036.2,43.6,1035.4,46.5,1037.2,47.1L1037.2,47.1z"/>
		</g>
	</g>
	<g>
		<g>
			<path class="st1" d="M1002.2,93.8c26.2-2.1,52.1-7,77.4-14.6c1.8-0.6,1.1-3.5-0.8-2.9c-25,7.5-50.6,12.4-76.6,14.4
				C1000.3,90.9,1000.3,93.9,1002.2,93.8L1002.2,93.8z"/>
		</g>
	</g>
	<g>
		<g>
			<path class="st1" d="M1097.4,95.3c-6,3.7-11.6,7.9-16.9,12.5c-1.5,1.3,0.7,3.4,2.1,2.1c5.1-4.4,10.6-8.4,16.3-12
				C1100.6,96.9,1099.1,94.3,1097.4,95.3L1097.4,95.3z"/>
		</g>
	</g>
	<g>
		<g>
			<path class="st1" d="M1099.3,127.4c-21.4,18.5-42.9,37-64.3,55.5c-1.5,1.3,0.7,3.4,2.1,2.1c21.4-18.5,42.9-37,64.3-55.5
				C1102.9,128.3,1100.8,126.1,1099.3,127.4L1099.3,127.4z"/>
		</g>
	</g>
	<g>
		<g>
			<path class="st1" d="M1107.4,150.2c-6.5,12.4-13.1,24.9-19.6,37.3c-0.9,1.7,1.7,3.2,2.6,1.5c6.5-12.4,13.1-24.9,19.6-37.3
				C1110.9,150,1108.3,148.5,1107.4,150.2L1107.4,150.2z"/>
		</g>
	</g>
	<g>
		<g>
			<path class="st1" d="M1125,157.2c-3.3,19.5-5.3,39.2-6.1,59c-0.1,1.9,2.9,1.9,3,0c0.8-19.5,2.8-39,6-58.2
				C1128.2,156.1,1125.3,155.3,1125,157.2L1125,157.2z"/>
		</g>
	</g>
	<g>
		<g>
			<path class="st1" d="M1214.6,61.3c25.6-3.4,48.7,13.3,61.3,34.5c14.9,25,15.4,55.9,14.7,84.2c-1.5,64.1-4.2,128.1-6.8,192.1
				c-5.2,128.9-11.7,257.8-19.3,386.7c-4.3,72.4-9,144.7-14.1,217.1c-0.3,3.9,5.7,3.8,6,0c9.3-132.1,17.3-264.2,24-396.4
				c6.7-131.9,12.6-263.9,16.2-395.9c0.8-30.9,0.6-64.8-16.2-92c-13.7-22.2-38.6-39.8-65.7-36.2
				C1210.8,55.8,1210.8,61.8,1214.6,61.3L1214.6,61.3z"/>
		</g>
	</g>
	<g>
		<g>
			<path class="st1" d="M1209.2,60c7.2,0.2,14.4,0.3,21.4,1.9c7.3,1.7,12.9,5.8,19.4,9.1c1.7,0.9,3.2-1.7,1.5-2.6
				c-6.8-3.4-12.6-7.6-20.1-9.4c-7.3-1.7-14.8-1.9-22.2-2.1C1207.3,56.9,1207.3,59.9,1209.2,60L1209.2,60z"/>
		</g>
	</g>
	<g>
		<g>
			<path class="st1" d="M1209.2,62c21.4,2.1,41.7,9.9,59.1,22.6c1.6,1.1,3.1-1.5,1.5-2.6c-17.9-12.9-38.7-20.8-60.6-23
				C1207.3,58.8,1207.3,61.8,1209.2,62L1209.2,62z"/>
		</g>
	</g>
	<g>
		<g>
			<path class="st1" d="M1204.9,55c9.4,1.8,18.6,4.2,27.6,7c1.8,0.6,2.6-2.3,0.8-2.9c-9.1-2.9-18.3-5.2-27.6-7
				C1203.8,51.7,1203,54.6,1204.9,55L1204.9,55z"/>
		</g>
	</g>
	<g>
		<g>
			<path class="st1" d="M1207.1,54.7c11.7,1.3,23.1,3.8,34.2,7.4c1.8,0.6,2.6-2.3,0.8-2.9c-11.4-3.7-23.1-6.2-35-7.5
				C1205.2,51.5,1205.2,54.5,1207.1,54.7L1207.1,54.7z"/>
		</g>
	</g>
	<g>
		<g>
			<path class="st1" d="M1170.3,37.4c15.4,5.4,30.1,12.2,44.1,20.4c1.7,1,3.2-1.6,1.5-2.6c-14.3-8.4-29.3-15.3-44.9-20.7
				C1169.3,33.9,1168.5,36.8,1170.3,37.4L1170.3,37.4z"/>
		</g>
	</g>
	<g>
		<g>
			<path class="st1" d="M1166.1,36.4c15.7,5.8,30.8,12.8,45.3,21.1c1.7,1,3.2-1.6,1.5-2.6c-14.8-8.4-30.1-15.5-46.1-21.4
				C1165.1,32.9,1164.3,35.8,1166.1,36.4L1166.1,36.4z"/>
		</g>
	</g>
	<g>
		<g>
			<path class="st1" d="M1189.3,110.9c9.1-16,17-32.6,23.7-49.8c0.7-1.8-2.2-2.6-2.9-0.8c-6.6,16.9-14.4,33.3-23.4,49.1
				C1185.8,111,1188.4,112.5,1189.3,110.9L1189.3,110.9z"/>
		</g>
	</g>
	<g>
		<g>
			<path class="st1" d="M1208.9,59.9c-1.8,3-3.1,6.1-4,9.5c-0.5,1.9,2.4,2.7,2.9,0.8c0.8-3.1,2-6,3.7-8.8
				C1212.5,59.7,1209.9,58.2,1208.9,59.9L1208.9,59.9z"/>
		</g>
	</g>
	<g>
		<g>
			<path class="st1" d="M432.5,574.3c0,4.8,0,9.6,0,14.4c0,1.9,3,1.9,3,0c0-4.8,0-9.6,0-14.4C435.5,572.4,432.5,572.4,432.5,574.3
				L432.5,574.3z"/>
		</g>
	</g>
	<g>
		<g>
			<path class="st1" d="M434,590.8c70.1,0,140.2,0,210.3,0c1.9,0,1.9-3,0-3c-70.1,0-140.2,0-210.3,0
				C432.1,587.8,432.1,590.8,434,590.8L434,590.8z"/>
		</g>
	</g>
	<g>
		<g>
			<path class="st1" d="M435.6,575.3c69.2,0,138.5,0,207.7,0c1.9,0,1.9-3,0-3c-69.2,0-138.5,0-207.7,0
				C433.7,572.3,433.7,575.3,435.6,575.3L435.6,575.3z"/>
		</g>
	</g>
	<g>
		<g>
			<path class="st1" d="M641.7,574.9c0.2,4.8,0.1,9.6-0.5,14.4c-0.2,1.9,2.8,1.9,3,0c0.6-4.8,0.8-9.6,0.5-14.4
				C644.6,572.9,641.6,572.9,641.7,574.9L641.7,574.9z"/>
		</g>
	</g>
	<g>
		<g>
			<path class="st1" d="M553.1,507.5c-5.7,21.6-2.5,43.9,2.7,65.2c0.5,1.9,3.3,1.1,2.9-0.8c-5.1-20.9-8.3-42.5-2.7-63.6
				C556.5,506.4,553.6,505.6,553.1,507.5L553.1,507.5z"/>
		</g>
	</g>
	<g>
		<g>
			<path class="st1" d="M600.8,511.5c0.7,4.5,1.4,8.9,2.1,13.4c0.3,1.9,3.2,1.1,2.9-0.8c-0.7-4.5-1.4-8.9-2.1-13.4
				C603.4,508.8,600.5,509.6,600.8,511.5L600.8,511.5z"/>
		</g>
	</g>
	<g>
		<g>
			<path class="st1" d="M604.6,525.4c8.1-6.1,12.7,5.8,12.8,12c0.1,7.8-3.6,14.8-12.1,15.4c-1.9,0.1-1.9,3.1,0,3
				c11.6-0.7,16-10.9,14.9-21.3c-0.8-8-8.5-18.1-17.1-11.6C601.5,524,603,526.6,604.6,525.4L604.6,525.4z"/>
		</g>
	</g>
	<g>
		<g>
			<path class="st1" d="M604,553.8c-0.6,6-1.7,11.8-3.1,17.7c-0.5,1.9,2.4,2.7,2.9,0.8c1.5-6.1,2.6-12.2,3.3-18.5
				C607.2,551.8,604.2,551.9,604,553.8L604,553.8z"/>
		</g>
	</g>
	<g>
		<g>
			<path class="st1" d="M606.7,530.1c3.2-2.6,4.5,5.6,4.6,6.7c0.1,1.3-0.1,2.7-0.4,4c-0.8,3.1-2.5,5.6-4.9,7.6
				c-1.5,1.2,0.6,3.3,2.1,2.1c4.6-3.8,7-9.9,6-15.8c-0.7-4.4-4.6-10.8-9.5-6.7C603.1,529.2,605.2,531.3,606.7,530.1L606.7,530.1z"/>
		</g>
	</g>
	<g>
		<g>
			<path class="st1" d="M604.2,527.6c-0.4,7-0.3,14,0.2,21.1c0.1,1.9,3.1,1.9,3,0c-0.5-7-0.6-14-0.2-21.1
				C607.3,525.6,604.3,525.6,604.2,527.6L604.2,527.6z"/>
		</g>
	</g>
	<g>
		<g>
			<path class="st1" d="M558.1,510.9c12.1,3.9,24.7,4.9,37.3,3c1.9-0.3,1.1-3.2-0.8-2.9c-12.1,1.8-24.1,0.8-35.7-3
				C557.1,507.4,556.3,510.3,558.1,510.9L558.1,510.9z"/>
		</g>
	</g>
	<g>
		<g>
			<path class="st1" d="M565,503.3c-5.9-3.7,1-11.8,2-16.5c1-4.7-1.7-7-3.5-11c-2.6-5.8,3.4-10.1,4.3-15.7c0.8-4.9-3.2-9,2.2-13
				c1.5-1.1,0.1-3.7-1.5-2.6c-3.3,2.4-5.3,6.1-4.6,10.3c0.5,3.1,1.3,4.7-0.2,7.9c-0.7,1.6-1.7,3-2.5,4.6c-1,2.2-1.9,4.5-1.6,7
				c0.2,2.5,1.5,3.6,2.7,5.6c3.5,5.9,0.3,8.9-1.7,14.5c-1.5,4.2-1.1,8.8,2.9,11.3C565.1,506.9,566.6,504.3,565,503.3L565,503.3z"/>
		</g>
	</g>
	<g>
		<g>
			<path class="st1" d="M582.8,431.6c-1.5,3.9-3.4,8.3-3.7,12.5c-0.3,3.8,2.5,5.9,3.4,9.3c1.1,4.1-2.8,7.5-3.2,11.5
				c-0.5,5.2,4.1,8.6-0.4,13.6c-1.3,1.4,0.8,3.6,2.1,2.1c2.3-2.5,3.5-5.5,3.1-8.9c-0.3-2.5-2.1-4.6-1.7-7.3c0.3-2.1,1.9-4,2.6-6
				c1.2-3.2,0.7-5.7-0.9-8.6c-3.2-6-0.6-11.5,1.6-17.4C586.4,430.6,583.5,429.8,582.8,431.6L582.8,431.6z"/>
		</g>
	</g>
	<g>
		<g>
			<path class="st1" d="M597.6,461.4c-4.7,4.9-6.9,11.6-5.6,18.4c0.4,2.2,1.5,4.4,1.6,6.7c0.2,2.9-1.6,4.3-2.4,6.8
				c-1.1,3.2,2.8,7.8,0.4,10.3c-1.3,1.4,0.8,3.5,2.1,2.1c1.5-1.6,1.9-3.4,1.5-5.6c-0.4-2.4-1.8-4.1-0.8-6.6c0.6-1.5,1.8-2.3,2.2-4
				c0.8-3.8-1.2-7.4-1.8-11.1c-0.9-5.5,1.1-10.9,4.9-14.9C601.1,462.1,598.9,460,597.6,461.4L597.6,461.4z"/>
		</g>
	</g>
	<g>
		<g>
			<path class="st1" d="M450.6,572.3c-0.3-3.9-0.4-7.7-0.3-11.6c-0.5,0.5-1,1-1.5,1.5c16.1-1.6,32.3-2.4,48.5-2.6
				c7.8-0.1,15.6,0,23.3,0.3c1.9,0.1,3.9,0.1,5.8,0.2c1.3,0.1,4.6-0.4,5.8,0.3c2.9,1.7,1.7,10.9,1.8,13.8c0.1,1.9,3.1,1.9,3,0
				c-0.1-4.1,0.6-9.5-0.5-13.4c-0.5-1.7-1.1-2.6-2.9-3.3c-3.6-1.3-9.3-0.6-13.1-0.7c-4.5-0.2-9.1-0.3-13.6-0.3
				c-19.4-0.2-38.9,0.7-58.2,2.6c-0.8,0.1-1.5,0.6-1.5,1.5c-0.2,3.9-0.1,7.7,0.3,11.6C447.7,574.2,450.7,574.2,450.6,572.3
				L450.6,572.3z"/>
		</g>
	</g>
	<g>
		<g>
			<path class="st1" d="M475.6,557.9c0-1.8-0.7-5.6,0.1-7.2c1.3-2.9,6.7-2.1,9.3-2.2c5.7-0.2,11.3-0.5,17-0.7
				c5.3-0.2,10.6-0.4,16-0.6c3.4-0.1,7.2-1.1,8.6,2.7c0.8,2.2,0.5,5.6,0.7,7.9c0.2,1.9,3.2,1.9,3,0c-0.4-4,0.8-12.4-4.4-13.8
				c-2.9-0.8-6.9,0.1-10,0.2c-4.7,0.2-9.3,0.4-14,0.6c-8.2,0.3-17.2-0.4-25.2,1.1c-5.7,1-4.1,7.7-4.2,12
				C472.6,559.8,475.6,559.8,475.6,557.9L475.6,557.9z"/>
		</g>
	</g>
	<g>
		<g>
			<path class="st1" d="M508.2,559.8c1.7,4.6,2.3,9.2,1.7,14c-0.2,1.9,2.8,1.9,3,0c0.7-5.1,0.1-10-1.8-14.8
				C510.4,557.2,507.5,558,508.2,559.8L508.2,559.8z"/>
		</g>
	</g>
	<g>
		<g>
			<path class="st1" d="M508.4,546.8c1.8,4.1,2.2,8.4,1.4,12.8c-0.4,1.9,2.5,2.7,2.9,0.8c1-5.2,0.4-10.2-1.7-15.1
				C510.2,543.5,507.7,545,508.4,546.8L508.4,546.8z"/>
		</g>
	</g>
	<g>
		<g>
			<path class="st1" d="M519.7,545.9c0.7,3.6,1.4,7.3,1.8,10.9c0.2,1.9,3.2,1.9,3,0c-0.5-3.9-1.1-7.9-1.9-11.7
				C522.2,543.2,519.3,544,519.7,545.9L519.7,545.9z"/>
		</g>
	</g>
	<g>
		<g>
			<path class="st1" d="M524.8,560.3c1.5,4,1.8,8,0.9,12.1c-0.4,1.9,2.4,2.7,2.9,0.8c1.1-4.6,0.8-9.3-0.9-13.7
				C527,557.7,524.1,558.5,524.8,560.3L524.8,560.3z"/>
		</g>
	</g>
	<g>
		<g>
			<path class="st1" d="M416.4,302.6c0,4.1,0.2,8.2,0.5,12.2c0.2,1.9,3.2,1.9,3,0c-0.4-4.1-0.6-8.1-0.5-12.2
				C419.4,300.7,416.4,300.7,416.4,302.6L416.4,302.6z"/>
		</g>
	</g>
	<g>
		<g>
			<path class="st1" d="M419.2,318.1c72.1,0,144.1,0,216.2,0c1.9,0,1.9-3,0-3c-72.1,0-144.1,0-216.2,0
				C417.3,315.1,417.3,318.1,419.2,318.1L419.2,318.1z"/>
		</g>
	</g>
	<g>
		<g>
			<path class="st1" d="M418.8,303.7c72.1,0,144.1,0,216.2,0c1.9,0,1.9-3,0-3c-72.1,0-144.1,0-216.2,0
				C416.8,300.7,416.8,303.7,418.8,303.7L418.8,303.7z"/>
		</g>
	</g>
	<g>
		<g>
			<path class="st1" d="M634.4,302.6c0,4.7,0,9.3,0,14c0,1.9,3,1.9,3,0c0-4.7,0-9.3,0-14C637.4,300.7,634.4,300.7,634.4,302.6
				L634.4,302.6z"/>
		</g>
	</g>
	<g>
		<g>
			<path class="st1" d="M427.4,259.4c3.3,14,6.6,28,10.1,41.9c0.5,1.9,3.4,1.1,2.9-0.8c-3.5-13.9-6.8-27.9-10.1-41.9
				C429.9,256.7,427,257.5,427.4,259.4L427.4,259.4z"/>
		</g>
	</g>
	<g>
		<g>
			<path class="st1" d="M428.8,259.2c7.4-0.2,14.7-0.5,22-1c3.5-0.2,7-0.5,10.5-0.8c4-0.4,8.4-1.3,12.2,0.5c1.7,0.8,3.3-1.8,1.5-2.6
				c-6.2-3-13.9-0.9-20.5-0.4c-8.6,0.6-17.2,1.1-25.9,1.3C426.8,256.2,426.8,259.2,428.8,259.2L428.8,259.2z"/>
		</g>
	</g>
	<g>
		<g>
			<path class="st1" d="M472.5,256.8c-1.2,14.8-3.8,29.4-7.6,43.8c-0.5,1.9,2.4,2.7,2.9,0.8c3.9-14.6,6.5-29.5,7.7-44.6
				C475.6,254.9,472.6,254.9,472.5,256.8L472.5,256.8z"/>
		</g>
	</g>
	<g>
		<g>
			<path class="st1" d="M437.9,255.6c-5.8-6.9-10.4-14-13.3-22.6c-2.5-7.3-3.9-14.9-5.3-22.5c-0.6,0.6-1.2,1.2-1.8,1.8
				c18.4,6.3,27.6,24.2,31.2,42.2c0.4,1.9,3.3,1.1,2.9-0.8c-3.8-19.1-13.9-37.6-33.3-44.2c-1.2-0.4-2,0.8-1.8,1.8
				c1.6,8.7,3.2,17.4,6.4,25.6c3,7.7,7.6,14.4,12.9,20.7C437,259.2,439.1,257.1,437.9,255.6L437.9,255.6z"/>
		</g>
	</g>
	<g>
		<g>
			<path class="st1" d="M446.8,236.6c-2.6-9.3,6.1-16.1,11.1-22.7c4.8-6.3,8.7-13.2,11.9-20.5c-0.9-0.1-1.8-0.2-2.7-0.4
				c4.9,20.1,9.6,44.2-6,61c-1.3,1.4,0.8,3.5,2.1,2.1c16.3-17.7,11.9-42.7,6.7-63.9c-0.3-1.2-2.2-1.6-2.7-0.4
				c-4,9.4-9.4,17.8-16,25.6c-4.9,5.7-9.4,12.1-7.2,20C444.4,239.2,447.3,238.5,446.8,236.6L446.8,236.6z"/>
		</g>
	</g>
	<g>
		<g>
			<path class="st1" d="M517.2,301.3c0-5.7,0-11.4,0-17c0-1.9-3-1.9-3,0c0,5.7,0,11.4,0,17C514.2,303.3,517.2,303.3,517.2,301.3
				L517.2,301.3z"/>
		</g>
	</g>
	<g>
		<g>
			<path class="st1" d="M515.7,285.4c36.3,0,72.5,0,108.8,0c1.9,0,1.9-3,0-3c-36.3,0-72.5,0-108.8,0
				C513.8,282.4,513.8,285.4,515.7,285.4L515.7,285.4z"/>
		</g>
	</g>
	<g>
		<g>
			<path class="st1" d="M623.4,285.2c0,5.5,0,11.1,0,16.6c0,1.9,3,1.9,3,0c0-5.5,0-11.1,0-16.6C626.4,283.2,623.4,283.2,623.4,285.2
				L623.4,285.2z"/>
		</g>
	</g>
	<g>
		<g>
			<path class="st1" d="M537.3,283.4c0-3.3,0-6.7,0-10c0-1.9-3-1.9-3,0c0,3.3,0,6.7,0,10C534.3,285.4,537.3,285.4,537.3,283.4
				L537.3,283.4z"/>
		</g>
	</g>
	<g>
		<g>
			<path class="st1" d="M535.8,273.6c28.5,0,57.1,0,85.6,0c1.9,0,1.9-3,0-3c-28.5,0-57.1,0-85.6,0
				C533.9,270.6,533.9,273.6,535.8,273.6L535.8,273.6z"/>
		</g>
	</g>
	<g>
		<g>
			<path class="st1" d="M620.4,272.1c0,3.8,0,7.6,0,11.4c0,1.9,3,1.9,3,0c0-3.8,0-7.6,0-11.4C623.4,270.1,620.4,270.1,620.4,272.1
				L620.4,272.1z"/>
		</g>
	</g>
	<g>
		<g>
			<path class="st1" d="M560.5,270.8c0-5.2,0-10.5,0-15.7c0-1.9-3-1.9-3,0c0,5.2,0,10.5,0,15.7C557.5,272.7,560.5,272.7,560.5,270.8
				L560.5,270.8z"/>
		</g>
	</g>
	<g>
		<g>
			<path class="st1" d="M560.3,255.7c19.1,0,38.1,0,57.2,0c1.9,0,1.9-3,0-3c-19.1,0-38.1,0-57.2,0
				C558.4,252.7,558.4,255.7,560.3,255.7L560.3,255.7z"/>
		</g>
	</g>
	<g>
		<g>
			<path class="st1" d="M616.9,253.7c0,5.7,0,11.4,0,17c0,1.9,3,1.9,3,0c0-5.7,0-11.4,0-17C619.9,251.8,616.9,251.8,616.9,253.7
				L616.9,253.7z"/>
		</g>
	</g>
	<g>
		<g>
			<path class="st1" d="M596.9,255c1.4,5.4,1.7,10.7,1.2,16.2c-0.2,1.9,2.8,1.9,3,0c0.6-5.8,0.2-11.4-1.3-17
				C599.3,252.3,596.4,253.1,596.9,255L596.9,255z"/>
		</g>
	</g>
	<g>
		<g>
			<path class="st1" d="M605.9,255.9c0.5,4.4,0.7,8.7,0.5,13.1c-0.1,1.9,2.9,1.9,3,0c0.2-4.4,0.1-8.7-0.5-13.1
				C608.7,254,605.7,254,605.9,255.9L605.9,255.9z"/>
		</g>
	</g>
	<g>
		<g>
			<path class="st1" d="M593.7,272.9c0.5,3.3,0.4,6.7,0,10.1c-0.2,1.9,2.8,1.9,3,0c0.5-3.6,0.4-7.2-0.1-10.9
				C596.3,270.2,593.4,271,593.7,272.9L593.7,272.9z"/>
		</g>
	</g>
	<g>
		<g>
			<path class="st1" d="M601.3,272.4c0.6,2.7,0.4,5.3-0.5,8c-0.6,1.8,2.3,2.6,2.9,0.8c1.1-3.1,1.2-6.3,0.5-9.6
				C603.8,269.8,600.9,270.6,601.3,272.4L601.3,272.4z"/>
		</g>
	</g>
	<g>
		<g>
			<path class="st1" d="M578.7,283.9c0.6,6,0.7,11.9,0.3,17.9c-0.1,1.9,2.9,1.9,3,0c0.4-6,0.3-11.9-0.3-17.9
				C581.5,282,578.5,282,578.7,283.9L578.7,283.9z"/>
		</g>
	</g>
	<g>
		<g>
			<path class="st1" d="M609.5,284.3c0.7,5.6,0.7,11.1-0.2,16.7c-0.3,1.9,2.6,2.7,2.9,0.8c0.9-5.8,1.1-11.6,0.3-17.5
				C612.3,282.4,609.3,282.4,609.5,284.3L609.5,284.3z"/>
		</g>
	</g>
	<g>
		<g>
			<path class="st1" d="M717.8,119.4c0,17.4,0,34.8,0,52.2c0,1.9,3,1.9,3,0c0-17.4,0-34.8,0-52.2
				C720.8,117.4,717.8,117.4,717.8,119.4L717.8,119.4z"/>
		</g>
	</g>
	<g>
		<g>
			<path class="st1" d="M675.8,173.8c27.5,0,55.1,0,82.6,0c1.9,0,1.9-3,0-3c-27.5,0-55.1,0-82.6,0
				C673.9,170.8,673.9,173.8,675.8,173.8L675.8,173.8z"/>
		</g>
	</g>
	<g>
		<g>
			<path class="st1" d="M743.9,174.4c0,17.1,0,34.3,0,51.4c0,1.9,3,1.9,3,0c0-17.1,0-34.3,0-51.4
				C746.9,172.5,743.9,172.5,743.9,174.4L743.9,174.4z"/>
		</g>
	</g>
</g>
<g id="cat">
	<g id="paw_front_right">
		<path class="st2" d="M1188,960.6c-2.6,4.3,1.1,9.3,9.6,28.1c13,28.7,12.4,35.3,10.3,39.7c-3.5,7.2-11,8.1-10.3,11.6
			c1,5.1,17.5,9,23.3,2.7c2.6-2.8,2.2-6.7,1.4-14.4c-3.6-31.9-4.3-34.2-5.5-43.9c-2.1-17.2-1-21.6-5.5-25.4
			C1204.6,953.7,1191.6,954.8,1188,960.6z"/>
	</g>
	<g id="leg_back_right">
		<path class="st2" d="M1343.6,956.2c7.5-5.3,20.6,0.3,27.4,6.9c5.7,5.4,4.4,9,11,13.7c1.5,1.1,8.4,6,17.1,5.5c6.7-0.4,8-3.7,13-2.7
			c3.5,0.6,5,2.6,11.7,8.9c10.5,10,14.4,12.3,13.7,13.7c-0.7,1.3-4,0.6-18.5-1.4c-10.6-1.5-16.1-2.2-19.9-2.4
			c-8.7-0.4-9.1,0.7-21.9,1c-13.2,0.4-19.9,0.4-24.7-2.1c-10.7-5.6-13.5-18-13.7-19.2C1338.5,976.5,1335.6,961.8,1343.6,956.2z"/>
	</g>
	<g id="body">
		<path class="st2" d="M1198.3,918.1c6.5,0.2,9.3,7.8,15.1,14.4c15.1,17.4,41.4,18,63,18.5c40.8,0.9,51.8-14.6,71.3-4.1
			c10.7,5.8,20.8,17.7,20.6,30.8c-0.3,17.1-18.2,29.2-30.8,33.6c-11.2,3.9-17.3,1.5-48-4.1c-49.4-9.1-59.2-7.7-78.1-18.5
			c-10.8-6.2-20.5-14.1-26.7-26c-2.6-5-6.7-13.3-4.8-23.3C1181.8,928.9,1190.2,917.8,1198.3,918.1z"/>
	</g>
	<g id="tail">
		<path class="st2" d="M1342.2,947.6c2.1-2.9,10.4,4.4,19.2,0.7c7.5-3.2,10.9-12.5,13-18.5c3.9-10.7,1.3-14.5,5.5-18.5
			c4-3.9,7.5-1.4,19.2-4.8c7.9-2.3,14.3-4.1,17.8-9.6c2.8-4.4,0.8-6.6,2.7-17.8c0.6-3.4,2.9-17,6.2-17.1c2.4-0.1,5.3,7.1,5.5,13.7
			c0.1,2.7-0.3,4.6-4.1,17.1c-2.4,7.8-3.6,11.7-4.1,12.3c-4.9,6.1-11.4,3.1-24,8.9c-6.1,2.8-12,5.5-15.1,11.6
			c-2.8,5.6-0.4,8.1-3.4,16.4c-2.8,7.6-7.3,12.1-8.2,13c-3.3,3.3-10,9.8-17.8,8.2C1345.8,961.6,1340.1,950.5,1342.2,947.6z"/>
	</g>
	<g id="_x3B_eg_back_left">
		<path class="st2" d="M1318.9,994.9c-1.2,2.4-4.6,9.3-3.4,17.8c1.2,8.7,6.6,16.2,10.3,21.2c5.1,7.1,8.1,8.6,7.5,11.6
			c-1.1,6.6-15.9,7.1-15.8,10.3c0.2,3.2,15.2,4.8,26.7,4.1c8.6-0.5,10.6-2,11.7-3.4c2.4-3.4-0.3-7.4-1.4-16.4
			c-0.8-6.4-0.2-10.9,0.7-18.5c1.5-12.5,3.9-13.3,4.8-22.6c0.7-7.4,1.9-19.7-4.1-24C1347.7,969.2,1326.8,979.3,1318.9,994.9z"/>
	</g>
	<g id="paw_front_left">
		<path class="st2" d="M1115.4,931.8c1.6,8.1,10.4,13.2,23.3,18.5c13.7,5.7,52.5,21.7,59.6,11c1.8-2.7,1.2-6.5,0-8.9
			c-3-5.7-11.2-5.1-25.4-7.5c-12.4-2.1-23.9-4-35.6-10.3c-10.8-5.7-17.2-12.6-20.6-10.3C1114.3,926,1115.3,931.3,1115.4,931.8z"/>
		<g>
			<g>
				<path class="st0" d="M1099.8,896.5c3.1,5.2,6.9,9.9,11.4,14.1c1.4,1.3,3.5-0.8,2.1-2.1c-4.3-4-7.9-8.5-10.9-13.5
					C1101.4,893.3,1098.8,894.8,1099.8,896.5L1099.8,896.5z"/>
			</g>
		</g>
		<g>
			<g>
				<path class="st0" d="M1086.9,904c3.1,3.8,7.1,6.5,11.6,8.1c1.8,0.7,2.6-2.2,0.8-2.9c-4.1-1.5-7.6-4-10.3-7.3
					C1087.8,900.4,1085.7,902.5,1086.9,904L1086.9,904z"/>
			</g>
		</g>
		<g>
			<g>
				<path class="st0" d="M1087.4,923.7c2.8,0.3,5.6,0.5,8.5,0.8c1.9,0.2,1.9-2.8,0-3c-2.8-0.3-5.6-0.5-8.5-0.8
					C1085.5,920.5,1085.5,923.5,1087.4,923.7L1087.4,923.7z"/>
			</g>
		</g>
	</g>
	<g id="head_1_">
		<path class="st2" d="M1169.5,903.7c-3.5,1.4-9,4-14.4,8.9c-4.6,4.2-9,8.2-9.6,13.7c-1.1,10,11.1,19.5,20.6,23.3
			c1.7,0.7,21.8,8.3,32.9-3.4c7.5-8,5.8-19.4,5.5-21.2c-2.3-14.9-15.7-21.9-17.1-22.6c-3.4-4.6-6.9-9.1-10.3-13.7
			C1174.6,893.7,1172.1,898.7,1169.5,903.7z"/>
		<g>
			<g>
				<path class="st3" d="M1160.2,917.2c1.5,4.3,5.5,7.2,10.1,7.1c1.9-0.1,1.9-3.1,0-3c-3.2,0.1-6.2-1.9-7.2-4.9
					C1162.4,914.6,1159.5,915.4,1160.2,917.2L1160.2,917.2z"/>
			</g>
		</g>
		<g>
			<g>
				<path class="st3" d="M1145.6,924.3c0.9,0,1.3,0.3,1.4,1c-0.3,0.3-0.5,0.7-0.8,1c-0.6,0.2-0.7-0.1-0.9-0.3
					c-0.1-0.1,0-0.2-0.1-0.1c-0.1,0.1-0.1,0.4-0.2,0.6c0.6-0.3,1.2-0.7,1.8-1c0.1,0.1,0.1,0.1,0,0c0.1,0,0.1,0.1,0.1,0.1
					c0.1,0.1,0,0.1,0-0.1c0.1,0.1,0.1,0.1,0,0c-0.1-0.8-1.1-1.2-1.8-1c-0.8,0.2-1.2,1-1,1.8c0.2,1,1,1.8,2,2.1
					c0.8,0.3,1.5-0.3,1.8-1c0.4-0.9,0.5-1.9,0-2.7c-0.5-0.9-1.6-1.4-2.6-1.1c-1,0.3-1.5,1.4-1.3,2.4c0.3,1,1.3,1.7,2.3,1.4
					c0.8-0.2,1.3-1,1-1.8C1147.2,924.6,1146.4,924.1,1145.6,924.3L1145.6,924.3z"/>
			</g>
		</g>
		<g>
			<g>
				<path class="st3" d="M1145,926.9c1.5,5.1,7.5,7.6,12.1,5.2c1.7-0.9,0.2-3.5-1.5-2.6c-3,1.5-6.8-0.3-7.7-3.4
					C1147.4,924.2,1144.5,925,1145,926.9L1145,926.9z"/>
			</g>
		</g>
	</g>
</g>
<g id="books">
	<path class="st4" d="M470.9,842.5c2.2,0.4,5.4,1,9.4,1.5c19.1,2.8,32.7,2.7,49.5,2.9c10.1,0.1,25,0.4,43.7,1.1
		c19.9-1.4,39.9-2.8,59.8-4.3c-27.5-2.8-55-5.7-82.5-8.5C524.1,837.6,497.5,840,470.9,842.5z"/>
	<path class="st4" d="M529.7,904.6c5.7,1.2,11.4,2.4,17.1,3.6c19.8-1.2,41.5-4.2,64.4-10.2c4.4-1.1,8.7-2.3,12.8-3.6
		C592.6,897.8,561.2,901.2,529.7,904.6z"/>
	<path class="st4" d="M472.2,983.5c0.1,8.4,0.2,16.9,0.3,25.3c46.2,5.9,92.5,11.8,138.7,17.7c0-8.4,0-16.9,0-25.3
		c28.3-12.6,56.5-25.2,84.8-37.8c-7.9-1.2-15.8-2.4-23.7-3.6c-0.9,1.4-1.8,2.8-2.6,4.3c-34.3,10.6-68.6,21.3-102.9,31.9
		C535.3,991.8,503.7,987.6,472.2,983.5z"/>
	<path class="st5" d="M420.8,869.2c34.6,4.2,69.3,8.4,103.9,12.6c38.6-2.7,77.2-5.5,115.8-8.2c-8.4-2.7-16.8-5.3-25.2-8
		c-17.4,1.3-34.9,2.6-52.3,3.9c-32.9-2.3-65.7-4.7-98.6-7C449.9,864.7,435.3,866.9,420.8,869.2z"/>
	<path class="st5" d="M550.7,930.5c10.7,1.6,21.5,3.2,32.2,4.8c29.6-7.7,59.1-15.3,88.7-23c-9.8-1.5-19.5-2.9-29.3-4.4
		C611.7,915.5,581.2,923,550.7,930.5z"/>
	<path class="st5" d="M427.6,955.9c45.6,6.5,91.1,13.1,136.7,19.6c14.1-3,28.8-6.5,44.1-10.7c21-5.7,40.5-12,58.6-18.4
		c-6.8-1.2-13.6-2.4-20.4-3.6c-21.3,5.9-42.6,11.8-64,17.7c-37.8-5.2-75.6-10.3-113.4-15.5C455.4,948.7,441.5,952.3,427.6,955.9z"/>
	<g>
		<g>
			<path class="st0" d="M464.6,845.4c0,6,0,12.1,0,18.1c0,1.9,3,1.9,3,0c0-6,0-12.1,0-18.1C467.6,843.5,464.6,843.5,464.6,845.4
				L464.6,845.4z"/>
		</g>
	</g>
	<g>
		<g>
			<path class="st0" d="M466.6,846c35.4,1.2,70.9,2.3,106.3,3.5c1.9,0.1,1.9-2.9,0-3c-35.4-1.2-70.9-2.3-106.3-3.5
				C464.6,842.9,464.6,845.9,466.6,846L466.6,846z"/>
		</g>
	</g>
	<g>
		<g>
			<path class="st0" d="M466.6,865.8c32.2,0.6,64.4,2.1,96.5,4.5c1.9,0.1,1.9-2.9,0-3c-32.1-2.3-64.3-3.8-96.5-4.5
				C464.6,862.8,464.6,865.8,466.6,865.8L466.6,865.8z"/>
		</g>
	</g>
	<g>
		<g>
			<path class="st0" d="M573.9,849.9c20.5-1.8,41.1-3,61.6-3.7c1.9-0.1,1.9-3.1,0-3c-20.6,0.6-41.1,1.9-61.6,3.7
				C572,847,571.9,850,573.9,849.9L573.9,849.9z"/>
		</g>
	</g>
	<g>
		<g>
			<path class="st0" d="M563.6,870.4c24.1-2.4,48.3-4.7,72.4-7.1c1.9-0.2,1.9-3.2,0-3c-24.1,2.4-48.3,4.7-72.4,7.1
				C561.7,867.6,561.7,870.6,563.6,870.4L563.6,870.4z"/>
		</g>
	</g>
	<g>
		<g>
			<path class="st0" d="M572.4,849.5c-0.7,1.1-1.2,2.2-1.4,3.5c-0.3,2.2,0.6,3.9-0.5,6.1c-1.3,2.8-2.1,5-1.6,8.1
				c0.3,1.9,3.2,1.1,2.9-0.8c-0.5-3.3,1.2-4.8,2.2-7.5c0.9-2.8-0.8-5.2,1-7.9C576,849.4,573.4,847.8,572.4,849.5L572.4,849.5z"/>
		</g>
	</g>
	<g>
		<g>
			<path class="st0" d="M467,845.1c27-3.7,54.1-6.3,81.4-8c1.9-0.1,1.9-3.1,0-3c-27.5,1.7-54.9,4.4-82.1,8.1
				C464.3,842.5,465.1,845.3,467,845.1L467,845.1z"/>
		</g>
	</g>
	<g>
		<g>
			<path class="st0" d="M546.4,837.2c29.1,0.2,58.1,2.8,86.7,7.8c1.9,0.3,2.7-2.6,0.8-2.9c-28.9-5.1-58.2-7.8-87.5-8
				C544.5,834.2,544.5,837.2,546.4,837.2L546.4,837.2z"/>
		</g>
	</g>
	<g>
		<g>
			<path class="st0" d="M472.5,855.3c8.6,2,17.6-0.1,26.4,0c9.8,0.1,19.6,1.2,29.4,2.4c1.9,0.2,1.9-2.8,0-3
				c-9.1-1-18.3-2.1-27.5-2.3c-8.9-0.2-18.7,2.1-27.5,0.1C471.4,851.9,470.6,854.8,472.5,855.3L472.5,855.3z"/>
		</g>
	</g>
	<g>
		<g>
			<path class="st0" d="M512.1,861.8c15.3,0.5,30.7,1.2,46,2.1c1.9,0.1,1.9-2.9,0-3c-15.3-0.9-30.7-1.6-46-2.1
				C510.2,858.7,510.2,861.7,512.1,861.8L512.1,861.8z"/>
		</g>
	</g>
	<g>
		<g>
			<path class="st0" d="M537.1,856.5c8.8,0.7,17.7,1.6,26.5,2.7c1.9,0.2,1.9-2.8,0-3c-8.8-1.1-17.6-2-26.5-2.7
				C535.1,853.3,535.2,856.3,537.1,856.5L537.1,856.5z"/>
		</g>
	</g>
	<g>
		<g>
			<path class="st0" d="M579.8,858c7,1,13.8-0.7,20.7-1.7c8.2-1.3,16.5-2.3,24.8-2.8c1.9-0.1,1.9-3.1,0-3c-6.7,0.4-13.4,1.2-20,2.1
				c-8,1.1-16.5,3.7-24.6,2.6C578.7,854.8,577.9,857.7,579.8,858L579.8,858z"/>
		</g>
	</g>
	<g>
		<g>
			<path class="st0" d="M592.4,863.2c6.2,0.7,11.9-1.5,17.9-2.7c7-1.5,14.2-2.1,21.3-2.2c1.9,0,1.9-3,0-3
				c-6.2,0.1-12.3,0.6-18.4,1.6c-6.8,1.2-13.8,4.2-20.8,3.4C590.5,860,590.5,863,592.4,863.2L592.4,863.2z"/>
		</g>
	</g>
	<g>
		<g>
			<path class="st0" d="M632.9,847.4c0.1,5.1,0.2,10.1,0.4,15.2c0,1.9,3,1.9,3,0c-0.1-5.1-0.2-10.1-0.4-15.2
				C635.9,845.4,632.9,845.4,632.9,847.4L632.9,847.4z"/>
		</g>
	</g>
	<g>
		<g>
			<path class="st0" d="M418.6,869.9c0.1,6.7-0.1,13.4-0.6,20.1c-0.1,1.9,2.9,1.9,3,0c0.5-6.7,0.7-13.4,0.6-20.1
				C421.5,867.9,418.5,867.9,418.6,869.9L418.6,869.9z"/>
		</g>
	</g>
	<g>
		<g>
			<path class="st0" d="M420.1,892.9c35,4.4,70.1,8.2,105.3,11.6c1.9,0.2,1.9-2.8,0-3c-35.2-3.4-70.3-7.2-105.3-11.6
				C418.1,889.7,418.2,892.7,420.1,892.9L420.1,892.9z"/>
		</g>
	</g>
	<g>
		<g>
			<path class="st0" d="M524.8,883.1c-0.3,6.4-0.7,12.7-1,19.1c-0.1,1.9,2.9,1.9,3,0c0.3-6.4,0.7-12.7,1-19.1
				C527.9,881.2,524.9,881.2,524.8,883.1L524.8,883.1z"/>
		</g>
	</g>
	<g>
		<g>
			<path class="st0" d="M526.3,883.7c38.6-1.5,77.2-4.4,115.6-8.5c1.9-0.2,1.9-3.2,0-3c-38.4,4.1-77,6.9-115.6,8.5
				C524.4,880.8,524.4,883.8,526.3,883.7L526.3,883.7z"/>
		</g>
	</g>
	<g>
		<g>
			<path class="st0" d="M526.8,905.3c38.1-4.5,76.3-8.4,114.6-11.9c1.9-0.2,1.9-3.2,0-3c-38.2,3.5-76.4,7.5-114.6,11.9
				C524.9,902.5,524.9,905.5,526.8,905.3L526.8,905.3z"/>
		</g>
	</g>
	<g>
		<g>
			<path class="st0" d="M640.6,874.8c0,5.4,0.1,10.8,0.1,16.2c0,1.9,3,1.9,3,0c0-5.4-0.1-10.8-0.1-16.2
				C643.6,872.8,640.6,872.8,640.6,874.8L640.6,874.8z"/>
		</g>
	</g>
	<g>
		<g>
			<path class="st0" d="M420.5,869.7c15-2,30-3.8,45.1-5.2c1.9-0.2,1.9-3.2,0-3c-15.3,1.4-30.6,3.2-45.9,5.3
				C417.8,867,418.6,869.9,420.5,869.7L420.5,869.7z"/>
		</g>
	</g>
	<g>
		<g>
			<path class="st0" d="M422,871.7c34.6,2.5,69.1,6.1,103.5,10.8c1.9,0.3,2.7-2.6,0.8-2.9c-34.6-4.7-69.4-8.4-104.3-10.9
				C420.1,868.6,420.1,871.6,422,871.7L422,871.7z"/>
		</g>
	</g>
	<g>
		<g>
			<path class="st0" d="M614.7,866.6c9,1.7,17.9,4,26.6,7c1.8,0.6,2.6-2.3,0.8-2.9c-8.7-2.9-17.5-5.3-26.6-7
				C613.6,863.3,612.8,866.2,614.7,866.6L614.7,866.6z"/>
		</g>
	</g>
	<g>
		<g>
			<path class="st0" d="M436.8,885.5c18-0.9,35.2,5.4,53.1,5.7c1.9,0,1.9-3,0-3c-17.9-0.3-35.2-6.6-53.1-5.7
				C434.9,882.6,434.9,885.6,436.8,885.5L436.8,885.5z"/>
		</g>
	</g>
	<g>
		<g>
			<path class="st0" d="M471.2,881.6c13.2,4.9,27.5,1.9,41.1,4.9c1.9,0.4,2.7-2.5,0.8-2.9c-13.6-3-27.9,0-41.1-4.9
				C470.2,878,469.4,880.9,471.2,881.6L471.2,881.6z"/>
		</g>
	</g>
	<g>
		<g>
			<path class="st0" d="M532.7,894.7c33.2-7.5,67.7-8.3,101.5-10.3c1.9-0.1,1.9-3.1,0-3c-34.2,2.1-68.8,2.8-102.3,10.4
				C530,892.2,530.8,895.1,532.7,894.7L532.7,894.7z"/>
		</g>
	</g>
	<g>
		<g>
			<path class="st0" d="M588.2,892.2c11.8,0.3,23.6-0.8,35.1-3.3c1.9-0.4,1.1-3.3-0.8-2.9c-11.3,2.4-22.8,3.5-34.3,3.2
				C586.3,889.1,586.3,892.1,588.2,892.2L588.2,892.2z"/>
		</g>
	</g>
	<g>
		<g>
			<path class="st0" d="M439.8,894.5c0,7.5,0,14.9,0,22.4c0,1.9,3,1.9,3,0c0-7.5,0-14.9,0-22.4C442.8,892.6,439.8,892.6,439.8,894.5
				L439.8,894.5z"/>
		</g>
	</g>
	<g>
		<g>
			<path class="st0" d="M440.9,918.8c16.2,4.8,34.1,4.9,50.9,6.5c17.8,1.7,35.7,3.5,53.5,5.2c1.9,0.2,1.9-2.8,0-3
				c-17.2-1.7-34.4-3.3-51.6-5c-17.1-1.7-35.5-1.7-52-6.6C439.9,915.4,439.1,918.3,440.9,918.8L440.9,918.8z"/>
		</g>
	</g>
	<g>
		<g>
			<path class="st0" d="M545.2,907.3c0.1,6.9,0.1,13.7-0.1,20.6c0,1.9,3,1.9,3,0c0.2-6.9,0.2-13.7,0.1-20.6
				C548.2,905.3,545.2,905.3,545.2,907.3L545.2,907.3z"/>
		</g>
	</g>
	<g>
		<g>
			<path class="st0" d="M529.2,906.8c5.5,0.5,11,1.4,16.4,2.7c1.9,0.5,2.7-2.4,0.8-2.9c-5.7-1.4-11.4-2.3-17.2-2.8
				C527.2,903.7,527.2,906.7,529.2,906.8L529.2,906.8z"/>
		</g>
	</g>
	<g>
		<g>
			<path class="st0" d="M547.1,908.9c28-2.3,55.8-6.5,83.3-12.8c1.9-0.4,1.1-3.3-0.8-2.9c-27.2,6.2-54.7,10.4-82.5,12.7
				C545.2,906,545.2,909,547.1,908.9L547.1,908.9z"/>
		</g>
	</g>
	<g>
		<g>
			<path class="st0" d="M547.1,930.9c31.8-6.1,63.4-13.6,94.5-22.5c1.9-0.5,1.1-3.4-0.8-2.9c-31.2,8.9-62.7,16.5-94.5,22.5
				C544.5,928.4,545.3,931.3,547.1,930.9L547.1,930.9z"/>
		</g>
	</g>
	<g>
		<g>
			<path class="st0" d="M640.1,892.3c0.1,5,0,10-0.4,14.9c-0.2,1.9,2.8,1.9,3,0c0.4-5,0.5-10,0.4-14.9
				C643.1,890.4,640.1,890.4,640.1,892.3L640.1,892.3z"/>
		</g>
	</g>
	<g>
		<g>
			<path class="st0" d="M630.4,896.1c3.4,0,6.8-0.5,10.1-1.3c1.9-0.5,1.1-3.4-0.8-2.9c-3.1,0.8-6.1,1.2-9.3,1.2
				C628.5,893.1,628.5,896.1,630.4,896.1L630.4,896.1z"/>
		</g>
	</g>
	<g>
		<g>
			<path class="st0" d="M457.7,912c24.2,2.9,48.3,5.7,72.5,8.2c1.9,0.2,1.9-2.8,0-3c-24.2-2.5-48.4-5.2-72.5-8.2
				C455.8,908.8,455.8,911.8,457.7,912L457.7,912z"/>
		</g>
	</g>
	<g>
		<g>
			<path class="st0" d="M448.4,903.7c10.2,1,20.4,1.8,30.6,2.3c1.9,0.1,1.9-2.9,0-3c-10.2-0.5-20.4-1.3-30.6-2.3
				C446.5,900.6,446.5,903.6,448.4,903.7L448.4,903.7z"/>
		</g>
	</g>
	<g>
		<g>
			<path class="st0" d="M491.8,909.2c12.9,0,25.7,0.9,38.5,2.9c1.9,0.3,2.7-2.6,0.8-2.9c-13-2-26.1-3-39.3-3
				C489.9,906.2,489.8,909.2,491.8,909.2L491.8,909.2z"/>
		</g>
	</g>
	<g>
		<g>
			<path class="st0" d="M552,918.9c14.4-2.3,28.7-4.9,43-7.8c1.9-0.4,1.1-3.3-0.8-2.9c-14.3,2.9-28.6,5.5-43,7.8
				C549.3,916.3,550.1,919.2,552,918.9L552,918.9z"/>
		</g>
	</g>
	<g>
		<g>
			<path class="st0" d="M579.2,920.1c17.3-5.8,35.1-10.1,53.1-12.7c1.9-0.3,1.1-3.2-0.8-2.9c-18.1,2.6-35.8,6.8-53.1,12.7
				C576.6,917.9,577.4,920.8,579.2,920.1L579.2,920.1z"/>
		</g>
	</g>
	<g>
		<g>
			<path class="st0" d="M623,904.7c4.9-1.5,9.8-2.4,14.9-2.8c1.9-0.1,1.9-3.1,0-3c-5.3,0.4-10.6,1.3-15.7,2.9
				C620.4,902.4,621.2,905.3,623,904.7L623,904.7z"/>
		</g>
	</g>
	<g>
		<g>
			<path class="st0" d="M462.6,922.7c-0.1,7.1-0.3,14.2-0.4,21.3c0,1.9,3,1.9,3,0c0.1-7.1,0.3-14.2,0.4-21.3
				C465.7,920.8,462.7,920.8,462.6,922.7L462.6,922.7z"/>
		</g>
	</g>
	<g>
		<g>
			<path class="st0" d="M464,946c38.8,5.2,77.7,10.4,116.5,15.5c1.9,0.3,1.9-2.7,0-3c-38.8-5.2-77.7-10.4-116.5-15.5
				C462.1,942.7,462.1,945.7,464,946L464,946z"/>
		</g>
	</g>
	<g>
		<g>
			<path class="st0" d="M549.5,931.5c11.6,1.8,23.2,3.3,34.9,4.4c1.9,0.2,1.9-2.8,0-3c-11.4-1.1-22.8-2.5-34.1-4.3
				C548.4,928.3,547.6,931.2,549.5,931.5L549.5,931.5z"/>
		</g>
	</g>
	<g>
		<g>
			<path class="st0" d="M584.8,935.6c29.8-2.8,57.1-16.4,86.4-21.4c1.9-0.3,1.1-3.2-0.8-2.9c-29.1,4.9-56.1,18.4-85.6,21.2
				C582.9,932.8,582.9,935.8,584.8,935.6L584.8,935.6z"/>
		</g>
	</g>
	<g>
		<g>
			<path class="st0" d="M641.4,908.9c10.1,1.5,20.3,2.6,30.5,3.2c1.9,0.1,1.9-2.9,0-3c-10-0.6-19.9-1.6-29.7-3.1
				C640.3,905.7,639.5,908.6,641.4,908.9L641.4,908.9z"/>
		</g>
	</g>
	<g>
		<g>
			<path class="st0" d="M581.3,935.3c-0.3,7.8-0.5,15.7-0.8,23.5c-0.1,1.9,2.9,1.9,3,0c0.3-7.8,0.5-15.7,0.8-23.5
				C584.4,933.3,581.4,933.3,581.3,935.3L581.3,935.3z"/>
		</g>
	</g>
	<g>
		<g>
			<path class="st0" d="M582.1,961.6c29.9-7.2,59.4-15.7,88.6-25.4c1.8-0.6,1-3.5-0.8-2.9c-29.2,9.7-58.7,18.1-88.6,25.4
				C579.4,959.1,580.2,962,582.1,961.6L582.1,961.6z"/>
		</g>
	</g>
	<g>
		<g>
			<path class="st0" d="M669.9,912.8c0.8,7.3,1,14.6,0.6,21.9c-0.1,1.9,2.9,1.9,3,0c0.3-7.3,0.1-14.6-0.6-21.9
				C672.7,910.9,669.7,910.9,669.9,912.8L669.9,912.8z"/>
		</g>
	</g>
	<g>
		<g>
			<path class="st0" d="M471.7,937.6c-0.7,0.1-1.3,0.2-2,0.2c-1.9,0.2-1.9,2.8,0,3c25.4,2.7,50.6,6.8,75.9,10.8
				c1.9,0.3,2.7-2.6,0.8-2.9c-25.5-4.1-51-8.2-76.7-10.9c0,1,0,2,0,3c0.7-0.1,1.3-0.2,2-0.2C473.6,940.4,473.6,937.4,471.7,937.6
				L471.7,937.6z"/>
		</g>
	</g>
	<g>
		<g>
			<path class="st0" d="M479.5,933.2c7.6,1.9,15.2,3.7,22.9,5.2c1.9,0.4,2.7-2.5,0.8-2.9c-7.7-1.5-15.3-3.2-22.9-5.2
				C478.5,929.9,477.7,932.8,479.5,933.2L479.5,933.2z"/>
		</g>
	</g>
	<g>
		<g>
			<path class="st0" d="M511.2,937.1c20.1,3.1,40.1,6.2,60.2,9.3c1.9,0.3,2.7-2.6,0.8-2.9c-20.1-3.1-40.1-6.2-60.2-9.3
				C510.1,934,509.3,936.9,511.2,937.1L511.2,937.1z"/>
		</g>
	</g>
	<g>
		<g>
			<path class="st0" d="M597.9,941.6c16.7-0.4,31.8-8.5,48.2-11c1.9-0.3,1.1-3.2-0.8-2.9c-16.1,2.5-30.9,10.5-47.4,10.9
				C596,938.7,596,941.7,597.9,941.6L597.9,941.6z"/>
		</g>
	</g>
	<g>
		<g>
			<path class="st0" d="M592.5,951.7c7.3-1.8,14.6-3.6,21.9-5.5c1.9-0.5,1.1-3.4-0.8-2.9c-7.3,1.8-14.6,3.6-21.9,5.5
				C589.8,949.2,590.6,952.1,592.5,951.7L592.5,951.7z"/>
		</g>
	</g>
	<g>
		<g>
			<path class="st0" d="M642.2,938.3c8.6-2.3,17.2-4.6,25.8-7c1.9-0.5,1.1-3.4-0.8-2.9c-8.6,2.3-17.2,4.6-25.8,7
				C639.5,935.9,640.3,938.8,642.2,938.3L642.2,938.3z"/>
		</g>
	</g>
	<g>
		<g>
			<path class="st0" d="M424.1,956.9c15.9-1.7,31.6-5,46.8-10c1.8-0.6,1-3.5-0.8-2.9c-15,4.9-30.3,8.2-46,9.9
				C422.2,954.1,422.2,957.1,424.1,956.9L424.1,956.9z"/>
		</g>
	</g>
	<g>
		<g>
			<path class="st0" d="M422.9,956.6c0.3,6.8,0.7,13.5,1,20.3c0.1,1.9,3.1,1.9,3,0c-0.3-6.8-0.7-13.5-1-20.3
				C425.8,954.7,422.8,954.7,422.9,956.6L422.9,956.6z"/>
		</g>
	</g>
	<g>
		<g>
			<path class="st0" d="M425.6,978.9c46.2,6.1,92.3,12.2,138.5,18.2c1.9,0.3,1.9-2.8,0-3c-46.2-6.1-92.3-12.2-138.5-18.2
				C423.7,975.6,423.8,978.6,425.6,978.9L425.6,978.9z"/>
		</g>
	</g>
	<g>
		<g>
			<path class="st0" d="M424.7,958.2c44.6,6.3,89.2,12,133.9,17.2c1.9,0.2,1.9-2.8,0-3c-44.4-5.1-88.8-10.8-133.1-17.1
				C423.7,955.1,422.8,958,424.7,958.2L424.7,958.2z"/>
		</g>
	</g>
	<g>
		<g>
			<path class="st0" d="M564.2,997.7c35.7-10.3,71.2-21.3,106.4-33.1c1.8-0.6,1-3.5-0.8-2.9c-35.3,11.7-70.7,22.8-106.4,33.1
				C561.5,995.3,562.3,998.2,564.2,997.7L564.2,997.7z"/>
		</g>
	</g>
	<g>
		<g>
			<path class="st0" d="M576.1,974.2c31.7-7.1,62.9-16.1,93.5-27.1c1.8-0.6,1-3.5-0.8-2.9c-30.6,11-61.8,20-93.5,27.1
				C573.4,971.7,574.2,974.6,576.1,974.2L576.1,974.2z"/>
		</g>
	</g>
	<g>
		<g>
			<path class="st0" d="M667.8,946.2c0.1,5.7,0.2,11.3,0.3,17c0,1.9,3,1.9,3,0c-0.1-5.7-0.2-11.3-0.3-17
				C670.7,944.3,667.7,944.3,667.8,946.2L667.8,946.2z"/>
		</g>
	</g>
	<g>
		<g>
			<path class="st0" d="M645.1,944.5c7.7,0.8,15.3,1.6,23,2.3c1.9,0.2,1.9-2.8,0-3c-7.7-0.8-15.3-1.6-23-2.3
				C643.2,941.3,643.2,944.3,645.1,944.5L645.1,944.5z"/>
		</g>
	</g>
	<g>
		<g>
			<path class="st0" d="M435.6,973.2c22.1,1.3,44,4,65.8,7.9c1.9,0.3,2.7-2.6,0.8-2.9c-22-4-44.2-6.6-66.6-8
				C433.6,970.1,433.7,973.1,435.6,973.2L435.6,973.2z"/>
		</g>
	</g>
	<g>
		<g>
			<path class="st0" d="M493.7,972.9c17.7,2.6,35.4,5.6,53,8.9c1.9,0.4,2.7-2.5,0.8-2.9c-17.6-3.3-35.3-6.3-53-8.9
				C492.6,969.7,491.8,972.6,493.7,972.9L493.7,972.9z"/>
		</g>
	</g>
	<g>
		<g>
			<path class="st0" d="M562.7,980.1c0.2,4.4,0.5,8.8,0.7,13.1c0.1,1.9,3.1,1.9,3,0c-0.2-4.4-0.5-8.8-0.7-13.1
				C565.6,978.2,562.6,978.2,562.7,980.1L562.7,980.1z"/>
		</g>
	</g>
	<g>
		<g>
			<path class="st0" d="M579.4,981c14.8-3.3,29.5-7,44.2-11c1.9-0.5,1.1-3.4-0.8-2.9c-14.6,4-29.4,7.7-44.2,11
				C576.7,978.5,577.5,981.4,579.4,981L579.4,981z"/>
		</g>
	</g>
	<g>
		<g>
			<path class="st0" d="M578.9,986.5c3.9-0.4,7.7-1,11.4-2.1c1.9-0.5,1.1-3.4-0.8-2.9c-3.5,1-7,1.6-10.6,2
				C577,983.7,577,986.7,578.9,986.5L578.9,986.5z"/>
		</g>
	</g>
	<g>
		<g>
			<path class="st0" d="M632.9,970.6c9.3-3,18.6-6,27.8-8.9c1.8-0.6,1-3.5-0.8-2.9c-9.3,3-18.6,6-27.8,8.9
				C630.3,968.3,631.1,971.2,632.9,970.6L632.9,970.6z"/>
		</g>
	</g>
	<g>
		<g>
			<path class="st0" d="M650.9,960.1c4-1.2,8.1-2.3,12.1-3.5c1.9-0.5,1.1-3.4-0.8-2.9c-4,1.2-8.1,2.3-12.1,3.5
				C648.3,957.7,649,960.6,650.9,960.1L650.9,960.1z"/>
		</g>
	</g>
	<g>
		<g>
			<path class="st0" d="M470.1,984.5c1,7.8,1.4,15.6,1.1,23.5c-0.1,1.9,2.9,1.9,3,0c0.3-7.9-0.1-15.7-1.1-23.5
				C472.9,982.6,469.9,982.6,470.1,984.5L470.1,984.5z"/>
		</g>
	</g>
	<g>
		<g>
			<path class="st0" d="M473.8,1010.1c46.2,6,92.3,11.9,138.5,17.9c1.9,0.2,1.9-2.8,0-3c-46.2-6-92.3-11.9-138.5-17.9
				C471.9,1006.8,471.9,1009.8,473.8,1010.1L473.8,1010.1z"/>
		</g>
	</g>
	<g>
		<g>
			<path class="st0" d="M610,1002.6c0.5,7.8,0.9,15.7,1.4,23.5c0.1,1.9,3.1,1.9,3,0c-0.5-7.8-0.9-15.7-1.4-23.5
				C612.9,1000.7,609.9,1000.6,610,1002.6L610,1002.6z"/>
		</g>
	</g>
	<g>
		<g>
			<path class="st0" d="M611.9,1027.8c28.9-14,57.9-27.9,86.8-41.9c1.7-0.8,0.2-3.4-1.5-2.6c-28.9,14-57.9,27.9-86.8,41.9
				C608.6,1026.1,610.2,1028.7,611.9,1027.8L611.9,1027.8z"/>
		</g>
	</g>
	<g>
		<g>
			<path class="st0" d="M611.5,1002.2c29.6-10.6,58.4-23.2,86.3-37.8c1.7-0.9,0.2-3.5-1.5-2.6c-27.6,14.4-56.2,26.9-85.6,37.5
				C608.9,1000,609.7,1002.9,611.5,1002.2L611.5,1002.2z"/>
		</g>
	</g>
	<g>
		<g>
			<path class="st0" d="M695.1,963.2c0.2,7.5,0.4,15,0.6,22.4c0.1,1.9,3.1,1.9,3,0c-0.2-7.5-0.4-15-0.6-22.4
				C698.1,961.2,695.1,961.2,695.1,963.2L695.1,963.2z"/>
		</g>
	</g>
	<g>
		<g>
			<path class="st0" d="M670.8,961.6c8.3,0.1,16.6,0.7,24.8,1.9c1.9,0.3,2.7-2.6,0.8-2.9c-8.5-1.2-17-1.9-25.6-2
				C668.9,958.6,668.9,961.6,670.8,961.6L670.8,961.6z"/>
		</g>
	</g>
	<g>
		<g>
			<path class="st0" d="M565.8,998c10.1,1.8,20.3,2.9,30.6,3.3c1.9,0.1,1.9-2.9,0-3c-10-0.4-19.9-1.4-29.8-3.2
				C564.7,994.7,563.9,997.6,565.8,998L565.8,998z"/>
		</g>
	</g>
	<g>
		<g>
			<path class="st0" d="M620.3,1006.7c11-2.7,21.5-6.5,31.7-11.4c1.7-0.8,0.2-3.4-1.5-2.6c-9.9,4.8-20.2,8.4-30.9,11.1
				C617.6,1004.2,618.4,1007.1,620.3,1006.7L620.3,1006.7z"/>
		</g>
	</g>
	<g>
		<g>
			<path class="st0" d="M621.5,1014.5c8.8-3.3,17.3-7.2,25.5-11.7c1.7-0.9,0.2-3.5-1.5-2.6c-8,4.4-16.2,8.2-24.8,11.4
				C618.9,1012.3,619.6,1015.2,621.5,1014.5L621.5,1014.5z"/>
		</g>
	</g>
	<g>
		<g>
			<path class="st0" d="M657.4,989.5c11.1-3.9,22.1-8.4,32.9-13.3c1.8-0.8,0.2-3.4-1.5-2.6c-10.5,4.8-21.2,9.1-32.2,12.9
				C654.8,987.2,655.6,990.1,657.4,989.5L657.4,989.5z"/>
		</g>
	</g>
	<g>
		<g>
			<path class="st0" d="M661.7,996.1c10.9-4.7,21.3-10.3,31.3-16.8c1.6-1.1,0.1-3.6-1.5-2.6c-9.9,6.5-20.4,12.1-31.3,16.8
				C658.4,994.3,659.9,996.8,661.7,996.1L661.7,996.1z"/>
		</g>
	</g>
</g>
<g id="chair">
	<g>
		<g>
			<path class="st0" d="M1030.8,719.9c20.5,75.6,41,151.2,61.4,226.8c5.8,21.6,11.7,43.1,17.5,64.7c1,3.7,6.8,2.1,5.8-1.6
				c-20.5-75.6-41-151.2-61.4-226.8c-5.8-21.6-11.7-43.1-17.5-64.7C1035.6,714.6,1029.8,716.2,1030.8,719.9L1030.8,719.9z"/>
		</g>
	</g>
	<g>
		<g>
			<path class="st0" d="M971.7,723.1c0.9,83.2,1.8,166.5,2.6,249.7c0.2,23.5,0.5,47.1,0.7,70.6c0,3.9,6,3.9,6,0
				c-0.9-83.2-1.8-166.5-2.6-249.7c-0.2-23.5-0.5-47.1-0.7-70.6C977.7,719.3,971.7,719.3,971.7,723.1L971.7,723.1z"/>
		</g>
	</g>
	<g>
		<g>
			<path class="st0" d="M888,712.4c-17.8,81.3-35,162.7-51.6,244.3c-4.7,23.1-9.3,46.2-13.9,69.2c-0.8,3.8,5,5.4,5.8,1.6
				c16.3-81.6,33.1-163.1,50.6-244.5c4.9-23,9.9-46,15-69C894.6,710.2,888.8,708.6,888,712.4L888,712.4z"/>
		</g>
	</g>
	<g>
		<g>
			<path class="st0" d="M846.4,926.6c43.3,0.4,86.5,1.4,129.7,3.1c3.9,0.2,3.9-5.8,0-6c-43.2-1.7-86.5-2.7-129.7-3.1
				C842.6,920.6,842.6,926.6,846.4,926.6L846.4,926.6z"/>
		</g>
	</g>
	<g>
		<g>
			<path class="st0" d="M978.3,928.4c4,0.6,7.1-1,10.8-2.5c4.5-1.8,9-3.7,13.5-5.6c8-3.4,16-6.8,24-10.3
				c17.3-7.6,34.4-15.5,51.3-23.6c3.5-1.7,0.4-6.8-3-5.2c-15.5,7.5-31.1,14.7-46.9,21.7c-7.9,3.5-15.8,6.9-23.8,10.3
				c-4.1,1.7-8.1,3.4-12.2,5.1c-3.2,1.3-8.7,4.8-12.2,4.3C976.1,922.1,974.4,927.9,978.3,928.4L978.3,928.4z"/>
		</g>
	</g>
	<g>
		<g>
			<path class="st0" d="M949.6,724.8c-8,71-16,142-24,213.1c-2.3,20.1-4.5,40.3-6.8,60.4c-0.4,3.8,5.6,3.8,6,0c8-71,16-142,24-213.1
				c2.3-20.1,4.5-40.3,6.8-60.4C956.1,721,950.1,721,949.6,724.8L949.6,724.8z"/>
		</g>
	</g>
	<g>
		<g>
			<path class="st0" d="M933.1,894.1c47.5-1.1,94.8-4.1,142.2-7.2c3.8-0.2,3.9-6.3,0-6c-47.4,3.1-94.7,6-142.2,7.2
				C929.2,888.2,929.2,894.2,933.1,894.1L933.1,894.1z"/>
		</g>
	</g>
	<g>
		<g>
			<path class="st0" d="M847.5,926.3c29.9-8.7,58.7-20.5,87.6-32.1c3.5-1.4,2-7.2-1.6-5.8c-28.9,11.6-57.7,23.4-87.6,32.1
				C842.2,921.5,843.8,927.3,847.5,926.3L847.5,926.3z"/>
		</g>
	</g>
	<path class="st6" d="M995.9,643.5c25.7,3.4,47,10.5,63.3,17.5c0.3,18.1,0.5,36.1,0.8,54.2c-18.8,8.4-47.6,18.5-83.9,21.4
		c-46.5,3.7-83.8-6.2-105.3-13.7c-0.9-20.3-1.7-40.6-2.6-60.9C891.8,651.8,938.3,635.9,995.9,643.5z"/>
	<g>
		<g>
			<path class="st0" d="M876.4,666.7c7.8,8.7,19,11.8,30.3,13.2c14.6,1.9,29.6,2.5,44.4,3c30.4,1,61.2-0.7,90.1-11.1
				c1.8-0.6,1-3.5-0.8-2.9c-27.5,9.9-56.7,11.9-85.6,11.1c-13.8-0.4-27.6-1.2-41.4-2.4c-12.5-1.1-26-3.2-34.8-13
				C877.2,663.1,875.1,665.3,876.4,666.7L876.4,666.7z"/>
		</g>
	</g>
</g>
<g id="guy_sitting_reading">
	<g id="hand_right">
		<path class="st6" d="M861.6,320.9c-6.8,0.7-11,5.9-19.3,16.7c-22.4,29-38.6,54.5-40,56.7c-2.9,4.5-12.8,18.1-32.7,45.3
			c-36.7,50.3-45.2,59.6-42,72.7c3.7,15.3,20.4,28.9,32.7,26.7c7.2-1.3,11.5-7.8,18-18.7c8.4-14.2,19.2-33.4,30.7-57.3
			c30-20.4,49.7-41.8,62-57.3c25-31.5,24.2-45.1,23.3-50.7C891.5,337.2,875.3,319.6,861.6,320.9z"/>
		<path class="st7" d="M882.6,333.5c-4.9,0.6-6,14.8-7.9,23.6c-6.6,30.4-30.5,33.5-70.1,78.6c-16.6,19-28.4,36.6-39.3,53.1
			c-10.6,16-18.9,30-24.9,40.6c1,1.9,3.6,5.9,8.5,7.9c6.6,2.6,13-0.3,15.1-1.3c7.9-3.7,9.3-9.4,22.3-31.4
			c8.3-14.1,8.2-12.6,11.8-19.7c6.6-13.1,6.1-17,11.8-23.6c5-5.9,8.6-5.6,18.3-13.1c5-3.8,13.8-10.6,23.6-20.3
			c2.9-2.8,14.6-14.6,26.9-32.8c9.7-14.3,12-21.1,13.1-24.9c4-13.8,1.5-21.9,0.7-24.2C890.7,340.9,886.4,333,882.6,333.5z"/>
		<path class="st8" d="M809.9,459.9c-1.3-0.8-6.5,7.5-18.3,21c-29.5,33.5-51.7,43.9-48.5,52.4c1.9,4.9,11.1,6.6,17.7,5.2
			c9.4-2,14.4-11.2,24.2-29.5C809,464.1,810.7,460.4,809.9,459.9z"/>
	</g>
	<g id="leg_right">
		<path class="st2" d="M723.4,902.6c2.8,31.2,5.5,62.4,8.3,93.6c-43.5,21.8-64.3,35.6-62.2,41.5c2.5,7.2,39.7,2.3,111.4-14.8
			c-1.4-43.4-2.8-86.9-4.1-130.3C759,895.9,741.2,899.2,723.4,902.6z"/>
		<path class="st6" d="M866.1,545.6c-15.3,11.3-36.8,27.2-62.4,46.6c-80.6,61.1-90.7,70.4-99.6,87.5c-8.8,16.8-11.8,45.1-17.9,101.8
			c-4.2,38.9-4.5,68.9-4.3,86c0.2,19.1,1.2,35.4,2.2,48c4.7,4.2,22.5,18.9,49.5,19.4c31.9,0.5,52.3-19.3,55.9-22.9
			c-3.1-18.4-5.6-38.3-7.2-59.5c-2.9-38.8-2-74,0.7-104.7c21.4-16.9,51.4-41.3,86-72.4c73.9-66.4,78.8-82.1,76-93.2
			C938.6,557.4,891.2,548.7,866.1,545.6z"/>
		<path class="st9" d="M899.4,553.2c-10.7,3.6-5,27.8-12.2,50.3c-8.2,25.7-27.1,32.6-73.9,68.2c-15.2,11.5-36.9,29.2-61.7,53.6
			c0.4,44.9-1,92.6-4.9,142.9c-1.8,22.8-4,45.1-6.5,66.6c6.6-0.9,15-2.8,24.4-6.5c10.5-4.2,18.7-9.5,24.4-13.8
			c-3.2-19-5.7-39.6-7.3-61.7c-2.8-38.8-1.8-74,0.8-104.8c17.8-15,32.3-26.8,42.2-34.9c13.4-10.9,20.2-16.2,31.7-26
			c6.6-5.6,13.3-11.5,30-26.8c43-39.2,54.8-51.6,57.7-69c1.4-8.9-0.4-13.7-1.6-16.2c-3.7-7.3-11.4-10.6-26.8-17.1
			C906.5,554.3,901.9,552.3,899.4,553.2z"/>
		<path class="st10" d="M781.6,747.3c-4.6,19.9-8.7,41-12.2,63.3c-6.7,42.8-9.7,82.6-10.6,118.6c10.3-5.1,20.6-10.3,30.9-15.4
			c-3.7-24.6-6.6-51.8-8.1-81.2C780.1,801.7,780.3,773.2,781.6,747.3z"/>
		<path class="st7" d="M935.9,569.4c-7.1-0.6-13.5,15.7-17.9,25.2c-9.5,20.8-35.3,48-86.9,102.3c-12.4,13.1-29.1,30.1-49.5,49.5
			c5.4-3.9,12.7-9.1,21.1-15.4c19-14.3,30.3-23.9,66.6-55.2c0,0,13.1-11.3,66.6-67.4c2.8-2.9,9.6-10.3,9.7-20.3
			C945.8,579.7,941.2,569.9,935.9,569.4z"/>
	</g>
	<g id="torso">
		<path class="st5" d="M897.8,310.6c-0.4,0-2,0.1-4.2,0.3c-4.5,0.4-11.6,1.2-20,3.4c-6.8,1.7-12.2,3.7-15.4,5
			c-5.7,11.7-12.9,29.8-15.6,52.7c-3.9,32.6,3.9,53.6,9.2,86.1c3.6,22.3,6.6,54.6,2.5,95.5c8.6,8,31,26.7,65.2,31.5
			c48.3,6.9,83.8-19.1,91.1-24.7c2.2-13.8,4.3-27.8,6.4-42c0,0,3.1-21.4,6.1-44.9c7.1-54.7,14.4-128.4,15.3-137.6
			c-25.7-26-47-32-61.8-32.5C957.4,302.7,913.4,309.8,897.8,310.6z"/>
		<path class="st11" d="M935.6,332.3c5.3,5.5,12.4,13.9,18.8,25.3c30.8,54.6,11.7,118.3,3.2,146.6c-5.9,19.8-17.1,48.9-39.3,80.2
			c8.5,1.5,19.1,2.3,31.2,1.1c28.9-2.9,49.8-16.3,60.3-24.2c7.2-47.7,13.9-96.6,19.9-146.6c3.1-25.8,5.9-51.2,8.6-76.5
			c-4.5-5.6-11.9-13.7-23-20.6c-8.8-5.5-21.5-13.5-37.3-12.7C953.2,306.3,937.9,328.9,935.6,332.3z"/>
	</g>
	<g id="book">
		<path class="st12" d="M708.7,388.7c1,0,2.1,0,3.1,0c0.3-1.1,0.6-2.3,0.9-3.4c1.2,2.5,3.2,6.6,5.7,11.7c11,22.3,13.2,26,15.2,32.7
			c1.6,5.5,3.5,13.4,4.1,23.5c1.9-1.3,4.7-3.1,8.3-5.1c19.4-10.6,35.6-10.7,50.2-13.3c10.9-2,26.2-6.4,44.1-17.1
			c-1.1,1.5-2.2,3.1-3.3,4.6c1.7,0.6,3.5,1.3,5.2,1.9c1,1.3,2.3,3.4,3.4,6.1c5.8,14.3-2.8,30-11.1,44.4
			c-33.9,59.6-37.4,62.7-43.5,65.7c-2.5,1.3-27.7,13.6-45.6,2.2c-3.7-2.3-10.4-7.8-19-46.7c-5.9-26.5-6.6-41.3-12.2-76.1
			C712,406.6,710,395.8,708.7,388.7z"/>
		<g>
			<g>
				<path class="st13" d="M714.4,394.2c8.5,18.2,16.9,36.7,19.5,56.7c0.1,0.5,0.8,0.5,0.8,0c-2.6-20.2-11-38.8-19.6-57.1
					C714.8,393.4,714.2,393.7,714.4,394.2L714.4,394.2z"/>
			</g>
		</g>
		<g>
			<g>
				<path class="st13" d="M711.1,391c5,10.6,9.1,21.5,12.5,32.7c0.1,0.5,0.9,0.3,0.7-0.2c-3.4-11.3-7.6-22.2-12.6-32.9
					C711.6,390.2,710.9,390.5,711.1,391L711.1,391z"/>
			</g>
		</g>
		<g>
			<g>
				<path class="st13" d="M724.8,423.1c3.3,9,5.5,18.3,6.8,27.8c0.1,0.5,0.8,0.5,0.8,0c-1.3-9.6-3.5-18.9-6.8-28
					C725.4,422.4,724.7,422.6,724.8,423.1L724.8,423.1z"/>
			</g>
		</g>
		<g>
			<g>
				<path class="st13" d="M716.2,408.8c4.6,11.3,8.6,22.9,11.9,34.7c0.1,0.5,0.9,0.3,0.7-0.2c-3.3-11.8-7.3-23.4-11.9-34.7
					C716.7,408.2,716,408.4,716.2,408.8L716.2,408.8z"/>
			</g>
		</g>
		<g>
			<g>
				<path class="st13" d="M739.4,455.7c12.5-8.3,26.5-13.7,41.4-15.8c0.5-0.1,0.3-0.8-0.2-0.7c-15,2.1-29,7.5-41.6,15.8
					C738.7,455.3,739,456,739.4,455.7L739.4,455.7z"/>
			</g>
		</g>
		<g>
			<g>
				<path class="st13" d="M745.7,454.4c13-7.9,27.7-10.9,42.3-14.2c15.5-3.5,30.6-8.2,45.3-14.2c0.4-0.2,0.2-0.9-0.2-0.7
					c-15.2,6.3-30.9,11-47,14.6c-14.1,3.2-28.3,6.3-40.8,13.9C744.9,454,745.3,454.7,745.7,454.4L745.7,454.4z"/>
			</g>
		</g>
		<g>
			<g>
				<path class="st13" d="M743.3,458c15.4-7.3,31.1-11.8,47.6-15.8c16.2-4,31.9-10.2,47.7-15.6c0.5-0.2,0.3-0.9-0.2-0.7
					c-16.3,5.6-32.6,12.1-49.4,16c-15.9,3.8-31.2,8.5-46.1,15.5C742.4,457.5,742.8,458.2,743.3,458L743.3,458z"/>
			</g>
		</g>
		<path class="st12" d="M708.1,388.5c7.3,23.1,14.7,46.1,22,69.2c3.6,1.2,7.2,2.4,10.8,3.6c34.2-11.3,68.3-22.5,102.5-33.8
			c1.2,1,2.4,2,3.6,3.1c3.9,47.5,7.9,94.9,11.8,142.4c-1.4,0.9-2.7,1.7-4.1,2.6c-34.7,5.3-69.3,10.6-104,15.9
			c-5-1.2-9.9-2.4-14.9-3.6c-4.4-19.5-8.9-38.9-13.3-58.4c-6.5-46.1-13-92.2-19.5-138.3C704.7,390.2,706.4,389.3,708.1,388.5z"/>
		<g>
			<g>
				<path class="st13" d="M728.5,458.3c1.6,43.3,4.7,86.7,7.1,130c0.1,1.4,2.3,1.4,2.3,0c-2.4-43.3-5.5-86.6-7.1-130
					C730.7,456.8,728.4,456.8,728.5,458.3L728.5,458.3z"/>
			</g>
		</g>
		<g>
			<g>
				<path class="st13" d="M738.9,461c1.4,12.3,2,24.6,2,37c0,1.4,2.2,1.4,2.3,0c0-12.4-0.6-24.7-2-37
					C740.9,459.6,738.7,459.6,738.9,461L738.9,461z"/>
			</g>
		</g>
		<path class="st14" d="M801.1,442.5c0.4,10,0.1,32.4-12.7,56.5c-13.6,25.6-33.5,38.8-42.1,43.8c-0.4-8.2-0.9-16.4-1.3-24.5
			c-3.4,5.7-6.7,11.4-10.1,17.1c0.7,17.8,1.5,35.6,2.2,53.5c4.8,1,9.6,2,14.5,3.1c33.7-5.4,67.5-10.8,101.2-16.2
			c1.8-0.7,3.5-1.5,5.3-2.2c-3.8-48.1-7.6-96.1-11.4-144.2C831.5,433.7,816.3,438.1,801.1,442.5z"/>
		<path class="st15" d="M739.4,462c-0.7,0-1.5,18.5-1,38.6c0.6,28.6,3.3,41.1,2.5,68.4c-0.3,8.9-0.8,16.2-1.2,20.9
			c3.7,0.5,7.5,1,11.2,1.5c-0.7-4.9-1.7-12-2.7-20.5C740.3,507.3,740.5,462,739.4,462z"/>
		<g>
			<g>
				<path class="st13" d="M766.3,467.6c23.8-5.6,47.2-12.6,70.2-21c1.8-0.7,1-3.6-0.8-2.9c-23,8.3-46.4,15.3-70.2,21
					C763.7,465.2,764.5,468.1,766.3,467.6L766.3,467.6z"/>
			</g>
		</g>
	</g>
	<g id="fingers_right">
		<path class="st3" d="M712.3,470.6c-1.1,0.4-1,2.4-1.9,11.7c-0.6,6.3-0.8,6.4-0.6,7.9c0.5,4.2,2,5,2.5,9.8c0.3,3.1-0.3,3.5,0.2,6.1
			c0.6,3.2,2,5.6,3.1,7.1c0,1,0.2,2.7,1,4.4c1.6,3.1,5.3,5.8,7.3,4.8c1.1-0.5,1.4-2.6,1.9-6.7c0.5-3.8,0.2-4,0.6-8.4
			c0.4-3.6,0.7-4.3,0.4-6.1c-0.3-2.2-1.1-2.9-1.9-5.2c-1.1-3.2-0.6-4.4-1.3-7.7c-1-5.5-3.6-9.4-5-11.5
			C717.2,474.6,714.2,470,712.3,470.6z"/>
		<g>
			<g>
				<path class="st13" d="M711.6,469.7c-5.4,11.7,0,24.8,12.2,29.1c1.4,0.5,2-1.7,0.6-2.2c-10.8-3.8-15.6-15.4-10.8-25.8
					C714.1,469.5,712.2,468.4,711.6,469.7L711.6,469.7z"/>
			</g>
		</g>
		<g>
			<g>
				<path class="st13" d="M712,471.5c7.2,6.7,11.4,15.5,12,25.3c0.1,1.4,2.3,1.4,2.3,0c-0.6-10.4-5-19.8-12.7-26.9
					C712.5,468.9,710.9,470.5,712,471.5L712,471.5z"/>
			</g>
		</g>
		<g>
			<g>
				<path class="st13" d="M709,483.7c-2.6,11.7,4.3,22.8,16.2,25.3c1.4,0.3,2-1.9,0.6-2.2c-10.6-2.2-17-11.9-14.6-22.6
					C711.5,482.8,709.3,482.2,709,483.7L709,483.7z"/>
			</g>
		</g>
		<g>
			<g>
				<path class="st13" d="M711.2,498.4c-2.1,8.9,3.3,17.4,12.3,19.1c1.4,0.3,2-1.9,0.6-2.2c-7.8-1.4-12.6-8.5-10.8-16.3
					C713.7,497.6,711.6,497,711.2,498.4L711.2,498.4z"/>
			</g>
		</g>
		<g>
			<g>
				<path class="st13" d="M714.1,512.7c-0.4,4.3,2.1,8.6,6.1,10.2c1.7,0.7,3.9,0.8,5.2-0.7c1.4-1.6,0.8-4,0-5.7
					c-0.5-1.3-2.7-0.7-2.2,0.6c0.5,1.1,1.5,3.3-0.1,4c-1.2,0.5-3.1-0.7-4-1.4c-2.1-1.7-3.1-4.3-2.8-7
					C716.5,511.2,714.2,511.3,714.1,512.7L714.1,512.7z"/>
			</g>
		</g>
		<g>
			<g>
				<path class="st13" d="M724.4,517.4c2.2,0,3.1-2.2,3.4-4.1c0.4-2.3,0-4.7-1.2-6.7c-0.7-1.3-2.7-0.1-1.9,1.1
					c0.7,1.2,1.1,2.5,1.1,3.8c0,0.7-0.2,3.6-1.4,3.6C723,515.1,723,517.4,724.4,517.4L724.4,517.4z"/>
			</g>
		</g>
		<g>
			<g>
				<path class="st13" d="M727.2,508.2c1.4-1.3,1.4-3.8,1.1-5.6c-0.3-2.3-1.3-4.3-2.9-6c-1-1.1-2.6,0.5-1.6,1.6c1,1.1,1.8,2.4,2.1,4
					c0.2,1.1,0.5,3.5-0.4,4.4C724.5,507.6,726.1,509.2,727.2,508.2L727.2,508.2z"/>
			</g>
		</g>
	</g>
	<g id="leg_left">
		<path class="st2" d="M831.3,830.3c3.7,22.4,7.3,44.9,11,67.3c-41.1,29.2-60.2,46.4-57.3,51.8c3.4,6.3,37-3.8,100.8-30.3
			c-2.3-36.6-4.6-73.1-7-109.7C863,816.4,847.1,823.3,831.3,830.3z"/>
		<path class="st6" d="M1011.1,559.7c1.6,13.3,2.2,34.6-5.7,58.6c-3.4,10.2-9.1,26.9-24.1,42.6c-9.6,10-26.4,27.6-50.9,26.9
			c-19.8-0.6-33.8-12.7-38.9-17.6c-1.5,18.8-2.3,39.2-1.9,61.1c0.6,33.7,3.9,64.2,8.3,90.8c-12,22.2-35,35.9-59.3,35.2
			c-31.2-0.9-48.9-25-50.9-27.8c-7.2-67.7-7.8-124-6.5-165.8c1.1-34.1,3.5-62.3,24.1-85.2c20.1-22.4,46.7-27.5,53.7-28.7
			c51.2-9.1,89.9,27,94.5,31.5c7.4,0.5,21.9,0.3,37.5-7.2C1000.2,569.6,1006.8,564,1011.1,559.7z"/>
		<g>
			<g>
				<path class="st0" d="M893.1,641.1c-2.8,12.5-4.3,25.2-4.6,38c0,1.9,3,1.9,3,0c0.3-12.6,1.7-25,4.4-37.2
					C896.4,640,893.5,639.2,893.1,641.1L893.1,641.1z"/>
			</g>
		</g>
		<g>
			<g>
				<path class="st0" d="M893.8,657.1c1.4-3.1,2.7-6.2,4.1-9.4c0.8-1.8-1.8-3.3-2.6-1.5c-1.4,3.1-2.7,6.2-4.1,9.4
					C890.4,657.3,893,658.8,893.8,657.1L893.8,657.1z"/>
			</g>
		</g>
		<g>
			<g>
				<path class="st0" d="M949.8,579.8c6.7,6.4,11.3,15.6,16.3,23.4c1,1.6,3.6,0.1,2.6-1.5c-5.2-8-9.9-17.3-16.8-24
					C950.5,576.3,948.4,578.4,949.8,579.8L949.8,579.8z"/>
			</g>
		</g>
		<path class="st7" d="M979.2,577.7c0.2,4.8,0.2,11.4-0.6,19.3c-1.9,18.5-3.5,34.2-13.7,41c-11.9,8-30,0.4-36.7-2.5
			c-23.2-9.8-25.9-26.2-39.2-27.4c-15.7-1.4-32,19.6-39.8,36.1c-19.3,40.5,2.6,72.2,5,144.9c0.9,29.2-1.7,52.8-3.7,67.2
			c5.2-0.6,12-2.1,19.3-5.6c16.9-8.1,25.4-22,28.6-28c-0.7-5.5-1.7-14-3.1-24.3c-3.4-25.1-4.5-27.8-5.6-38.6c-0.5-4.9-0.9-10.4,0-46
			c0.3-10.5,0.6-25,1.2-42.3c2.7,1.9,6.4,4.3,11.2,6.8c3.3,1.7,14.9,7.8,25.5,9.3c16.9,2.4,31.3-7.1,38.6-11.8
			c19.9-13.1,28.5-31.5,34.2-44.2c12.7-28.1,13.1-54.5,11.8-70.9c-3.5,3.8-10,9.9-19.9,13.7C987.3,576.4,982.8,577.3,979.2,577.7z"
			/>
		<path class="st16" d="M1008.4,581.4c-2.3-0.8-9.2,12.7-10,14.3c-6.5,12.9-6.3,21.2-8.7,29.2c-4.7,16-19.9,32.1-35.4,36.1
			c-26.1,6.7-48-22.2-59.7-13.1c-5.5,4.3-5.2,14.1-3.1,19.9c6,16.7,33.2,17.9,36.7,18c23.7,0.8,41.1-13.9,46.6-18.7
			C1010,636.7,1012.6,582.9,1008.4,581.4z"/>
		<path class="st16" d="M893.3,646.7c-1.7-0.3-7,16.5-10.6,33c-7.3,33.6-6.4,59.5-6.2,72.1c0.3,23.4-1.7,56.9-11.8,99.5
			c4.1-1,10.4-3.2,16.8-8.1c9.8-7.5,14-16.9,15.5-21.1c-2-21.9-3.4-40.5-4.4-54.7c-2.4-34.3-3.6-51.8-3.1-67.8
			C890.6,667.7,895.2,647.1,893.3,646.7z"/>
	</g>
	<g id="hand_left">
		<path class="st6" d="M848.3,483.1c0.9-2.6,6.9-2.6,8.5-2.6c7,0,12.6,4.6,14.4,8.5c0.5,1.1,0.6,2,0.6,2.5c0.2,2.7-1.4,5.4-2.8,6.3
			C863.8,501.1,846.5,488.2,848.3,483.1z"/>
		<path class="st6" d="M1030.7,329.1c15.9,9.8,14,37.5,11.6,72.2c-2.7,38.3-11.9,65.2-15.4,75c-6.2,16.9-13.1,30.6-18.8,40.4
			c-20.6,8.8-53.4,19.2-94,17.4c-14.7-0.7-27.8-2.8-39.1-5.5c-13.5,9.3-24.4,9.2-29.1,8.7c-7.3-0.7-16.9-4-16.8-7.2
			c0-2.2,4.7-4,6.8-4.8c5.1-2,9.6-1.8,9.6-2c0-0.2-3.7,0-7.6-0.4c-2.6-0.3-7.7-0.7-12.1-3c-1.6-0.8-9.5-4.7-11-12.3
			c-1.4-6.9,2.8-14.7,10.5-19.3c7.1-1.9,19.6-4.2,34.7-1.5c11.2,2,19.8,6,25.5,9.1c26.9-6.6,53.8-13.3,80.6-19.9
			c0.5-5.6,1.4-13.8,2.5-23.9c3.5-31.9,5.2-47.9,7.9-61.4c6.6-33.2,10.9-54.9,27.7-62.5C1011.7,324.9,1022.6,324.1,1030.7,329.1z"/>
		<path class="st8" d="M1015,326.8c3.3,20.5,6.3,50.8,3.6,87.2c-3,40.1-4.7,60.1-18.9,76.7c-21.3,24.9-67.2,37.4-102.9,27.3
			c-13.8-3.9-33.7-12.8-58.1-7.8c-7,1.4-17.7,4.7-17.5,7.3c0.2,2,7.4,4,12.5,4.6c3.9,0.4,6.4,0.1,6.6,0.9c0.6,1.9-10.7,5.1-10.4,8.4
			c0.2,2.8,9.1,5,16.4,5.2c5.6,0.2,15.5-0.5,27.5-7.4c10.6,2.5,22.7,4.6,36,5.4c42.5,2.6,77.3-8.5,99-17.9c4.4-7.9,10-19,15.4-32.8
			c16.7-42.4,18.6-77.7,18.9-87.3c0.6-14.4,0.1-34.6-4.6-58.5c-0.7-1.5-3.7-7.2-10.6-10.2C1022.1,325.4,1016.8,326.4,1015,326.8z"/>
		<path class="st17" d="M988.3,517.2c-15.5,2.4-24.5,4.9-31.5,6.3c-28.4,6-51.4,3.3-59.5,2.3c-8.3-0.9-15.1-2.3-19.8-3.3
			c-5.7,2.3-14.2,5.2-24.8,6.4c-13.6,1.5-23.3-0.5-23.6,1.2c-0.3,1.6,8,5.8,16.8,6.8c13.4,1.5,24.3-5,29.2-8.4
			c6.2,1.7,15.1,3.9,26,5.2c57.9,7.1,108.8-16.9,108.2-19.1C1009.2,513.9,1002.2,515,988.3,517.2z"/>
		<g>
			<g>
				<path class="st0" d="M820.8,517.4c9.4-4,19.6-4.8,29.5-2.5c1.9,0.4,2.7-2.5,0.8-2.9c-10.8-2.5-21.6-1.6-31.8,2.8
					C817.5,515.6,819.1,518.2,820.8,517.4L820.8,517.4z"/>
			</g>
		</g>
		<g>
			<g>
				<path class="st0" d="M815.5,507.8c11.1-4,22.7-5.3,34.4-3.8c1.9,0.2,1.9-2.8,0-3c-11.9-1.5-23.9-0.2-35.2,3.9
					C812.9,505.6,813.7,508.5,815.5,507.8L815.5,507.8z"/>
			</g>
		</g>
		<g>
			<g>
				<path class="st0" d="M818.3,497.6c11-3.2,22.2-4.4,33.6-3.6c1.9,0.1,1.9-2.9,0-3c-11.6-0.8-23.2,0.5-34.4,3.7
					C815.6,495.2,816.4,498.1,818.3,497.6L818.3,497.6z"/>
			</g>
		</g>
	</g>
	<g id="head">
		<path class="st6" d="M871.2,169.2c-27.9,22.6-26.8,68.6-15.8,98.3c6.9,18.8,18.1,31.7,25.3,38.8c1.8,7.6,3.5,15.3,5.3,22.9
			c8.8,1.9,20.4,3.4,33.9,2.2c30.4-2.8,51.8-17.6,61.3-25.3c-6.7-16.6-13.4-33.2-20.1-49.9c-0.9-6.1-2.2-15.5-3.8-26.9
			c-4.1-29.9-3.9-31.5-5.7-36.3c-0.8-2-12.1-30.6-38.6-35.7C891.5,153.2,873.8,167,871.2,169.2z"/>
		<path class="st2" d="M848.2,245.7c-1.6,6.3-3.3,16.1-2.1,28c0.8,7.9,2.1,21.6,12,34.8c10.7,14.3,25.2,19.7,31.3,21.7
			c-0.5-1.6-1-3.6-1.3-5.9c-0.3-2.5-0.2-4.7,0-6.4c6.6,3.5,13.2,7.1,19.7,10.6c16.6-15.2,22.1-29,24-39.1c1.5-7.9,2.4-22.4,6-48.8
			c0.6-4.7,1.9-13.2,7.3-15.3c2.5-1,5.9-0.6,8.2,1.3c6.6,5.5-0.1,21.2,1.3,21.7c1.4,0.4,12.9-15.4,9-33.6c-2-9.4-7.5-15.9-10.7-19.1
			c-7.2,11.3-15.2,22.9-24,34.8c-5.6,7.6-11.2,14.8-16.7,21.7c-2.1,1.1-5.2,2.4-8.8,2.1c-2.8-0.2-3.8-1.2-5.9-1.8
			c-7.8-2.2-12,6.9-19.6,5.7c-6.3-1-6.9-7.7-13.8-7.9c-3.3-0.1-4.7,1.4-8.1,0.7C852.4,250.1,849.9,247.7,848.2,245.7z"/>
		<g>
			<g>
				<path class="st0" d="M880.4,219c-2.4,10.9-3.9,21.9-4.5,33c-0.1,1.2,1.3,1.8,2.3,1.3c3.9-2,7.8-4,11.8-6
					c1.7-0.9,0.2-3.5-1.5-2.6c-3.9,2-7.8,4-11.8,6c0.8,0.4,1.5,0.9,2.3,1.3c0.7-10.9,2.1-21.6,4.4-32.2
					C883.7,217.9,880.8,217.1,880.4,219L880.4,219z"/>
			</g>
		</g>
		<path class="st2" d="M864.7,225.1c1.1,1.7,1.3,4.3,0.4,4.8c-1.1,0.6-4.2-1.7-4.6-4.3c-0.1-0.8,0-2.2,0.7-2.6
			C862.2,222.5,863.9,223.8,864.7,225.1z"/>
		<g>
			<g>
				<path class="st0" d="M859.5,214.8c3.5-1.8,7.7-1.5,10.9,1c1.5,1.2,3.6-0.9,2.1-2.1c-4.2-3.4-9.7-4-14.5-1.5
					C856.3,213.1,857.8,215.7,859.5,214.8L859.5,214.8z"/>
			</g>
		</g>
		<g>
			<g>
				<path class="st0" d="M894.4,216.3c5-3.3,11.8-2.2,15.2,2.8c1.1,1.6,3.7,0.1,2.6-1.5c-4.3-6.2-12.9-8.1-19.3-3.9
					C891.3,214.8,892.8,217.4,894.4,216.3L894.4,216.3z"/>
			</g>
		</g>
		<g>
			<g>
				<path class="st0" d="M826.2,197.2c39.9,2.3,79.8,5.7,119.5,10c5.8,0.6,5.7-8.4,0-9c-39.7-4.3-79.6-7.7-119.5-10
					C820.4,187.9,820.4,196.9,826.2,197.2L826.2,197.2z"/>
			</g>
		</g>
		<path class="st4" d="M852.1,191.1c0.6-6.1,3.1-21.8,15.3-34.5c15.9-16.6,45.2-23.6,68-9.5c17.9,11.1,27.4,32.5,24.2,54.3
			C923.7,198,887.9,194.5,852.1,191.1z"/>
		<path class="st18" d="M902.5,142.7c-4.7,3.9-4.7,12-3,20.7c1.8,9.5,6.4,21.1,13.4,32.9c15.5,1.8,31.1,3.6,46.6,5.4
			c0.7-3.3,1.3-8.2,0.7-14.1c0,0-1-10.7-6.7-20.4C942.1,148,912.3,134.5,902.5,142.7z"/>
		<path class="st19" d="M951.2,253c-3.5,1.9-7,1.4-8.2,1.2c1.5,2.9,4.6,9.1,6.8,17.8c2,8.2,4.9,19.4,1.1,32.3
			c-3.4,11.5-10.6,19.1-15.5,23.3c6-1.1,13.9-3.2,22.6-7.5c10.1-5,17.3-11,22-15.6c-7.4-20.9-14.7-41.8-22.1-62.7
			C957.9,242.2,957.5,249.7,951.2,253z"/>
		<path class="st20" d="M916.2,203.8c1.1,4.8,2.1,12,0.9,20.5c-2,14.3-8.9,24.2-12.6,28.7c2.2-0.7,4.4-1.4,6.6-2.1
			c4.4-5.3,8.8-10.9,13.2-16.7c7.2-9.5,13.9-18.8,19.9-27.9C934.9,205.6,925.5,204.7,916.2,203.8z"/>
		<path class="st2" d="M902.6,226c1.1,1.7,1.3,4.3,0.4,4.8c-1.1,0.6-4.2-1.7-4.6-4.3c-0.1-0.8,0-2.2,0.7-2.6
			C900.1,223.4,901.7,224.7,902.6,226z"/>
		<ellipse class="st21" cx="858.8" cy="232.9" rx="18.1" ry="18.1"/>
		<ellipse class="st21" cx="900.9" cy="232.9" rx="18.1" ry="18.1"/>
		<g>
			<g>
				<path class="st0" d="M879,233.5c0.4-0.5,1.2-0.7,1.7-0.3c0.6,0.5,1.5,0.6,2.1,0c0.5-0.5,0.6-1.6,0-2.1c-1.7-1.5-4.4-1.5-5.9,0.3
					c-0.5,0.6-0.6,1.5,0,2.1C877.4,234.1,878.5,234.1,879,233.5L879,233.5z"/>
			</g>
		</g>
		<g>
			<g>
				<path class="st0" d="M842.2,234.1c1.9-1,3.8-2.1,5.6-3.3c1.6-1,0.1-3.6-1.5-2.6c-1.8,1.2-3.7,2.3-5.6,3.3
					C838.9,232.4,840.5,235,842.2,234.1L842.2,234.1z"/>
			</g>
		</g>
		<g>
			<g>
				<path class="st0" d="M920.1,233.8c8.3-2.1,16.7-4.1,25-6.2c1.9-0.5,1.1-3.4-0.8-2.9c-8.3,2.1-16.7,4.1-25,6.2
					C917.4,231.4,918.2,234.3,920.1,233.8L920.1,233.8z"/>
			</g>
		</g>
	</g>
</g>
</svg>
